<?xml version="1.0" encoding="UTF-8" standalone="no"?>
<!DOCTYPE svg PUBLIC "-//W3C//DTD SVG 1.1//EN" "http://www.w3.org/Graphics/SVG/1.1/DTD/svg11.dtd">
<!-- Generated by Microsoft Visio, SVG Export dataset_variables2.svg dataset_variables -->
<svg xmlns="http://www.w3.org/2000/svg" xmlns:xlink="http://www.w3.org/1999/xlink" xmlns:ev="http://www.w3.org/2001/xml-events"
		xmlns:v="http://schemas.microsoft.com/visio/2003/SVGExtensions/" width="5.5in" height="3.4375in" viewBox="0 0 396 247.5"
		xml:space="preserve" color-interpolation-filters="sRGB" class="st12">
	<v:documentProperties v:langID="1033" v:viewMarkup="false"/>

	<style type="text/css">
	<![CDATA[
		.st1 {fill:#c7e8ac;stroke:#000000;stroke-linecap:butt;stroke-width:1.5}
		.st2 {fill:#000000;stroke:none;stroke-linecap:butt;stroke-width:0.0375}
		.st3 {fill:#000000}
		.st4 {stroke:none;stroke-linecap:butt;stroke-width:0.0375}
		.st5 {fill:none}
		.st6 {stroke:#000000;stroke-linecap:butt;stroke-width:1.5}
		.st7 {fill:#000000;stroke:none;stroke-linecap:butt;stroke-width:0.75}
		.st8 {fill:#b2d6ef;stroke:#000000;stroke-linecap:butt;stroke-width:1.5}
		.st9 {fill:none;stroke:none;stroke-linecap:butt;stroke-width:0.75}
		.st10 {fill:#000000;font-family:Calibri;font-size:1.16666em}
		.st11 {font-size:1em}
		.st12 {fill:none;fill-rule:evenodd;font-size:12px;overflow:visible;stroke-linecap:square;stroke-miterlimit:3}
	]]>
	</style>

	<g v:mID="0" v:index="1" v:groupContext="foregroundPage">
		<title>dataset_variables</title>
		<v:pageProperties v:drawingScale="1" v:pageScale="1" v:drawingUnits="19" v:shadowOffsetX="9" v:shadowOffsetY="-9"/>
		<g id="group1-1" transform="translate(15,-15)" v:mID="1" v:groupContext="group">
			<title>Sheet.1</title>
			<g id="shape2-2" v:mID="2" v:groupContext="shape" transform="translate(1.80655E-12,-142.5)">
				<title>Sheet.2</title>
				<rect x="0" y="172.5" width="111" height="75" class="st1"/>
			</g>
			<g id="group3-4" transform="translate(33.3938,-176.362)" v:mID="3" v:groupContext="group">
				<title>a</title>
				<g id="shape4-5" v:mID="4" v:groupContext="shape" transform="translate(-6.64468E-14,-0.9375)">
					<title>j</title>
					<path d="M0 238.2 C4.42 237.94 8.1 238.5 7.99 242.77 C7.87 245.7 6.37 247.5 3.45 247.5 L0 247.5 L0 238.2 ZM1.24
								 246.49 C4.57 246.79 6.71 245.89 6.71 242.77 C6.71 239.66 4.46 238.99 1.24 239.21 L1.24 246.49 Z"
							class="st2"/>
				</g>
				<g id="shape5-7" v:mID="5" v:groupContext="shape" transform="translate(9.1125,-0.6375)">
					<title>k</title>
					<path d="M4.76 245.85 C4.2 246.64 3.6 247.39 2.21 247.35 C0.86 247.31 0.04 246.56 0.04 245.21 C0 242.81 2.4 242.85
								 4.72 242.85 C4.84 241.54 4.39 240.82 3.19 240.82 C2.29 240.86 1.65 241.09 1.61 241.99 L0.37 241.87
								 C0.56 240.49 1.61 239.92 3.22 239.92 C4.91 239.92 5.92 240.67 5.92 242.32 L5.92 245.4 C5.89 246.15
								 6.19 246.6 6.97 246.41 L6.97 247.16 C5.81 247.5 4.69 247.09 4.76 245.85 ZM1.27 245.21 C1.27 245.96
								 1.72 246.45 2.47 246.45 C4.01 246.34 4.84 245.36 4.72 243.67 C3.11 243.75 1.27 243.49 1.27 245.21
								 Z" class="st2"/>
				</g>
				<g id="shape6-9" v:mID="6" v:groupContext="shape" transform="translate(16.275,-0.6)">
					<title>l</title>
					<path d="M2.02 245.4 C1.95 246.3 2.7 246.49 3.45 246.22 L3.45 247.12 C2.21 247.5 0.82 247.31 0.82 245.66 L0.82
								 240.9 L0 240.9 L0 240.04 L0.9 240.04 L1.24 238.42 L2.02 238.42 L2.02 240.04 L3.34 240.04 L3.34 240.9
								 L2.02 240.9 L2.02 245.4 Z" class="st2"/>
				</g>
				<g id="shape7-11" v:mID="7" v:groupContext="shape" transform="translate(20.3625,-0.6375)">
					<title>Sheet.7</title>
					<path d="M4.76 245.85 C4.2 246.64 3.6 247.39 2.21 247.35 C0.86 247.31 0.04 246.56 0.04 245.21 C0 242.81 2.4 242.85
								 4.72 242.85 C4.84 241.54 4.39 240.82 3.19 240.82 C2.29 240.86 1.65 241.09 1.61 241.99 L0.37 241.87
								 C0.56 240.49 1.61 239.92 3.22 239.92 C4.91 239.92 5.92 240.67 5.92 242.32 L5.92 245.4 C5.89 246.15
								 6.19 246.6 6.97 246.41 L6.97 247.16 C5.81 247.5 4.69 247.09 4.76 245.85 ZM1.27 245.21 C1.27 245.96
								 1.72 246.45 2.47 246.45 C4.01 246.34 4.84 245.36 4.72 243.67 C3.11 243.75 1.27 243.49 1.27 245.21
								 Z" class="st2"/>
				</g>
				<g id="shape8-13" v:mID="8" v:groupContext="shape" transform="translate(27.7125,2.84217E-14)">
					<title>m</title>
					<path d="M4.69 241.2 C4.57 239.92 1.46 239.77 1.42 241.2 C1.99 243.19 5.74 241.65 5.89 244.57 C6.04 247.5 0.26
								 247.35 0 244.87 L1.05 244.69 C1.2 246.04 4.69 246.37 4.72 244.69 C4.35 242.59 0.49 244.12 0.3 241.31
								 C0.15 239.17 3.37 238.95 4.87 239.74 C5.32 240 5.66 240.45 5.77 241.05 L4.69 241.2 Z" class="st3"/>
					<path d="M4.69 241.2 C4.57 239.92 1.46 239.77 1.42 241.2 C1.99 243.19 5.74 241.65 5.89 244.57 C6.04 247.5 0.26
								 247.35 0 244.87 L1.05 244.69 C1.2 246.04 4.69 246.37 4.72 244.69 C4.35 242.59 0.49 244.12 0.3 241.31
								 C0.15 239.17 3.37 238.95 4.87 239.74 C5.32 240 5.66 240.45 5.77 241.05" class="st4"/>
				</g>
				<g id="shape9-16" v:mID="9" v:groupContext="shape" transform="translate(34.6125,-0.7875)">
					<title>n</title>
					<path d="M3.22 240.07 C5.59 240.07 6.45 241.65 6.37 244.05 L1.31 244.05 C1.31 245.55 1.84 246.56 3.3 246.6 C4.27
								 246.64 4.91 246.15 5.14 245.51 L6.19 245.81 C5.77 246.86 4.8 247.5 3.3 247.5 C1.12 247.5 0 246.11
								 0.04 243.75 C0.07 241.46 1.01 240.07 3.22 240.07 ZM5.17 243.11 C5.4 240.86 2.32 240.22 1.54 242.06
								 C1.42 242.32 1.31 242.7 1.31 243.11 L5.17 243.11 Z" class="st2"/>
				</g>
				<g id="shape10-18" v:mID="10" v:groupContext="shape" transform="translate(41.775,-0.6)">
					<title>Sheet.10</title>
					<path d="M2.02 245.4 C1.95 246.3 2.7 246.49 3.45 246.22 L3.45 247.12 C2.21 247.5 0.82 247.31 0.82 245.66 L0.82
								 240.9 L0 240.9 L0 240.04 L0.9 240.04 L1.24 238.42 L2.02 238.42 L2.02 240.04 L3.34 240.04 L3.34 240.9
								 L2.02 240.9 L2.02 245.4 Z" class="st2"/>
				</g>
			</g>
			<g id="shape11-20" v:mID="11" v:groupContext="shape" transform="translate(255,-142.5)">
				<title>Sheet.11</title>
				<rect x="0" y="172.5" width="111" height="75" class="st1"/>
			</g>
			<g id="group12-22" transform="translate(269.437,-174.225)" v:mID="12" v:groupContext="group">
				<title>b</title>
				<g id="shape13-23" v:mID="13" v:groupContext="shape" transform="translate(-1.09412E-13,-3.075)">
					<title>o</title>
					<path d="M0 238.2 C3.26 238.24 7.16 237.64 7.16 241.01 C7.16 243.94 4.27 244.01 1.24 243.86 L1.24 247.5 L0 247.5
								 L0 238.2 ZM1.24 242.89 C3.37 242.89 5.89 243.3 5.89 241.01 C5.89 238.8 3.34 239.25 1.24 239.21 L1.24
								 242.89 Z" class="st2"/>
				</g>
				<g id="shape14-25" v:mID="14" v:groupContext="shape" transform="translate(8.775,-3.075)">
					<title>p</title>
					<path d="M3.37 241.39 C0.45 240.79 1.39 244.8 1.24 247.5 L0.04 247.5 L0 240.37 L1.12 240.37 C1.16 240.82 1.09
								 241.46 1.2 241.84 C1.42 240.82 2.06 240 3.37 240.3 L3.37 241.39 Z" class="st2"/>
				</g>
				<g id="shape15-27" v:mID="15" v:groupContext="shape" transform="translate(12.9,-2.925)">
					<title>q</title>
					<path d="M3.19 240.07 C5.51 240.04 6.37 241.46 6.37 243.79 C6.41 246.15 5.36 247.5 3.15 247.5 C0.94 247.5 0.04
								 246.04 0 243.79 C0 241.31 1.05 240.07 3.19 240.07 ZM3.15 246.6 C4.8 246.64 5.14 245.44 5.14 243.79
								 C5.14 242.17 4.84 240.97 3.22 240.97 C1.61 240.97 1.24 242.17 1.24 243.79 C1.24 245.4 1.61 246.56
								 3.15 246.6 Z" class="st2"/>
				</g>
				<g id="shape16-29" v:mID="16" v:groupContext="shape" transform="translate(20.7,-0.2625)">
					<title>r</title>
					<path d="M3.45 237.41 C5.51 237.45 6.07 238.95 6.07 241.09 C6.07 243.22 5.47 244.76 3.45 244.84 C2.29 244.84
								 1.61 244.35 1.2 243.56 L1.24 247.5 L0.04 247.5 L0 237.56 L1.16 237.56 L1.24 238.69 C1.61 237.9 2.29
								 237.41 3.45 237.41 ZM3.15 243.94 C4.65 243.94 4.84 242.66 4.84 241.12 C4.84 239.59 4.61 238.39 3.15
								 238.35 C1.57 238.35 1.24 239.55 1.24 241.2 C1.24 242.81 1.61 243.94 3.15 243.94 Z" class="st2"/>
				</g>
				<g id="shape17-31" v:mID="17" v:groupContext="shape" transform="translate(27.8625,-2.925)">
					<title>n</title>
					<path d="M3.22 240.07 C5.59 240.07 6.45 241.65 6.37 244.05 L1.31 244.05 C1.31 245.55 1.84 246.56 3.3 246.6 C4.27
								 246.64 4.91 246.15 5.14 245.51 L6.19 245.81 C5.77 246.86 4.8 247.5 3.3 247.5 C1.12 247.5 0 246.11
								 0.04 243.75 C0.07 241.46 1.01 240.07 3.22 240.07 ZM5.17 243.11 C5.4 240.86 2.32 240.22 1.54 242.06
								 C1.42 242.32 1.31 242.7 1.31 243.11 L5.17 243.11 Z" class="st2"/>
				</g>
				<g id="shape18-33" v:mID="18" v:groupContext="shape" transform="translate(35.7375,-3.075)">
					<title>Sheet.18</title>
					<path d="M3.37 241.39 C0.45 240.79 1.39 244.8 1.24 247.5 L0.04 247.5 L0 240.37 L1.12 240.37 C1.16 240.82 1.09
								 241.46 1.2 241.84 C1.42 240.82 2.06 240 3.37 240.3 L3.37 241.39 Z" class="st2"/>
				</g>
				<g id="shape19-35" v:mID="19" v:groupContext="shape" transform="translate(39.4875,-2.7375)">
					<title>l</title>
					<path d="M2.02 245.4 C1.95 246.3 2.7 246.49 3.45 246.22 L3.45 247.12 C2.21 247.5 0.82 247.31 0.82 245.66 L0.82
								 240.9 L0 240.9 L0 240.04 L0.9 240.04 L1.24 238.42 L2.02 238.42 L2.02 240.04 L3.34 240.04 L3.34 240.9
								 L2.02 240.9 L2.02 245.4 Z" class="st2"/>
				</g>
				<g id="shape20-37" v:mID="20" v:groupContext="shape" transform="translate(43.0875,-5.68434E-14)">
					<title>s</title>
					<path d="M6.67 237.3 L3.45 245.59 C2.92 246.64 2.06 247.5 0.41 247.16 L0.41 246.26 C1.87 246.49 2.4 245.51 2.81
								 244.39 L0 237.3 L1.27 237.3 L3.41 243.15 L5.44 237.3 L6.67 237.3 Z" class="st2"/>
				</g>
				<g id="shape21-39" v:mID="21" v:groupContext="shape" transform="translate(49.875,-3.075)">
					<title>t</title>
					<path d="M5.06 247.5 L3.79 247.5 L0 238.2 L1.31 238.2 L4.43 246.37 L7.54 238.2 L8.89 238.2 L5.06 247.5 Z"
							class="st3"/>
					<path d="M5.06 247.5 L3.79 247.5 L0 238.2 L1.31 238.2 L4.43 246.37 L7.54 238.2 L8.89 238.2" class="st4"/>
				</g>
				<g id="shape22-42" v:mID="22" v:groupContext="shape" transform="translate(58.3125,-2.775)">
					<title>k</title>
					<path d="M4.76 245.85 C4.2 246.64 3.6 247.39 2.21 247.35 C0.86 247.31 0.04 246.56 0.04 245.21 C0 242.81 2.4 242.85
								 4.72 242.85 C4.84 241.54 4.39 240.82 3.19 240.82 C2.29 240.86 1.65 241.09 1.61 241.99 L0.37 241.87
								 C0.56 240.49 1.61 239.92 3.22 239.92 C4.91 239.92 5.92 240.67 5.92 242.32 L5.92 245.4 C5.89 246.15
								 6.19 246.6 6.97 246.41 L6.97 247.16 C5.81 247.5 4.69 247.09 4.76 245.85 ZM1.27 245.21 C1.27 245.96
								 1.72 246.45 2.47 246.45 C4.01 246.34 4.84 245.36 4.72 243.67 C3.11 243.75 1.27 243.49 1.27 245.21
								 Z" class="st2"/>
				</g>
				<g id="shape23-44" v:mID="23" v:groupContext="shape" transform="translate(66.1875,-3.075)">
					<title>u</title>
					<rect x="0" y="237.713" width="1.2" height="9.7875" class="st2"/>
				</g>
				<g id="shape24-46" v:mID="24" v:groupContext="shape" transform="translate(68.0625,-2.775)">
					<title>v</title>
					<path d="M3.34 247.35 C0 247.5 1.31 243 1.05 240.07 L2.25 240.07 L2.25 244.57 C2.25 245.74 2.51 246.45 3.71 246.41
								 C6.41 246.34 5.4 242.62 5.59 240.07 L6.75 240.07 L6.79 247.2 L5.66 247.2 C5.62 246.82 5.7 246.26
								 5.59 245.96 C5.17 246.79 4.54 247.31 3.34 247.35 Z" class="st2"/>
				</g>
				<g id="shape25-48" v:mID="25" v:groupContext="shape" transform="translate(76.275,-2.925)">
					<title>Sheet.25</title>
					<path d="M3.22 240.07 C5.59 240.07 6.45 241.65 6.37 244.05 L1.31 244.05 C1.31 245.55 1.84 246.56 3.3 246.6 C4.27
								 246.64 4.91 246.15 5.14 245.51 L6.19 245.81 C5.77 246.86 4.8 247.5 3.3 247.5 C1.12 247.5 0 246.11
								 0.04 243.75 C0.07 241.46 1.01 240.07 3.22 240.07 ZM5.17 243.11 C5.4 240.86 2.32 240.22 1.54 242.06
								 C1.42 242.32 1.31 242.7 1.31 243.11 L5.17 243.11 Z" class="st2"/>
				</g>
			</g>
			<g id="shape26-50" v:mID="26" v:groupContext="shape" transform="translate(111.75,-180)">
				<title>Sheet.26</title>
				<path d="M0 247.5 L128.82 247.5 L0 247.5 Z" class="st5"/>
				<path d="M0 247.5 L128.82 247.5" class="st6"/>
			</g>
			<g id="shape27-53" v:mID="27" v:groupContext="shape" transform="translate(111,-176.52)">
				<title>Sheet.27</title>
				<path d="M0.75 244.77 L0 244.77 L0 243.27 L0.75 243.27 L0.75 244.77 ZM140.82 244.02 L130.13 247.5 L130.13 240.54
							 L140.82 244.02 Z" class="st7"/>
			</g>
			<g id="shape28-55" v:mID="28" v:groupContext="shape" transform="translate(240.375,-175.5)">
				<title>Sheet.28</title>
				<path d="M13.88 243 L0 247.5 L0 238.5 L13.88 243 ZM1.5 245.44 L9.02 243 L1.5 240.55 L1.5 245.44 Z" class="st7"/>
			</g>
			<g id="group29-57" transform="translate(130.219,-187.425)" v:mID="29" v:groupContext="group">
				<title>c</title>
				<g id="shape30-58" v:mID="30" v:groupContext="shape" transform="translate(-4.4964E-15,-0.975)">
					<title>w</title>
					<path d="M2.59 247.5 L1.2 247.5 L0 240.38 L1.24 240.38 L2.02 246.56 L5.36 240.38 L6.64 240.38 L2.59 247.5 Z"
							class="st3"/>
					<path d="M2.59 247.5 L1.2 247.5 L0 240.38 L1.24 240.38 L2.02 246.56 L5.36 240.38 L6.64 240.38" class="st4"/>
				</g>
				<g id="shape31-61" v:mID="31" v:groupContext="shape" transform="translate(6.3,-0.7125)">
					<title>x</title>
					<path d="M5.89 245.44 C5.74 246.11 5.92 246.71 6.75 246.45 L6.64 247.2 C5.55 247.5 4.31 247.2 4.69 245.89 L4.61
								 245.89 C4.05 246.71 3.41 247.39 2.06 247.39 C0.82 247.39 0 246.64 0 245.4 C0 242.85 2.66 242.89
								 5.17 242.89 C5.55 241.91 5.17 240.79 4.01 240.86 C3.04 240.9 2.44 241.2 2.25 242.03 L1.05 241.84
								 C1.35 239.33 7.05 239.18 6.45 242.4 C6.26 243.45 6.11 244.43 5.89 245.44 ZM1.27 245.36 C1.39 247.31
								 4.27 246.26 4.61 245.14 C4.87 244.69 4.87 244.24 5.02 243.71 C3.26 243.75 1.16 243.56 1.27 245.36
								 Z" class="st2"/>
				</g>
				<g id="shape32-63" v:mID="32" v:groupContext="shape" transform="translate(13.725,-0.975)">
					<title>y</title>
					<path d="M2.25 241.84 C2.7 240.9 3.37 239.93 4.72 240.34 L4.5 241.31 C1.46 240.9 1.95 245.06 1.2 247.5 L0 247.5
								 L1.35 240.38 L2.47 240.38 L2.25 241.84 Z" class="st3"/>
					<path d="M2.25 241.84 C2.7 240.9 3.37 239.93 4.72 240.34 L4.5 241.31 C1.46 240.9 1.95 245.06 1.2 247.5 L0 247.5
								 L1.35 240.38 L2.47 240.38" class="st4"/>
				</g>
				<g id="shape33-66" v:mID="33" v:groupContext="shape" transform="translate(18.1875,-0.975)">
					<title>z</title>
					<path d="M1.65 238.84 L1.87 237.71 L3.07 237.71 L2.85 238.84 L1.65 238.84 ZM0 247.5 L1.39 240.38 L2.55 240.38
								 L1.16 247.5 L0 247.5 Z" class="st2"/>
				</g>
				<g id="shape34-68" v:mID="34" v:groupContext="shape" transform="translate(21.225,-0.7125)">
					<title>Sheet.34</title>
					<path d="M5.89 245.44 C5.74 246.11 5.92 246.71 6.75 246.45 L6.64 247.2 C5.55 247.5 4.31 247.2 4.69 245.89 L4.61
								 245.89 C4.05 246.71 3.41 247.39 2.06 247.39 C0.82 247.39 0 246.64 0 245.4 C0 242.85 2.66 242.89
								 5.17 242.89 C5.55 241.91 5.17 240.79 4.01 240.86 C3.04 240.9 2.44 241.2 2.25 242.03 L1.05 241.84
								 C1.35 239.33 7.05 239.18 6.45 242.4 C6.26 243.45 6.11 244.43 5.89 245.44 ZM1.27 245.36 C1.39 247.31
								 4.27 246.26 4.61 245.14 C4.87 244.69 4.87 244.24 5.02 243.71 C3.26 243.75 1.16 243.56 1.27 245.36
								 Z" class="st2"/>
				</g>
				<g id="shape35-70" v:mID="35" v:groupContext="shape" transform="translate(28.6125,-0.7875)">
					<title>a</title>
					<path d="M2.36 241.24 C3.3 239.51 7.12 239.63 6.9 242.4 C6.67 245.06 6.15 247.35 3.49 247.46 C2.4 247.5 1.8 246.9
								 1.42 246.15 L1.16 247.31 L0 247.31 L1.95 237.53 L3.11 237.53 L2.36 241.24 ZM5.66 242.59 C5.74 241.58
								 5.32 240.98 4.39 240.98 C2.32 240.98 1.76 242.89 1.76 244.84 C1.76 245.93 2.32 246.52 3.37 246.56
								 C5.32 246.56 5.55 244.39 5.66 242.59 Z" class="st2"/>
				</g>
				<g id="shape36-72" v:mID="36" v:groupContext="shape" transform="translate(36.15,-0.975)">
					<title>b</title>
					<path d="M0 247.5 L1.87 237.71 L3.07 237.71 L1.16 247.5 L0 247.5 Z" class="st2"/>
				</g>
				<g id="shape37-74" v:mID="37" v:groupContext="shape" transform="translate(39.3375,-0.825)">
					<title>c</title>
					<path d="M3.71 240.08 C6.04 239.96 6.94 241.84 6.41 244.05 L1.24 244.05 C0.97 245.48 1.46 246.64 2.92 246.6 C3.94
								 246.56 4.54 246.07 4.91 245.4 L5.81 245.81 C5.25 246.79 4.39 247.5 2.81 247.5 C0.97 247.46 0 246.49
								 0 244.69 C0 242.06 1.2 240.23 3.71 240.08 ZM5.36 243.11 C5.89 240.64 2.7 240.41 1.8 242.06 C1.65
								 242.36 1.5 242.7 1.39 243.11 L5.36 243.11 Z" class="st2"/>
				</g>
				<g id="shape38-76" v:mID="38" v:groupContext="shape" transform="translate(46.8,-0.975)">
					<title>D</title>
					<path d="M7.91 247.5 L9.52 239.4 C9.22 240 8.89 240.68 8.55 241.24 L4.95 247.5 L4.12 247.5 L2.62 239.4 L1.12
								 247.5 L0 247.5 L1.8 238.2 L3.37 238.2 L4.8 246 L9.15 238.2 L10.84 238.2 L9.04 247.5 L7.91 247.5
								 Z" class="st2"/>
				</g>
				<g id="shape39-78" v:mID="39" v:groupContext="shape" transform="translate(58.05,-0.825)">
					<title>Sheet.39</title>
					<path d="M3.71 240.08 C6.04 239.96 6.94 241.84 6.41 244.05 L1.24 244.05 C0.97 245.48 1.46 246.64 2.92 246.6 C3.94
								 246.56 4.54 246.07 4.91 245.4 L5.81 245.81 C5.25 246.79 4.39 247.5 2.81 247.5 C0.97 247.46 0 246.49
								 0 244.69 C0 242.06 1.2 240.23 3.71 240.08 ZM5.36 243.11 C5.89 240.64 2.7 240.41 1.8 242.06 C1.65
								 242.36 1.5 242.7 1.39 243.11 L5.36 243.11 Z" class="st2"/>
				</g>
				<g id="shape40-80" v:mID="40" v:groupContext="shape" transform="translate(65.4,-0.7125)">
					<title>Sheet.40</title>
					<path d="M5.89 245.44 C5.74 246.11 5.92 246.71 6.75 246.45 L6.64 247.2 C5.55 247.5 4.31 247.2 4.69 245.89 L4.61
								 245.89 C4.05 246.71 3.41 247.39 2.06 247.39 C0.82 247.39 0 246.64 0 245.4 C0 242.85 2.66 242.89
								 5.17 242.89 C5.55 241.91 5.17 240.79 4.01 240.86 C3.04 240.9 2.44 241.2 2.25 242.03 L1.05 241.84
								 C1.35 239.33 7.05 239.18 6.45 242.4 C6.26 243.45 6.11 244.43 5.89 245.44 ZM1.27 245.36 C1.39 247.31
								 4.27 246.26 4.61 245.14 C4.87 244.69 4.87 244.24 5.02 243.71 C3.26 243.75 1.16 243.56 1.27 245.36
								 Z" class="st2"/>
				</g>
				<g id="shape41-82" v:mID="41" v:groupContext="shape" transform="translate(72.6375,-0.1125)">
					<title>E</title>
					<path d="M2.02 241.24 C2.51 243.11 5.92 242.14 5.92 244.54 C5.92 247.42 0.52 247.5 0 245.18 L0.97 244.8 C1.2
								 246.3 4.8 246.38 4.8 244.65 C4.31 242.78 0.9 243.79 0.9 241.39 C0.9 238.73 6.26 238.73 6.45 241.09
								 L5.36 241.24 C5.17 239.93 2.17 239.85 2.02 241.24 Z" class="st2"/>
				</g>
				<g id="shape42-84" v:mID="42" v:groupContext="shape" transform="translate(78.375,-0.825)">
					<title>F</title>
					<path d="M3.49 247.46 C0 247.39 2.32 242.7 2.51 240.23 L3.71 240.23 L2.77 245.48 C2.66 246.94 4.76 246.67 5.4
								 245.92 C6.52 244.65 6.52 242.14 7.01 240.23 L8.21 240.23 L6.86 247.35 L5.74 247.35 C5.77 246.97
								 5.96 246.45 5.89 246.11 C5.36 246.86 4.8 247.5 3.49 247.46 Z" class="st2"/>
				</g>
				<g id="shape43-86" v:mID="43" v:groupContext="shape" transform="translate(87.075,-0.975)">
					<title>Sheet.43</title>
					<path d="M2.25 241.84 C2.7 240.9 3.37 239.93 4.72 240.34 L4.5 241.31 C1.46 240.9 1.95 245.06 1.2 247.5 L0 247.5
								 L1.35 240.38 L2.47 240.38 L2.25 241.84 Z" class="st3"/>
					<path d="M2.25 241.84 C2.7 240.9 3.37 239.93 4.72 240.34 L4.5 241.31 C1.46 240.9 1.95 245.06 1.2 247.5 L0 247.5
								 L1.35 240.38 L2.47 240.38" class="st4"/>
				</g>
				<g id="shape44-89" v:mID="44" v:groupContext="shape" transform="translate(91.7625,-0.825)">
					<title>Sheet.44</title>
					<path d="M3.71 240.08 C6.04 239.96 6.94 241.84 6.41 244.05 L1.24 244.05 C0.97 245.48 1.46 246.64 2.92 246.6 C3.94
								 246.56 4.54 246.07 4.91 245.4 L5.81 245.81 C5.25 246.79 4.39 247.5 2.81 247.5 C0.97 247.46 0 246.49
								 0 244.69 C0 242.06 1.2 240.23 3.71 240.08 ZM5.36 243.11 C5.89 240.64 2.7 240.41 1.8 242.06 C1.65
								 242.36 1.5 242.7 1.39 243.11 L5.36 243.11 Z" class="st2"/>
				</g>
				<g id="shape45-91" v:mID="45" v:groupContext="shape" transform="translate(98.625,5.68434E-14)">
					<title>G</title>
					<path d="M5.17 245.48 C4.05 247.5 0 246.82 0.67 243.64 C1.16 241.31 1.57 239.33 4.05 239.25 C5.14 239.21 5.77
								 239.81 6.15 240.56 L6.86 236.74 L8.06 236.74 L6.19 246.52 L5.06 246.52 L5.17 245.48 ZM1.87 244.13
								 C1.8 245.14 2.25 245.74 3.19 245.74 C5.21 245.7 5.77 243.86 5.77 241.88 C5.77 240.79 5.21 240.15
								 4.2 240.15 C2.21 240.11 2.02 242.33 1.87 244.13 Z" class="st2"/>
				</g>
			</g>
			<g id="shape46-93" v:mID="46" v:groupContext="shape" transform="translate(273,8.2423E-13)">
				<title>Sheet.46</title>
				<path d="M75 221.25 C75 235.75 58.2 247.5 37.5 247.5 C16.8 247.5 0 235.75 0 221.25 C0 206.75 16.8 195 37.5 195 C58.2
							 195 75 206.75 75 221.25 Z" class="st8"/>
			</g>
			<g id="group47-95" transform="translate(298.087,-23.4)" v:mID="47" v:groupContext="group">
				<title>D</title>
				<g id="shape48-96" v:mID="48" v:groupContext="shape">
					<title>H</title>
					<path d="M7.65 243.86 C7.61 246.3 6.15 247.5 3.75 247.5 C1.46 247.5 0 246.3 0 243.97 L0 238.05 L1.24 238.05 C1.54
								 241.39 0 246.45 3.75 246.45 C7.57 246.45 6.15 241.46 6.41 238.05 L7.65 238.05 L7.65 243.86 Z"
							class="st2"/>
				</g>
				<g id="shape49-98" v:mID="49" v:groupContext="shape" transform="translate(9.7875,-0.15)">
					<title>I</title>
					<path d="M7.61 240.86 C7.57 242.4 6.75 243.26 5.36 243.49 L7.99 247.5 L6.56 247.5 L4.12 243.64 L1.24 243.64 L1.24
								 247.5 L0 247.5 L0 238.2 C3.3 238.31 7.69 237.41 7.61 240.86 ZM1.24 242.66 C3.49 242.59 6.37 243.15
								 6.37 240.9 C6.37 238.61 3.37 239.32 1.24 239.21 L1.24 242.66 Z" class="st2"/>
				</g>
				<g id="shape50-100" v:mID="50" v:groupContext="shape" transform="translate(19.5,-0.15)">
					<title>j</title>
					<path d="M0 247.5 L0 238.2 L1.24 238.2 L1.24 246.49 L5.93 246.49 L5.93 247.5 L0 247.5 Z" class="st2"/>
				</g>
			</g>
			<g id="shape51-102" v:mID="51" v:groupContext="shape" transform="translate(135,8.2423E-13)">
				<title>Sheet.51</title>
				<path d="M75 221.25 C75 235.75 58.2 247.5 37.5 247.5 C16.8 247.5 0 235.75 0 221.25 C0 206.75 16.8 195 37.5 195 C58.2
							 195 75 206.75 75 221.25 Z" class="st8"/>
			</g>
			<g id="group52-104" transform="translate(160.444,-23.2125)" v:mID="52" v:groupContext="group">
				<title>E</title>
				<g id="shape53-105" v:mID="53" v:groupContext="shape" transform="translate(7.19425E-14,-0.3375)">
					<title>k</title>
					<path d="M4.46 239.25 L4.46 247.5 L3.19 247.5 L3.19 239.25 L0 239.25 L0 238.2 L7.65 238.2 L7.65 239.25 L4.46
								 239.25 Z" class="st2"/>
				</g>
				<g id="shape54-107" v:mID="54" v:groupContext="shape" transform="translate(6.9375,-0.1875)">
					<title>n</title>
					<path d="M3.22 240.08 C5.59 240.08 6.45 241.65 6.37 244.05 L1.31 244.05 C1.31 245.55 1.84 246.56 3.3 246.6 C4.27
								 246.64 4.91 246.15 5.14 245.51 L6.19 245.81 C5.77 246.86 4.8 247.5 3.3 247.5 C1.12 247.5 0 246.11
								 0.04 243.75 C0.07 241.46 1.01 240.08 3.22 240.08 ZM5.17 243.11 C5.4 240.86 2.32 240.23 1.54 242.06
								 C1.42 242.33 1.31 242.7 1.31 243.11 L5.17 243.11 Z" class="st2"/>
				</g>
				<g id="shape55-109" v:mID="55" v:groupContext="shape" transform="translate(14.0625,-0.3375)">
					<title>l</title>
					<path d="M5.14 247.5 L3.22 244.57 L1.27 247.5 L0 247.5 L2.55 243.82 L0.11 240.38 L1.42 240.38 L3.22 243.15 L4.99
								 240.38 L6.3 240.38 L3.9 243.82 L6.45 247.5 L5.14 247.5 Z" class="st2"/>
				</g>
				<g id="shape56-111" v:mID="56" v:groupContext="shape" transform="translate(20.85,0)">
					<title>Sheet.56</title>
					<path d="M2.03 245.4 C1.95 246.3 2.7 246.49 3.45 246.22 L3.45 247.12 C2.21 247.5 0.83 247.31 0.83 245.66 L0.83
								 240.9 L0 240.9 L0 240.04 L0.9 240.04 L1.24 238.42 L2.03 238.42 L2.03 240.04 L3.34 240.04 L3.34 240.9
								 L2.03 240.9 L2.03 245.4 Z" class="st2"/>
				</g>
			</g>
			<g id="shape57-113" v:mID="57" v:groupContext="shape" transform="translate(310.5,-66.93)">
				<title>Sheet.57</title>
				<path d="M0 172.68 L0 247.5 L0 172.68 Z" class="st5"/>
				<path d="M0 172.68 L0 247.5" class="st6"/>
			</g>
			<g id="shape58-116" v:mID="58" v:groupContext="shape" transform="translate(307.02,-55.68)">
				<title>Sheet.58</title>
				<path d="M4.23 161.43 L2.73 161.43 L2.73 160.68 L4.23 160.68 L4.23 161.43 ZM3.48 247.5 L0 236.81 L6.96 236.81 L3.48
							 247.5 Z" class="st7"/>
			</g>
			<g id="shape59-118" v:mID="59" v:groupContext="shape" transform="translate(306,-53.25)">
				<title>Sheet.59</title>
				<path d="M4.5 247.5 L0 233.62 L9 233.62 L4.5 247.5 ZM2.05 235.12 L4.5 242.65 L6.94 235.12 L2.05 235.12 Z"
						class="st7"/>
			</g>
			<g id="group60-120" transform="translate(289.387,-105.5)" v:mID="60" v:groupContext="group">
				<title>F</title>
				<g id="shape61-121" v:mID="61" v:groupContext="shape">
					<title>v</title>
					<path d="M3.34 247.35 C0 247.5 1.31 243 1.05 240.07 L2.25 240.07 L2.25 244.57 C2.25 245.74 2.51 246.45 3.71 246.41
								 C6.41 246.34 5.4 242.62 5.59 240.07 L6.75 240.07 L6.79 247.2 L5.66 247.2 C5.62 246.82 5.7 246.26
								 5.59 245.96 C5.17 246.79 4.54 247.31 3.34 247.35 Z" class="st2"/>
				</g>
				<g id="shape62-123" v:mID="62" v:groupContext="shape" transform="translate(8.5875,-0.3)">
					<title>p</title>
					<path d="M3.38 241.39 C0.45 240.79 1.39 244.8 1.24 247.5 L0.04 247.5 L0 240.37 L1.13 240.37 C1.16 240.82 1.09
								 241.46 1.2 241.84 C1.43 240.82 2.06 240 3.38 240.3 L3.38 241.39 Z" class="st2"/>
				</g>
				<g id="shape63-125" v:mID="63" v:groupContext="shape" transform="translate(13.05,-0.3)">
					<title>u</title>
					<rect x="0" y="237.712" width="1.2" height="9.7875" class="st2"/>
				</g>
			</g>
			<g id="shape64-127" v:mID="64" v:groupContext="shape" transform="translate(177.262,-66.69)">
				<title>Sheet.64</title>
				<path d="M88.74 172.44 L88.74 216.81 L0 216.81 L0 247.5 L88.74 172.44 Z" class="st5"/>
				<path d="M88.74 172.44 L88.74 216.81 L0 216.81 L0 247.5" class="st6"/>
			</g>
			<g id="shape65-130" v:mID="65" v:groupContext="shape" transform="translate(173.79,-55.44)">
				<title>Sheet.65</title>
				<path d="M92.96 161.19 L91.46 161.19 L91.46 160.44 L92.96 160.44 L92.96 161.19 ZM3.47 247.5 L0 236.8 L6.96 236.8
							 L3.47 247.5 Z" class="st7"/>
			</g>
			<g id="shape66-132" v:mID="66" v:groupContext="shape" transform="translate(172.762,-53.025)">
				<title>Sheet.66</title>
				<path d="M4.5 247.5 L0 233.62 L9 233.62 L4.5 247.5 ZM2.06 235.12 L4.49 242.65 L6.94 235.13 L2.06 235.12 Z"
						class="st7"/>
			</g>
		</g>
		<g id="shape104-134" v:mID="104" v:groupContext="shape" transform="translate(189,-111.658)">
			<title>Sheet.104</title>
			<desc>propertyID, name, description, unitText</desc>
			<v:textBlock v:margins="rect(0,0,0,0)"/>
			<v:textRect cx="38.0347" cy="213.329" width="76.07" height="68.3421"/>
			<rect x="0" y="179.158" width="76.0693" height="68.3421" class="st9"/>
			<text x="0" y="192.33" class="st10" v:langID="1033"><v:paragraph/><v:tabList/>propertyID,<v:newlineChar/><tspan x="0"
						dy="1.2em" class="st11">name,<v:newlineChar/></tspan><tspan x="0" dy="1.2em" class="st11">description,<v:newlineChar/></tspan><tspan
						x="0" dy="1.2em" class="st11">unitText</tspan></text>		</g>
	</g>
</svg>
