<svg xmlns="http://www.w3.org/2000/svg" xmlns:xlink="http://www.w3.org/1999/xlink" xmlns:lucid="lucid" width="812" height="440"><g transform="translate(-356 1270)" lucid:page-tab-id="0_0"><path d="M0-1296h1760V64H0z" fill="#fff"/><path d="M376-1220h148v100H376z" stroke="#000" stroke-width="2" fill="#c7e8ac"/><use xlink:href="#a" transform="matrix(1,0,0,1,381,-1215) translate(38.025 48.6)"/><path d="M600-1100h148v100H600z" stroke="#000" stroke-width="2" fill="#c7e8ac"/><use xlink:href="#b" transform="matrix(1,0,0,1,605,-1095) translate(12.749999999999993 48.6)"/><path d="M526-1170h148v50.5" stroke="#000" stroke-width="2" fill="none"/><path d="M526.03-1169H525v-2h1.03z"/><path d="M674-1104.24l-4.64-14.26h9.28z" stroke="#000" stroke-width="2"/><use xlink:href="#c" transform="matrix(1,0,0,1,643.3668005590722,-1195.122036614854) translate(0 14.4)"/><path d="M724-885c0 19.33-22.4 35-50 35s-50-15.67-50-35 22.4-35 50-35 50 15.67 50 35z" stroke="#000" stroke-width="2" fill="#b2d6ef"/><use xlink:href="#d" transform="matrix(1,0,0,1,629,-915) translate(27.049999999999997 33.6)"/><path d="M1148-885c0 19.33-89.54 35-200 35s-200-15.67-200-35 89.54-35 200-35 200 15.67 200 35z" stroke="#000" stroke-width="2" fill="#b2d6ef"/><use xlink:href="#e" transform="matrix(1,0,0,1,753,-915) translate(19.100000000000023 33.6)"/><path d="M580-885c0 19.33-40.3 35-90 35s-90-15.67-90-35 40.3-35 90-35 90 15.67 90 35z" stroke="#000" stroke-width="2" fill="#b2d6ef"/><use xlink:href="#f" transform="matrix(1,0,0,1,405,-915) translate(68.525 33.6)"/><path d="M732-998v38h216v20.5" stroke="#000" stroke-width="2" fill="none"/><path d="M733-997.97h-2V-999h2z"/><path d="M948-924.24l-4.64-14.26h9.28z" stroke="#000" stroke-width="2"/><use xlink:href="#g" transform="matrix(1,0,0,1,782.3991816997434,-985.5999999999999) translate(0 14.4)"/><path d="M674-998v58.5" stroke="#000" stroke-width="2" fill="none"/><path d="M675-997.97h-2V-999h2z"/><path d="M674-924.24l-4.64-14.26h9.28z" stroke="#000" stroke-width="2"/><use xlink:href="#h" transform="matrix(1,0,0,1,646.0999999999999,-980.4949943610707) translate(0 14.4)"/><path d="M614.67-998v38.16H501.43v20.65" stroke="#000" stroke-width="2" fill="none"/><path d="M615.67-997.97h-2V-999h2z"/><path d="M501.43-923.92l-4.63-14.27h9.27z" stroke="#000" stroke-width="2"/><use xlink:href="#i" transform="matrix(1,0,0,1,509.88017004585674,-985.4426096576661) translate(0 14.4)"/><path d="M1060-1215c0 19.33-22.4 35-50 35s-50-15.67-50-35 22.4-35 50-35 50 15.67 50 35z" stroke="#000" stroke-width="2" fill="#b2d6ef"/><use xlink:href="#j" transform="matrix(1,0,0,1,965,-1245) translate(28.525 33.6)"/><path d="M526-1170h304v-45h110.5" stroke="#000" stroke-width="2" fill="none"/><path d="M526.03-1169H525v-2h1.03z"/><path d="M955.76-1215l-14.26 4.64v-9.28z" stroke="#000" stroke-width="2"/><path d="M1060-1125c0 19.33-22.4 35-50 35s-50-15.67-50-35 22.4-35 50-35 50 15.67 50 35z" stroke="#000" stroke-width="2" fill="#b2d6ef"/><use xlink:href="#d" transform="matrix(1,0,0,1,965,-1155) translate(27.049999999999997 33.6)"/><path d="M526-1170h304v45h110.5" stroke="#000" stroke-width="2" fill="none"/><path d="M526.03-1169H525v-2h1.03z"/><path d="M955.76-1125l-14.26 4.64v-9.28z" stroke="#000" stroke-width="2"/><defs><path d="M30-248c118-7 216 8 213 122C240-48 200 0 122 0H30v-248zM63-27c89 8 146-16 146-99s-60-101-146-95v194" id="k"/><path d="M141-36C126-15 110 5 73 4 37 3 15-17 15-53c-1-64 63-63 125-63 3-35-9-54-41-54-24 1-41 7-42 31l-33-3c5-37 33-52 76-52 45 0 72 20 72 64v82c-1 20 7 32 28 27v20c-31 9-61-2-59-35zM48-53c0 20 12 33 32 33 41-3 63-29 60-74-43 2-92-5-92 41" id="l"/><path d="M59-47c-2 24 18 29 38 22v24C64 9 27 4 27-40v-127H5v-23h24l9-43h21v43h35v23H59v120" id="m"/><path d="M135-143c-3-34-86-38-87 0 15 53 115 12 119 90S17 21 10-45l28-5c4 36 97 45 98 0-10-56-113-15-118-90-4-57 82-63 122-42 12 7 21 19 24 35" id="n"/><path d="M100-194c63 0 86 42 84 106H49c0 40 14 67 53 68 26 1 43-12 49-29l28 8c-11 28-37 45-77 45C44 4 14-33 15-96c1-61 26-98 85-98zm52 81c6-60-76-77-97-28-3 7-6 17-6 28h103" id="o"/><g id="a"><use transform="matrix(0.05,0,0,0.05,0,0)" xlink:href="#k"/><use transform="matrix(0.05,0,0,0.05,12.950000000000001,0)" xlink:href="#l"/><use transform="matrix(0.05,0,0,0.05,22.950000000000003,0)" xlink:href="#m"/><use transform="matrix(0.05,0,0,0.05,27.950000000000003,0)" xlink:href="#l"/><use transform="matrix(0.05,0,0,0.05,37.95,0)" xlink:href="#n"/><use transform="matrix(0.05,0,0,0.05,46.95,0)" xlink:href="#o"/><use transform="matrix(0.05,0,0,0.05,56.95,0)" xlink:href="#m"/></g><path d="M30-248c87 1 191-15 191 75 0 78-77 80-158 76V0H30v-248zm33 125c57 0 124 11 124-50 0-59-68-47-124-48v98" id="p"/><path d="M114-163C36-179 61-72 57 0H25l-1-190h30c1 12-1 29 2 39 6-27 23-49 58-41v29" id="q"/><path d="M100-194c62-1 85 37 85 99 1 63-27 99-86 99S16-35 15-95c0-66 28-99 85-99zM99-20c44 1 53-31 53-75 0-43-8-75-51-75s-53 32-53 75 10 74 51 75" id="r"/><path d="M115-194c55 1 70 41 70 98S169 2 115 4C84 4 66-9 55-30l1 105H24l-1-265h31l2 30c10-21 28-34 59-34zm-8 174c40 0 45-34 45-75s-6-73-45-74c-42 0-51 32-51 76 0 43 10 73 51 73" id="s"/><path d="M179-190L93 31C79 59 56 82 12 73V49c39 6 53-20 64-50L1-190h34L92-34l54-156h33" id="t"/><path d="M137 0h-34L2-248h35l83 218 83-218h36" id="u"/><path d="M24 0v-261h32V0H24" id="v"/><path d="M84 4C-5 8 30-112 23-190h32v120c0 31 7 50 39 49 72-2 45-101 50-169h31l1 190h-30c-1-10 1-25-2-33-11 22-28 36-60 37" id="w"/><g id="b"><use transform="matrix(0.05,0,0,0.05,0,0)" xlink:href="#p"/><use transform="matrix(0.05,0,0,0.05,12,0)" xlink:href="#q"/><use transform="matrix(0.05,0,0,0.05,17.95,0)" xlink:href="#r"/><use transform="matrix(0.05,0,0,0.05,27.950000000000003,0)" xlink:href="#s"/><use transform="matrix(0.05,0,0,0.05,37.95,0)" xlink:href="#o"/><use transform="matrix(0.05,0,0,0.05,47.95,0)" xlink:href="#q"/><use transform="matrix(0.05,0,0,0.05,53.900000000000006,0)" xlink:href="#m"/><use transform="matrix(0.05,0,0,0.05,58.900000000000006,0)" xlink:href="#t"/><use transform="matrix(0.05,0,0,0.05,67.9,0)" xlink:href="#u"/><use transform="matrix(0.05,0,0,0.05,78.55000000000001,0)" xlink:href="#l"/><use transform="matrix(0.05,0,0,0.05,88.55000000000001,0)" xlink:href="#v"/><use transform="matrix(0.05,0,0,0.05,92.50000000000001,0)" xlink:href="#w"/><use transform="matrix(0.05,0,0,0.05,102.5,0)" xlink:href="#o"/></g><path d="M50-231l6-30h32l-6 30H50zM6 0l37-190h31L37 0H6" id="x"/><path d="M133-28C103 26-5 8 13-77c13-62 24-115 90-117 29-1 46 15 56 35l19-102h32L160 0h-30zM45-64c-2 27 10 43 35 43 54-1 69-50 69-103 0-29-15-46-42-46-53-1-58 58-62 106" id="y"/><path d="M111-194c62-3 86 47 72 106H45c-7 38 6 69 45 68 27-1 43-14 53-32l24 11C152-15 129 4 87 4 38 3 12-23 12-71c0-70 32-119 99-123zm44 81c14-66-71-72-95-28-4 8-8 17-11 28h106" id="z"/><path d="M67-158c22-48 132-52 116 29L158 0h-32l25-140c3-38-53-32-70-12C52-117 51-52 38 0H6l36-190h30" id="A"/><path d="M51-54c-9 22 5 41 31 30L79-1C43 14 10-4 19-52l22-115H19l5-23h22l19-43h21l-9 43h35l-4 23H73" id="B"/><path d="M76-167L44 0H12l33-167H18l4-23h27c3-47 25-81 82-69l-4 24c-35-8-44 15-46 45h37l-5 23H76" id="C"/><path d="M66-151c12-25 30-51 66-40l-6 26C45-176 58-65 38 0H6l36-190h30" id="D"/><g id="c"><use transform="matrix(0.05,0,0,0.05,0,0)" xlink:href="#x"/><use transform="matrix(0.05,0,0,0.05,3.95,0)" xlink:href="#y"/><use transform="matrix(0.05,0,0,0.05,13.949999999999998,0)" xlink:href="#z"/><use transform="matrix(0.05,0,0,0.05,23.95,0)" xlink:href="#A"/><use transform="matrix(0.05,0,0,0.05,33.95,0)" xlink:href="#B"/><use transform="matrix(0.05,0,0,0.05,38.95,0)" xlink:href="#x"/><use transform="matrix(0.05,0,0,0.05,42.900000000000006,0)" xlink:href="#C"/><use transform="matrix(0.05,0,0,0.05,47.900000000000006,0)" xlink:href="#x"/><use transform="matrix(0.05,0,0,0.05,51.85,0)" xlink:href="#z"/><use transform="matrix(0.05,0,0,0.05,61.85,0)" xlink:href="#D"/></g><path d="M232-93c-1 65-40 97-104 97C67 4 28-28 28-90v-158h33c8 89-33 224 67 224 102 0 64-133 71-224h33v155" id="E"/><path d="M233-177c-1 41-23 64-60 70L243 0h-38l-65-103H63V0H30v-248c88 3 205-21 203 71zM63-129c60-2 137 13 137-47 0-61-80-42-137-45v92" id="F"/><path d="M30 0v-248h33v221h125V0H30" id="G"/><g id="d"><use transform="matrix(0.05,0,0,0.05,0,0)" xlink:href="#E"/><use transform="matrix(0.05,0,0,0.05,12.950000000000001,0)" xlink:href="#F"/><use transform="matrix(0.05,0,0,0.05,25.900000000000002,0)" xlink:href="#G"/></g><path d="M109-170H84l-4-78h32zm-65 0H19l-4-78h33" id="H"/><path d="M106-169C34-169 62-67 57 0H25v-261h32l-1 103c12-21 28-36 61-36 89 0 53 116 60 194h-32v-121c2-32-8-49-39-48" id="I"/><path d="M33-154v-36h34v36H33zM33 0v-36h34V0H33" id="J"/><path d="M0 4l72-265h28L28 4H0" id="K"/><path d="M177-190C167-65 218 103 67 71c-23-6-38-20-44-43l32-5c15 47 100 32 89-28v-30C133-14 115 1 83 1 29 1 15-40 15-95c0-56 16-97 71-98 29-1 48 16 59 35 1-10 0-23 2-32h30zM94-22c36 0 50-32 50-73 0-42-14-75-50-75-39 0-46 34-46 75s6 73 46 73" id="L"/><path d="M24-231v-30h32v30H24zM24 0v-190h32V0H24" id="M"/><path d="M33 0v-38h34V0H33" id="N"/><path d="M85-194c31 0 48 13 60 33l-1-100h32l1 261h-30c-2-10 0-23-3-31C134-8 116 4 85 4 32 4 16-35 15-94c0-66 23-100 70-100zm9 24c-40 0-46 34-46 75 0 40 6 74 45 74 42 0 51-32 51-76 0-42-9-74-50-73" id="O"/><path d="M117-194c89-4 53 116 60 194h-32v-121c0-31-8-49-39-48C34-167 62-67 57 0H25l-1-190h30c1 10-1 24 2 32 11-22 29-35 61-36" id="P"/><path d="M101-234c-31-9-42 10-38 44h38v23H63V0H32v-167H5v-23h27c-7-52 17-82 69-68v24" id="Q"/><path d="M39-94c74 12-11 154 75 146v23c-44 4-70-10-70-52C44-23 55-84 6-82v-22c81 4-7-162 84-157h24v23c-82-15-2 131-75 144" id="R"/><path d="M76-40C78 24 84 88 6 75V52C86 64 9-79 80-94c-40-6-34-59-34-106 1-29-11-41-40-38v-23c44-4 70 10 70 52 0 47-12 108 38 105v22c-26 1-39 14-38 42" id="S"/><g id="e"><use transform="matrix(0.05,0,0,0.05,0,0)" xlink:href="#H"/><use transform="matrix(0.05,0,0,0.05,6.3500000000000005,0)" xlink:href="#I"/><use transform="matrix(0.05,0,0,0.05,16.35,0)" xlink:href="#m"/><use transform="matrix(0.05,0,0,0.05,21.35,0)" xlink:href="#m"/><use transform="matrix(0.05,0,0,0.05,26.35,0)" xlink:href="#s"/><use transform="matrix(0.05,0,0,0.05,36.35,0)" xlink:href="#n"/><use transform="matrix(0.05,0,0,0.05,45.35,0)" xlink:href="#J"/><use transform="matrix(0.05,0,0,0.05,50.35,0)" xlink:href="#K"/><use transform="matrix(0.05,0,0,0.05,55.35,0)" xlink:href="#K"/><use transform="matrix(0.05,0,0,0.05,60.35,0)" xlink:href="#q"/><use transform="matrix(0.05,0,0,0.05,66.3,0)" xlink:href="#o"/><use transform="matrix(0.05,0,0,0.05,76.3,0)" xlink:href="#L"/><use transform="matrix(0.05,0,0,0.05,86.3,0)" xlink:href="#M"/><use transform="matrix(0.05,0,0,0.05,90.25,0)" xlink:href="#n"/><use transform="matrix(0.05,0,0,0.05,99.25,0)" xlink:href="#m"/><use transform="matrix(0.05,0,0,0.05,104.25,0)" xlink:href="#q"/><use transform="matrix(0.05,0,0,0.05,110.2,0)" xlink:href="#t"/><use transform="matrix(0.05,0,0,0.05,117.85000000000001,0)" xlink:href="#N"/><use transform="matrix(0.05,0,0,0.05,122.85000000000001,0)" xlink:href="#M"/><use transform="matrix(0.05,0,0,0.05,126.80000000000001,0)" xlink:href="#O"/><use transform="matrix(0.05,0,0,0.05,136.8,0)" xlink:href="#o"/><use transform="matrix(0.05,0,0,0.05,146.8,0)" xlink:href="#P"/><use transform="matrix(0.05,0,0,0.05,156.8,0)" xlink:href="#m"/><use transform="matrix(0.05,0,0,0.05,161.8,0)" xlink:href="#M"/><use transform="matrix(0.05,0,0,0.05,165.75,0)" xlink:href="#Q"/><use transform="matrix(0.05,0,0,0.05,170.75,0)" xlink:href="#M"/><use transform="matrix(0.05,0,0,0.05,174.7,0)" xlink:href="#o"/><use transform="matrix(0.05,0,0,0.05,184.7,0)" xlink:href="#q"/><use transform="matrix(0.05,0,0,0.05,190.64999999999998,0)" xlink:href="#n"/><use transform="matrix(0.05,0,0,0.05,199.64999999999998,0)" xlink:href="#N"/><use transform="matrix(0.05,0,0,0.05,204.64999999999998,0)" xlink:href="#r"/><use transform="matrix(0.05,0,0,0.05,214.64999999999998,0)" xlink:href="#q"/><use transform="matrix(0.05,0,0,0.05,220.59999999999997,0)" xlink:href="#L"/><use transform="matrix(0.05,0,0,0.05,230.59999999999997,0)" xlink:href="#K"/><use transform="matrix(0.05,0,0,0.05,235.59999999999997,0)" xlink:href="#q"/><use transform="matrix(0.05,0,0,0.05,241.54999999999995,0)" xlink:href="#o"/><use transform="matrix(0.05,0,0,0.05,251.54999999999995,0)" xlink:href="#L"/><use transform="matrix(0.05,0,0,0.05,261.54999999999995,0)" xlink:href="#M"/><use transform="matrix(0.05,0,0,0.05,265.49999999999994,0)" xlink:href="#n"/><use transform="matrix(0.05,0,0,0.05,274.49999999999994,0)" xlink:href="#m"/><use transform="matrix(0.05,0,0,0.05,279.49999999999994,0)" xlink:href="#q"/><use transform="matrix(0.05,0,0,0.05,285.44999999999993,0)" xlink:href="#t"/><use transform="matrix(0.05,0,0,0.05,294.44999999999993,0)" xlink:href="#K"/><use transform="matrix(0.05,0,0,0.05,299.44999999999993,0)" xlink:href="#R"/><use transform="matrix(0.05,0,0,0.05,305.44999999999993,0)" xlink:href="#m"/><use transform="matrix(0.05,0,0,0.05,310.44999999999993,0)" xlink:href="#t"/><use transform="matrix(0.05,0,0,0.05,319.44999999999993,0)" xlink:href="#s"/><use transform="matrix(0.05,0,0,0.05,329.44999999999993,0)" xlink:href="#o"/><use transform="matrix(0.05,0,0,0.05,339.44999999999993,0)" xlink:href="#S"/><use transform="matrix(0.05,0,0,0.05,345.44999999999993,0)" xlink:href="#H"/></g><path d="M127-220V0H93v-220H8v-28h204v28h-85" id="T"/><path d="M141 0L90-78 38 0H4l68-98-65-92h35l48 74 47-74h35l-64 92 68 98h-35" id="U"/><g id="f"><use transform="matrix(0.05,0,0,0.05,0,0)" xlink:href="#T"/><use transform="matrix(0.05,0,0,0.05,8.950000000000001,0)" xlink:href="#o"/><use transform="matrix(0.05,0,0,0.05,18.950000000000003,0)" xlink:href="#U"/><use transform="matrix(0.05,0,0,0.05,27.950000000000003,0)" xlink:href="#m"/></g><path d="M33 0v-248h34V0H33" id="V"/><g id="g"><use transform="matrix(0.05,0,0,0.05,0,0)" xlink:href="#s"/><use transform="matrix(0.05,0,0,0.05,10,0)" xlink:href="#q"/><use transform="matrix(0.05,0,0,0.05,15.949999999999998,0)" xlink:href="#r"/><use transform="matrix(0.05,0,0,0.05,25.950000000000003,0)" xlink:href="#s"/><use transform="matrix(0.05,0,0,0.05,35.95,0)" xlink:href="#o"/><use transform="matrix(0.05,0,0,0.05,45.95,0)" xlink:href="#q"/><use transform="matrix(0.05,0,0,0.05,51.900000000000006,0)" xlink:href="#m"/><use transform="matrix(0.05,0,0,0.05,56.900000000000006,0)" xlink:href="#t"/><use transform="matrix(0.05,0,0,0.05,65.9,0)" xlink:href="#V"/><use transform="matrix(0.05,0,0,0.05,70.9,0)" xlink:href="#k"/></g><g id="h"><use transform="matrix(0.05,0,0,0.05,0,0)" xlink:href="#w"/><use transform="matrix(0.05,0,0,0.05,10,0)" xlink:href="#q"/><use transform="matrix(0.05,0,0,0.05,15.949999999999998,0)" xlink:href="#v"/></g><path d="M108 0H70L1-190h34L89-25l56-165h34" id="W"/><g id="i"><use transform="matrix(0.05,0,0,0.05,0,0)" xlink:href="#W"/><use transform="matrix(0.05,0,0,0.05,9,0)" xlink:href="#l"/><use transform="matrix(0.05,0,0,0.05,19,0)" xlink:href="#v"/><use transform="matrix(0.05,0,0,0.05,22.95,0)" xlink:href="#w"/><use transform="matrix(0.05,0,0,0.05,32.95,0)" xlink:href="#o"/></g><g id="j"><use transform="matrix(0.05,0,0,0.05,0,0)" xlink:href="#T"/><use transform="matrix(0.05,0,0,0.05,8.950000000000001,0)" xlink:href="#o"/><use transform="matrix(0.05,0,0,0.05,18.950000000000003,0)" xlink:href="#U"/><use transform="matrix(0.05,0,0,0.05,27.950000000000003,0)" xlink:href="#m"/></g></defs></g></svg>