<svg xmlns="http://www.w3.org/2000/svg" xmlns:xlink="http://www.w3.org/1999/xlink" xmlns:lucid="lucid" width="1288" height="350"><g transform="translate(-40 -120)" lucid:page-tab-id="u8Qj-n2AQwUt"><path d="M60 140h148v100H60z" stroke="#000" stroke-width="2" fill="#c7e8ac"/><use xlink:href="#a" transform="matrix(1,0,0,1,65,145) translate(38.025 48.6)"/><path d="M418.95 155h148v70h-148z" stroke="#000" stroke-width="2" fill="#fcce14"/><use xlink:href="#b" transform="matrix(1,0,0,1,423.9453793751657,160) translate(22.549999999999997 33.6)"/><path d="M210 190h189.44" stroke="#000" stroke-width="2" fill="none"/><path d="M210.03 191H209v-2h1.03z" stroke="#000" stroke-width=".05"/><path d="M414.7 190l-14.26 4.64v-9.28z" stroke="#000" stroke-width="2"/><use xlink:href="#c" transform="matrix(1,0,0,1,227.4591296843114,164.39999999999998) translate(0 14.4)"/><path d="M777.9 155h180v70h-180z" stroke="#000" stroke-width="2" fill="#fcce14"/><use xlink:href="#d" transform="matrix(1,0,0,1,782.8907587503313,160.00000000000003) translate(14 33.6)"/><path d="M568.95 190H758.4" stroke="#000" stroke-width="2" fill="none"/><path d="M568.97 191h-1.02v-2h1.02z" stroke="#000" stroke-width=".05"/><path d="M773.65 190l-14.26 4.64v-9.28z" stroke="#000" stroke-width="2"/><use xlink:href="#e" transform="matrix(1,0,0,1,594.4430690627485,164.39999999999998) translate(0 14.4)"/><path d="M518.95 293h148v70h-148z" stroke="#000" stroke-width="2" fill="#fcce14"/><use xlink:href="#f" transform="matrix(1,0,0,1,523.9453793751657,298) translate(31.599999999999994 33.6)"/><path d="M827.22 227v32H592.95v14.5" stroke="#000" stroke-width="2" fill="none"/><path d="M828.22 227.03h-2V226h2z" stroke="#000" stroke-width=".05"/><path d="M592.95 288.76l-4.64-14.26h9.28z" stroke="#000" stroke-width="2"/><use xlink:href="#g" transform="matrix(1,0,0,1,622.0385916916799,233.4) translate(0 14.4)"/><path d="M1308 275c0 19.33-28.65 35-64 35s-64-15.67-64-35 28.65-35 64-35 64 15.67 64 35z" stroke="#000" stroke-width="2" fill="#b2d6ef"/><use xlink:href="#h" transform="matrix(1,0,0,1,1185,245) translate(20.549999999999997 33.6)"/><path d="M937.9 415c0 19.33-31.35 35-70 35-38.67 0-70-15.67-70-35s31.33-35 70-35c38.65 0 70 15.67 70 35z" stroke="#000" stroke-width="2" fill="#b2d6ef"/><use xlink:href="#i" transform="matrix(1,0,0,1,802.8907587503313,385) translate(17.574999999999996 33.6)"/><path d="M867.9 227v133.5" stroke="#000" stroke-width="2" fill="none"/><path d="M868.9 227.03h-2V226h2z" stroke="#000" stroke-width=".05"/><path d="M867.9 375.76l-4.64-14.26h9.27z" stroke="#000" stroke-width="2"/><use xlink:href="#j" transform="matrix(1,0,0,1,875.8907587503315,240.3639875351002) translate(0 14.4)"/><use xlink:href="#k" transform="matrix(1,0,0,1,875.8907587503315,240.3639875351002) translate(0 36)"/><use xlink:href="#l" transform="matrix(1,0,0,1,875.8907587503315,240.3639875351002) translate(0 57.6)"/><use xlink:href="#m" transform="matrix(1,0,0,1,875.8907587503315,240.3639875351002) translate(0 79.20000000000002)"/><use xlink:href="#n" transform="matrix(1,0,0,1,875.8907587503315,240.3639875351002) translate(0 100.80000000000001)"/><path d="M959.9 190H1244v30.5" stroke="#000" stroke-width="2" fill="none"/><path d="M959.92 191h-1.03v-2h1.02z" stroke="#000" stroke-width=".05"/><path d="M1244 235.76l-4.64-14.26h9.28z" stroke="#000" stroke-width="2"/><g><use xlink:href="#o" transform="matrix(1,0,0,1,959.1158160945663,164.4) translate(0 14.4)"/></g><defs><path d="M30-248c118-7 216 8 213 122C240-48 200 0 122 0H30v-248zM63-27c89 8 146-16 146-99s-60-101-146-95v194" id="p"/><path d="M141-36C126-15 110 5 73 4 37 3 15-17 15-53c-1-64 63-63 125-63 3-35-9-54-41-54-24 1-41 7-42 31l-33-3c5-37 33-52 76-52 45 0 72 20 72 64v82c-1 20 7 32 28 27v20c-31 9-61-2-59-35zM48-53c0 20 12 33 32 33 41-3 63-29 60-74-43 2-92-5-92 41" id="q"/><path d="M59-47c-2 24 18 29 38 22v24C64 9 27 4 27-40v-127H5v-23h24l9-43h21v43h35v23H59v120" id="r"/><path d="M135-143c-3-34-86-38-87 0 15 53 115 12 119 90S17 21 10-45l28-5c4 36 97 45 98 0-10-56-113-15-118-90-4-57 82-63 122-42 12 7 21 19 24 35" id="s"/><path d="M100-194c63 0 86 42 84 106H49c0 40 14 67 53 68 26 1 43-12 49-29l28 8c-11 28-37 45-77 45C44 4 14-33 15-96c1-61 26-98 85-98zm52 81c6-60-76-77-97-28-3 7-6 17-6 28h103" id="t"/><g id="a"><use transform="matrix(0.05,0,0,0.05,0,0)" xlink:href="#p"/><use transform="matrix(0.05,0,0,0.05,12.950000000000001,0)" xlink:href="#q"/><use transform="matrix(0.05,0,0,0.05,22.950000000000003,0)" xlink:href="#r"/><use transform="matrix(0.05,0,0,0.05,27.950000000000003,0)" xlink:href="#q"/><use transform="matrix(0.05,0,0,0.05,37.95,0)" xlink:href="#s"/><use transform="matrix(0.05,0,0,0.05,46.95,0)" xlink:href="#t"/><use transform="matrix(0.05,0,0,0.05,56.95,0)" xlink:href="#r"/></g><path d="M24-231v-30h32v30H24zM24 0v-190h32V0H24" id="u"/><path d="M210-169c-67 3-38 105-44 169h-31v-121c0-29-5-50-35-48C34-165 62-65 56 0H25l-1-190h30c1 10-1 24 2 32 10-44 99-50 107 0 11-21 27-35 58-36 85-2 47 119 55 194h-31v-121c0-29-5-49-35-48" id="v"/><path d="M33-154v-36h34v36H33zM33 0v-36h34V0H33" id="w"/><path d="M33 0v-248h34V0H33" id="x"/><path d="M117-194c89-4 53 116 60 194h-32v-121c0-31-8-49-39-48C34-167 62-67 57 0H25l-1-190h30c1 10-1 24 2 32 11-22 29-35 61-36" id="y"/><g id="b"><use transform="matrix(0.05,0,0,0.05,0,0)" xlink:href="#r"/><use transform="matrix(0.05,0,0,0.05,5,0)" xlink:href="#u"/><use transform="matrix(0.05,0,0,0.05,8.95,0)" xlink:href="#v"/><use transform="matrix(0.05,0,0,0.05,23.9,0)" xlink:href="#t"/><use transform="matrix(0.05,0,0,0.05,33.9,0)" xlink:href="#w"/><use transform="matrix(0.05,0,0,0.05,38.9,0)" xlink:href="#x"/><use transform="matrix(0.05,0,0,0.05,43.9,0)" xlink:href="#y"/><use transform="matrix(0.05,0,0,0.05,53.900000000000006,0)" xlink:href="#s"/><use transform="matrix(0.05,0,0,0.05,62.900000000000006,0)" xlink:href="#r"/><use transform="matrix(0.05,0,0,0.05,67.9,0)" xlink:href="#q"/><use transform="matrix(0.05,0,0,0.05,77.9,0)" xlink:href="#y"/><use transform="matrix(0.05,0,0,0.05,87.9,0)" xlink:href="#r"/></g><path d="M115-194c55 1 70 41 70 98S169 2 115 4C84 4 66-9 55-30l1 105H24l-1-265h31l2 30c10-21 28-34 59-34zm-8 174c40 0 45-34 45-75s-6-73-45-74c-42 0-51 32-51 76 0 43 10 73 51 73" id="z"/><path d="M100-194c62-1 85 37 85 99 1 63-27 99-86 99S16-35 15-95c0-66 28-99 85-99zM99-20c44 1 53-31 53-75 0-43-8-75-51-75s-53 32-53 75 10 74 51 75" id="A"/><path d="M114-163C36-179 61-72 57 0H25l-1-190h30c1 12-1 29 2 39 6-27 23-49 58-41v29" id="B"/><path d="M24 0v-261h32V0H24" id="C"/><path d="M212-179c-10-28-35-45-73-45-59 0-87 40-87 99 0 60 29 101 89 101 43 0 62-24 78-52l27 14C228-24 195 4 139 4 59 4 22-46 18-125c-6-104 99-153 187-111 19 9 31 26 39 46" id="D"/><path d="M108 0H70L1-190h34L89-25l56-165h34" id="E"/><path d="M177-190C167-65 218 103 67 71c-23-6-38-20-44-43l32-5c15 47 100 32 89-28v-30C133-14 115 1 83 1 29 1 15-40 15-95c0-56 16-97 71-98 29-1 48 16 59 35 1-10 0-23 2-32h30zM94-22c36 0 50-32 50-73 0-42-14-75-50-75-39 0-46 34-46 75s6 73 46 73" id="F"/><g id="c"><use transform="matrix(0.05,0,0,0.05,0,0)" xlink:href="#r"/><use transform="matrix(0.05,0,0,0.05,5,0)" xlink:href="#t"/><use transform="matrix(0.05,0,0,0.05,15,0)" xlink:href="#v"/><use transform="matrix(0.05,0,0,0.05,29.950000000000003,0)" xlink:href="#z"/><use transform="matrix(0.05,0,0,0.05,39.95,0)" xlink:href="#A"/><use transform="matrix(0.05,0,0,0.05,49.95,0)" xlink:href="#B"/><use transform="matrix(0.05,0,0,0.05,55.900000000000006,0)" xlink:href="#q"/><use transform="matrix(0.05,0,0,0.05,65.9,0)" xlink:href="#C"/><use transform="matrix(0.05,0,0,0.05,69.85000000000001,0)" xlink:href="#D"/><use transform="matrix(0.05,0,0,0.05,82.80000000000001,0)" xlink:href="#A"/><use transform="matrix(0.05,0,0,0.05,92.80000000000001,0)" xlink:href="#E"/><use transform="matrix(0.05,0,0,0.05,101.80000000000001,0)" xlink:href="#t"/><use transform="matrix(0.05,0,0,0.05,111.80000000000001,0)" xlink:href="#B"/><use transform="matrix(0.05,0,0,0.05,117.75,0)" xlink:href="#q"/><use transform="matrix(0.05,0,0,0.05,127.75,0)" xlink:href="#F"/><use transform="matrix(0.05,0,0,0.05,137.75,0)" xlink:href="#t"/></g><path d="M127-220V0H93v-220H8v-28h204v28h-85" id="G"/><path d="M30-248c87 1 191-15 191 75 0 78-77 80-158 76V0H30v-248zm33 125c57 0 124 11 124-50 0-59-68-47-124-48v98" id="H"/><g id="d"><use transform="matrix(0.05,0,0,0.05,0,0)" xlink:href="#r"/><use transform="matrix(0.05,0,0,0.05,5,0)" xlink:href="#u"/><use transform="matrix(0.05,0,0,0.05,8.95,0)" xlink:href="#v"/><use transform="matrix(0.05,0,0,0.05,23.9,0)" xlink:href="#t"/><use transform="matrix(0.05,0,0,0.05,33.9,0)" xlink:href="#w"/><use transform="matrix(0.05,0,0,0.05,38.9,0)" xlink:href="#G"/><use transform="matrix(0.05,0,0,0.05,49.2,0)" xlink:href="#u"/><use transform="matrix(0.05,0,0,0.05,53.150000000000006,0)" xlink:href="#v"/><use transform="matrix(0.05,0,0,0.05,68.10000000000001,0)" xlink:href="#t"/><use transform="matrix(0.05,0,0,0.05,78.10000000000001,0)" xlink:href="#H"/><use transform="matrix(0.05,0,0,0.05,90.10000000000001,0)" xlink:href="#A"/><use transform="matrix(0.05,0,0,0.05,100.10000000000001,0)" xlink:href="#s"/><use transform="matrix(0.05,0,0,0.05,109.10000000000001,0)" xlink:href="#u"/><use transform="matrix(0.05,0,0,0.05,113.05000000000001,0)" xlink:href="#r"/><use transform="matrix(0.05,0,0,0.05,118.05000000000001,0)" xlink:href="#u"/><use transform="matrix(0.05,0,0,0.05,122,0)" xlink:href="#A"/><use transform="matrix(0.05,0,0,0.05,132,0)" xlink:href="#y"/></g><g id="e"><use transform="matrix(0.05,0,0,0.05,0,0)" xlink:href="#r"/><use transform="matrix(0.05,0,0,0.05,5,0)" xlink:href="#u"/><use transform="matrix(0.05,0,0,0.05,8.95,0)" xlink:href="#v"/><use transform="matrix(0.05,0,0,0.05,23.9,0)" xlink:href="#t"/><use transform="matrix(0.05,0,0,0.05,33.9,0)" xlink:href="#w"/><use transform="matrix(0.05,0,0,0.05,38.9,0)" xlink:href="#u"/><use transform="matrix(0.05,0,0,0.05,42.85,0)" xlink:href="#y"/><use transform="matrix(0.05,0,0,0.05,52.85,0)" xlink:href="#G"/><use transform="matrix(0.05,0,0,0.05,63.150000000000006,0)" xlink:href="#u"/><use transform="matrix(0.05,0,0,0.05,67.10000000000001,0)" xlink:href="#v"/><use transform="matrix(0.05,0,0,0.05,82.05000000000001,0)" xlink:href="#t"/><use transform="matrix(0.05,0,0,0.05,92.05000000000001,0)" xlink:href="#H"/><use transform="matrix(0.05,0,0,0.05,104.05000000000001,0)" xlink:href="#A"/><use transform="matrix(0.05,0,0,0.05,114.05000000000001,0)" xlink:href="#s"/><use transform="matrix(0.05,0,0,0.05,123.05000000000001,0)" xlink:href="#u"/><use transform="matrix(0.05,0,0,0.05,127,0)" xlink:href="#r"/><use transform="matrix(0.05,0,0,0.05,132,0)" xlink:href="#u"/><use transform="matrix(0.05,0,0,0.05,135.95,0)" xlink:href="#A"/><use transform="matrix(0.05,0,0,0.05,145.95,0)" xlink:href="#y"/></g><path d="M233-177c-1 41-23 64-60 70L243 0h-38l-65-103H63V0H30v-248c88 3 205-21 203 71zM63-129c60-2 137 13 137-47 0-61-80-42-137-45v92" id="I"/><path d="M185-189c-5-48-123-54-124 2 14 75 158 14 163 119 3 78-121 87-175 55-17-10-28-26-33-46l33-7c5 56 141 63 141-1 0-78-155-14-162-118-5-82 145-84 179-34 5 7 8 16 11 25" id="J"/><g id="f"><use transform="matrix(0.05,0,0,0.05,0,0)" xlink:href="#r"/><use transform="matrix(0.05,0,0,0.05,5,0)" xlink:href="#u"/><use transform="matrix(0.05,0,0,0.05,8.95,0)" xlink:href="#v"/><use transform="matrix(0.05,0,0,0.05,23.9,0)" xlink:href="#t"/><use transform="matrix(0.05,0,0,0.05,33.9,0)" xlink:href="#w"/><use transform="matrix(0.05,0,0,0.05,38.9,0)" xlink:href="#G"/><use transform="matrix(0.05,0,0,0.05,49.85,0)" xlink:href="#I"/><use transform="matrix(0.05,0,0,0.05,62.800000000000004,0)" xlink:href="#J"/></g><path d="M106-169C34-169 62-67 57 0H25v-261h32l-1 103c12-21 28-36 61-36 89 0 53 116 60 194h-32v-121c2-32-8-49-39-48" id="K"/><g id="g"><use transform="matrix(0.05,0,0,0.05,0,0)" xlink:href="#r"/><use transform="matrix(0.05,0,0,0.05,5,0)" xlink:href="#u"/><use transform="matrix(0.05,0,0,0.05,8.95,0)" xlink:href="#v"/><use transform="matrix(0.05,0,0,0.05,23.9,0)" xlink:href="#t"/><use transform="matrix(0.05,0,0,0.05,33.9,0)" xlink:href="#w"/><use transform="matrix(0.05,0,0,0.05,38.9,0)" xlink:href="#K"/><use transform="matrix(0.05,0,0,0.05,48.9,0)" xlink:href="#q"/><use transform="matrix(0.05,0,0,0.05,58.900000000000006,0)" xlink:href="#s"/><use transform="matrix(0.05,0,0,0.05,67.9,0)" xlink:href="#G"/><use transform="matrix(0.05,0,0,0.05,78.85000000000001,0)" xlink:href="#I"/><use transform="matrix(0.05,0,0,0.05,91.80000000000001,0)" xlink:href="#J"/></g><path d="M141 0L90-78 38 0H4l68-98-65-92h35l48 74 47-74h35l-64 92 68 98h-35" id="L"/><path d="M85-194c31 0 48 13 60 33l-1-100h32l1 261h-30c-2-10 0-23-3-31C134-8 116 4 85 4 32 4 16-35 15-94c0-66 23-100 70-100zm9 24c-40 0-46 34-46 75 0 40 6 74 45 74 42 0 51-32 51-76 0-42-9-74-50-73" id="M"/><g id="h"><use transform="matrix(0.05,0,0,0.05,0,0)" xlink:href="#L"/><use transform="matrix(0.05,0,0,0.05,9,0)" xlink:href="#s"/><use transform="matrix(0.05,0,0,0.05,18,0)" xlink:href="#M"/><use transform="matrix(0.05,0,0,0.05,28,0)" xlink:href="#w"/><use transform="matrix(0.05,0,0,0.05,33,0)" xlink:href="#s"/><use transform="matrix(0.05,0,0,0.05,42,0)" xlink:href="#r"/><use transform="matrix(0.05,0,0,0.05,47,0)" xlink:href="#B"/><use transform="matrix(0.05,0,0,0.05,52.95,0)" xlink:href="#u"/><use transform="matrix(0.05,0,0,0.05,56.900000000000006,0)" xlink:href="#y"/><use transform="matrix(0.05,0,0,0.05,66.9,0)" xlink:href="#F"/></g><path d="M96-169c-40 0-48 33-48 73s9 75 48 75c24 0 41-14 43-38l32 2c-6 37-31 61-74 61-59 0-76-41-82-99-10-93 101-131 147-64 4 7 5 14 7 22l-32 3c-4-21-16-35-41-35" id="N"/><g id="i"><use transform="matrix(0.05,0,0,0.05,0,0)" xlink:href="#L"/><use transform="matrix(0.05,0,0,0.05,9,0)" xlink:href="#s"/><use transform="matrix(0.05,0,0,0.05,18,0)" xlink:href="#M"/><use transform="matrix(0.05,0,0,0.05,28,0)" xlink:href="#w"/><use transform="matrix(0.05,0,0,0.05,33,0)" xlink:href="#M"/><use transform="matrix(0.05,0,0,0.05,43,0)" xlink:href="#t"/><use transform="matrix(0.05,0,0,0.05,53,0)" xlink:href="#N"/><use transform="matrix(0.05,0,0,0.05,62,0)" xlink:href="#u"/><use transform="matrix(0.05,0,0,0.05,65.95,0)" xlink:href="#v"/><use transform="matrix(0.05,0,0,0.05,80.9,0)" xlink:href="#q"/><use transform="matrix(0.05,0,0,0.05,90.9,0)" xlink:href="#C"/></g><path d="M84 4C-5 8 30-112 23-190h32v120c0 31 7 50 39 49 72-2 45-101 50-169h31l1 190h-30c-1-10 1-25-2-33-11 22-28 36-60 37" id="O"/><path d="M68-38c1 34 0 65-14 84H32c9-13 17-26 17-46H33v-38h35" id="P"/><g id="j"><use transform="matrix(0.05,0,0,0.05,0,0)" xlink:href="#r"/><use transform="matrix(0.05,0,0,0.05,5,0)" xlink:href="#u"/><use transform="matrix(0.05,0,0,0.05,8.95,0)" xlink:href="#v"/><use transform="matrix(0.05,0,0,0.05,23.9,0)" xlink:href="#t"/><use transform="matrix(0.05,0,0,0.05,33.9,0)" xlink:href="#w"/><use transform="matrix(0.05,0,0,0.05,38.9,0)" xlink:href="#y"/><use transform="matrix(0.05,0,0,0.05,48.9,0)" xlink:href="#O"/><use transform="matrix(0.05,0,0,0.05,58.900000000000006,0)" xlink:href="#v"/><use transform="matrix(0.05,0,0,0.05,73.85,0)" xlink:href="#t"/><use transform="matrix(0.05,0,0,0.05,83.85,0)" xlink:href="#B"/><use transform="matrix(0.05,0,0,0.05,89.8,0)" xlink:href="#u"/><use transform="matrix(0.05,0,0,0.05,93.75,0)" xlink:href="#N"/><use transform="matrix(0.05,0,0,0.05,102.75,0)" xlink:href="#H"/><use transform="matrix(0.05,0,0,0.05,114.75,0)" xlink:href="#A"/><use transform="matrix(0.05,0,0,0.05,124.75,0)" xlink:href="#s"/><use transform="matrix(0.05,0,0,0.05,133.75,0)" xlink:href="#u"/><use transform="matrix(0.05,0,0,0.05,137.7,0)" xlink:href="#r"/><use transform="matrix(0.05,0,0,0.05,142.7,0)" xlink:href="#u"/><use transform="matrix(0.05,0,0,0.05,146.64999999999998,0)" xlink:href="#A"/><use transform="matrix(0.05,0,0,0.05,156.64999999999998,0)" xlink:href="#y"/><use transform="matrix(0.05,0,0,0.05,166.64999999999998,0)" xlink:href="#P"/></g><path d="M179-190L93 31C79 59 56 82 12 73V49c39 6 53-20 64-50L1-190h34L92-34l54-156h33" id="Q"/><g id="k"><use transform="matrix(0.05,0,0,0.05,0,0)" xlink:href="#F"/><use transform="matrix(0.05,0,0,0.05,10,0)" xlink:href="#s"/><use transform="matrix(0.05,0,0,0.05,19,0)" xlink:href="#r"/><use transform="matrix(0.05,0,0,0.05,24,0)" xlink:href="#u"/><use transform="matrix(0.05,0,0,0.05,27.950000000000003,0)" xlink:href="#v"/><use transform="matrix(0.05,0,0,0.05,42.9,0)" xlink:href="#t"/><use transform="matrix(0.05,0,0,0.05,52.900000000000006,0)" xlink:href="#w"/><use transform="matrix(0.05,0,0,0.05,57.900000000000006,0)" xlink:href="#O"/><use transform="matrix(0.05,0,0,0.05,67.9,0)" xlink:href="#y"/><use transform="matrix(0.05,0,0,0.05,77.9,0)" xlink:href="#N"/><use transform="matrix(0.05,0,0,0.05,86.9,0)" xlink:href="#t"/><use transform="matrix(0.05,0,0,0.05,96.9,0)" xlink:href="#B"/><use transform="matrix(0.05,0,0,0.05,102.85000000000001,0)" xlink:href="#r"/><use transform="matrix(0.05,0,0,0.05,107.85000000000001,0)" xlink:href="#q"/><use transform="matrix(0.05,0,0,0.05,117.85000000000001,0)" xlink:href="#u"/><use transform="matrix(0.05,0,0,0.05,121.80000000000001,0)" xlink:href="#y"/><use transform="matrix(0.05,0,0,0.05,131.8,0)" xlink:href="#r"/><use transform="matrix(0.05,0,0,0.05,136.8,0)" xlink:href="#Q"/><use transform="matrix(0.05,0,0,0.05,144.45000000000002,0)" xlink:href="#P"/></g><g id="l"><use transform="matrix(0.05,0,0,0.05,0,0)" xlink:href="#F"/><use transform="matrix(0.05,0,0,0.05,10,0)" xlink:href="#s"/><use transform="matrix(0.05,0,0,0.05,19,0)" xlink:href="#r"/><use transform="matrix(0.05,0,0,0.05,24,0)" xlink:href="#u"/><use transform="matrix(0.05,0,0,0.05,27.950000000000003,0)" xlink:href="#v"/><use transform="matrix(0.05,0,0,0.05,42.9,0)" xlink:href="#t"/><use transform="matrix(0.05,0,0,0.05,52.900000000000006,0)" xlink:href="#w"/><use transform="matrix(0.05,0,0,0.05,57.900000000000006,0)" xlink:href="#O"/><use transform="matrix(0.05,0,0,0.05,67.9,0)" xlink:href="#y"/><use transform="matrix(0.05,0,0,0.05,77.9,0)" xlink:href="#N"/><use transform="matrix(0.05,0,0,0.05,86.9,0)" xlink:href="#t"/><use transform="matrix(0.05,0,0,0.05,96.9,0)" xlink:href="#B"/><use transform="matrix(0.05,0,0,0.05,102.85000000000001,0)" xlink:href="#r"/><use transform="matrix(0.05,0,0,0.05,107.85000000000001,0)" xlink:href="#q"/><use transform="matrix(0.05,0,0,0.05,117.85000000000001,0)" xlink:href="#u"/><use transform="matrix(0.05,0,0,0.05,121.80000000000001,0)" xlink:href="#y"/><use transform="matrix(0.05,0,0,0.05,131.8,0)" xlink:href="#r"/><use transform="matrix(0.05,0,0,0.05,136.8,0)" xlink:href="#Q"/><use transform="matrix(0.05,0,0,0.05,145.8,0)" xlink:href="#J"/><use transform="matrix(0.05,0,0,0.05,157.8,0)" xlink:href="#u"/><use transform="matrix(0.05,0,0,0.05,161.75,0)" xlink:href="#F"/><use transform="matrix(0.05,0,0,0.05,171.75,0)" xlink:href="#v"/><use transform="matrix(0.05,0,0,0.05,186.7,0)" xlink:href="#q"/><use transform="matrix(0.05,0,0,0.05,196.7,0)" xlink:href="#P"/></g><path d="M140-251c81 0 123 46 123 126C263-46 219 4 140 4 59 4 17-45 17-125s42-126 123-126zm0 227c63 0 89-41 89-101s-29-99-89-99c-61 0-89 39-89 99S79-25 140-24" id="R"/><g id="m"><use transform="matrix(0.05,0,0,0.05,0,0)" xlink:href="#F"/><use transform="matrix(0.05,0,0,0.05,10,0)" xlink:href="#s"/><use transform="matrix(0.05,0,0,0.05,19,0)" xlink:href="#r"/><use transform="matrix(0.05,0,0,0.05,24,0)" xlink:href="#u"/><use transform="matrix(0.05,0,0,0.05,27.950000000000003,0)" xlink:href="#v"/><use transform="matrix(0.05,0,0,0.05,42.9,0)" xlink:href="#t"/><use transform="matrix(0.05,0,0,0.05,52.900000000000006,0)" xlink:href="#w"/><use transform="matrix(0.05,0,0,0.05,57.900000000000006,0)" xlink:href="#O"/><use transform="matrix(0.05,0,0,0.05,67.9,0)" xlink:href="#y"/><use transform="matrix(0.05,0,0,0.05,77.9,0)" xlink:href="#N"/><use transform="matrix(0.05,0,0,0.05,86.9,0)" xlink:href="#t"/><use transform="matrix(0.05,0,0,0.05,96.9,0)" xlink:href="#B"/><use transform="matrix(0.05,0,0,0.05,102.85000000000001,0)" xlink:href="#r"/><use transform="matrix(0.05,0,0,0.05,107.85000000000001,0)" xlink:href="#q"/><use transform="matrix(0.05,0,0,0.05,117.85000000000001,0)" xlink:href="#u"/><use transform="matrix(0.05,0,0,0.05,121.80000000000001,0)" xlink:href="#y"/><use transform="matrix(0.05,0,0,0.05,131.8,0)" xlink:href="#r"/><use transform="matrix(0.05,0,0,0.05,136.8,0)" xlink:href="#Q"/><use transform="matrix(0.05,0,0,0.05,145.8,0)" xlink:href="#R"/><use transform="matrix(0.05,0,0,0.05,159.8,0)" xlink:href="#C"/><use transform="matrix(0.05,0,0,0.05,163.75,0)" xlink:href="#M"/><use transform="matrix(0.05,0,0,0.05,173.75,0)" xlink:href="#t"/><use transform="matrix(0.05,0,0,0.05,183.75,0)" xlink:href="#B"/><use transform="matrix(0.05,0,0,0.05,188.7,0)" xlink:href="#P"/></g><path d="M137-103V0h-34v-103L8-248h37l75 118 75-118h37" id="S"/><g id="n"><use transform="matrix(0.05,0,0,0.05,0,0)" xlink:href="#F"/><use transform="matrix(0.05,0,0,0.05,10,0)" xlink:href="#s"/><use transform="matrix(0.05,0,0,0.05,19,0)" xlink:href="#r"/><use transform="matrix(0.05,0,0,0.05,24,0)" xlink:href="#u"/><use transform="matrix(0.05,0,0,0.05,27.950000000000003,0)" xlink:href="#v"/><use transform="matrix(0.05,0,0,0.05,42.9,0)" xlink:href="#t"/><use transform="matrix(0.05,0,0,0.05,52.900000000000006,0)" xlink:href="#w"/><use transform="matrix(0.05,0,0,0.05,57.900000000000006,0)" xlink:href="#O"/><use transform="matrix(0.05,0,0,0.05,67.9,0)" xlink:href="#y"/><use transform="matrix(0.05,0,0,0.05,77.9,0)" xlink:href="#N"/><use transform="matrix(0.05,0,0,0.05,86.9,0)" xlink:href="#t"/><use transform="matrix(0.05,0,0,0.05,96.9,0)" xlink:href="#B"/><use transform="matrix(0.05,0,0,0.05,102.85000000000001,0)" xlink:href="#r"/><use transform="matrix(0.05,0,0,0.05,107.85000000000001,0)" xlink:href="#q"/><use transform="matrix(0.05,0,0,0.05,117.85000000000001,0)" xlink:href="#u"/><use transform="matrix(0.05,0,0,0.05,121.80000000000001,0)" xlink:href="#y"/><use transform="matrix(0.05,0,0,0.05,131.8,0)" xlink:href="#r"/><use transform="matrix(0.05,0,0,0.05,136.8,0)" xlink:href="#Q"/><use transform="matrix(0.05,0,0,0.05,145.8,0)" xlink:href="#S"/><use transform="matrix(0.05,0,0,0.05,156.15,0)" xlink:href="#A"/><use transform="matrix(0.05,0,0,0.05,166.15,0)" xlink:href="#O"/><use transform="matrix(0.05,0,0,0.05,176.15,0)" xlink:href="#y"/><use transform="matrix(0.05,0,0,0.05,186.15,0)" xlink:href="#F"/><use transform="matrix(0.05,0,0,0.05,196.15,0)" xlink:href="#t"/><use transform="matrix(0.05,0,0,0.05,206.15,0)" xlink:href="#B"/></g><path d="M232-93c-1 65-40 97-104 97C67 4 28-28 28-90v-158h33c8 89-33 224 67 224 102 0 64-133 71-224h33v155" id="T"/><path d="M205 0l-28-72H64L36 0H1l101-248h38L239 0h-34zm-38-99l-47-123c-12 45-31 82-46 123h93" id="U"/><path d="M115-194c53 0 69 39 70 98 0 66-23 100-70 100C84 3 66-7 56-30L54 0H23l1-261h32v101c10-23 28-34 59-34zm-8 174c40 0 45-34 45-75 0-40-5-75-45-74-42 0-51 32-51 76 0 43 10 73 51 73" id="V"/><g id="o"><use transform="matrix(0.05,0,0,0.05,0,0)" xlink:href="#F"/><use transform="matrix(0.05,0,0,0.05,10,0)" xlink:href="#s"/><use transform="matrix(0.05,0,0,0.05,19,0)" xlink:href="#r"/><use transform="matrix(0.05,0,0,0.05,24,0)" xlink:href="#u"/><use transform="matrix(0.05,0,0,0.05,27.950000000000003,0)" xlink:href="#v"/><use transform="matrix(0.05,0,0,0.05,42.9,0)" xlink:href="#t"/><use transform="matrix(0.05,0,0,0.05,52.900000000000006,0)" xlink:href="#w"/><use transform="matrix(0.05,0,0,0.05,57.900000000000006,0)" xlink:href="#F"/><use transform="matrix(0.05,0,0,0.05,67.9,0)" xlink:href="#t"/><use transform="matrix(0.05,0,0,0.05,77.9,0)" xlink:href="#A"/><use transform="matrix(0.05,0,0,0.05,87.9,0)" xlink:href="#C"/><use transform="matrix(0.05,0,0,0.05,91.85000000000001,0)" xlink:href="#A"/><use transform="matrix(0.05,0,0,0.05,101.85000000000001,0)" xlink:href="#F"/><use transform="matrix(0.05,0,0,0.05,111.85000000000001,0)" xlink:href="#u"/><use transform="matrix(0.05,0,0,0.05,115.80000000000001,0)" xlink:href="#N"/><use transform="matrix(0.05,0,0,0.05,124.80000000000001,0)" xlink:href="#G"/><use transform="matrix(0.05,0,0,0.05,135.1,0)" xlink:href="#u"/><use transform="matrix(0.05,0,0,0.05,139.04999999999998,0)" xlink:href="#v"/><use transform="matrix(0.05,0,0,0.05,153.99999999999997,0)" xlink:href="#t"/><use transform="matrix(0.05,0,0,0.05,163.99999999999997,0)" xlink:href="#T"/><use transform="matrix(0.05,0,0,0.05,176.94999999999996,0)" xlink:href="#y"/><use transform="matrix(0.05,0,0,0.05,186.94999999999996,0)" xlink:href="#u"/><use transform="matrix(0.05,0,0,0.05,190.89999999999995,0)" xlink:href="#r"/><use transform="matrix(0.05,0,0,0.05,195.89999999999995,0)" xlink:href="#U"/><use transform="matrix(0.05,0,0,0.05,207.89999999999998,0)" xlink:href="#V"/><use transform="matrix(0.05,0,0,0.05,217.89999999999998,0)" xlink:href="#V"/><use transform="matrix(0.05,0,0,0.05,227.89999999999998,0)" xlink:href="#B"/><use transform="matrix(0.05,0,0,0.05,233.8499999999999,0)" xlink:href="#t"/><use transform="matrix(0.05,0,0,0.05,243.8499999999999,0)" xlink:href="#E"/><use transform="matrix(0.05,0,0,0.05,252.8499999999999,0)" xlink:href="#u"/><use transform="matrix(0.05,0,0,0.05,256.79999999999995,0)" xlink:href="#q"/><use transform="matrix(0.05,0,0,0.05,266.79999999999995,0)" xlink:href="#r"/><use transform="matrix(0.05,0,0,0.05,271.79999999999995,0)" xlink:href="#u"/><use transform="matrix(0.05,0,0,0.05,275.74999999999994,0)" xlink:href="#A"/><use transform="matrix(0.05,0,0,0.05,285.74999999999994,0)" xlink:href="#y"/></g></defs></g></svg>