<svg xmlns="http://www.w3.org/2000/svg" xmlns:xlink="http://www.w3.org/1999/xlink" xmlns:lucid="lucid" width="540" height="350"><g transform="translate(-60 1280)" lucid:page-tab-id="0_0"><path d="M80-1220h148v100H80z" stroke="#000" stroke-width="2" fill="#c7e8ac"/><use xlink:href="#a" transform="matrix(1,0,0,1,85,-1215) translate(38.025 48.6)"/><path d="M229-1170h201v-55h30.76" stroke="#000" stroke-width="2" fill="none"/><path d="M229-1169h-1v-2h1zM475.76-1225l-14.26 4.64v-9.28z"/><path d="M479-1225l-18.5 6v-12zm-16.5 3.26l10.03-3.26-10.03-3.26z"/><use xlink:href="#b" transform="matrix(1,0,0,1,252.79166666666669,-1195.6) translate(0 14.4)"/><path d="M580-1105c0 19.33-22.4 35-50 35s-50-15.67-50-35 22.4-35 50-35 50 15.67 50 35z" stroke="#000" stroke-width="2" fill="#b2d6ef"/><use xlink:href="#c" transform="matrix(1,0,0,1,485,-1135) translate(6.424999999999997 33.6)"/><path d="M580-1225c0 19.33-22.4 35-50 35s-50-15.67-50-35 22.4-35 50-35 50 15.67 50 35z" stroke="#000" stroke-width="2" fill="#b2d6ef"/><use xlink:href="#d" transform="matrix(1,0,0,1,485,-1255) translate(28.525 33.6)"/><path d="M229-1170h201v65h30.76" stroke="#000" stroke-width="2" fill="none"/><path d="M229-1169h-1v-2h1zM475.76-1105l-14.26 4.64v-9.28z"/><path d="M479-1105l-18.5 6v-12zm-16.5 3.26l10.03-3.26-10.03-3.26z"/><path d="M580-985c0 19.33-22.4 35-50 35s-50-15.67-50-35 22.4-35 50-35 50 15.67 50 35z" stroke="#000" stroke-width="2" fill="#b2d6ef"/><use xlink:href="#e" transform="matrix(1,0,0,1,485,-1015) translate(27.049999999999997 33.6)"/><path d="M229-1170h201v185h30.76" stroke="#000" stroke-width="2" fill="none"/><path d="M229-1169h-1v-2h1zM475.76-985l-14.26 4.64v-9.28z"/><path d="M479-985l-18.5 6v-12zm-16.5 3.26l10.03-3.26-10.03-3.26z"/><defs><path d="M30-248c118-7 216 8 213 122C240-48 200 0 122 0H30v-248zM63-27c89 8 146-16 146-99s-60-101-146-95v194" id="f"/><path d="M141-36C126-15 110 5 73 4 37 3 15-17 15-53c-1-64 63-63 125-63 3-35-9-54-41-54-24 1-41 7-42 31l-33-3c5-37 33-52 76-52 45 0 72 20 72 64v82c-1 20 7 32 28 27v20c-31 9-61-2-59-35zM48-53c0 20 12 33 32 33 41-3 63-29 60-74-43 2-92-5-92 41" id="g"/><path d="M59-47c-2 24 18 29 38 22v24C64 9 27 4 27-40v-127H5v-23h24l9-43h21v43h35v23H59v120" id="h"/><path d="M135-143c-3-34-86-38-87 0 15 53 115 12 119 90S17 21 10-45l28-5c4 36 97 45 98 0-10-56-113-15-118-90-4-57 82-63 122-42 12 7 21 19 24 35" id="i"/><path d="M100-194c63 0 86 42 84 106H49c0 40 14 67 53 68 26 1 43-12 49-29l28 8c-11 28-37 45-77 45C44 4 14-33 15-96c1-61 26-98 85-98zm52 81c6-60-76-77-97-28-3 7-6 17-6 28h103" id="j"/><g id="a"><use transform="matrix(0.05,0,0,0.05,0,0)" xlink:href="#f"/><use transform="matrix(0.05,0,0,0.05,12.950000000000001,0)" xlink:href="#g"/><use transform="matrix(0.05,0,0,0.05,22.950000000000003,0)" xlink:href="#h"/><use transform="matrix(0.05,0,0,0.05,27.950000000000003,0)" xlink:href="#g"/><use transform="matrix(0.05,0,0,0.05,37.95,0)" xlink:href="#i"/><use transform="matrix(0.05,0,0,0.05,46.95,0)" xlink:href="#j"/><use transform="matrix(0.05,0,0,0.05,56.95,0)" xlink:href="#h"/></g><path d="M210-169c-67 3-38 105-44 169h-31v-121c0-29-5-50-35-48C34-165 62-65 56 0H25l-1-190h30c1 10-1 24 2 32 10-44 99-50 107 0 11-21 27-35 58-36 85-2 47 119 55 194h-31v-121c0-29-5-49-35-48" id="k"/><path d="M115-194c55 1 70 41 70 98S169 2 115 4C84 4 66-9 55-30l1 105H24l-1-265h31l2 30c10-21 28-34 59-34zm-8 174c40 0 45-34 45-75s-6-73-45-74c-42 0-51 32-51 76 0 43 10 73 51 73" id="l"/><path d="M100-194c62-1 85 37 85 99 1 63-27 99-86 99S16-35 15-95c0-66 28-99 85-99zM99-20c44 1 53-31 53-75 0-43-8-75-51-75s-53 32-53 75 10 74 51 75" id="m"/><path d="M114-163C36-179 61-72 57 0H25l-1-190h30c1 12-1 29 2 39 6-27 23-49 58-41v29" id="n"/><path d="M24 0v-261h32V0H24" id="o"/><path d="M212-179c-10-28-35-45-73-45-59 0-87 40-87 99 0 60 29 101 89 101 43 0 62-24 78-52l27 14C228-24 195 4 139 4 59 4 22-46 18-125c-6-104 99-153 187-111 19 9 31 26 39 46" id="p"/><path d="M108 0H70L1-190h34L89-25l56-165h34" id="q"/><path d="M177-190C167-65 218 103 67 71c-23-6-38-20-44-43l32-5c15 47 100 32 89-28v-30C133-14 115 1 83 1 29 1 15-40 15-95c0-56 16-97 71-98 29-1 48 16 59 35 1-10 0-23 2-32h30zM94-22c36 0 50-32 50-73 0-42-14-75-50-75-39 0-46 34-46 75s6 73 46 73" id="r"/><g id="b"><use transform="matrix(0.05,0,0,0.05,0,0)" xlink:href="#h"/><use transform="matrix(0.05,0,0,0.05,5,0)" xlink:href="#j"/><use transform="matrix(0.05,0,0,0.05,15,0)" xlink:href="#k"/><use transform="matrix(0.05,0,0,0.05,29.950000000000003,0)" xlink:href="#l"/><use transform="matrix(0.05,0,0,0.05,39.95,0)" xlink:href="#m"/><use transform="matrix(0.05,0,0,0.05,49.95,0)" xlink:href="#n"/><use transform="matrix(0.05,0,0,0.05,55.900000000000006,0)" xlink:href="#g"/><use transform="matrix(0.05,0,0,0.05,65.9,0)" xlink:href="#o"/><use transform="matrix(0.05,0,0,0.05,69.85000000000001,0)" xlink:href="#p"/><use transform="matrix(0.05,0,0,0.05,82.80000000000001,0)" xlink:href="#m"/><use transform="matrix(0.05,0,0,0.05,92.80000000000001,0)" xlink:href="#q"/><use transform="matrix(0.05,0,0,0.05,101.80000000000001,0)" xlink:href="#j"/><use transform="matrix(0.05,0,0,0.05,111.80000000000001,0)" xlink:href="#n"/><use transform="matrix(0.05,0,0,0.05,117.75,0)" xlink:href="#g"/><use transform="matrix(0.05,0,0,0.05,127.75,0)" xlink:href="#r"/><use transform="matrix(0.05,0,0,0.05,137.75,0)" xlink:href="#j"/></g><path d="M127-220V0H93v-220H8v-28h204v28h-85" id="s"/><path d="M24-231v-30h32v30H24zM24 0v-190h32V0H24" id="t"/><g id="c"><use transform="matrix(0.05,0,0,0.05,0,0)" xlink:href="#f"/><use transform="matrix(0.05,0,0,0.05,12.950000000000001,0)" xlink:href="#g"/><use transform="matrix(0.05,0,0,0.05,22.950000000000003,0)" xlink:href="#h"/><use transform="matrix(0.05,0,0,0.05,27.950000000000003,0)" xlink:href="#j"/><use transform="matrix(0.05,0,0,0.05,37.95,0)" xlink:href="#s"/><use transform="matrix(0.05,0,0,0.05,48.25000000000001,0)" xlink:href="#t"/><use transform="matrix(0.05,0,0,0.05,52.20000000000002,0)" xlink:href="#k"/><use transform="matrix(0.05,0,0,0.05,67.15,0)" xlink:href="#j"/></g><path d="M141 0L90-78 38 0H4l68-98-65-92h35l48 74 47-74h35l-64 92 68 98h-35" id="u"/><g id="d"><use transform="matrix(0.05,0,0,0.05,0,0)" xlink:href="#s"/><use transform="matrix(0.05,0,0,0.05,8.950000000000001,0)" xlink:href="#j"/><use transform="matrix(0.05,0,0,0.05,18.950000000000003,0)" xlink:href="#u"/><use transform="matrix(0.05,0,0,0.05,27.950000000000003,0)" xlink:href="#h"/></g><path d="M232-93c-1 65-40 97-104 97C67 4 28-28 28-90v-158h33c8 89-33 224 67 224 102 0 64-133 71-224h33v155" id="v"/><path d="M233-177c-1 41-23 64-60 70L243 0h-38l-65-103H63V0H30v-248c88 3 205-21 203 71zM63-129c60-2 137 13 137-47 0-61-80-42-137-45v92" id="w"/><path d="M30 0v-248h33v221h125V0H30" id="x"/><g id="e"><use transform="matrix(0.05,0,0,0.05,0,0)" xlink:href="#v"/><use transform="matrix(0.05,0,0,0.05,12.950000000000001,0)" xlink:href="#w"/><use transform="matrix(0.05,0,0,0.05,25.900000000000002,0)" xlink:href="#x"/></g></defs></g></svg>