<?xml version="1.0" encoding="UTF-8"?>
<svg width="781px" height="460px" viewBox="0 0 781 460" version="1.1" xmlns="http://www.w3.org/2000/svg" xmlns:xlink="http://www.w3.org/1999/xlink">
    <title>dataset_funding</title>
    <g id="Page-1" stroke="none" stroke-width="1" fill="none" fill-rule="evenodd">
        <line x1="309" y1="70" x2="149" y2="70" id="Path" stroke="#000000" stroke-width="2"></line>
        <polyline id="Line-2" stroke="#000000" stroke-width="2" stroke-linecap="square" points="457.5 106.5 517.5 106.5 517.5 228.5 547.5 228.5"></polyline>
        <polyline id="Path" stroke="#000000" stroke-width="2" points="459.76 229 550.154243 229 550.154243 204 673.76 204"></polyline>
        <polygon id="Path" stroke="#000000" stroke-width="2" fill="#C7E8AC" fill-rule="nonzero" points="632 359 780 359 780 459 632 459"></polygon>
        <polygon id="Path" stroke="#000000" stroke-width="2" fill="#C7E8AC" fill-rule="nonzero" points="310 20 458 20 458 120 310 120"></polygon>
        <g id="a-link" transform="translate(325.575000, 61.007805)" fill="#000000" fill-rule="nonzero">
            <g id="a">
                <g id="p-link" transform="translate(0.000000, 0.192195)">
                    <path d="M10.5,12.4 L10.6,1.5 C9.45,5.3 7.9,8.75 6.6,12.4 L5.45,12.4 L1.4,1.5 L1.45,12.4 L0,12.4 L0,0 L2.2,0 L6.05,10.55 C7.1,6.8 8.6,3.55 9.85,0 L12,0 L12,12.4 L10.5,12.4" id="p"></path>
                </g>
                <g id="q-link" transform="translate(14.200000, 2.891231)">
                    <path d="M4.25,0.000963124773 C7.35,-0.0490368752 8.5,1.85096312 8.5,4.95096312 C8.55,8.10096312 7.15,9.90096312 4.2,9.90096312 C1.25,9.90096312 0.05,7.95096312 0,4.95096312 C0,1.65096312 1.4,0.000963124773 4.25,0.000963124773 Z M4.2,8.70096312 C6.4,8.75096312 6.85,7.15096312 6.85,4.95096312 C6.85,2.80096312 6.45,1.20096312 4.3,1.20096312 C2.15,1.20096312 1.65,2.80096312 1.65,4.95096312 C1.65,7.10096312 2.15,8.65096312 4.2,8.70096312" id="q"></path>
                </g>
                <g id="r-link" transform="translate(24.650000, 2.887320)">
                    <path d="M4.65,0.0048741121 C9.1,-0.195125888 7.3,5.80487411 7.65,9.70487411 L6.05,9.70487411 L6.05,3.65487411 C6.05,2.10487411 5.65,1.20487411 4.1,1.25487411 C0.5,1.35487411 1.9,6.35487411 1.65,9.70487411 L0.05,9.70487411 L0,0.204874112 L1.5,0.204874112 C1.55,0.704874112 1.45,1.40487411 1.6,1.80487411 C2.15,0.704874112 3.05,0.0548741121 4.65,0.0048741121" id="r"></path>
                </g>
                <g id="s-link" transform="translate(34.198790, 2.892195)">
                    <path d="M4.25121031,0 C7.40121031,0 8.55121031,2.1 8.45121031,5.3 L1.70121031,5.3 C1.70121031,7.3 2.40121031,8.65 4.35121031,8.7 C5.65121031,8.75 6.50121031,8.1 6.80121031,7.25 L8.20121031,7.65 C7.65121031,9.05 6.35121031,9.9 4.35121031,9.9 C1.45121031,9.9 -0.0487896925,8.05 0.00121030754,4.9 C0.0512103075,1.85 1.30121031,0 4.25121031,0 Z M6.85121031,4.05 C7.15121031,1.05 3.05121031,0.2 2.00121031,2.65 C1.85121031,3 1.70121031,3.5 1.70121031,4.05 L6.85121031,4.05" id="s"></path>
                </g>
                <g id="t-link" transform="translate(43.700000, 0.942195)">
                    <path d="M2.7,9.3 C2.6,10.5 3.6,10.75 4.6,10.4 L4.6,11.6 C2.95,12.1 1.1,11.85 1.1,9.65 L1.1,3.3 L0,3.3 L0,2.15 L1.2,2.15 L1.65,0 L2.7,0 L2.7,2.15 L4.45,2.15 L4.45,3.3 L2.7,3.3 L2.7,9.3" id="t"></path>
                </g>
                <g id="u-link" transform="translate(49.199422, 2.892195)">
                    <path d="M6.30057846,7.9 C5.55057846,8.95 4.75057846,9.95 2.90057846,9.9 C1.10057846,9.85 0.000578457024,8.85 0.000578457024,7.05 C-0.049421543,3.85 3.15057846,3.9 6.25057846,3.9 C6.40057846,2.15 5.80057846,1.2 4.20057846,1.2 C3.00057846,1.25 2.15057846,1.55 2.10057846,2.75 L0.450578457,2.6 C0.700578457,0.75 2.10057846,0 4.25057846,0 C6.50057846,0 7.85057846,1 7.85057846,3.2 L7.85057846,7.3 C7.80057846,8.3 8.20057846,8.9 9.25057846,8.65 L9.25057846,9.65 C7.70057846,10.1 6.20057846,9.55 6.30057846,7.9 Z M1.65057846,7.05 C1.65057846,8.05 2.25057846,8.7 3.25057846,8.7 C5.30057846,8.55 6.40057846,7.25 6.25057846,5 C4.10057846,5.1 1.65057846,4.75 1.65057846,7.05" id="u"></path>
                </g>
                <g id="v-link" transform="translate(59.650000, 2.908953)">
                    <path d="M4.5,1.53324147 C0.6,0.733241468 1.85,6.08324147 1.65,9.68324147 L0.05,9.68324147 L0,0.183241468 L1.5,0.183241468 C1.55,0.783241468 1.45,1.63324147 1.6,2.13324147 C1.9,0.783241468 2.75,-0.316758532 4.5,0.0832414684 L4.5,1.53324147" id="v"></path>
                </g>
                <g id="w-link" transform="translate(64.450000, 3.092195)">
                    <path d="M8.9,0 L4.6,11.05 C3.9,12.45 2.75,13.6 0.55,13.15 L0.55,11.95 C2.5,12.25 3.2,10.95 3.75,9.45 L0,0 L1.7,0 L4.55,7.8 L7.25,0 L8.9,0" id="w"></path>
                </g>
                <g id="x-link" transform="translate(74.291404, 0.000000)">
                    <path d="M6.25859573,12.7921946 C2.15859573,12.7921946 0.208595726,10.3921946 0.0085957259,6.3421946 C-0.241404274,0.992194602 5.00859573,-1.3578054 9.65859573,0.792194602 C10.5085957,1.1921946 11.1085957,2.0421946 11.5085957,2.9421946 L9.90859573,3.3921946 C9.25859573,2.1421946 8.05859573,1.3921946 6.10859573,1.3921946 C3.05859573,1.3921946 1.70859573,3.3421946 1.70859573,6.3421946 C1.70859573,9.3921946 3.15859573,11.3421946 6.25859573,11.3921946 C8.00859573,11.3921946 9.35859573,10.8421946 10.2085957,10.0421946 L10.2085957,7.7921946 L6.50859573,7.7921946 L6.50859573,6.3921946 L11.7585957,6.3921946 L11.7585957,10.6921946 C10.5085957,11.9421946 8.70859573,12.7921946 6.25859573,12.7921946" id="x"></path>
                </g>
                <g id="v-link" transform="translate(88.600000, 2.908953)">
                    <path d="M4.5,1.53324147 C0.6,0.733241468 1.85,6.08324147 1.65,9.68324147 L0.05,9.68324147 L0,0.183241468 L1.5,0.183241468 C1.55,0.783241468 1.45,1.63324147 1.6,2.13324147 C1.9,0.783241468 2.75,-0.316758532 4.5,0.0832414684 L4.5,1.53324147" id="v"></path>
                </g>
                <g id="u-link" transform="translate(94.099422, 2.892195)">
                    <path d="M6.30057846,7.9 C5.55057846,8.95 4.75057846,9.95 2.90057846,9.9 C1.10057846,9.85 0.000578457024,8.85 0.000578457024,7.05 C-0.049421543,3.85 3.15057846,3.9 6.25057846,3.9 C6.40057846,2.15 5.80057846,1.2 4.20057846,1.2 C3.00057846,1.25 2.15057846,1.55 2.10057846,2.75 L0.450578457,2.6 C0.700578457,0.75 2.10057846,0 4.25057846,0 C6.50057846,0 7.85057846,1 7.85057846,3.2 L7.85057846,7.3 C7.80057846,8.3 8.20057846,8.9 9.25057846,8.65 L9.25057846,9.65 C7.70057846,10.1 6.20057846,9.55 6.30057846,7.9 Z M1.65057846,7.05 C1.65057846,8.05 2.25057846,8.7 3.25057846,8.7 C5.30057846,8.55 6.40057846,7.25 6.25057846,5 C4.10057846,5.1 1.65057846,4.75 1.65057846,7.05" id="u"></path>
                </g>
                <g id="r-link" transform="translate(104.550000, 2.887320)">
                    <path d="M4.65,0.0048741121 C9.1,-0.195125888 7.3,5.80487411 7.65,9.70487411 L6.05,9.70487411 L6.05,3.65487411 C6.05,2.10487411 5.65,1.20487411 4.1,1.25487411 C0.5,1.35487411 1.9,6.35487411 1.65,9.70487411 L0.05,9.70487411 L0,0.204874112 L1.5,0.204874112 C1.55,0.704874112 1.45,1.40487411 1.6,1.80487411 C2.15,0.704874112 3.05,0.0548741121 4.65,0.0048741121" id="r"></path>
                </g>
                <g id="t-link" transform="translate(113.600000, 0.942195)">
                    <path d="M2.7,9.3 C2.6,10.5 3.6,10.75 4.6,10.4 L4.6,11.6 C2.95,12.1 1.1,11.85 1.1,9.65 L1.1,3.3 L0,3.3 L0,2.15 L1.2,2.15 L1.65,0 L2.7,0 L2.7,2.15 L4.45,2.15 L4.45,3.3 L2.7,3.3 L2.7,9.3" id="t"></path>
                </g>
            </g>
        </g>
        <g id="b-link" transform="translate(651.250000, 399.550000)" fill="#000000" fill-rule="nonzero">
            <g id="b">
                <g id="y-link" transform="translate(0.000000, 0.624121)">
                    <path d="M0,0.025879175 C4.35,0.075879175 9.55,-0.724120825 9.55,3.77587918 C9.55,7.67587918 5.7,7.77587918 1.65,7.57587918 L1.65,12.4258792 L0,12.4258792 L0,0.025879175 Z M1.65,6.27587918 C4.5,6.27587918 7.85,6.82587918 7.85,3.77587918 C7.85,0.825879175 4.45,1.42587918 1.65,1.37587918 L1.65,6.27587918" id="y"></path>
                </g>
                <g id="v-link" transform="translate(11.700000, 3.366759)">
                    <path d="M4.5,1.53324147 C0.6,0.733241468 1.85,6.08324147 1.65,9.68324147 L0.05,9.68324147 L0,0.183241468 L1.5,0.183241468 C1.55,0.783241468 1.45,1.63324147 1.6,2.13324147 C1.9,0.783241468 2.75,-0.316758532 4.5,0.0832414684 L4.5,1.53324147" id="v"></path>
                </g>
                <g id="q-link" transform="translate(17.200000, 3.349037)">
                    <path d="M4.25,0.000963124773 C7.35,-0.0490368752 8.5,1.85096312 8.5,4.95096312 C8.55,8.10096312 7.15,9.90096312 4.2,9.90096312 C1.25,9.90096312 0.05,7.95096312 0,4.95096312 C0,1.65096312 1.4,0.000963124773 4.25,0.000963124773 Z M4.2,8.70096312 C6.4,8.75096312 6.85,7.15096312 6.85,4.95096312 C6.85,2.80096312 6.45,1.20096312 4.3,1.20096312 C2.15,1.20096312 1.65,2.80096312 1.65,4.95096312 C1.65,7.10096312 2.15,8.65096312 4.2,8.70096312" id="q"></path>
                </g>
                <g id="z-link" transform="translate(27.600000, 3.350000)">
                    <path d="M4.6,0 C7.35,0.05 8.1,2.05 8.1,4.9 C8.1,7.75 7.3,9.8 4.6,9.9 C3.05,9.9 2.15,9.25 1.6,8.2 L1.65,13.45 L0.05,13.45 L0,0.2 L1.55,0.2 L1.65,1.7 C2.15,0.65 3.05,0 4.6,0 Z M4.2,8.7 C6.2,8.7 6.45,7 6.45,4.95 C6.45,2.9 6.15,1.3 4.2,1.25 C2.1,1.25 1.65,2.85 1.65,5.05 C1.65,7.2 2.15,8.7 4.2,8.7" id="z"></path>
                </g>
                <g id="s-link" transform="translate(37.198790, 3.350000)">
                    <path d="M4.25121031,0 C7.40121031,0 8.55121031,2.1 8.45121031,5.3 L1.70121031,5.3 C1.70121031,7.3 2.40121031,8.65 4.35121031,8.7 C5.65121031,8.75 6.50121031,8.1 6.80121031,7.25 L8.20121031,7.65 C7.65121031,9.05 6.35121031,9.9 4.35121031,9.9 C1.45121031,9.9 -0.0487896925,8.05 0.00121030754,4.9 C0.0512103075,1.85 1.30121031,0 4.25121031,0 Z M6.85121031,4.05 C7.15121031,1.05 3.05121031,0.2 2.00121031,2.65 C1.85121031,3 1.70121031,3.5 1.70121031,4.05 L6.85121031,4.05" id="s"></path>
                </g>
                <g id="v-link" transform="translate(47.650000, 3.366759)">
                    <path d="M4.5,1.53324147 C0.6,0.733241468 1.85,6.08324147 1.65,9.68324147 L0.05,9.68324147 L0,0.183241468 L1.5,0.183241468 C1.55,0.783241468 1.45,1.63324147 1.6,2.13324147 C1.9,0.783241468 2.75,-0.316758532 4.5,0.0832414684 L4.5,1.53324147" id="v"></path>
                </g>
                <g id="t-link" transform="translate(52.650000, 1.400000)">
                    <path d="M2.7,9.3 C2.6,10.5 3.6,10.75 4.6,10.4 L4.6,11.6 C2.95,12.1 1.1,11.85 1.1,9.65 L1.1,3.3 L0,3.3 L0,2.15 L1.2,2.15 L1.65,0 L2.7,0 L2.7,2.15 L4.45,2.15 L4.45,3.3 L2.7,3.3 L2.7,9.3" id="t"></path>
                </g>
                <g id="w-link" transform="translate(57.450000, 3.550000)">
                    <path d="M8.9,0 L4.6,11.05 C3.9,12.45 2.75,13.6 0.55,13.15 L0.55,11.95 C2.5,12.25 3.2,10.95 3.75,9.45 L0,0 L1.7,0 L4.55,7.8 L7.25,0 L8.9,0" id="w"></path>
                </g>
                <g id="A-link" transform="translate(66.500000, 0.650000)">
                    <polyline id="A" points="6.75 12.4 5.05 12.4 0 0 1.75 0 5.9 10.9 10.05 0 11.85 0"></polyline>
                </g>
                <g id="u-link" transform="translate(77.799422, 3.350000)">
                    <path d="M6.30057846,7.9 C5.55057846,8.95 4.75057846,9.95 2.90057846,9.9 C1.10057846,9.85 0.000578457024,8.85 0.000578457024,7.05 C-0.049421543,3.85 3.15057846,3.9 6.25057846,3.9 C6.40057846,2.15 5.80057846,1.2 4.20057846,1.2 C3.00057846,1.25 2.15057846,1.55 2.10057846,2.75 L0.450578457,2.6 C0.700578457,0.75 2.10057846,0 4.25057846,0 C6.50057846,0 7.85057846,1 7.85057846,3.2 L7.85057846,7.3 C7.80057846,8.3 8.20057846,8.9 9.25057846,8.65 L9.25057846,9.65 C7.70057846,10.1 6.20057846,9.55 6.30057846,7.9 Z M1.65057846,7.05 C1.65057846,8.05 2.25057846,8.7 3.25057846,8.7 C5.30057846,8.55 6.40057846,7.25 6.25057846,5 C4.10057846,5.1 1.65057846,4.75 1.65057846,7.05" id="u"></path>
                </g>
                <g id="B-link" transform="translate(88.250000, 0.000000)">
                    <polyline id="B" points="0 13.05 0 0 1.6 0 1.6 13.05 0 13.05"></polyline>
                </g>
                <g id="C-link" transform="translate(92.093198, 3.550000)">
                    <path d="M3.10680245,9.7 C-1.34319755,9.9 0.406802454,3.9 0.0568024545,0 L1.65680245,0 L1.65680245,6 C1.65680245,7.55 2.00680245,8.5 3.60680245,8.45 C7.20680245,8.35 5.85680245,3.4 6.10680245,0 L7.65680245,0 L7.70680245,9.5 L6.20680245,9.5 C6.15680245,9 6.25680245,8.25 6.10680245,7.85 C5.55680245,8.95 4.70680245,9.65 3.10680245,9.7" id="C"></path>
                </g>
                <g id="s-link" transform="translate(101.748790, 3.350000)">
                    <path d="M4.25121031,0 C7.40121031,0 8.55121031,2.1 8.45121031,5.3 L1.70121031,5.3 C1.70121031,7.3 2.40121031,8.65 4.35121031,8.7 C5.65121031,8.75 6.50121031,8.1 6.80121031,7.25 L8.20121031,7.65 C7.65121031,9.05 6.35121031,9.9 4.35121031,9.9 C1.45121031,9.9 -0.0487896925,8.05 0.00121030754,4.9 C0.0512103075,1.85 1.30121031,0 4.25121031,0 Z M6.85121031,4.05 C7.15121031,1.05 3.05121031,0.2 2.00121031,2.65 C1.85121031,3 1.70121031,3.5 1.70121031,4.05 L6.85121031,4.05" id="s"></path>
                </g>
            </g>
        </g>
        <polyline id="Path" stroke="#000000" stroke-width="2" points="469 229 550 229 550 409 612.76 409"></polyline>
        <path d="M469,230 L468,230 L468,228 L469,228 L469,230 Z M627.76,409 L613.5,413.64 L613.5,404.36 L627.76,409 Z" id="Shape" fill="#000000" fill-rule="nonzero"></path>
        <path d="M631,409 L612.5,415 L612.5,403 L631,409 Z M614.5,412.26 L624.53,409 L614.5,405.74 L614.5,412.26 Z" id="Shape" fill="#000000" fill-rule="nonzero"></path>
        <g id="c-link" transform="translate(472.300000, 236.142825)" fill="#000000" fill-rule="nonzero">
            <g id="c">
                <g id="D-link" transform="translate(0.000000, 0.021337)">
                    <path d="M2.2,1.5 L2.5,0 L4.1,0 L3.8,1.5 L2.2,1.5 Z M0,13.05 L1.85,3.55 L3.4,3.55 L1.55,13.05 L0,13.05" id="D"></path>
                </g>
                <g id="E-link" transform="translate(4.199489, 0.021337)">
                    <path d="M6.10051139,11.65 C4.60051139,14.35 -0.79948861,13.45 0.10051139,9.2 C0.75051139,6.1 1.30051139,3.45 4.60051139,3.35 C6.05051139,3.3 6.90051139,4.1 7.40051139,5.1 L8.35051139,0 L9.95051139,0 L7.45051139,13.05 L5.95051139,13.05 L6.10051139,11.65 Z M1.70051139,9.85 C1.60051139,11.2 2.20051139,12 3.45051139,12 C6.15051139,11.95 6.90051139,9.5 6.90051139,6.85 C6.90051139,5.4 6.15051139,4.55 4.80051139,4.55 C2.15051139,4.5 1.90051139,7.45 1.70051139,9.85" id="E"></path>
                </g>
                <g id="F-link" transform="translate(14.250000, 3.364918)">
                    <path d="M4.95,0.00641869801 C8.05,-0.143581302 9.25,2.3564187 8.55,5.3064187 L1.65,5.3064187 C1.3,7.2064187 1.95,8.7564187 3.9,8.7064187 C5.25,8.6564187 6.05,8.0064187 6.55,7.1064187 L7.75,7.6564187 C7,8.9564187 5.85,9.9064187 3.75,9.9064187 C1.3,9.8564187 0,8.5564187 0,6.1564187 C0,2.6564187 1.6,0.206418698 4.95,0.00641869801 Z M7.15,4.0564187 C7.85,0.756418698 3.6,0.456418698 2.4,2.6564187 C2.2,3.0564187 2,3.5064187 1.85,4.0564187 L7.15,4.0564187" id="F"></path>
                </g>
                <g id="G-link" transform="translate(23.950000, 3.454637)">
                    <path d="M3.05,1.71669946 C4.15,-0.683300543 9.65,-0.883300543 8.85,3.16669946 L7.6,9.61669946 L6,9.61669946 L7.25,2.61669946 C7.4,0.716699457 4.6,1.01669946 3.75,2.01669946 C2.3,3.76669946 2.25,7.01669946 1.6,9.61669946 L0,9.61669946 L1.8,0.116699457 L3.3,0.116699457" id="G"></path>
                </g>
                <g id="H-link" transform="translate(34.525081, 1.421337)">
                    <path d="M1.67491898,8.95 C1.22491898,10.05 1.92491898,11 3.22491898,10.45 L3.07491898,11.6 C1.27491898,12.35 -0.375081015,11.45 0.074918985,9.05 L1.17491898,3.3 L0.074918985,3.3 L0.324918985,2.15 L1.42491898,2.15 L2.37491898,0 L3.42491898,0 L2.97491898,2.15 L4.72491898,2.15 L4.52491898,3.3 L2.77491898,3.3" id="H"></path>
                </g>
                <g id="D-link" transform="translate(38.950000, 0.021337)">
                    <path d="M2.2,1.5 L2.5,0 L4.1,0 L3.8,1.5 L2.2,1.5 Z M0,13.05 L1.85,3.55 L3.4,3.55 L1.55,13.05 L0,13.05" id="D"></path>
                </g>
                <g id="I-link" transform="translate(43.200000, 0.000000)">
                    <path d="M3.2,4.72133685 L1.6,13.0713368 L0,13.0713368 L1.65,4.72133685 L0.3,4.72133685 L0.5,3.57133685 L1.85,3.57133685 C2,1.22133685 3.1,-0.478663154 5.95,0.121336846 L5.75,1.32133685 C4,0.921336846 3.55,2.07133685 3.45,3.57133685 L5.3,3.57133685 L5.05,4.72133685 L3.2,4.72133685" id="I"></path>
                </g>
                <g id="D-link" transform="translate(47.900000, 0.021337)">
                    <path d="M2.2,1.5 L2.5,0 L4.1,0 L3.8,1.5 L2.2,1.5 Z M0,13.05 L1.85,3.55 L3.4,3.55 L1.55,13.05 L0,13.05" id="D"></path>
                </g>
                <g id="F-link" transform="translate(52.150000, 3.364918)">
                    <path d="M4.95,0.00641869801 C8.05,-0.143581302 9.25,2.3564187 8.55,5.3064187 L1.65,5.3064187 C1.3,7.2064187 1.95,8.7564187 3.9,8.7064187 C5.25,8.6564187 6.05,8.0064187 6.55,7.1064187 L7.75,7.6564187 C7,8.9564187 5.85,9.9064187 3.75,9.9064187 C1.3,9.8564187 0,8.5564187 0,6.1564187 C0,2.6564187 1.6,0.206418698 4.95,0.00641869801 Z M7.15,4.0564187 C7.85,0.756418698 3.6,0.456418698 2.4,2.6564187 C2.2,3.0564187 2,3.5064187 1.85,4.0564187 L7.15,4.0564187" id="F"></path>
                </g>
                <g id="J-link" transform="translate(61.850000, 3.391613)">
                    <path d="M3,2.12972381 C3.6,0.879723808 4.5,-0.420276192 6.3,0.129723808 L6,1.42972381 C1.95,0.879723808 2.6,6.42972381 1.6,9.67972381 L0,9.67972381 L1.8,0.179723808 L3.3,0.179723808" id="J"></path>
                </g>
            </g>
        </g>
        <g id="c-link" transform="translate(506.375000, 161.782228) rotate(-90.000000) translate(-506.375000, -161.782228) translate(472.300000, 155.142825)" fill="#000000" fill-rule="nonzero">
            <g id="c">
                <g id="D-link" transform="translate(0.000000, 0.021337)">
                    <path d="M2.2,1.5 L2.5,0 L4.1,0 L3.8,1.5 L2.2,1.5 Z M0,13.05 L1.85,3.55 L3.4,3.55 L1.55,13.05 L0,13.05" id="D"></path>
                </g>
                <g id="E-link" transform="translate(4.199489, 0.021337)">
                    <path d="M6.10051139,11.65 C4.60051139,14.35 -0.79948861,13.45 0.10051139,9.2 C0.75051139,6.1 1.30051139,3.45 4.60051139,3.35 C6.05051139,3.3 6.90051139,4.1 7.40051139,5.1 L8.35051139,0 L9.95051139,0 L7.45051139,13.05 L5.95051139,13.05 L6.10051139,11.65 Z M1.70051139,9.85 C1.60051139,11.2 2.20051139,12 3.45051139,12 C6.15051139,11.95 6.90051139,9.5 6.90051139,6.85 C6.90051139,5.4 6.15051139,4.55 4.80051139,4.55 C2.15051139,4.5 1.90051139,7.45 1.70051139,9.85" id="E"></path>
                </g>
                <g id="F-link" transform="translate(14.250000, 3.364918)">
                    <path d="M4.95,0.00641869801 C8.05,-0.143581302 9.25,2.3564187 8.55,5.3064187 L1.65,5.3064187 C1.3,7.2064187 1.95,8.7564187 3.9,8.7064187 C5.25,8.6564187 6.05,8.0064187 6.55,7.1064187 L7.75,7.6564187 C7,8.9564187 5.85,9.9064187 3.75,9.9064187 C1.3,9.8564187 0,8.5564187 0,6.1564187 C0,2.6564187 1.6,0.206418698 4.95,0.00641869801 Z M7.15,4.0564187 C7.85,0.756418698 3.6,0.456418698 2.4,2.6564187 C2.2,3.0564187 2,3.5064187 1.85,4.0564187 L7.15,4.0564187" id="F"></path>
                </g>
                <g id="G-link" transform="translate(23.950000, 3.454637)">
                    <path d="M3.05,1.71669946 C4.15,-0.683300543 9.65,-0.883300543 8.85,3.16669946 L7.6,9.61669946 L6,9.61669946 L7.25,2.61669946 C7.4,0.716699457 4.6,1.01669946 3.75,2.01669946 C2.3,3.76669946 2.25,7.01669946 1.6,9.61669946 L0,9.61669946 L1.8,0.116699457 L3.3,0.116699457" id="G"></path>
                </g>
                <g id="H-link" transform="translate(34.525081, 1.421337)">
                    <path d="M1.67491898,8.95 C1.22491898,10.05 1.92491898,11 3.22491898,10.45 L3.07491898,11.6 C1.27491898,12.35 -0.375081015,11.45 0.074918985,9.05 L1.17491898,3.3 L0.074918985,3.3 L0.324918985,2.15 L1.42491898,2.15 L2.37491898,0 L3.42491898,0 L2.97491898,2.15 L4.72491898,2.15 L4.52491898,3.3 L2.77491898,3.3" id="H"></path>
                </g>
                <g id="D-link" transform="translate(38.950000, 0.021337)">
                    <path d="M2.2,1.5 L2.5,0 L4.1,0 L3.8,1.5 L2.2,1.5 Z M0,13.05 L1.85,3.55 L3.4,3.55 L1.55,13.05 L0,13.05" id="D"></path>
                </g>
                <g id="I-link" transform="translate(43.200000, 0.000000)">
                    <path d="M3.2,4.72133685 L1.6,13.0713368 L0,13.0713368 L1.65,4.72133685 L0.3,4.72133685 L0.5,3.57133685 L1.85,3.57133685 C2,1.22133685 3.1,-0.478663154 5.95,0.121336846 L5.75,1.32133685 C4,0.921336846 3.55,2.07133685 3.45,3.57133685 L5.3,3.57133685 L5.05,4.72133685 L3.2,4.72133685" id="I"></path>
                </g>
                <g id="D-link" transform="translate(47.900000, 0.021337)">
                    <path d="M2.2,1.5 L2.5,0 L4.1,0 L3.8,1.5 L2.2,1.5 Z M0,13.05 L1.85,3.55 L3.4,3.55 L1.55,13.05 L0,13.05" id="D"></path>
                </g>
                <g id="F-link" transform="translate(52.150000, 3.364918)">
                    <path d="M4.95,0.00641869801 C8.05,-0.143581302 9.25,2.3564187 8.55,5.3064187 L1.65,5.3064187 C1.3,7.2064187 1.95,8.7564187 3.9,8.7064187 C5.25,8.6564187 6.05,8.0064187 6.55,7.1064187 L7.75,7.6564187 C7,8.9564187 5.85,9.9064187 3.75,9.9064187 C1.3,9.8564187 0,8.5564187 0,6.1564187 C0,2.6564187 1.6,0.206418698 4.95,0.00641869801 Z M7.15,4.0564187 C7.85,0.756418698 3.6,0.456418698 2.4,2.6564187 C2.2,3.0564187 2,3.5064187 1.85,4.0564187 L7.15,4.0564187" id="F"></path>
                </g>
                <g id="J-link" transform="translate(61.850000, 3.391613)">
                    <path d="M3,2.12972381 C3.6,0.879723808 4.5,-0.420276192 6.3,0.129723808 L6,1.42972381 C1.95,0.879723808 2.6,6.42972381 1.6,9.67972381 L0,9.67972381 L1.8,0.179723808 L3.3,0.179723808" id="J"></path>
                </g>
            </g>
        </g>
        <path d="M780,204 C780,223.33 757.6,239 730,239 C702.4,239 680,223.33 680,204 C680,184.67 702.4,169 730,169 C757.6,169 780,184.67 780,204 Z" id="Path" stroke="#000000" stroke-width="2" fill="#B2D6EF" fill-rule="nonzero"></path>
        <g id="d-link" transform="translate(713.925000, 195.200000)" fill="#000000" fill-rule="nonzero">
            <g id="d">
                <g id="K-link" transform="translate(0.000000, 0.000000)">
                    <polyline id="K" points="5.95 1.4 5.95 12.4 4.25 12.4 4.25 1.4 0 1.4 0 0 10.2 0 10.2 1.4 5.95 1.4"></polyline>
                </g>
                <g id="s-link" transform="translate(9.298790, 2.700000)">
                    <path d="M4.25121031,0 C7.40121031,0 8.55121031,2.1 8.45121031,5.3 L1.70121031,5.3 C1.70121031,7.3 2.40121031,8.65 4.35121031,8.7 C5.65121031,8.75 6.50121031,8.1 6.80121031,7.25 L8.20121031,7.65 C7.65121031,9.05 6.35121031,9.9 4.35121031,9.9 C1.45121031,9.9 -0.0487896925,8.05 0.00121030754,4.9 C0.0512103075,1.85 1.30121031,0 4.25121031,0 Z M6.85121031,4.05 C7.15121031,1.05 3.05121031,0.2 2.00121031,2.65 C1.85121031,3 1.70121031,3.5 1.70121031,4.05 L6.85121031,4.05" id="s"></path>
                </g>
                <g id="L-link" transform="translate(18.750000, 2.900000)">
                    <polyline id="L" points="6.85 9.5 4.3 5.6 1.7 9.5 0 9.5 3.4 4.6 0.15 0 1.9 0 4.3 3.7 6.65 0 8.4 0 5.2 4.6 8.6 9.5 6.85 9.5"></polyline>
                </g>
                <g id="t-link" transform="translate(27.800000, 0.750000)">
                    <path d="M2.7,9.3 C2.6,10.5 3.6,10.75 4.6,10.4 L4.6,11.6 C2.95,12.1 1.1,11.85 1.1,9.65 L1.1,3.3 L0,3.3 L0,2.15 L1.2,2.15 L1.65,0 L2.7,0 L2.7,2.15 L4.45,2.15 L4.45,3.3 L2.7,3.3 L2.7,9.3" id="t"></path>
                </g>
            </g>
        </g>
        <path d="M469,230 L468,230 L468,228 L469,228 L469,230 Z M675.76,204 L661.5,208.64 L661.5,199.36 L675.76,204 Z" id="Shape" fill="#000000" fill-rule="nonzero"></path>
        <path d="M469,230 L468,230 L468,228 L469,228 L469,230 Z M675.76,204 L661.5,208.64 L661.5,199.36 L675.76,204 Z" id="Shape" fill="#000000" fill-rule="nonzero"></path>
        <path d="M780,294 C780,313.33 757.6,329 730,329 C702.4,329 680,313.33 680,294 C680,274.67 702.4,259 730,259 C757.6,259 780,274.67 780,294 Z" id="Path" stroke="#000000" stroke-width="2" fill="#B2D6EF" fill-rule="nonzero"></path>
        <g id="e-link" transform="translate(713.450000, 285.163301)" fill="#000000" fill-rule="nonzero">
            <g id="e">
                <g id="M-link" transform="translate(-0.000000, 0.036699)">
                    <path d="M10.2,7.75 C10.15,11 8.2,12.6 5,12.6 C1.95,12.6 0,11 0,7.9 L0,0 L1.65,0 C2.05,4.45 0,11.2 5,11.2 C10.1,11.2 8.2,4.55 8.55,0 L10.2,0 L10.2,7.75" id="M"></path>
                </g>
                <g id="N-link" transform="translate(13.050000, 0.000000)">
                    <path d="M10.15,3.58669936 C10.1,5.63669936 9,6.78669936 7.15,7.08669936 L10.65,12.4366994 L8.75,12.4366994 L5.5,7.28669936 L1.65,7.28669936 L1.65,12.4366994 L0,12.4366994 L0,0.0366993614 C4.4,0.186699361 10.25,-1.01330064 10.15,3.58669936 Z M1.65,5.98669936 C4.65,5.88669936 8.5,6.63669936 8.5,3.63669936 C8.5,0.586699361 4.5,1.53669936 1.65,1.38669936 L1.65,5.98669936" id="N"></path>
                </g>
                <g id="O-link" transform="translate(26.000000, 0.036699)">
                    <polyline id="O" points="0 12.4 0 0 1.65 0 1.65 11.05 7.9 11.05 7.9 12.4 0 12.4"></polyline>
                </g>
            </g>
        </g>
        <polyline id="Path" stroke="#000000" stroke-width="2" points="469 229 550 229 550 294 660.76 294"></polyline>
        <path d="M469,230 L468,230 L468,228 L469,228 L469,230 Z M675.76,294 L661.5,298.64 L661.5,289.36 L675.76,294 Z" id="Shape" fill="#000000" fill-rule="nonzero"></path>
        <path d="M679,294 L660.5,300 L660.5,288 L679,294 Z M662.5,297.26 L672.53,294 L662.5,290.74 L662.5,297.26 Z" id="Shape" fill="#000000" fill-rule="nonzero"></path>
        <path d="M435,409 C435,428.33 412.6,444 385,444 C357.4,444 335,428.33 335,409 C335,389.67 357.4,374 385,374 C412.6,374 435,389.67 435,409 Z" id="Path" stroke="#000000" stroke-width="2" fill="#B2D6EF" fill-rule="nonzero"></path>
        <g id="d-link" transform="translate(368.925000, 399.200000)" fill="#000000" fill-rule="nonzero">
            <g id="d">
                <g id="K-link" transform="translate(0.000000, 0.000000)">
                    <polyline id="K" points="5.95 1.4 5.95 12.4 4.25 12.4 4.25 1.4 0 1.4 0 0 10.2 0 10.2 1.4 5.95 1.4"></polyline>
                </g>
                <g id="s-link" transform="translate(9.298790, 2.700000)">
                    <path d="M4.25121031,0 C7.40121031,0 8.55121031,2.1 8.45121031,5.3 L1.70121031,5.3 C1.70121031,7.3 2.40121031,8.65 4.35121031,8.7 C5.65121031,8.75 6.50121031,8.1 6.80121031,7.25 L8.20121031,7.65 C7.65121031,9.05 6.35121031,9.9 4.35121031,9.9 C1.45121031,9.9 -0.0487896925,8.05 0.00121030754,4.9 C0.0512103075,1.85 1.30121031,0 4.25121031,0 Z M6.85121031,4.05 C7.15121031,1.05 3.05121031,0.2 2.00121031,2.65 C1.85121031,3 1.70121031,3.5 1.70121031,4.05 L6.85121031,4.05" id="s"></path>
                </g>
                <g id="L-link" transform="translate(18.750000, 2.900000)">
                    <polyline id="L" points="6.85 9.5 4.3 5.6 1.7 9.5 0 9.5 3.4 4.6 0.15 0 1.9 0 4.3 3.7 6.65 0 8.4 0 5.2 4.6 8.6 9.5 6.85 9.5"></polyline>
                </g>
                <g id="t-link" transform="translate(27.800000, 0.750000)">
                    <path d="M2.7,9.3 C2.6,10.5 3.6,10.75 4.6,10.4 L4.6,11.6 C2.95,12.1 1.1,11.85 1.1,9.65 L1.1,3.3 L0,3.3 L0,2.15 L1.2,2.15 L1.65,0 L2.7,0 L2.7,2.15 L4.45,2.15 L4.45,3.3 L2.7,3.3 L2.7,9.3" id="t"></path>
                </g>
            </g>
        </g>
        <polygon id="Path" stroke="#000000" stroke-width="2" fill="#C7E8AC" fill-rule="nonzero" points="1 19 149 19 149 119 1 119"></polygon>
        <g id="f-link" transform="translate(44.525000, 61.127728)" fill="#000000" fill-rule="nonzero">
            <g id="f">
                <g id="P-link">
                    <path d="M0,0.0722720816 C5.9,-0.277727918 10.8,0.472272082 10.65,6.17227208 C10.5,10.0722721 8.5,12.4722721 4.6,12.4722721 L0,12.4722721 L0,0.0722720816 Z M1.65,11.1222721 C6.1,11.5222721 8.95,10.3222721 8.95,6.17227208 C8.95,2.02227208 5.95,1.12227208 1.65,1.42227208 L1.65,11.1222721" id="P"></path>
                </g>
                <g id="u-link" transform="translate(12.199422, 2.772272)">
                    <path d="M6.30057846,7.9 C5.55057846,8.95 4.75057846,9.95 2.90057846,9.9 C1.10057846,9.85 0.000578457024,8.85 0.000578457024,7.05 C-0.049421543,3.85 3.15057846,3.9 6.25057846,3.9 C6.40057846,2.15 5.80057846,1.2 4.20057846,1.2 C3.00057846,1.25 2.15057846,1.55 2.10057846,2.75 L0.450578457,2.6 C0.700578457,0.75 2.10057846,0 4.25057846,0 C6.50057846,0 7.85057846,1 7.85057846,3.2 L7.85057846,7.3 C7.80057846,8.3 8.20057846,8.9 9.25057846,8.65 L9.25057846,9.65 C7.70057846,10.1 6.20057846,9.55 6.30057846,7.9 Z M1.65057846,7.05 C1.65057846,8.05 2.25057846,8.7 3.25057846,8.7 C5.30057846,8.55 6.40057846,7.25 6.25057846,5 C4.10057846,5.1 1.65057846,4.75 1.65057846,7.05" id="u"></path>
                </g>
                <g id="t-link" transform="translate(21.700000, 0.822272)">
                    <path d="M2.7,9.3 C2.6,10.5 3.6,10.75 4.6,10.4 L4.6,11.6 C2.95,12.1 1.1,11.85 1.1,9.65 L1.1,3.3 L0,3.3 L0,2.15 L1.2,2.15 L1.65,0 L2.7,0 L2.7,2.15 L4.45,2.15 L4.45,3.3 L2.7,3.3 L2.7,9.3" id="t"></path>
                </g>
                <g id="u-link" transform="translate(27.199422, 2.772272)">
                    <path d="M6.30057846,7.9 C5.55057846,8.95 4.75057846,9.95 2.90057846,9.9 C1.10057846,9.85 0.000578457024,8.85 0.000578457024,7.05 C-0.049421543,3.85 3.15057846,3.9 6.25057846,3.9 C6.40057846,2.15 5.80057846,1.2 4.20057846,1.2 C3.00057846,1.25 2.15057846,1.55 2.10057846,2.75 L0.450578457,2.6 C0.700578457,0.75 2.10057846,0 4.25057846,0 C6.50057846,0 7.85057846,1 7.85057846,3.2 L7.85057846,7.3 C7.80057846,8.3 8.20057846,8.9 9.25057846,8.65 L9.25057846,9.65 C7.70057846,10.1 6.20057846,9.55 6.30057846,7.9 Z M1.65057846,7.05 C1.65057846,8.05 2.25057846,8.7 3.25057846,8.7 C5.30057846,8.55 6.40057846,7.25 6.25057846,5 C4.10057846,5.1 1.65057846,4.75 1.65057846,7.05" id="u"></path>
                </g>
                <g id="Q-link" transform="translate(36.950000, 2.816598)">
                    <path d="M6.25,2.50567447 C6.1,0.805674474 1.95,0.605674474 1.9,2.50567447 C2.65,5.15567447 7.65,3.10567447 7.85,7.00567447 C8.05,10.9056745 0.35,10.7056745 0,7.40567447 L1.4,7.15567447 C1.6,8.95567447 6.25,9.40567447 6.3,7.15567447 C5.8,4.35567447 0.65,6.40567447 0.4,2.65567447 C0.2,-0.194325526 4.5,-0.494325526 6.5,0.555674474 C7.1,0.905674474 7.55,1.50567447 7.7,2.30567447" id="Q"></path>
                </g>
                <g id="s-link" transform="translate(46.198790, 2.772272)">
                    <path d="M4.25121031,0 C7.40121031,0 8.55121031,2.1 8.45121031,5.3 L1.70121031,5.3 C1.70121031,7.3 2.40121031,8.65 4.35121031,8.7 C5.65121031,8.75 6.50121031,8.1 6.80121031,7.25 L8.20121031,7.65 C7.65121031,9.05 6.35121031,9.9 4.35121031,9.9 C1.45121031,9.9 -0.0487896925,8.05 0.00121030754,4.9 C0.0512103075,1.85 1.30121031,0 4.25121031,0 Z M6.85121031,4.05 C7.15121031,1.05 3.05121031,0.2 2.00121031,2.65 C1.85121031,3 1.70121031,3.5 1.70121031,4.05 L6.85121031,4.05" id="s"></path>
                </g>
                <g id="t-link" transform="translate(55.700000, 0.822272)">
                    <path d="M2.7,9.3 C2.6,10.5 3.6,10.75 4.6,10.4 L4.6,11.6 C2.95,12.1 1.1,11.85 1.1,9.65 L1.1,3.3 L0,3.3 L0,2.15 L1.2,2.15 L1.65,0 L2.7,0 L2.7,2.15 L4.45,2.15 L4.45,3.3 L2.7,3.3 L2.7,9.3" id="t"></path>
                </g>
            </g>
        </g>
        <path d="M310,71 L309,71 L309,69 L310,69 L310,71 Z M136.5,74.64 L122.24,70 L136.5,65.36 L136.5,74.64 Z" id="Shape" fill="#000000" fill-rule="nonzero" transform="translate(216.120000, 70.000000) scale(-1, 1) translate(-216.120000, -70.000000) "></path>
        <polygon id="Path" stroke="#000000" stroke-width="2" fill="#C7E8AC" fill-rule="nonzero" points="311 181 459 181 459 281 311 281"></polygon>
        <g id="h-link" transform="translate(334.925000, 221.550000)" fill="#000000" fill-rule="nonzero">
            <g id="h">
                <g id="V-link" transform="translate(-0.000000, 0.500000)">
                    <path d="M6.15,0 C10.2,0 12.3,2.3 12.3,6.3 C12.3,10.25 10.1,12.75 6.15,12.75 C2.1,12.75 0,10.3 0,6.3 C0,2.3 2.1,0 6.15,0 Z M6.15,11.35 C9.3,11.35 10.6,9.3 10.6,6.3 C10.6,3.3 9.15,1.35 6.15,1.35 C3.1,1.35 1.7,3.3 1.7,6.3 C1.7,9.3 3.1,11.3 6.15,11.35" id="V"></path>
                </g>
                <g id="v-link" transform="translate(14.350000, 3.366759)">
                    <path d="M4.5,1.53324147 C0.6,0.733241468 1.85,6.08324147 1.65,9.68324147 L0.05,9.68324147 L0,0.183241468 L1.5,0.183241468 C1.55,0.783241468 1.45,1.63324147 1.6,2.13324147 C1.9,0.783241468 2.75,-0.316758532 4.5,0.0832414684 L4.5,1.53324147" id="v"></path>
                </g>
                <g id="W-link" transform="translate(19.850000, 3.397899)">
                    <path d="M8.1,0.152100806 C7.6,6.40210081 10.15,14.8021008 2.6,13.2021008 C1.45,12.9021008 0.7,12.2021008 0.4,11.0521008 L2,10.8021008 C2.75,13.1521008 7,12.4021008 6.45,9.40210081 L6.45,7.90210081 C5.9,8.95210081 5,9.70210081 3.4,9.70210081 C0.7,9.70210081 0,7.65210081 0,4.90210081 C0,2.10210081 0.8,0.0521008057 3.55,0.00210080572 C5,-0.0478991943 5.95,0.802100806 6.5,1.75210081 C6.55,1.25210081 6.5,0.602100806 6.6,0.152100806 L8.1,0.152100806 Z M3.95,8.55210081 C5.75,8.55210081 6.45,6.95210081 6.45,4.90210081 C6.45,2.80210081 5.75,1.15210081 3.95,1.15210081 C2,1.15210081 1.65,2.85210081 1.65,4.90210081 C1.65,6.95210081 1.95,8.55210081 3.95,8.55210081" id="W"></path>
                </g>
                <g id="u-link" transform="translate(29.849422, 3.350000)">
                    <path d="M6.30057846,7.9 C5.55057846,8.95 4.75057846,9.95 2.90057846,9.9 C1.10057846,9.85 0.000578457024,8.85 0.000578457024,7.05 C-0.049421543,3.85 3.15057846,3.9 6.25057846,3.9 C6.40057846,2.15 5.80057846,1.2 4.20057846,1.2 C3.00057846,1.25 2.15057846,1.55 2.10057846,2.75 L0.450578457,2.6 C0.700578457,0.75 2.10057846,0 4.25057846,0 C6.50057846,0 7.85057846,1 7.85057846,3.2 L7.85057846,7.3 C7.80057846,8.3 8.20057846,8.9 9.25057846,8.65 L9.25057846,9.65 C7.70057846,10.1 6.20057846,9.55 6.30057846,7.9 Z M1.65057846,7.05 C1.65057846,8.05 2.25057846,8.7 3.25057846,8.7 C5.30057846,8.55 6.40057846,7.25 6.25057846,5 C4.10057846,5.1 1.65057846,4.75 1.65057846,7.05" id="u"></path>
                </g>
                <g id="r-link" transform="translate(40.300000, 3.345126)">
                    <path d="M4.65,0.0048741121 C9.1,-0.195125888 7.3,5.80487411 7.65,9.70487411 L6.05,9.70487411 L6.05,3.65487411 C6.05,2.10487411 5.65,1.20487411 4.1,1.25487411 C0.5,1.35487411 1.9,6.35487411 1.65,9.70487411 L0.05,9.70487411 L0,0.204874112 L1.5,0.204874112 C1.55,0.704874112 1.45,1.40487411 1.6,1.80487411 C2.15,0.704874112 3.05,0.0548741121 4.65,0.0048741121" id="r"></path>
                </g>
                <g id="X-link" transform="translate(50.300000, 0.000000)">
                    <path d="M0,1.5 L0,0 L1.6,0 L1.6,1.5 L0,1.5 Z M0,13.05 L0,3.55 L1.6,3.55 L1.6,13.05 L0,13.05" id="X"></path>
                </g>
                <g id="Y-link" transform="translate(53.500000, 3.550000)">
                    <polyline id="Y" points="0 9.5 0 8.3 5.8 1.2 0.35 1.2 0.35 0 7.55 0 7.55 1.2 1.75 8.3 7.9 8.3 7.9 9.5 0 9.5"></polyline>
                </g>
                <g id="u-link" transform="translate(62.799422, 3.350000)">
                    <path d="M6.30057846,7.9 C5.55057846,8.95 4.75057846,9.95 2.90057846,9.9 C1.10057846,9.85 0.000578457024,8.85 0.000578457024,7.05 C-0.049421543,3.85 3.15057846,3.9 6.25057846,3.9 C6.40057846,2.15 5.80057846,1.2 4.20057846,1.2 C3.00057846,1.25 2.15057846,1.55 2.10057846,2.75 L0.450578457,2.6 C0.700578457,0.75 2.10057846,0 4.25057846,0 C6.50057846,0 7.85057846,1 7.85057846,3.2 L7.85057846,7.3 C7.80057846,8.3 8.20057846,8.9 9.25057846,8.65 L9.25057846,9.65 C7.70057846,10.1 6.20057846,9.55 6.30057846,7.9 Z M1.65057846,7.05 C1.65057846,8.05 2.25057846,8.7 3.25057846,8.7 C5.30057846,8.55 6.40057846,7.25 6.25057846,5 C4.10057846,5.1 1.65057846,4.75 1.65057846,7.05" id="u"></path>
                </g>
                <g id="t-link" transform="translate(72.300000, 1.400000)">
                    <path d="M2.7,9.3 C2.6,10.5 3.6,10.75 4.6,10.4 L4.6,11.6 C2.95,12.1 1.1,11.85 1.1,9.65 L1.1,3.3 L0,3.3 L0,2.15 L1.2,2.15 L1.65,0 L2.7,0 L2.7,2.15 L4.45,2.15 L4.45,3.3 L2.7,3.3 L2.7,9.3" id="t"></path>
                </g>
                <g id="X-link" transform="translate(78.250000, 0.000000)">
                    <path d="M0,1.5 L0,0 L1.6,0 L1.6,1.5 L0,1.5 Z M0,13.05 L0,3.55 L1.6,3.55 L1.6,13.05 L0,13.05" id="X"></path>
                </g>
                <g id="q-link" transform="translate(81.750000, 3.349037)">
                    <path d="M4.25,0.000963124773 C7.35,-0.0490368752 8.5,1.85096312 8.5,4.95096312 C8.55,8.10096312 7.15,9.90096312 4.2,9.90096312 C1.25,9.90096312 0.05,7.95096312 0,4.95096312 C0,1.65096312 1.4,0.000963124773 4.25,0.000963124773 Z M4.2,8.70096312 C6.4,8.75096312 6.85,7.15096312 6.85,4.95096312 C6.85,2.80096312 6.45,1.20096312 4.3,1.20096312 C2.15,1.20096312 1.65,2.80096312 1.65,4.95096312 C1.65,7.10096312 2.15,8.65096312 4.2,8.70096312" id="q"></path>
                </g>
                <g id="r-link" transform="translate(92.200000, 3.345126)">
                    <path d="M4.65,0.0048741121 C9.1,-0.195125888 7.3,5.80487411 7.65,9.70487411 L6.05,9.70487411 L6.05,3.65487411 C6.05,2.10487411 5.65,1.20487411 4.1,1.25487411 C0.5,1.35487411 1.9,6.35487411 1.65,9.70487411 L0.05,9.70487411 L0,0.204874112 L1.5,0.204874112 C1.55,0.704874112 1.45,1.40487411 1.6,1.80487411 C2.15,0.704874112 3.05,0.0548741121 4.65,0.0048741121" id="r"></path>
                </g>
            </g>
        </g>
        <g id="i-link" transform="translate(330.633333, 140.057405)" fill="#000000" fill-rule="nonzero">
            <g id="i">
                <g id="R-link">
                    <path d="M4.8,1.37176213 C3.25,0.921762129 2.7,1.87176213 2.9,3.57176213 L4.8,3.57176213 L4.8,4.72176213 L2.9,4.72176213 L2.9,13.0717621 L1.35,13.0717621 L1.35,4.72176213 L0,4.72176213 L0,3.57176213 L1.35,3.57176213 C1,0.971762129 2.2,-0.528237871 4.8,0.171762129 L4.8,1.37176213" id="R"></path>
                </g>
                <g id="C-link" transform="translate(5.843198, 3.571762)">
                    <path d="M3.10680245,9.7 C-1.34319755,9.9 0.406802454,3.9 0.0568024545,0 L1.65680245,0 L1.65680245,6 C1.65680245,7.55 2.00680245,8.5 3.60680245,8.45 C7.20680245,8.35 5.85680245,3.4 6.10680245,0 L7.65680245,0 L7.70680245,9.5 L6.20680245,9.5 C6.15680245,9 6.25680245,8.25 6.10680245,7.85 C5.55680245,8.95 4.70680245,9.65 3.10680245,9.7" id="C"></path>
                </g>
                <g id="r-link" transform="translate(15.950000, 3.366888)">
                    <path d="M4.65,0.0048741121 C9.1,-0.195125888 7.3,5.80487411 7.65,9.70487411 L6.05,9.70487411 L6.05,3.65487411 C6.05,2.10487411 5.65,1.20487411 4.1,1.25487411 C0.5,1.35487411 1.9,6.35487411 1.65,9.70487411 L0.05,9.70487411 L0,0.204874112 L1.5,0.204874112 C1.55,0.704874112 1.45,1.40487411 1.6,1.80487411 C2.15,0.704874112 3.05,0.0548741121 4.65,0.0048741121" id="r"></path>
                </g>
                <g id="S-link" transform="translate(25.500000, 0.021762)">
                    <path d="M3.5,3.35 C5.05,3.35 5.9,4 6.5,5 L6.45,0 L8.05,0 L8.1,13.05 L6.6,13.05 C6.5,12.55 6.6,11.9 6.45,11.5 C5.95,12.65 5.05,13.25 3.5,13.25 C0.85,13.25 0.05,11.3 0,8.35 C0,5.05 1.15,3.35 3.5,3.35 Z M3.95,4.55 C1.95,4.55 1.65,6.25 1.65,8.3 C1.65,10.3 1.95,12 3.9,12 C6,12 6.45,10.4 6.45,8.2 C6.45,6.1 6,4.5 3.95,4.55" id="S"></path>
                </g>
                <g id="s-link" transform="translate(35.498790, 3.371762)">
                    <path d="M4.25121031,0 C7.40121031,0 8.55121031,2.1 8.45121031,5.3 L1.70121031,5.3 C1.70121031,7.3 2.40121031,8.65 4.35121031,8.7 C5.65121031,8.75 6.50121031,8.1 6.80121031,7.25 L8.20121031,7.65 C7.65121031,9.05 6.35121031,9.9 4.35121031,9.9 C1.45121031,9.9 -0.0487896925,8.05 0.00121030754,4.9 C0.0512103075,1.85 1.30121031,0 4.25121031,0 Z M6.85121031,4.05 C7.15121031,1.05 3.05121031,0.2 2.00121031,2.65 C1.85121031,3 1.70121031,3.5 1.70121031,4.05 L6.85121031,4.05" id="s"></path>
                </g>
                <g id="v-link" transform="translate(45.950000, 3.388521)">
                    <path d="M4.5,1.53324147 C0.6,0.733241468 1.85,6.08324147 1.65,9.68324147 L0.05,9.68324147 L0,0.183241468 L1.5,0.183241468 C1.55,0.783241468 1.45,1.63324147 1.6,2.13324147 C1.9,0.783241468 2.75,-0.316758532 4.5,0.0832414684 L4.5,1.53324147" id="v"></path>
                </g>
            </g>
        </g>
        <path d="M691,42 C691,61.33 668.6,77 641,77 C613.4,77 591,61.33 591,42 C591,22.67 613.4,7 641,7 C668.6,7 691,22.67 691,42 Z" id="Path" stroke="#000000" stroke-width="2" fill="#B2D6EF" fill-rule="nonzero"></path>
        <g id="j-link" transform="translate(624.925000, 33.200000)" fill="#000000" fill-rule="nonzero">
            <g id="j">
                <g id="K-link" transform="translate(0.000000, 0.000000)">
                    <polyline id="K" points="5.95 1.4 5.95 12.4 4.25 12.4 4.25 1.4 0 1.4 0 0 10.2 0 10.2 1.4 5.95 1.4"></polyline>
                </g>
                <g id="s-link" transform="translate(9.298790, 2.700000)">
                    <path d="M4.25121031,0 C7.40121031,0 8.55121031,2.1 8.45121031,5.3 L1.70121031,5.3 C1.70121031,7.3 2.40121031,8.65 4.35121031,8.7 C5.65121031,8.75 6.50121031,8.1 6.80121031,7.25 L8.20121031,7.65 C7.65121031,9.05 6.35121031,9.9 4.35121031,9.9 C1.45121031,9.9 -0.0487896925,8.05 0.00121030754,4.9 C0.0512103075,1.85 1.30121031,0 4.25121031,0 Z M6.85121031,4.05 C7.15121031,1.05 3.05121031,0.2 2.00121031,2.65 C1.85121031,3 1.70121031,3.5 1.70121031,4.05 L6.85121031,4.05" id="s"></path>
                </g>
                <g id="L-link" transform="translate(18.750000, 2.900000)">
                    <polyline id="L" points="6.85 9.5 4.3 5.6 1.7 9.5 0 9.5 3.4 4.6 0.15 0 1.9 0 4.3 3.7 6.65 0 8.4 0 5.2 4.6 8.6 9.5 6.85 9.5"></polyline>
                </g>
                <g id="t-link" transform="translate(27.800000, 0.750000)">
                    <path d="M2.7,9.3 C2.6,10.5 3.6,10.75 4.6,10.4 L4.6,11.6 C2.95,12.1 1.1,11.85 1.1,9.65 L1.1,3.3 L0,3.3 L0,2.15 L1.2,2.15 L1.65,0 L2.7,0 L2.7,2.15 L4.45,2.15 L4.45,3.3 L2.7,3.3 L2.7,9.3" id="t"></path>
                </g>
            </g>
        </g>
        <path d="M691,125 C691,144.33 668.6,160 641,160 C613.4,160 591,144.33 591,125 C591,105.67 613.4,90 641,90 C668.6,90 691,105.67 691,125 Z" id="Path" stroke="#000000" stroke-width="2" fill="#B2D6EF" fill-rule="nonzero"></path>
        <g id="k-link" transform="translate(624.450000, 116.163301)" fill="#000000" fill-rule="nonzero">
            <g id="k">
                <g id="M-link" transform="translate(-0.000000, 0.036699)">
                    <path d="M10.2,7.75 C10.15,11 8.2,12.6 5,12.6 C1.95,12.6 0,11 0,7.9 L0,0 L1.65,0 C2.05,4.45 0,11.2 5,11.2 C10.1,11.2 8.2,4.55 8.55,0 L10.2,0 L10.2,7.75" id="M"></path>
                </g>
                <g id="N-link" transform="translate(13.050000, 0.000000)">
                    <path d="M10.15,3.58669936 C10.1,5.63669936 9,6.78669936 7.15,7.08669936 L10.65,12.4366994 L8.75,12.4366994 L5.5,7.28669936 L1.65,7.28669936 L1.65,12.4366994 L0,12.4366994 L0,0.0366993614 C4.4,0.186699361 10.25,-1.01330064 10.15,3.58669936 Z M1.65,5.98669936 C4.65,5.88669936 8.5,6.63669936 8.5,3.63669936 C8.5,0.586699361 4.5,1.53669936 1.65,1.38669936 L1.65,5.98669936" id="N"></path>
                </g>
                <g id="O-link" transform="translate(26.000000, 0.036699)">
                    <polyline id="O" points="0 12.4 0 0 1.65 0 1.65 11.05 7.9 11.05 7.9 12.4 0 12.4"></polyline>
                </g>
            </g>
        </g>
        <g id="l-link" transform="translate(474.533333, 0.428459)" fill="#000000" fill-rule="nonzero">
            <g id="l">
                <g id="r-link" transform="translate(0.000000, 0.000000)">
                    <path d="M4.65,0.0048741121 C9.1,-0.195125888 7.3,5.80487411 7.65,9.70487411 L6.05,9.70487411 L6.05,3.65487411 C6.05,2.10487411 5.65,1.20487411 4.1,1.25487411 C0.5,1.35487411 1.9,6.35487411 1.65,9.70487411 L0.05,9.70487411 L0,0.204874112 L1.5,0.204874112 C1.55,0.704874112 1.45,1.40487411 1.6,1.80487411 C2.15,0.704874112 3.05,0.0548741121 4.65,0.0048741121" id="r"></path>
                </g>
                <g id="u-link" transform="translate(9.549422, 0.004874)">
                    <path d="M6.30057846,7.9 C5.55057846,8.95 4.75057846,9.95 2.90057846,9.9 C1.10057846,9.85 0.000578457024,8.85 0.000578457024,7.05 C-0.049421543,3.85 3.15057846,3.9 6.25057846,3.9 C6.40057846,2.15 5.80057846,1.2 4.20057846,1.2 C3.00057846,1.25 2.15057846,1.55 2.10057846,2.75 L0.450578457,2.6 C0.700578457,0.75 2.10057846,0 4.25057846,0 C6.50057846,0 7.85057846,1 7.85057846,3.2 L7.85057846,7.3 C7.80057846,8.3 8.20057846,8.9 9.25057846,8.65 L9.25057846,9.65 C7.70057846,10.1 6.20057846,9.55 6.30057846,7.9 Z M1.65057846,7.05 C1.65057846,8.05 2.25057846,8.7 3.25057846,8.7 C5.30057846,8.55 6.40057846,7.25 6.25057846,5 C4.10057846,5.1 1.65057846,4.75 1.65057846,7.05" id="u"></path>
                </g>
                <g id="U-link" transform="translate(20.000000, 0.003650)">
                    <path d="M9.3,1.25122409 C5.95,1.40122409 7.4,6.50122409 7.1,9.70122409 L5.55,9.70122409 L5.55,3.65122409 C5.55,2.20122409 5.3,1.15122409 3.8,1.25122409 C0.5,1.45122409 1.9,6.45122409 1.6,9.70122409 L0.05,9.70122409 L0,0.201224092 L1.5,0.201224092 C1.55,0.701224092 1.45,1.40122409 1.6,1.80122409 C2.1,-0.398775908 6.55,-0.698775908 6.95,1.80122409 C7.5,0.751224092 8.3,0.0512240916 9.85,0.00122409156 C14.1,-0.0987759084 12.2,5.95122409 12.6,9.70122409 L11.05,9.70122409 L11.05,3.65122409 C11.05,2.20122409 10.8,1.20122409 9.3,1.25122409" id="U"></path>
                </g>
                <g id="s-link" transform="translate(34.498790, 0.004874)">
                    <path d="M4.25121031,0 C7.40121031,0 8.55121031,2.1 8.45121031,5.3 L1.70121031,5.3 C1.70121031,7.3 2.40121031,8.65 4.35121031,8.7 C5.65121031,8.75 6.50121031,8.1 6.80121031,7.25 L8.20121031,7.65 C7.65121031,9.05 6.35121031,9.9 4.35121031,9.9 C1.45121031,9.9 -0.0487896925,8.05 0.00121030754,4.9 C0.0512103075,1.85 1.30121031,0 4.25121031,0 Z M6.85121031,4.05 C7.15121031,1.05 3.05121031,0.2 2.00121031,2.65 C1.85121031,3 1.70121031,3.5 1.70121031,4.05 L6.85121031,4.05" id="s"></path>
                </g>
                <g id="Z-link" transform="translate(45.350000, 7.804874)">
                    <path d="M1.8,0 C1.85,1.7 1.8,3.25 1.1,4.2 L0,4.2 C0.45,3.55 0.85,2.9 0.85,1.9 L0.05,1.9 L0.05,0 L1.8,0" id="Z"></path>
                </g>
            </g>
        </g>
        <g id="m-link" transform="translate(474.083333, 18.683333)" fill="#000000" fill-rule="nonzero">
            <g id="m">
                <g id="S-link">
                    <path d="M3.5,3.35 C5.05,3.35 5.9,4 6.5,5 L6.45,0 L8.05,0 L8.1,13.05 L6.6,13.05 C6.5,12.55 6.6,11.9 6.45,11.5 C5.95,12.65 5.05,13.25 3.5,13.25 C0.85,13.25 0.05,11.3 0,8.35 C0,5.05 1.15,3.35 3.5,3.35 Z M3.95,4.55 C1.95,4.55 1.65,6.25 1.65,8.3 C1.65,10.3 1.95,12 3.9,12 C6,12 6.45,10.4 6.45,8.2 C6.45,6.1 6,4.5 3.95,4.55" id="S"></path>
                </g>
                <g id="s-link" transform="translate(9.998790, 3.350000)">
                    <path d="M4.25121031,0 C7.40121031,0 8.55121031,2.1 8.45121031,5.3 L1.70121031,5.3 C1.70121031,7.3 2.40121031,8.65 4.35121031,8.7 C5.65121031,8.75 6.50121031,8.1 6.80121031,7.25 L8.20121031,7.65 C7.65121031,9.05 6.35121031,9.9 4.35121031,9.9 C1.45121031,9.9 -0.0487896925,8.05 0.00121030754,4.9 C0.0512103075,1.85 1.30121031,0 4.25121031,0 Z M6.85121031,4.05 C7.15121031,1.05 3.05121031,0.2 2.00121031,2.65 C1.85121031,3 1.70121031,3.5 1.70121031,4.05 L6.85121031,4.05" id="s"></path>
                </g>
                <g id="Q-link" transform="translate(19.750000, 3.394326)">
                    <path d="M6.25,2.50567447 C6.1,0.805674474 1.95,0.605674474 1.9,2.50567447 C2.65,5.15567447 7.65,3.10567447 7.85,7.00567447 C8.05,10.9056745 0.35,10.7056745 0,7.40567447 L1.4,7.15567447 C1.6,8.95567447 6.25,9.40567447 6.3,7.15567447 C5.8,4.35567447 0.65,6.40567447 0.4,2.65567447 C0.2,-0.194325526 4.5,-0.494325526 6.5,0.555674474 C7.1,0.905674474 7.55,1.50567447 7.7,2.30567447" id="Q"></path>
                </g>
                <g id="aa-link" transform="translate(28.968319, 3.404627)">
                    <path d="M4.08168134,1.19537274 C2.08168134,1.19537274 1.68168134,2.84537274 1.68168134,4.84537274 C1.68168134,6.84537274 2.13168134,8.59537274 4.08168134,8.59537274 C5.28168134,8.59537274 6.13168134,7.89537274 6.23168134,6.69537274 L7.83168134,6.79537274 C7.53168134,8.64537274 6.28168134,9.84537274 4.13168134,9.84537274 C1.18168134,9.84537274 0.331681344,7.79537274 0.0316813441,4.89537274 C-0.468318656,0.245372743 5.08168134,-1.65462726 7.38168134,1.69537274 C7.58168134,2.04537274 7.63168134,2.39537274 7.73168134,2.79537274 L6.13168134,2.94537274 C5.93168134,1.89537274 5.33168134,1.19537274 4.08168134,1.19537274" id="aa"></path>
                </g>
                <g id="v-link" transform="translate(38.450000, 3.366759)">
                    <path d="M4.5,1.53324147 C0.6,0.733241468 1.85,6.08324147 1.65,9.68324147 L0.05,9.68324147 L0,0.183241468 L1.5,0.183241468 C1.55,0.783241468 1.45,1.63324147 1.6,2.13324147 C1.9,0.783241468 2.75,-0.316758532 4.5,0.0832414684 L4.5,1.53324147" id="v"></path>
                </g>
                <g id="X-link" transform="translate(44.400000, 0.000000)">
                    <path d="M0,1.5 L0,0 L1.6,0 L1.6,1.5 L0,1.5 Z M0,13.05 L0,3.55 L1.6,3.55 L1.6,13.05 L0,13.05" id="X"></path>
                </g>
                <g id="z-link" transform="translate(48.300000, 3.350000)">
                    <path d="M4.6,0 C7.35,0.05 8.1,2.05 8.1,4.9 C8.1,7.75 7.3,9.8 4.6,9.9 C3.05,9.9 2.15,9.25 1.6,8.2 L1.65,13.45 L0.05,13.45 L0,0.2 L1.55,0.2 L1.65,1.7 C2.15,0.65 3.05,0 4.6,0 Z M4.2,8.7 C6.2,8.7 6.45,7 6.45,4.95 C6.45,2.9 6.15,1.3 4.2,1.25 C2.1,1.25 1.65,2.85 1.65,5.05 C1.65,7.2 2.15,8.7 4.2,8.7" id="z"></path>
                </g>
                <g id="t-link" transform="translate(57.400000, 1.400000)">
                    <path d="M2.7,9.3 C2.6,10.5 3.6,10.75 4.6,10.4 L4.6,11.6 C2.95,12.1 1.1,11.85 1.1,9.65 L1.1,3.3 L0,3.3 L0,2.15 L1.2,2.15 L1.65,0 L2.7,0 L2.7,2.15 L4.45,2.15 L4.45,3.3 L2.7,3.3 L2.7,9.3" id="t"></path>
                </g>
                <g id="X-link" transform="translate(63.350000, 0.000000)">
                    <path d="M0,1.5 L0,0 L1.6,0 L1.6,1.5 L0,1.5 Z M0,13.05 L0,3.55 L1.6,3.55 L1.6,13.05 L0,13.05" id="X"></path>
                </g>
                <g id="q-link" transform="translate(66.850000, 3.349037)">
                    <path d="M4.25,0.000963124773 C7.35,-0.0490368752 8.5,1.85096312 8.5,4.95096312 C8.55,8.10096312 7.15,9.90096312 4.2,9.90096312 C1.25,9.90096312 0.05,7.95096312 0,4.95096312 C0,1.65096312 1.4,0.000963124773 4.25,0.000963124773 Z M4.2,8.70096312 C6.4,8.75096312 6.85,7.15096312 6.85,4.95096312 C6.85,2.80096312 6.45,1.20096312 4.3,1.20096312 C2.15,1.20096312 1.65,2.80096312 1.65,4.95096312 C1.65,7.10096312 2.15,8.65096312 4.2,8.70096312" id="q"></path>
                </g>
                <g id="r-link" transform="translate(77.300000, 3.345126)">
                    <path d="M4.65,0.0048741121 C9.1,-0.195125888 7.3,5.80487411 7.65,9.70487411 L6.05,9.70487411 L6.05,3.65487411 C6.05,2.10487411 5.65,1.20487411 4.1,1.25487411 C0.5,1.35487411 1.9,6.35487411 1.65,9.70487411 L0.05,9.70487411 L0,0.204874112 L1.5,0.204874112 C1.55,0.704874112 1.45,1.40487411 1.6,1.80487411 C2.15,0.704874112 3.05,0.0548741121 4.65,0.0048741121" id="r"></path>
                </g>
            </g>
        </g>
        <text id="@reverse-fundedItem" font-family="Helvetica" font-size="18" font-weight="normal" fill="#000000">
            <tspan x="183.853516" y="37">@reverse</tspan>
            <tspan x="177.969238" y="59">fundedItem</tspan>
        </text>
        <text id="url" font-family="Helvetica" font-size="18" font-weight="normal" fill="#000000">
            <tspan x="495.998047" y="85">url</tspan>
        </text>
        <text id="name" font-family="Helvetica" font-size="18" font-weight="normal" fill="#000000">
            <tspan x="335.486816" y="331">name</tspan>
        </text>
        <path id="Line" d="M571,35 L585,42 L571,49 L571,43 L457,43 L457,41 L571,41 L571,35 Z" fill="#000000" fill-rule="nonzero"></path>
        <path id="Line" d="M571,35 L585,42 L571,49 L571,43 L457,43 L457,41 L571,41 L571,35 Z" fill="#000000" fill-rule="nonzero"></path>
        <path id="Line" d="M386,121 L386,167 L392,167 L385,181 L378,167 L384,167 L384,121 L386,121 Z" fill="#000000" fill-rule="nonzero"></path>
        <path id="Line-2" d="M548.5,89.5 L548.5,127.8 L577,127.8 L577,121.8 L591,128.8 L577,135.8 L577,129.8 L546.5,129.8 L546.5,91.5 L459.5,91.5 L459.5,89.5 L548.5,89.5 Z" fill="#000000" fill-rule="nonzero"></path>
        <path id="Line" d="M386,280 L386,360 L392,360 L385,374 L378,360 L384,360 L384,280 L386,280 Z" fill="#000000" fill-rule="nonzero"></path>
    </g>
</svg>