<svg xmlns="http://www.w3.org/2000/svg" xmlns:xlink="http://www.w3.org/1999/xlink" xmlns:lucid="lucid" width="1260" height="390"><g transform="translate(-40 1260)" lucid:page-tab-id="0_0"><path d="M420-1240h148v100H420z" stroke="#000" stroke-width="2" fill="#c7e8ac"/><use xlink:href="#a" transform="matrix(1,0,0,1,425,-1235) translate(15.549999999999997 48.6)"/><path d="M60-1240h148v100H60z" stroke="#000" stroke-width="2" fill="#c7e8ac"/><use xlink:href="#b" transform="matrix(1,0,0,1,65,-1235) translate(38.025 48.6)"/><path d="M209-1190h191.76" stroke="#000" stroke-width="2" fill="none"/><path d="M209-1189h-1v-2h1zM415.76-1190l-14.26 4.64v-9.28z"/><path d="M419-1190l-18.5 6v-12zm-16.5 3.26l10.03-3.26-10.03-3.26z"/><use xlink:href="#c" transform="matrix(1,0,0,1,242.195,-1215.6) translate(0 14.4)"/><path d="M160-1040h148v100H160z" stroke="#000" stroke-width="2" fill="#c7e8ac"/><use xlink:href="#d" transform="matrix(1,0,0,1,165,-1035) translate(27.549999999999997 48.6)"/><path d="M494-1139v49H234v30.76" stroke="#000" stroke-width="2" fill="none"/><path d="M495-1139h-2v-1h2zM234-1044.24l-4.64-14.26h9.28z"/><path d="M234-1041l-6-18.5h12zm-3.26-16.5l3.26 10.03 3.26-10.03z"/><use xlink:href="#e" transform="matrix(1,0,0,1,326.3583333333333,-1115.6) translate(0 14.4)"/><path d="M644-925c0 19.33-22.4 35-50 35s-50-15.67-50-35 22.4-35 50-35 50 15.67 50 35z" stroke="#000" stroke-width="2" fill="#b2d6ef"/><use xlink:href="#f" transform="matrix(1,0,0,1,549,-955) translate(28.525 33.6)"/><path d="M701-1240h260v100H701z" stroke="#000" stroke-width="2" fill="#c7e8ac"/><use xlink:href="#g" transform="matrix(1,0,0,1,706,-1235) translate(17.825000000000017 48.6)"/><path d="M234-939v14h290.76" stroke="#000" stroke-width="2" fill="none"/><path d="M235-939.07l-2 .14-.07-1.07h2zM539.76-925l-14.26 4.64v-9.28z"/><path d="M543-925l-18.5 6v-12zm-16.5 3.26l10.03-3.26-10.03-3.26z"/><use xlink:href="#h" transform="matrix(1,0,0,1,330.86202542930926,-1015.4000000000001) translate(0 14.4)"/><use xlink:href="#i" transform="matrix(1,0,0,1,330.86202542930926,-1015.4000000000001) translate(0 36)"/><use xlink:href="#j" transform="matrix(1,0,0,1,330.86202542930926,-1015.4000000000001) translate(0 57.6)"/><use xlink:href="#k" transform="matrix(1,0,0,1,330.86202542930926,-1015.4000000000001) translate(0 79.20000000000002)"/><path d="M569-1190h112.76" stroke="#000" stroke-width="2" fill="none"/><path d="M569-1189h-1v-2h1zM696.76-1190l-14.26 4.64v-9.28z"/><path d="M700-1190l-18.5 6v-12zm-16.5 3.26l10.03-3.26-10.03-3.26z"/><use xlink:href="#l" transform="matrix(1,0,0,1,580.5297619047619,-1215.6) translate(0 14.4)"/><path d="M530-1060h108v80H530z" stroke="#000" stroke-width="2" fill="#c7e8ac"/><use xlink:href="#m" transform="matrix(1,0,0,1,535,-1055) translate(26.549999999999997 38.6)"/><path d="M1280-1165c0 19.33-22.4 35-50 35s-50-15.67-50-35 22.4-35 50-35 50 15.67 50 35z" stroke="#000" stroke-width="2" fill="#b2d6ef"/><use xlink:href="#n" transform="matrix(1,0,0,1,1185,-1195) translate(12.024999999999999 33.6)"/><path d="M980-945c0 19.33-22.4 35-50 35s-50-15.67-50-35 22.4-35 50-35 50 15.67 50 35z" stroke="#000" stroke-width="2" fill="#b2d6ef"/><use xlink:href="#o" transform="matrix(1,0,0,1,885,-975) translate(13.074999999999996 33.6)"/><path d="M724-1139v119h-66.76" stroke="#000" stroke-width="2" fill="none"/><path d="M725-1139h-2v-1h2zM656.5-1015.36l-14.26-4.64 14.26-4.64z"/><path d="M657.5-1014l-18.5-6 18.5-6zm-12.03-6l10.03 3.26v-6.52z"/><path d="M724-1139v196.75h-67" stroke="#000" stroke-width="2" fill="none"/><path d="M725-1139h-2v-1h2zM656.27-937.62L642-942.25l14.27-4.64z"/><path d="M657.27-936.24l-18.5-6 18.5-6.02zm-12.03-6l10.03 3.25v-6.5z"/><use xlink:href="#p" transform="matrix(1,0,0,1,617.45,-1102.8) translate(0 14.4)"/><path d="M789.33-1139v229.67H658.18" stroke="#000" stroke-width="2" fill="none"/><path d="M790.33-1139h-2v-1h2zM657.45-904.7l-14.27-4.63 14.27-4.64z"/><path d="M658.45-903.32l-18.5-6 18.5-6.03zm-12.03-6l10.03 3.24v-6.5z"/><use xlink:href="#q" transform="matrix(1,0,0,1,797.3333333333334,-1074.0863381548431) translate(0 14.4)"/><use xlink:href="#r" transform="matrix(1,0,0,1,797.3333333333334,-1074.0863381548431) translate(0 36)"/><path d="M926.67-1139v139.88" stroke="#000" stroke-width="2" fill="none"/><path d="M927.67-1139h-2v-1h2zM926.67-984.12l-4.64-14.27h9.27z"/><path d="M926.67-980.88l-6.02-18.5h12.03zm-3.26-16.5l3.27 10.02 3.26-10.03z"/><use xlink:href="#s" transform="matrix(1,0,0,1,934.6666666666667,-1113.9415613925385) translate(0 14.4)"/><use xlink:href="#t" transform="matrix(1,0,0,1,934.6666666666667,-1113.9415613925385) translate(0 36)"/><use xlink:href="#u" transform="matrix(1,0,0,1,934.6666666666667,-1113.9415613925385) translate(0 57.6)"/><use xlink:href="#v" transform="matrix(1,0,0,1,934.6666666666667,-1113.9415613925385) translate(0 79.20000000000002)"/><use xlink:href="#w" transform="matrix(1,0,0,1,934.6666666666667,-1113.9415613925385) translate(0 100.80000000000001)"/><path d="M962-1160h199.27" stroke="#000" stroke-width="2" fill="none"/><path d="M962-1159h-1v-2h1zM1176.27-1160l-14.26 4.64v-9.28z"/><path d="M1179.5-1160l-18.5 6v-12zm-16.5 3.26l10.04-3.26-10.03-3.26z"/><g><use xlink:href="#x" transform="matrix(1,0,0,1,1010.3545268111083,-1207.2) translate(0 14.4)"/><use xlink:href="#y" transform="matrix(1,0,0,1,1010.3545268111083,-1207.2) translate(0 36)"/></g><defs><path d="M185-189c-5-48-123-54-124 2 14 75 158 14 163 119 3 78-121 87-175 55-17-10-28-26-33-46l33-7c5 56 141 63 141-1 0-78-155-14-162-118-5-82 145-84 179-34 5 7 8 16 11 25" id="z"/><path d="M100-194c63 0 86 42 84 106H49c0 40 14 67 53 68 26 1 43-12 49-29l28 8c-11 28-37 45-77 45C44 4 14-33 15-96c1-61 26-98 85-98zm52 81c6-60-76-77-97-28-3 7-6 17-6 28h103" id="A"/><path d="M141-36C126-15 110 5 73 4 37 3 15-17 15-53c-1-64 63-63 125-63 3-35-9-54-41-54-24 1-41 7-42 31l-33-3c5-37 33-52 76-52 45 0 72 20 72 64v82c-1 20 7 32 28 27v20c-31 9-61-2-59-35zM48-53c0 20 12 33 32 33 41-3 63-29 60-74-43 2-92-5-92 41" id="B"/><path d="M114-163C36-179 61-72 57 0H25l-1-190h30c1 12-1 29 2 39 6-27 23-49 58-41v29" id="C"/><path d="M96-169c-40 0-48 33-48 73s9 75 48 75c24 0 41-14 43-38l32 2c-6 37-31 61-74 61-59 0-76-41-82-99-10-93 101-131 147-64 4 7 5 14 7 22l-32 3c-4-21-16-35-41-35" id="D"/><path d="M106-169C34-169 62-67 57 0H25v-261h32l-1 103c12-21 28-36 61-36 89 0 53 116 60 194h-32v-121c2-32-8-49-39-48" id="E"/><path d="M205 0l-28-72H64L36 0H1l101-248h38L239 0h-34zm-38-99l-47-123c-12 45-31 82-46 123h93" id="F"/><path d="M59-47c-2 24 18 29 38 22v24C64 9 27 4 27-40v-127H5v-23h24l9-43h21v43h35v23H59v120" id="G"/><path d="M24-231v-30h32v30H24zM24 0v-190h32V0H24" id="H"/><path d="M100-194c62-1 85 37 85 99 1 63-27 99-86 99S16-35 15-95c0-66 28-99 85-99zM99-20c44 1 53-31 53-75 0-43-8-75-51-75s-53 32-53 75 10 74 51 75" id="I"/><path d="M117-194c89-4 53 116 60 194h-32v-121c0-31-8-49-39-48C34-167 62-67 57 0H25l-1-190h30c1 10-1 24 2 32 11-22 29-35 61-36" id="J"/><g id="a"><use transform="matrix(0.05,0,0,0.05,0,0)" xlink:href="#z"/><use transform="matrix(0.05,0,0,0.05,12,0)" xlink:href="#A"/><use transform="matrix(0.05,0,0,0.05,22,0)" xlink:href="#B"/><use transform="matrix(0.05,0,0,0.05,32,0)" xlink:href="#C"/><use transform="matrix(0.05,0,0,0.05,37.95,0)" xlink:href="#D"/><use transform="matrix(0.05,0,0,0.05,46.95,0)" xlink:href="#E"/><use transform="matrix(0.05,0,0,0.05,56.95,0)" xlink:href="#F"/><use transform="matrix(0.05,0,0,0.05,68.95,0)" xlink:href="#D"/><use transform="matrix(0.05,0,0,0.05,77.95,0)" xlink:href="#G"/><use transform="matrix(0.05,0,0,0.05,82.95,0)" xlink:href="#H"/><use transform="matrix(0.05,0,0,0.05,86.9,0)" xlink:href="#I"/><use transform="matrix(0.05,0,0,0.05,96.9,0)" xlink:href="#J"/></g><path d="M30-248c118-7 216 8 213 122C240-48 200 0 122 0H30v-248zM63-27c89 8 146-16 146-99s-60-101-146-95v194" id="K"/><path d="M135-143c-3-34-86-38-87 0 15 53 115 12 119 90S17 21 10-45l28-5c4 36 97 45 98 0-10-56-113-15-118-90-4-57 82-63 122-42 12 7 21 19 24 35" id="L"/><g id="b"><use transform="matrix(0.05,0,0,0.05,0,0)" xlink:href="#K"/><use transform="matrix(0.05,0,0,0.05,12.950000000000001,0)" xlink:href="#B"/><use transform="matrix(0.05,0,0,0.05,22.950000000000003,0)" xlink:href="#G"/><use transform="matrix(0.05,0,0,0.05,27.950000000000003,0)" xlink:href="#B"/><use transform="matrix(0.05,0,0,0.05,37.95,0)" xlink:href="#L"/><use transform="matrix(0.05,0,0,0.05,46.95,0)" xlink:href="#A"/><use transform="matrix(0.05,0,0,0.05,56.95,0)" xlink:href="#G"/></g><path d="M115-194c55 1 70 41 70 98S169 2 115 4C84 4 66-9 55-30l1 105H24l-1-265h31l2 30c10-21 28-34 59-34zm-8 174c40 0 45-34 45-75s-6-73-45-74c-42 0-51 32-51 76 0 43 10 73 51 73" id="M"/><path d="M24 0v-261h32V0H24" id="N"/><g id="c"><use transform="matrix(0.05,0,0,0.05,0,0)" xlink:href="#M"/><use transform="matrix(0.05,0,0,0.05,10,0)" xlink:href="#I"/><use transform="matrix(0.05,0,0,0.05,20,0)" xlink:href="#G"/><use transform="matrix(0.05,0,0,0.05,25,0)" xlink:href="#A"/><use transform="matrix(0.05,0,0,0.05,35,0)" xlink:href="#J"/><use transform="matrix(0.05,0,0,0.05,45,0)" xlink:href="#G"/><use transform="matrix(0.05,0,0,0.05,50,0)" xlink:href="#H"/><use transform="matrix(0.05,0,0,0.05,53.95,0)" xlink:href="#B"/><use transform="matrix(0.05,0,0,0.05,63.95,0)" xlink:href="#N"/><use transform="matrix(0.05,0,0,0.05,67.9,0)" xlink:href="#F"/><use transform="matrix(0.05,0,0,0.05,79.9,0)" xlink:href="#D"/><use transform="matrix(0.05,0,0,0.05,88.9,0)" xlink:href="#G"/><use transform="matrix(0.05,0,0,0.05,93.9,0)" xlink:href="#H"/><use transform="matrix(0.05,0,0,0.05,97.85000000000001,0)" xlink:href="#I"/><use transform="matrix(0.05,0,0,0.05,107.85000000000001,0)" xlink:href="#J"/></g><path d="M30 0v-248h187v28H63v79h144v27H63v87h162V0H30" id="O"/><path d="M179-190L93 31C79 59 56 82 12 73V49c39 6 53-20 64-50L1-190h34L92-34l54-156h33" id="P"/><path d="M30-248c87 1 191-15 191 75 0 78-77 80-158 76V0H30v-248zm33 125c57 0 124 11 124-50 0-59-68-47-124-48v98" id="Q"/><g id="d"><use transform="matrix(0.05,0,0,0.05,0,0)" xlink:href="#O"/><use transform="matrix(0.05,0,0,0.05,12,0)" xlink:href="#J"/><use transform="matrix(0.05,0,0,0.05,22,0)" xlink:href="#G"/><use transform="matrix(0.05,0,0,0.05,27,0)" xlink:href="#C"/><use transform="matrix(0.05,0,0,0.05,32.95,0)" xlink:href="#P"/><use transform="matrix(0.05,0,0,0.05,41.95,0)" xlink:href="#Q"/><use transform="matrix(0.05,0,0,0.05,53.95,0)" xlink:href="#I"/><use transform="matrix(0.05,0,0,0.05,63.95,0)" xlink:href="#H"/><use transform="matrix(0.05,0,0,0.05,67.9,0)" xlink:href="#J"/><use transform="matrix(0.05,0,0,0.05,77.9,0)" xlink:href="#G"/></g><path d="M177-190C167-65 218 103 67 71c-23-6-38-20-44-43l32-5c15 47 100 32 89-28v-30C133-14 115 1 83 1 29 1 15-40 15-95c0-56 16-97 71-98 29-1 48 16 59 35 1-10 0-23 2-32h30zM94-22c36 0 50-32 50-73 0-42-14-75-50-75-39 0-46 34-46 75s6 73 46 73" id="R"/><g id="e"><use transform="matrix(0.05,0,0,0.05,0,0)" xlink:href="#G"/><use transform="matrix(0.05,0,0,0.05,5,0)" xlink:href="#B"/><use transform="matrix(0.05,0,0,0.05,15,0)" xlink:href="#C"/><use transform="matrix(0.05,0,0,0.05,20.95,0)" xlink:href="#R"/><use transform="matrix(0.05,0,0,0.05,30.950000000000003,0)" xlink:href="#A"/><use transform="matrix(0.05,0,0,0.05,40.95,0)" xlink:href="#G"/></g><path d="M127-220V0H93v-220H8v-28h204v28h-85" id="S"/><path d="M141 0L90-78 38 0H4l68-98-65-92h35l48 74 47-74h35l-64 92 68 98h-35" id="T"/><g id="f"><use transform="matrix(0.05,0,0,0.05,0,0)" xlink:href="#S"/><use transform="matrix(0.05,0,0,0.05,8.950000000000001,0)" xlink:href="#A"/><use transform="matrix(0.05,0,0,0.05,18.950000000000003,0)" xlink:href="#T"/><use transform="matrix(0.05,0,0,0.05,27.950000000000003,0)" xlink:href="#G"/></g><path d="M137 0h-34L2-248h35l83 218 83-218h36" id="U"/><path d="M84 4C-5 8 30-112 23-190h32v120c0 31 7 50 39 49 72-2 45-101 50-169h31l1 190h-30c-1-10 1-25-2-33-11 22-28 36-60 37" id="V"/><path d="M101-234c-31-9-42 10-38 44h38v23H63V0H32v-167H5v-23h27c-7-52 17-82 69-68v24" id="W"/><g id="g"><use transform="matrix(0.05,0,0,0.05,0,0)" xlink:href="#Q"/><use transform="matrix(0.05,0,0,0.05,12,0)" xlink:href="#C"/><use transform="matrix(0.05,0,0,0.05,17.95,0)" xlink:href="#I"/><use transform="matrix(0.05,0,0,0.05,27.950000000000003,0)" xlink:href="#M"/><use transform="matrix(0.05,0,0,0.05,37.95,0)" xlink:href="#A"/><use transform="matrix(0.05,0,0,0.05,47.95,0)" xlink:href="#C"/><use transform="matrix(0.05,0,0,0.05,53.900000000000006,0)" xlink:href="#G"/><use transform="matrix(0.05,0,0,0.05,58.900000000000006,0)" xlink:href="#P"/><use transform="matrix(0.05,0,0,0.05,67.9,0)" xlink:href="#U"/><use transform="matrix(0.05,0,0,0.05,78.55000000000001,0)" xlink:href="#B"/><use transform="matrix(0.05,0,0,0.05,88.55000000000001,0)" xlink:href="#N"/><use transform="matrix(0.05,0,0,0.05,92.50000000000001,0)" xlink:href="#V"/><use transform="matrix(0.05,0,0,0.05,102.5,0)" xlink:href="#A"/><use transform="matrix(0.05,0,0,0.05,112.5,0)" xlink:href="#z"/><use transform="matrix(0.05,0,0,0.05,124.5,0)" xlink:href="#M"/><use transform="matrix(0.05,0,0,0.05,134.5,0)" xlink:href="#A"/><use transform="matrix(0.05,0,0,0.05,144.5,0)" xlink:href="#D"/><use transform="matrix(0.05,0,0,0.05,153.5,0)" xlink:href="#H"/><use transform="matrix(0.05,0,0,0.05,157.45,0)" xlink:href="#W"/><use transform="matrix(0.05,0,0,0.05,162.45,0)" xlink:href="#H"/><use transform="matrix(0.05,0,0,0.05,166.39999999999998,0)" xlink:href="#D"/><use transform="matrix(0.05,0,0,0.05,175.39999999999998,0)" xlink:href="#B"/><use transform="matrix(0.05,0,0,0.05,185.39999999999998,0)" xlink:href="#G"/><use transform="matrix(0.05,0,0,0.05,190.39999999999998,0)" xlink:href="#H"/><use transform="matrix(0.05,0,0,0.05,194.34999999999997,0)" xlink:href="#I"/><use transform="matrix(0.05,0,0,0.05,204.34999999999997,0)" xlink:href="#J"/></g><path d="M68-38c1 34 0 65-14 84H32c9-13 17-26 17-46H33v-38h35" id="X"/><g id="h"><use transform="matrix(0.05,0,0,0.05,0,0)" xlink:href="#D"/><use transform="matrix(0.05,0,0,0.05,9,0)" xlink:href="#I"/><use transform="matrix(0.05,0,0,0.05,19,0)" xlink:href="#J"/><use transform="matrix(0.05,0,0,0.05,29,0)" xlink:href="#G"/><use transform="matrix(0.05,0,0,0.05,34,0)" xlink:href="#A"/><use transform="matrix(0.05,0,0,0.05,44,0)" xlink:href="#J"/><use transform="matrix(0.05,0,0,0.05,54,0)" xlink:href="#G"/><use transform="matrix(0.05,0,0,0.05,59,0)" xlink:href="#S"/><use transform="matrix(0.05,0,0,0.05,68.95,0)" xlink:href="#P"/><use transform="matrix(0.05,0,0,0.05,77.95,0)" xlink:href="#M"/><use transform="matrix(0.05,0,0,0.05,87.95,0)" xlink:href="#A"/><use transform="matrix(0.05,0,0,0.05,97.95,0)" xlink:href="#X"/></g><path d="M85-194c31 0 48 13 60 33l-1-100h32l1 261h-30c-2-10 0-23-3-31C134-8 116 4 85 4 32 4 16-35 15-94c0-66 23-100 70-100zm9 24c-40 0-46 34-46 75 0 40 6 74 45 74 42 0 51-32 51-76 0-42-9-74-50-73" id="Y"/><g id="i"><use transform="matrix(0.05,0,0,0.05,0,0)" xlink:href="#A"/><use transform="matrix(0.05,0,0,0.05,10,0)" xlink:href="#J"/><use transform="matrix(0.05,0,0,0.05,20,0)" xlink:href="#D"/><use transform="matrix(0.05,0,0,0.05,29,0)" xlink:href="#I"/><use transform="matrix(0.05,0,0,0.05,39,0)" xlink:href="#Y"/><use transform="matrix(0.05,0,0,0.05,49,0)" xlink:href="#H"/><use transform="matrix(0.05,0,0,0.05,52.95,0)" xlink:href="#J"/><use transform="matrix(0.05,0,0,0.05,62.95,0)" xlink:href="#R"/><use transform="matrix(0.05,0,0,0.05,72.95,0)" xlink:href="#S"/><use transform="matrix(0.05,0,0,0.05,82.9,0)" xlink:href="#P"/><use transform="matrix(0.05,0,0,0.05,91.9,0)" xlink:href="#M"/><use transform="matrix(0.05,0,0,0.05,101.9,0)" xlink:href="#A"/><use transform="matrix(0.05,0,0,0.05,111.9,0)" xlink:href="#X"/></g><path d="M240 0l2-218c-23 76-54 145-80 218h-23L58-218 59 0H30v-248h44l77 211c21-75 51-140 76-211h43V0h-30" id="Z"/><g id="j"><use transform="matrix(0.05,0,0,0.05,0,0)" xlink:href="#E"/><use transform="matrix(0.05,0,0,0.05,10,0)" xlink:href="#G"/><use transform="matrix(0.05,0,0,0.05,15,0)" xlink:href="#G"/><use transform="matrix(0.05,0,0,0.05,20,0)" xlink:href="#M"/><use transform="matrix(0.05,0,0,0.05,30,0)" xlink:href="#Z"/><use transform="matrix(0.05,0,0,0.05,44.95,0)" xlink:href="#A"/><use transform="matrix(0.05,0,0,0.05,54.95,0)" xlink:href="#G"/><use transform="matrix(0.05,0,0,0.05,59.95,0)" xlink:href="#E"/><use transform="matrix(0.05,0,0,0.05,69.95,0)" xlink:href="#I"/><use transform="matrix(0.05,0,0,0.05,79.95,0)" xlink:href="#Y"/><use transform="matrix(0.05,0,0,0.05,89.95,0)" xlink:href="#X"/></g><path d="M210-169c-67 3-38 105-44 169h-31v-121c0-29-5-50-35-48C34-165 62-65 56 0H25l-1-190h30c1 10-1 24 2 32 10-44 99-50 107 0 11-21 27-35 58-36 85-2 47 119 55 194h-31v-121c0-29-5-49-35-48" id="aa"/><g id="k"><use transform="matrix(0.05,0,0,0.05,0,0)" xlink:href="#V"/><use transform="matrix(0.05,0,0,0.05,10,0)" xlink:href="#C"/><use transform="matrix(0.05,0,0,0.05,15.949999999999998,0)" xlink:href="#N"/><use transform="matrix(0.05,0,0,0.05,19.9,0)" xlink:href="#S"/><use transform="matrix(0.05,0,0,0.05,28.85,0)" xlink:href="#A"/><use transform="matrix(0.05,0,0,0.05,38.85,0)" xlink:href="#aa"/><use transform="matrix(0.05,0,0,0.05,53.800000000000004,0)" xlink:href="#M"/><use transform="matrix(0.05,0,0,0.05,63.800000000000004,0)" xlink:href="#N"/><use transform="matrix(0.05,0,0,0.05,67.75,0)" xlink:href="#B"/><use transform="matrix(0.05,0,0,0.05,77.75,0)" xlink:href="#G"/><use transform="matrix(0.05,0,0,0.05,82.75,0)" xlink:href="#A"/></g><path d="M145-31C134-9 116 4 85 4 32 4 16-35 15-94c0-59 17-99 70-100 32-1 48 14 60 33 0-11-1-24 2-32h30l-1 268h-32zM93-21c41 0 51-33 51-76s-8-73-50-73c-40 0-46 35-46 75s5 74 45 74" id="ab"/><path d="M16-82v-28h88v28H16" id="ac"/><g id="l"><use transform="matrix(0.05,0,0,0.05,0,0)" xlink:href="#ab"/><use transform="matrix(0.05,0,0,0.05,10,0)" xlink:href="#V"/><use transform="matrix(0.05,0,0,0.05,20,0)" xlink:href="#A"/><use transform="matrix(0.05,0,0,0.05,30,0)" xlink:href="#C"/><use transform="matrix(0.05,0,0,0.05,35.95,0)" xlink:href="#P"/><use transform="matrix(0.05,0,0,0.05,44.95,0)" xlink:href="#ac"/><use transform="matrix(0.05,0,0,0.05,50.900000000000006,0)" xlink:href="#H"/><use transform="matrix(0.05,0,0,0.05,54.85,0)" xlink:href="#J"/><use transform="matrix(0.05,0,0,0.05,64.85000000000001,0)" xlink:href="#M"/><use transform="matrix(0.05,0,0,0.05,74.85000000000001,0)" xlink:href="#V"/><use transform="matrix(0.05,0,0,0.05,84.85000000000001,0)" xlink:href="#G"/></g><g id="m"><use transform="matrix(0.05,0,0,0.05,0,0)" xlink:href="#S"/><use transform="matrix(0.05,0,0,0.05,10.950000000000001,0)" xlink:href="#E"/><use transform="matrix(0.05,0,0,0.05,20.950000000000003,0)" xlink:href="#H"/><use transform="matrix(0.05,0,0,0.05,24.900000000000002,0)" xlink:href="#J"/><use transform="matrix(0.05,0,0,0.05,34.900000000000006,0)" xlink:href="#R"/></g><path d="M160-131c35 5 61 23 61 61C221 17 115-2 30 0v-248c76 3 177-17 177 60 0 33-19 50-47 57zm-97-11c50-1 110 9 110-42 0-47-63-36-110-37v79zm0 115c55-2 124 14 124-45 0-56-70-42-124-44v89" id="ad"/><g id="n"><use transform="matrix(0.05,0,0,0.05,0,0)" xlink:href="#ad"/><use transform="matrix(0.05,0,0,0.05,12,0)" xlink:href="#I"/><use transform="matrix(0.05,0,0,0.05,22,0)" xlink:href="#I"/><use transform="matrix(0.05,0,0,0.05,32,0)" xlink:href="#N"/><use transform="matrix(0.05,0,0,0.05,35.95,0)" xlink:href="#A"/><use transform="matrix(0.05,0,0,0.05,45.95,0)" xlink:href="#B"/><use transform="matrix(0.05,0,0,0.05,55.95,0)" xlink:href="#J"/></g><path d="M190 0L58-211 59 0H30v-248h39L202-35l-2-213h31V0h-41" id="ae"/><path d="M115-194c53 0 69 39 70 98 0 66-23 100-70 100C84 3 66-7 56-30L54 0H23l1-261h32v101c10-23 28-34 59-34zm-8 174c40 0 45-34 45-75 0-40-5-75-45-74-42 0-51 32-51 76 0 43 10 73 51 73" id="af"/><g id="o"><use transform="matrix(0.05,0,0,0.05,0,0)" xlink:href="#ae"/><use transform="matrix(0.05,0,0,0.05,12.950000000000001,0)" xlink:href="#V"/><use transform="matrix(0.05,0,0,0.05,22.950000000000003,0)" xlink:href="#aa"/><use transform="matrix(0.05,0,0,0.05,37.900000000000006,0)" xlink:href="#af"/><use transform="matrix(0.05,0,0,0.05,47.900000000000006,0)" xlink:href="#A"/><use transform="matrix(0.05,0,0,0.05,57.900000000000006,0)" xlink:href="#C"/></g><g id="p"><use transform="matrix(0.05,0,0,0.05,0,0)" xlink:href="#Y"/><use transform="matrix(0.05,0,0,0.05,10,0)" xlink:href="#A"/><use transform="matrix(0.05,0,0,0.05,20,0)" xlink:href="#W"/><use transform="matrix(0.05,0,0,0.05,25,0)" xlink:href="#B"/><use transform="matrix(0.05,0,0,0.05,35,0)" xlink:href="#V"/><use transform="matrix(0.05,0,0,0.05,45,0)" xlink:href="#N"/><use transform="matrix(0.05,0,0,0.05,48.95,0)" xlink:href="#G"/><use transform="matrix(0.05,0,0,0.05,53.95,0)" xlink:href="#U"/><use transform="matrix(0.05,0,0,0.05,64.6,0)" xlink:href="#B"/><use transform="matrix(0.05,0,0,0.05,74.6,0)" xlink:href="#N"/><use transform="matrix(0.05,0,0,0.05,78.55,0)" xlink:href="#V"/><use transform="matrix(0.05,0,0,0.05,88.55,0)" xlink:href="#A"/></g><path d="M108 0H70L1-190h34L89-25l56-165h34" id="ag"/><g id="q"><use transform="matrix(0.05,0,0,0.05,0,0)" xlink:href="#ag"/><use transform="matrix(0.05,0,0,0.05,9,0)" xlink:href="#B"/><use transform="matrix(0.05,0,0,0.05,19,0)" xlink:href="#N"/><use transform="matrix(0.05,0,0,0.05,22.95,0)" xlink:href="#V"/><use transform="matrix(0.05,0,0,0.05,32.95,0)" xlink:href="#A"/><use transform="matrix(0.05,0,0,0.05,42.95,0)" xlink:href="#ae"/><use transform="matrix(0.05,0,0,0.05,55.900000000000006,0)" xlink:href="#B"/><use transform="matrix(0.05,0,0,0.05,65.9,0)" xlink:href="#aa"/><use transform="matrix(0.05,0,0,0.05,80.85000000000001,0)" xlink:href="#A"/><use transform="matrix(0.05,0,0,0.05,90.85000000000001,0)" xlink:href="#X"/></g><g id="r"><use transform="matrix(0.05,0,0,0.05,0,0)" xlink:href="#ag"/><use transform="matrix(0.05,0,0,0.05,9,0)" xlink:href="#B"/><use transform="matrix(0.05,0,0,0.05,19,0)" xlink:href="#N"/><use transform="matrix(0.05,0,0,0.05,22.95,0)" xlink:href="#V"/><use transform="matrix(0.05,0,0,0.05,32.95,0)" xlink:href="#A"/><use transform="matrix(0.05,0,0,0.05,42.95,0)" xlink:href="#Q"/><use transform="matrix(0.05,0,0,0.05,54.95,0)" xlink:href="#B"/><use transform="matrix(0.05,0,0,0.05,64.95,0)" xlink:href="#G"/><use transform="matrix(0.05,0,0,0.05,69.95,0)" xlink:href="#G"/><use transform="matrix(0.05,0,0,0.05,74.95,0)" xlink:href="#A"/><use transform="matrix(0.05,0,0,0.05,84.95,0)" xlink:href="#C"/><use transform="matrix(0.05,0,0,0.05,90.9,0)" xlink:href="#J"/></g><g id="s"><use transform="matrix(0.05,0,0,0.05,0,0)" xlink:href="#aa"/><use transform="matrix(0.05,0,0,0.05,14.950000000000001,0)" xlink:href="#B"/><use transform="matrix(0.05,0,0,0.05,24.950000000000003,0)" xlink:href="#T"/><use transform="matrix(0.05,0,0,0.05,33.95,0)" xlink:href="#U"/><use transform="matrix(0.05,0,0,0.05,44.6,0)" xlink:href="#B"/><use transform="matrix(0.05,0,0,0.05,54.6,0)" xlink:href="#N"/><use transform="matrix(0.05,0,0,0.05,58.550000000000004,0)" xlink:href="#V"/><use transform="matrix(0.05,0,0,0.05,68.55000000000001,0)" xlink:href="#A"/><use transform="matrix(0.05,0,0,0.05,78.55000000000001,0)" xlink:href="#X"/></g><g id="t"><use transform="matrix(0.05,0,0,0.05,0,0)" xlink:href="#aa"/><use transform="matrix(0.05,0,0,0.05,14.950000000000001,0)" xlink:href="#H"/><use transform="matrix(0.05,0,0,0.05,18.900000000000002,0)" xlink:href="#J"/><use transform="matrix(0.05,0,0,0.05,28.900000000000002,0)" xlink:href="#U"/><use transform="matrix(0.05,0,0,0.05,39.55,0)" xlink:href="#B"/><use transform="matrix(0.05,0,0,0.05,49.55,0)" xlink:href="#N"/><use transform="matrix(0.05,0,0,0.05,53.5,0)" xlink:href="#V"/><use transform="matrix(0.05,0,0,0.05,63.5,0)" xlink:href="#A"/><use transform="matrix(0.05,0,0,0.05,73.5,0)" xlink:href="#X"/></g><path d="M30 0v-248h33v221h125V0H30" id="ah"/><g id="u"><use transform="matrix(0.05,0,0,0.05,0,0)" xlink:href="#aa"/><use transform="matrix(0.05,0,0,0.05,14.950000000000001,0)" xlink:href="#B"/><use transform="matrix(0.05,0,0,0.05,24.950000000000003,0)" xlink:href="#T"/><use transform="matrix(0.05,0,0,0.05,33.95,0)" xlink:href="#U"/><use transform="matrix(0.05,0,0,0.05,44.6,0)" xlink:href="#B"/><use transform="matrix(0.05,0,0,0.05,54.6,0)" xlink:href="#N"/><use transform="matrix(0.05,0,0,0.05,58.550000000000004,0)" xlink:href="#V"/><use transform="matrix(0.05,0,0,0.05,68.55000000000001,0)" xlink:href="#A"/><use transform="matrix(0.05,0,0,0.05,78.55000000000001,0)" xlink:href="#ah"/><use transform="matrix(0.05,0,0,0.05,88.55000000000001,0)" xlink:href="#A"/><use transform="matrix(0.05,0,0,0.05,98.55000000000001,0)" xlink:href="#J"/><use transform="matrix(0.05,0,0,0.05,108.55000000000001,0)" xlink:href="#R"/><use transform="matrix(0.05,0,0,0.05,118.55000000000001,0)" xlink:href="#G"/><use transform="matrix(0.05,0,0,0.05,123.55000000000001,0)" xlink:href="#E"/><use transform="matrix(0.05,0,0,0.05,133.55,0)" xlink:href="#X"/></g><g id="v"><use transform="matrix(0.05,0,0,0.05,0,0)" xlink:href="#aa"/><use transform="matrix(0.05,0,0,0.05,14.950000000000001,0)" xlink:href="#H"/><use transform="matrix(0.05,0,0,0.05,18.900000000000002,0)" xlink:href="#J"/><use transform="matrix(0.05,0,0,0.05,28.900000000000002,0)" xlink:href="#U"/><use transform="matrix(0.05,0,0,0.05,39.55,0)" xlink:href="#B"/><use transform="matrix(0.05,0,0,0.05,49.55,0)" xlink:href="#N"/><use transform="matrix(0.05,0,0,0.05,53.5,0)" xlink:href="#V"/><use transform="matrix(0.05,0,0,0.05,63.5,0)" xlink:href="#A"/><use transform="matrix(0.05,0,0,0.05,73.5,0)" xlink:href="#ah"/><use transform="matrix(0.05,0,0,0.05,83.5,0)" xlink:href="#A"/><use transform="matrix(0.05,0,0,0.05,93.5,0)" xlink:href="#J"/><use transform="matrix(0.05,0,0,0.05,103.5,0)" xlink:href="#R"/><use transform="matrix(0.05,0,0,0.05,113.5,0)" xlink:href="#G"/><use transform="matrix(0.05,0,0,0.05,118.5,0)" xlink:href="#E"/><use transform="matrix(0.05,0,0,0.05,128.5,0)" xlink:href="#X"/></g><g id="w"><use transform="matrix(0.05,0,0,0.05,0,0)" xlink:href="#L"/><use transform="matrix(0.05,0,0,0.05,9,0)" xlink:href="#G"/><use transform="matrix(0.05,0,0,0.05,14,0)" xlink:href="#A"/><use transform="matrix(0.05,0,0,0.05,24,0)" xlink:href="#M"/><use transform="matrix(0.05,0,0,0.05,34,0)" xlink:href="#U"/><use transform="matrix(0.05,0,0,0.05,44.65,0)" xlink:href="#B"/><use transform="matrix(0.05,0,0,0.05,54.650000000000006,0)" xlink:href="#N"/><use transform="matrix(0.05,0,0,0.05,58.6,0)" xlink:href="#V"/><use transform="matrix(0.05,0,0,0.05,68.6,0)" xlink:href="#A"/></g><path d="M233-177c-1 41-23 64-60 70L243 0h-38l-65-103H63V0H30v-248c88 3 205-21 203 71zM63-129c60-2 137 13 137-47 0-61-80-42-137-45v92" id="ai"/><g id="x"><use transform="matrix(0.05,0,0,0.05,0,0)" xlink:href="#ag"/><use transform="matrix(0.05,0,0,0.05,9,0)" xlink:href="#B"/><use transform="matrix(0.05,0,0,0.05,19,0)" xlink:href="#N"/><use transform="matrix(0.05,0,0,0.05,22.95,0)" xlink:href="#V"/><use transform="matrix(0.05,0,0,0.05,32.95,0)" xlink:href="#A"/><use transform="matrix(0.05,0,0,0.05,42.95,0)" xlink:href="#ai"/><use transform="matrix(0.05,0,0,0.05,55.900000000000006,0)" xlink:href="#A"/><use transform="matrix(0.05,0,0,0.05,65.9,0)" xlink:href="#ab"/><use transform="matrix(0.05,0,0,0.05,75.9,0)" xlink:href="#V"/><use transform="matrix(0.05,0,0,0.05,85.9,0)" xlink:href="#H"/><use transform="matrix(0.05,0,0,0.05,89.85000000000001,0)" xlink:href="#C"/><use transform="matrix(0.05,0,0,0.05,95.80000000000001,0)" xlink:href="#A"/><use transform="matrix(0.05,0,0,0.05,105.80000000000001,0)" xlink:href="#Y"/><use transform="matrix(0.05,0,0,0.05,115.80000000000001,0)" xlink:href="#X"/></g><g id="y"><use transform="matrix(0.05,0,0,0.05,0,0)" xlink:href="#aa"/><use transform="matrix(0.05,0,0,0.05,14.950000000000001,0)" xlink:href="#V"/><use transform="matrix(0.05,0,0,0.05,24.950000000000003,0)" xlink:href="#N"/><use transform="matrix(0.05,0,0,0.05,28.900000000000002,0)" xlink:href="#G"/><use transform="matrix(0.05,0,0,0.05,33.900000000000006,0)" xlink:href="#H"/><use transform="matrix(0.05,0,0,0.05,37.85000000000001,0)" xlink:href="#M"/><use transform="matrix(0.05,0,0,0.05,47.85000000000001,0)" xlink:href="#N"/><use transform="matrix(0.05,0,0,0.05,51.80000000000001,0)" xlink:href="#A"/><use transform="matrix(0.05,0,0,0.05,61.80000000000001,0)" xlink:href="#U"/><use transform="matrix(0.05,0,0,0.05,72.45000000000002,0)" xlink:href="#B"/><use transform="matrix(0.05,0,0,0.05,82.45000000000002,0)" xlink:href="#N"/><use transform="matrix(0.05,0,0,0.05,86.40000000000002,0)" xlink:href="#V"/><use transform="matrix(0.05,0,0,0.05,96.40000000000002,0)" xlink:href="#A"/><use transform="matrix(0.05,0,0,0.05,106.40000000000003,0)" xlink:href="#L"/></g></defs></g></svg>