<svg xmlns="http://www.w3.org/2000/svg" xmlns:xlink="http://www.w3.org/1999/xlink" xmlns:lucid="lucid" width="1040.7" height="550.67"><g transform="translate(-60 1240)" lucid:page-tab-id="0_0"><path d="M0-1296h1760V64H0z" fill="#fff"/><path d="M80-1220h148v100H80z" stroke="#000" stroke-width="2" fill="#c7e8ac"/><use xlink:href="#a" transform="matrix(1,0,0,1,85,-1215) translate(38.025 48.6)"/><path d="M420-1201h120v60H420z" stroke="#000" stroke-width="2" fill="#c7e8ac"/><use xlink:href="#b" transform="matrix(1,0,0,1,425,-1196) translate(32.525 28.6)"/><path d="M230-1170h170.5" stroke="#000" stroke-width="2" fill="none"/><path d="M230.03-1169H229v-2h1.03z"/><path d="M415.76-1170l-14.26 4.64v-9.28z" stroke="#000" stroke-width="2"/><use xlink:href="#c" transform="matrix(1,0,0,1,259.1,-1195.6) translate(0 14.4)"/><path d="M746-1201h148v60H746z" stroke="#000" stroke-width="2" fill="#c7e8ac"/><use xlink:href="#d" transform="matrix(1,0,0,1,751,-1196) translate(26 28.6)"/><path d="M620-1040h180v70H620z" stroke="#000" stroke-width="2" fill="#c7e8ac"/><use xlink:href="#e" transform="matrix(1,0,0,1,625,-1035) translate(19.57499999999999 33.6)"/><path d="M1060-1005c0 19.33-22.4 35-50 35s-50-15.67-50-35 22.4-35 50-35 50 15.67 50 35z" stroke="#000" stroke-width="2" fill="#b2d6ef"/><use xlink:href="#f" transform="matrix(1,0,0,1,965,-1035) translate(28.525 33.6)"/><path d="M542-1171h184.5" stroke="#000" stroke-width="2" fill="none"/><path d="M542.03-1170H541v-2h1.03z"/><path d="M741.76-1171l-14.26 4.64v-9.28z" stroke="#000" stroke-width="2"/><path d="M542-1171h38v166h20.5" stroke="#000" stroke-width="2" fill="none"/><path d="M542.03-1170H541v-2h1.03z"/><path d="M615.76-1005l-14.26 4.64v-9.28z" stroke="#000" stroke-width="2"/><use xlink:href="#g" transform="matrix(1,0,0,1,570.991978074158,-1195.0029136069727) translate(0 14.4)"/><path d="M80-1060h148v70H80z" stroke="#000" stroke-width="2" fill="#c7e8ac"/><use xlink:href="#h" transform="matrix(1,0,0,1,85,-1055) translate(12.749999999999993 33.6)"/><path d="M80-800h339.33v90.67H80z" stroke="#000" stroke-width="2" fill="#ffc374"/><use xlink:href="#i" transform="matrix(1,0,0,1,85,-795) translate(26.650000000000006 44.1)"/><path d="M128-802.82v-184.36" fill="none"/><path d="M129-802.82c0 .55-.45 1-1 1s-1-.45-1-1 .45-1 1-1 1 .45 1 1zm0-4c0 .55-.45 1-1 1s-1-.45-1-1c0-.56.45-1 1-1s1 .44 1 1zm0-4c0 .54-.45 1-1 1s-1-.46-1-1c0-.57.45-1 1-1s1 .43 1 1zm0-4.02c0 .55-.45 1-1 1s-1-.45-1-1 .45-1 1-1 1 .45 1 1zm0-4c0 .54-.45 1-1 1s-1-.46-1-1c0-.56.45-1 1-1s1 .44 1 1zm0-4.02c0 .55-.45 1-1 1s-1-.45-1-1 .45-1 1-1 1 .45 1 1zm0-4c0 .55-.45 1-1 1s-1-.45-1-1c0-.56.45-1 1-1s1 .44 1 1zm0-4c0 .54-.45 1-1 1s-1-.46-1-1c0-.57.45-1 1-1s1 .43 1 1zm0-4.02c0 .55-.45 1-1 1s-1-.45-1-1 .45-1 1-1 1 .45 1 1zm0-4c0 .54-.45 1-1 1s-1-.46-1-1c0-.56.45-1 1-1s1 .44 1 1zm0-4.02c0 .56-.45 1-1 1s-1-.44-1-1c0-.55.45-1 1-1s1 .45 1 1zm0-4c0 .55-.45 1-1 1s-1-.45-1-1c0-.56.45-1 1-1s1 .44 1 1zm0-4c0 .54-.45 1-1 1s-1-.46-1-1c0-.57.45-1 1-1s1 .43 1 1zm0-4.02c0 .55-.45 1-1 1s-1-.45-1-1 .45-1 1-1 1 .45 1 1zm0-4c0 .54-.45 1-1 1s-1-.46-1-1c0-.56.45-1 1-1s1 .44 1 1zm0-4.02c0 .56-.45 1-1 1s-1-.44-1-1c0-.55.45-1 1-1s1 .45 1 1zm0-4c0 .55-.45 1-1 1s-1-.45-1-1c0-.56.45-1 1-1s1 .44 1 1zm0-4c0 .54-.45 1-1 1s-1-.46-1-1c0-.56.45-1 1-1s1 .44 1 1zm0-4.02c0 .55-.45 1-1 1s-1-.45-1-1 .45-1 1-1 1 .45 1 1zm0-4c0 .54-.45 1-1 1s-1-.46-1-1c0-.56.45-1 1-1s1 .44 1 1zm0-4.02c0 .56-.45 1-1 1s-1-.44-1-1c0-.55.45-1 1-1s1 .45 1 1zm0-4c0 .55-.45 1-1 1s-1-.45-1-1c0-.56.45-1 1-1s1 .44 1 1zm0-4c0 .54-.45 1-1 1s-1-.46-1-1c0-.56.45-1 1-1s1 .44 1 1zm0-4.02c0 .55-.45 1-1 1s-1-.45-1-1 .45-1 1-1 1 .45 1 1zm0-4c0 .54-.45 1-1 1s-1-.46-1-1c0-.56.45-1 1-1s1 .44 1 1zm0-4.02c0 .56-.45 1-1 1s-1-.44-1-1c0-.55.45-1 1-1s1 .45 1 1zm0-4c0 .55-.45 1-1 1s-1-.45-1-1c0-.56.45-1 1-1s1 .44 1 1zm0-4c0 .54-.45 1-1 1s-1-.46-1-1c0-.56.45-1 1-1s1 .44 1 1zm0-4.02c0 .55-.45 1-1 1s-1-.45-1-1 .45-1 1-1 1 .45 1 1zm0-4c0 .54-.45 1-1 1s-1-.46-1-1c0-.56.45-1 1-1s1 .44 1 1zm0-4.02c0 .56-.45 1-1 1s-1-.44-1-1c0-.55.45-1 1-1s1 .45 1 1zm0-4c0 .55-.45 1-1 1s-1-.45-1-1c0-.56.45-1 1-1s1 .44 1 1zm0-4c0 .54-.45 1-1 1s-1-.46-1-1c0-.56.45-1 1-1s1 .44 1 1zm0-4.02c0 .55-.45 1-1 1s-1-.45-1-1 .45-1 1-1 1 .45 1 1zm0-4c0 .55-.45 1-1 1s-1-.45-1-1c0-.56.45-1 1-1s1 .44 1 1zm0-4c0 .54-.45 1-1 1s-1-.46-1-1c0-.57.45-1 1-1s1 .43 1 1zm0-4.02c0 .55-.45 1-1 1s-1-.45-1-1c0-.56.45-1 1-1s1 .44 1 1zm0-4c0 .54-.45 1-1 1s-1-.46-1-1c0-.56.45-1 1-1s1 .44 1 1zm0-4.02c0 .55-.45 1-1 1s-1-.45-1-1 .45-1 1-1 1 .45 1 1zm0-4c0 .55-.45 1-1 1s-1-.45-1-1c0-.56.45-1 1-1s1 .44 1 1zm0-4c0 .54-.45 1-1 1s-1-.46-1-1c0-.57.45-1 1-1s1 .43 1 1zm0-4.02c0 .55-.45 1-1 1s-1-.45-1-1 .45-1 1-1 1 .45 1 1zm0-4c0 .54-.45 1-1 1s-1-.46-1-1c0-.56.45-1 1-1s1 .44 1 1zm0-4.02c0 .55-.45 1-1 1s-1-.45-1-1 .45-1 1-1 1 .45 1 1zm0-4c0 .55-.45 1-1 1s-1-.45-1-1c0-.56.45-1 1-1s1 .44 1 1zm0-4c0 .54-.45 1-1 1s-1-.46-1-1c0-.57.45-1 1-1s1 .43 1 1zm0-4.02c0 .55-.45 1-1 1s-1-.45-1-1 .45-1 1-1 1 .45 1 1z"/><path d="M117.82-820.18L128-802.96l10.18-17.22M138.18-969.82L128-987.04l-10.18 17.22M442.67-1139v114H247.5" stroke="#000" stroke-width="2" fill="none"/><path d="M443.67-1138.97h-2v-1.03h2z"/><path d="M232.24-1025l14.26-4.64v9.28z" stroke="#000" stroke-width="2"/><use xlink:href="#j" transform="matrix(1,0,0,1,250.27036419124022,-1050.6) translate(0 14.4)"/><path d="M206.67-988v103h64.46" stroke="#000" stroke-width="2" fill="none"/><path d="M207.67-987.97h-2V-989h2z"/><path d="M286.4-885l-14.27 4.64v-9.28z" stroke="#000" stroke-width="2"/><use xlink:href="#k" transform="matrix(1,0,0,1,214.66666666666677,-916.1333333212843) translate(0 14.4)"/><path d="M301.33-925H760l-21.33 80H280z" stroke="#000" stroke-width="2" fill="#ffeca9"/><use xlink:href="#l" transform="matrix(1,0,0,1,285,-920) translate(45.70000000000002 38.6)"/><path d="M896-1171h113.8v111.5" stroke="#000" stroke-width="2" fill="none"/><path d="M896.03-1170H895v-2h1.03z"/><path d="M1009.8-1044.23l-4.63-14.27h9.27z" stroke="#000" stroke-width="2"/><use xlink:href="#m" transform="matrix(1,0,0,1,1017.8006406271982,-1177.7900629291066) translate(0 14.4)"/><use xlink:href="#n" transform="matrix(1,0,0,1,1017.8006406271982,-1177.7900629291066) translate(0 36)"/><use xlink:href="#o" transform="matrix(1,0,0,1,1017.8006406271982,-1177.7900629291066) translate(0 57.6)"/><use xlink:href="#p" transform="matrix(1,0,0,1,1017.8006406271982,-1177.7900629291066) translate(0 79.20000000000002)"/><use xlink:href="#q" transform="matrix(1,0,0,1,1017.8006406271982,-1177.7900629291066) translate(0 100.80000000000001)"/><path d="M802-1005h138.5" stroke="#000" stroke-width="2" fill="none"/><path d="M802.03-1004H801v-2h1.03z"/><path d="M955.76-1005l-14.26 4.64v-9.28z" stroke="#000" stroke-width="2"/><g><use xlink:href="#r" transform="matrix(1,0,0,1,819.7166667035762,-1073.8) translate(0 14.4)"/><use xlink:href="#s" transform="matrix(1,0,0,1,819.7166667035762,-1073.8) translate(0 36)"/><use xlink:href="#q" transform="matrix(1,0,0,1,819.7166667035762,-1073.8) translate(0 57.6)"/></g><defs><path d="M30-248c118-7 216 8 213 122C240-48 200 0 122 0H30v-248zM63-27c89 8 146-16 146-99s-60-101-146-95v194" id="t"/><path d="M141-36C126-15 110 5 73 4 37 3 15-17 15-53c-1-64 63-63 125-63 3-35-9-54-41-54-24 1-41 7-42 31l-33-3c5-37 33-52 76-52 45 0 72 20 72 64v82c-1 20 7 32 28 27v20c-31 9-61-2-59-35zM48-53c0 20 12 33 32 33 41-3 63-29 60-74-43 2-92-5-92 41" id="u"/><path d="M59-47c-2 24 18 29 38 22v24C64 9 27 4 27-40v-127H5v-23h24l9-43h21v43h35v23H59v120" id="v"/><path d="M135-143c-3-34-86-38-87 0 15 53 115 12 119 90S17 21 10-45l28-5c4 36 97 45 98 0-10-56-113-15-118-90-4-57 82-63 122-42 12 7 21 19 24 35" id="w"/><path d="M100-194c63 0 86 42 84 106H49c0 40 14 67 53 68 26 1 43-12 49-29l28 8c-11 28-37 45-77 45C44 4 14-33 15-96c1-61 26-98 85-98zm52 81c6-60-76-77-97-28-3 7-6 17-6 28h103" id="x"/><g id="a"><use transform="matrix(0.05,0,0,0.05,0,0)" xlink:href="#t"/><use transform="matrix(0.05,0,0,0.05,12.950000000000001,0)" xlink:href="#u"/><use transform="matrix(0.05,0,0,0.05,22.950000000000003,0)" xlink:href="#v"/><use transform="matrix(0.05,0,0,0.05,27.950000000000003,0)" xlink:href="#u"/><use transform="matrix(0.05,0,0,0.05,37.95,0)" xlink:href="#w"/><use transform="matrix(0.05,0,0,0.05,46.95,0)" xlink:href="#x"/><use transform="matrix(0.05,0,0,0.05,56.95,0)" xlink:href="#v"/></g><path d="M30-248c87 1 191-15 191 75 0 78-77 80-158 76V0H30v-248zm33 125c57 0 124 11 124-50 0-59-68-47-124-48v98" id="y"/><path d="M24 0v-261h32V0H24" id="z"/><path d="M96-169c-40 0-48 33-48 73s9 75 48 75c24 0 41-14 43-38l32 2c-6 37-31 61-74 61-59 0-76-41-82-99-10-93 101-131 147-64 4 7 5 14 7 22l-32 3c-4-21-16-35-41-35" id="A"/><g id="b"><use transform="matrix(0.05,0,0,0.05,0,0)" xlink:href="#y"/><use transform="matrix(0.05,0,0,0.05,12,0)" xlink:href="#z"/><use transform="matrix(0.05,0,0,0.05,15.949999999999998,0)" xlink:href="#u"/><use transform="matrix(0.05,0,0,0.05,25.950000000000003,0)" xlink:href="#A"/><use transform="matrix(0.05,0,0,0.05,34.95,0)" xlink:href="#x"/></g><path d="M115-194c55 1 70 41 70 98S169 2 115 4C84 4 66-9 55-30l1 105H24l-1-265h31l2 30c10-21 28-34 59-34zm-8 174c40 0 45-34 45-75s-6-73-45-74c-42 0-51 32-51 76 0 43 10 73 51 73" id="B"/><path d="M24-231v-30h32v30H24zM24 0v-190h32V0H24" id="C"/><path d="M212-179c-10-28-35-45-73-45-59 0-87 40-87 99 0 60 29 101 89 101 43 0 62-24 78-52l27 14C228-24 195 4 139 4 59 4 22-46 18-125c-6-104 99-153 187-111 19 9 31 26 39 46" id="D"/><path d="M100-194c62-1 85 37 85 99 1 63-27 99-86 99S16-35 15-95c0-66 28-99 85-99zM99-20c44 1 53-31 53-75 0-43-8-75-51-75s-53 32-53 75 10 74 51 75" id="E"/><path d="M108 0H70L1-190h34L89-25l56-165h34" id="F"/><path d="M114-163C36-179 61-72 57 0H25l-1-190h30c1 12-1 29 2 39 6-27 23-49 58-41v29" id="G"/><path d="M177-190C167-65 218 103 67 71c-23-6-38-20-44-43l32-5c15 47 100 32 89-28v-30C133-14 115 1 83 1 29 1 15-40 15-95c0-56 16-97 71-98 29-1 48 16 59 35 1-10 0-23 2-32h30zM94-22c36 0 50-32 50-73 0-42-14-75-50-75-39 0-46 34-46 75s6 73 46 73" id="H"/><g id="c"><use transform="matrix(0.05,0,0,0.05,0,0)" xlink:href="#w"/><use transform="matrix(0.05,0,0,0.05,9,0)" xlink:href="#B"/><use transform="matrix(0.05,0,0,0.05,19,0)" xlink:href="#u"/><use transform="matrix(0.05,0,0,0.05,29,0)" xlink:href="#v"/><use transform="matrix(0.05,0,0,0.05,34,0)" xlink:href="#C"/><use transform="matrix(0.05,0,0,0.05,37.95,0)" xlink:href="#u"/><use transform="matrix(0.05,0,0,0.05,47.95,0)" xlink:href="#z"/><use transform="matrix(0.05,0,0,0.05,51.900000000000006,0)" xlink:href="#D"/><use transform="matrix(0.05,0,0,0.05,64.85000000000001,0)" xlink:href="#E"/><use transform="matrix(0.05,0,0,0.05,74.85000000000001,0)" xlink:href="#F"/><use transform="matrix(0.05,0,0,0.05,83.85000000000001,0)" xlink:href="#x"/><use transform="matrix(0.05,0,0,0.05,93.85000000000001,0)" xlink:href="#G"/><use transform="matrix(0.05,0,0,0.05,99.80000000000001,0)" xlink:href="#u"/><use transform="matrix(0.05,0,0,0.05,109.80000000000001,0)" xlink:href="#H"/><use transform="matrix(0.05,0,0,0.05,119.80000000000001,0)" xlink:href="#x"/></g><path d="M143 4C61 4 22-44 18-125c-5-107 100-154 193-111 17 8 29 25 37 43l-32 9c-13-25-37-40-76-40-61 0-88 39-88 99 0 61 29 100 91 101 35 0 62-11 79-27v-45h-74v-28h105v86C228-13 192 4 143 4" id="I"/><path d="M185-189c-5-48-123-54-124 2 14 75 158 14 163 119 3 78-121 87-175 55-17-10-28-26-33-46l33-7c5 56 141 63 141-1 0-78-155-14-162-118-5-82 145-84 179-34 5 7 8 16 11 25" id="J"/><path d="M106-169C34-169 62-67 57 0H25v-261h32l-1 103c12-21 28-36 61-36 89 0 53 116 60 194h-32v-121c2-32-8-49-39-48" id="K"/><g id="d"><use transform="matrix(0.05,0,0,0.05,0,0)" xlink:href="#I"/><use transform="matrix(0.05,0,0,0.05,14,0)" xlink:href="#x"/><use transform="matrix(0.05,0,0,0.05,24,0)" xlink:href="#E"/><use transform="matrix(0.05,0,0,0.05,34,0)" xlink:href="#J"/><use transform="matrix(0.05,0,0,0.05,46,0)" xlink:href="#K"/><use transform="matrix(0.05,0,0,0.05,56,0)" xlink:href="#u"/><use transform="matrix(0.05,0,0,0.05,66,0)" xlink:href="#B"/><use transform="matrix(0.05,0,0,0.05,76,0)" xlink:href="#x"/></g><path d="M85-194c31 0 48 13 60 33l-1-100h32l1 261h-30c-2-10 0-23-3-31C134-8 116 4 85 4 32 4 16-35 15-94c0-66 23-100 70-100zm9 24c-40 0-46 34-46 75 0 40 6 74 45 74 42 0 51-32 51-76 0-42-9-74-50-73" id="L"/><path d="M117-194c89-4 53 116 60 194h-32v-121c0-31-8-49-39-48C34-167 62-67 57 0H25l-1-190h30c1 10-1 24 2 32 11-22 29-35 61-36" id="M"/><g id="e"><use transform="matrix(0.05,0,0,0.05,0,0)" xlink:href="#I"/><use transform="matrix(0.05,0,0,0.05,14,0)" xlink:href="#x"/><use transform="matrix(0.05,0,0,0.05,24,0)" xlink:href="#E"/><use transform="matrix(0.05,0,0,0.05,34,0)" xlink:href="#D"/><use transform="matrix(0.05,0,0,0.05,46.95,0)" xlink:href="#E"/><use transform="matrix(0.05,0,0,0.05,56.95,0)" xlink:href="#E"/><use transform="matrix(0.05,0,0,0.05,66.95,0)" xlink:href="#G"/><use transform="matrix(0.05,0,0,0.05,72.9,0)" xlink:href="#L"/><use transform="matrix(0.05,0,0,0.05,82.9,0)" xlink:href="#C"/><use transform="matrix(0.05,0,0,0.05,86.85000000000001,0)" xlink:href="#M"/><use transform="matrix(0.05,0,0,0.05,96.85000000000001,0)" xlink:href="#u"/><use transform="matrix(0.05,0,0,0.05,106.85000000000001,0)" xlink:href="#v"/><use transform="matrix(0.05,0,0,0.05,111.85000000000001,0)" xlink:href="#x"/><use transform="matrix(0.05,0,0,0.05,121.85000000000001,0)" xlink:href="#w"/></g><path d="M127-220V0H93v-220H8v-28h204v28h-85" id="N"/><path d="M141 0L90-78 38 0H4l68-98-65-92h35l48 74 47-74h35l-64 92 68 98h-35" id="O"/><g id="f"><use transform="matrix(0.05,0,0,0.05,0,0)" xlink:href="#N"/><use transform="matrix(0.05,0,0,0.05,8.950000000000001,0)" xlink:href="#x"/><use transform="matrix(0.05,0,0,0.05,18.950000000000003,0)" xlink:href="#O"/><use transform="matrix(0.05,0,0,0.05,27.950000000000003,0)" xlink:href="#v"/></g><g id="g"><use transform="matrix(0.05,0,0,0.05,0,0)" xlink:href="#H"/><use transform="matrix(0.05,0,0,0.05,10,0)" xlink:href="#x"/><use transform="matrix(0.05,0,0,0.05,20,0)" xlink:href="#E"/></g><path d="M179-190L93 31C79 59 56 82 12 73V49c39 6 53-20 64-50L1-190h34L92-34l54-156h33" id="P"/><path d="M137 0h-34L2-248h35l83 218 83-218h36" id="Q"/><path d="M84 4C-5 8 30-112 23-190h32v120c0 31 7 50 39 49 72-2 45-101 50-169h31l1 190h-30c-1-10 1-25-2-33-11 22-28 36-60 37" id="R"/><g id="h"><use transform="matrix(0.05,0,0,0.05,0,0)" xlink:href="#y"/><use transform="matrix(0.05,0,0,0.05,12,0)" xlink:href="#G"/><use transform="matrix(0.05,0,0,0.05,17.95,0)" xlink:href="#E"/><use transform="matrix(0.05,0,0,0.05,27.950000000000003,0)" xlink:href="#B"/><use transform="matrix(0.05,0,0,0.05,37.95,0)" xlink:href="#x"/><use transform="matrix(0.05,0,0,0.05,47.95,0)" xlink:href="#G"/><use transform="matrix(0.05,0,0,0.05,53.900000000000006,0)" xlink:href="#v"/><use transform="matrix(0.05,0,0,0.05,58.900000000000006,0)" xlink:href="#P"/><use transform="matrix(0.05,0,0,0.05,67.9,0)" xlink:href="#Q"/><use transform="matrix(0.05,0,0,0.05,78.55000000000001,0)" xlink:href="#u"/><use transform="matrix(0.05,0,0,0.05,88.55000000000001,0)" xlink:href="#z"/><use transform="matrix(0.05,0,0,0.05,92.50000000000001,0)" xlink:href="#R"/><use transform="matrix(0.05,0,0,0.05,102.5,0)" xlink:href="#x"/></g><path d="M115-194c53 0 69 39 70 98 0 66-23 100-70 100C84 3 66-7 56-30L54 0H23l1-261h32v101c10-23 28-34 59-34zm-8 174c40 0 45-34 45-75 0-40-5-75-45-74-42 0-51 32-51 76 0 43 10 73 51 73" id="S"/><path d="M33-154v-36h34v36H33zM33 0v-36h34V0H33" id="T"/><path d="M-5 72V49h209v23H-5" id="U"/><path d="M101-234c-31-9-42 10-38 44h38v23H63V0H32v-167H5v-23h27c-7-52 17-82 69-68v24" id="V"/><path d="M210-169c-67 3-38 105-44 169h-31v-121c0-29-5-50-35-48C34-165 62-65 56 0H25l-1-190h30c1 10-1 24 2 32 10-44 99-50 107 0 11-21 27-35 58-36 85-2 47 119 55 194h-31v-121c0-29-5-49-35-48" id="W"/><g id="i"><use transform="matrix(0.05,0,0,0.05,0,0)" xlink:href="#L"/><use transform="matrix(0.05,0,0,0.05,10,0)" xlink:href="#S"/><use transform="matrix(0.05,0,0,0.05,20,0)" xlink:href="#B"/><use transform="matrix(0.05,0,0,0.05,30,0)" xlink:href="#x"/><use transform="matrix(0.05,0,0,0.05,40,0)" xlink:href="#L"/><use transform="matrix(0.05,0,0,0.05,50,0)" xlink:href="#C"/><use transform="matrix(0.05,0,0,0.05,53.95,0)" xlink:href="#u"/><use transform="matrix(0.05,0,0,0.05,63.95,0)" xlink:href="#T"/><use transform="matrix(0.05,0,0,0.05,68.95,0)" xlink:href="#J"/><use transform="matrix(0.05,0,0,0.05,80.95,0)" xlink:href="#B"/><use transform="matrix(0.05,0,0,0.05,90.95,0)" xlink:href="#u"/><use transform="matrix(0.05,0,0,0.05,100.95,0)" xlink:href="#v"/><use transform="matrix(0.05,0,0,0.05,105.95,0)" xlink:href="#C"/><use transform="matrix(0.05,0,0,0.05,109.9,0)" xlink:href="#u"/><use transform="matrix(0.05,0,0,0.05,119.9,0)" xlink:href="#z"/><use transform="matrix(0.05,0,0,0.05,123.85000000000001,0)" xlink:href="#U"/><use transform="matrix(0.05,0,0,0.05,133.85000000000002,0)" xlink:href="#G"/><use transform="matrix(0.05,0,0,0.05,139.8,0)" xlink:href="#x"/><use transform="matrix(0.05,0,0,0.05,149.8,0)" xlink:href="#V"/><use transform="matrix(0.05,0,0,0.05,154.8,0)" xlink:href="#x"/><use transform="matrix(0.05,0,0,0.05,164.8,0)" xlink:href="#G"/><use transform="matrix(0.05,0,0,0.05,170.75,0)" xlink:href="#x"/><use transform="matrix(0.05,0,0,0.05,180.75,0)" xlink:href="#M"/><use transform="matrix(0.05,0,0,0.05,190.75,0)" xlink:href="#A"/><use transform="matrix(0.05,0,0,0.05,199.75,0)" xlink:href="#x"/><use transform="matrix(0.05,0,0,0.05,209.75,0)" xlink:href="#U"/><use transform="matrix(0.05,0,0,0.05,219.75,0)" xlink:href="#w"/><use transform="matrix(0.05,0,0,0.05,228.75,0)" xlink:href="#P"/><use transform="matrix(0.05,0,0,0.05,237.75,0)" xlink:href="#w"/><use transform="matrix(0.05,0,0,0.05,246.75,0)" xlink:href="#v"/><use transform="matrix(0.05,0,0,0.05,251.75,0)" xlink:href="#x"/><use transform="matrix(0.05,0,0,0.05,261.75,0)" xlink:href="#W"/></g><g id="j"><use transform="matrix(0.05,0,0,0.05,0,0)" xlink:href="#u"/><use transform="matrix(0.05,0,0,0.05,10,0)" xlink:href="#L"/><use transform="matrix(0.05,0,0,0.05,20,0)" xlink:href="#L"/><use transform="matrix(0.05,0,0,0.05,30,0)" xlink:href="#C"/><use transform="matrix(0.05,0,0,0.05,33.95,0)" xlink:href="#v"/><use transform="matrix(0.05,0,0,0.05,38.95,0)" xlink:href="#C"/><use transform="matrix(0.05,0,0,0.05,42.900000000000006,0)" xlink:href="#E"/><use transform="matrix(0.05,0,0,0.05,52.900000000000006,0)" xlink:href="#M"/><use transform="matrix(0.05,0,0,0.05,62.900000000000006,0)" xlink:href="#u"/><use transform="matrix(0.05,0,0,0.05,72.9,0)" xlink:href="#z"/><use transform="matrix(0.05,0,0,0.05,76.85000000000001,0)" xlink:href="#y"/><use transform="matrix(0.05,0,0,0.05,88.85000000000001,0)" xlink:href="#G"/><use transform="matrix(0.05,0,0,0.05,94.80000000000001,0)" xlink:href="#E"/><use transform="matrix(0.05,0,0,0.05,104.80000000000001,0)" xlink:href="#B"/><use transform="matrix(0.05,0,0,0.05,114.80000000000001,0)" xlink:href="#x"/><use transform="matrix(0.05,0,0,0.05,124.80000000000001,0)" xlink:href="#G"/><use transform="matrix(0.05,0,0,0.05,130.75,0)" xlink:href="#v"/><use transform="matrix(0.05,0,0,0.05,135.75,0)" xlink:href="#P"/></g><path d="M198-261c85 0 136 45 136 128 0 61-22 111-78 115-29 2-39-18-37-44-12 23-32 44-66 44-41 0-58-28-58-68 0-60 30-105 88-108 29-1 43 15 54 32l7-28h28c-9 45-23 84-27 134-1 11 6 17 14 16 39-4 51-48 51-92 0-69-42-107-112-107-93 0-145 59-145 153C53-15 94 26 168 27c43 0 78-13 106-28l9 19c-30 18-67 32-115 32C79 50 28-1 28-86c0-107 62-175 170-175zM158-41c46 0 70-43 70-90 0-26-17-40-43-40-44 0-59 41-61 85-1 26 9 45 34 45" id="X"/><g id="k"><use transform="matrix(0.05,0,0,0.05,0,0)" xlink:href="#X"/><use transform="matrix(0.05,0,0,0.05,18.25,0)" xlink:href="#C"/><use transform="matrix(0.05,0,0,0.05,22.2,0)" xlink:href="#L"/></g><path d="M0 4l72-265h28L28 4H0" id="Y"/><path d="M206 0h-36l-40-164L89 0H53L-1-190h32L70-26l43-164h34l41 164 42-164h31" id="Z"/><path d="M33 0v-38h34V0H33" id="aa"/><path d="M140-251c81 0 123 46 123 126C263-46 219 4 140 4 59 4 17-45 17-125s42-126 123-126zm0 227c63 0 89-41 89-101s-29-99-89-99c-61 0-89 39-89 99S79-25 140-24" id="ab"/><path d="M27 0v-27h64v-190l-56 39v-29l58-41h29v221h61V0H27" id="ac"/><path d="M126-127c33 6 58 20 58 59 0 88-139 92-164 29-3-8-5-16-6-25l32-3c6 27 21 44 54 44 32 0 52-15 52-46 0-38-36-46-79-43v-28c39 1 72-4 72-42 0-27-17-43-46-43-28 0-47 15-49 41l-32-3c6-42 35-63 81-64 48-1 79 21 79 65 0 36-21 52-52 59" id="ad"/><path d="M233-177c-1 41-23 64-60 70L243 0h-38l-65-103H63V0H30v-248c88 3 205-21 203 71zM63-129c60-2 137 13 137-47 0-61-80-42-137-45v92" id="ae"/><path d="M134-131c28 9 52 24 51 62-1 50-34 73-85 73S17-19 16-69c0-36 21-54 49-61-75-25-45-126 34-121 46 3 78 18 79 63 0 33-17 51-44 57zm-34-11c31 1 46-15 46-44 0-28-17-43-47-42-29 0-46 13-45 42 1 28 16 44 46 44zm1 122c35 0 51-18 51-52 0-30-18-46-53-46-33 0-51 17-51 47 0 34 19 51 53 51" id="af"/><path d="M155-56V0h-30v-56H8v-25l114-167h33v167h35v25h-35zm-30-156c-27 46-58 90-88 131h88v-131" id="ag"/><g id="l"><use transform="matrix(0.05,0,0,0.05,0,0)" xlink:href="#K"/><use transform="matrix(0.05,0,0,0.05,10,0)" xlink:href="#v"/><use transform="matrix(0.05,0,0,0.05,15,0)" xlink:href="#v"/><use transform="matrix(0.05,0,0,0.05,20,0)" xlink:href="#B"/><use transform="matrix(0.05,0,0,0.05,30,0)" xlink:href="#T"/><use transform="matrix(0.05,0,0,0.05,35,0)" xlink:href="#Y"/><use transform="matrix(0.05,0,0,0.05,40,0)" xlink:href="#Y"/><use transform="matrix(0.05,0,0,0.05,45,0)" xlink:href="#Z"/><use transform="matrix(0.05,0,0,0.05,57.95,0)" xlink:href="#Z"/><use transform="matrix(0.05,0,0,0.05,70.9,0)" xlink:href="#Z"/><use transform="matrix(0.05,0,0,0.05,82.85000000000001,0)" xlink:href="#aa"/><use transform="matrix(0.05,0,0,0.05,87.85000000000001,0)" xlink:href="#E"/><use transform="matrix(0.05,0,0,0.05,97.85000000000001,0)" xlink:href="#B"/><use transform="matrix(0.05,0,0,0.05,107.85000000000001,0)" xlink:href="#x"/><use transform="matrix(0.05,0,0,0.05,117.85000000000001,0)" xlink:href="#M"/><use transform="matrix(0.05,0,0,0.05,127.85000000000001,0)" xlink:href="#H"/><use transform="matrix(0.05,0,0,0.05,137.85000000000002,0)" xlink:href="#C"/><use transform="matrix(0.05,0,0,0.05,141.8,0)" xlink:href="#w"/><use transform="matrix(0.05,0,0,0.05,150.8,0)" xlink:href="#aa"/><use transform="matrix(0.05,0,0,0.05,155.8,0)" xlink:href="#M"/><use transform="matrix(0.05,0,0,0.05,165.8,0)" xlink:href="#x"/><use transform="matrix(0.05,0,0,0.05,175.8,0)" xlink:href="#v"/><use transform="matrix(0.05,0,0,0.05,180.8,0)" xlink:href="#Y"/><use transform="matrix(0.05,0,0,0.05,185.8,0)" xlink:href="#L"/><use transform="matrix(0.05,0,0,0.05,195.8,0)" xlink:href="#x"/><use transform="matrix(0.05,0,0,0.05,205.8,0)" xlink:href="#V"/><use transform="matrix(0.05,0,0,0.05,210.8,0)" xlink:href="#Y"/><use transform="matrix(0.05,0,0,0.05,215.8,0)" xlink:href="#A"/><use transform="matrix(0.05,0,0,0.05,224.8,0)" xlink:href="#G"/><use transform="matrix(0.05,0,0,0.05,230.75,0)" xlink:href="#w"/><use transform="matrix(0.05,0,0,0.05,239.75,0)" xlink:href="#Y"/><use transform="matrix(0.05,0,0,0.05,244.75,0)" xlink:href="#ab"/><use transform="matrix(0.05,0,0,0.05,258.75,0)" xlink:href="#I"/><use transform="matrix(0.05,0,0,0.05,272.75,0)" xlink:href="#D"/><use transform="matrix(0.05,0,0,0.05,285.7,0)" xlink:href="#Y"/><use transform="matrix(0.05,0,0,0.05,290.7,0)" xlink:href="#ac"/><use transform="matrix(0.05,0,0,0.05,300.7,0)" xlink:href="#aa"/><use transform="matrix(0.05,0,0,0.05,305.7,0)" xlink:href="#ad"/><use transform="matrix(0.05,0,0,0.05,315.7,0)" xlink:href="#Y"/><use transform="matrix(0.05,0,0,0.05,320.7,0)" xlink:href="#D"/><use transform="matrix(0.05,0,0,0.05,333.65,0)" xlink:href="#ae"/><use transform="matrix(0.05,0,0,0.05,346.59999999999997,0)" xlink:href="#J"/><use transform="matrix(0.05,0,0,0.05,358.59999999999997,0)" xlink:href="#af"/><use transform="matrix(0.05,0,0,0.05,368.59999999999997,0)" xlink:href="#ag"/></g><path d="M68-38c1 34 0 65-14 84H32c9-13 17-26 17-46H33v-38h35" id="ah"/><g id="m"><use transform="matrix(0.05,0,0,0.05,0,0)" xlink:href="#S"/><use transform="matrix(0.05,0,0,0.05,10,0)" xlink:href="#E"/><use transform="matrix(0.05,0,0,0.05,20,0)" xlink:href="#O"/><use transform="matrix(0.05,0,0,0.05,29,0)" xlink:href="#ah"/></g><g id="n"><use transform="matrix(0.05,0,0,0.05,0,0)" xlink:href="#B"/><use transform="matrix(0.05,0,0,0.05,10,0)" xlink:href="#E"/><use transform="matrix(0.05,0,0,0.05,20,0)" xlink:href="#z"/><use transform="matrix(0.05,0,0,0.05,23.95,0)" xlink:href="#P"/><use transform="matrix(0.05,0,0,0.05,32.95,0)" xlink:href="#H"/><use transform="matrix(0.05,0,0,0.05,42.95,0)" xlink:href="#E"/><use transform="matrix(0.05,0,0,0.05,52.95,0)" xlink:href="#M"/><use transform="matrix(0.05,0,0,0.05,62.95,0)" xlink:href="#ah"/></g><g id="o"><use transform="matrix(0.05,0,0,0.05,0,0)" xlink:href="#z"/><use transform="matrix(0.05,0,0,0.05,3.95,0)" xlink:href="#C"/><use transform="matrix(0.05,0,0,0.05,7.9,0)" xlink:href="#M"/><use transform="matrix(0.05,0,0,0.05,17.9,0)" xlink:href="#x"/><use transform="matrix(0.05,0,0,0.05,27.899999999999995,0)" xlink:href="#ah"/></g><g id="p"><use transform="matrix(0.05,0,0,0.05,0,0)" xlink:href="#A"/><use transform="matrix(0.05,0,0,0.05,9,0)" xlink:href="#C"/><use transform="matrix(0.05,0,0,0.05,12.949999999999998,0)" xlink:href="#G"/><use transform="matrix(0.05,0,0,0.05,18.9,0)" xlink:href="#A"/><use transform="matrix(0.05,0,0,0.05,27.899999999999995,0)" xlink:href="#z"/><use transform="matrix(0.05,0,0,0.05,31.849999999999994,0)" xlink:href="#x"/><use transform="matrix(0.05,0,0,0.05,41.849999999999994,0)" xlink:href="#ah"/></g><g id="q"><use transform="matrix(0.05,0,0,0.05,0,0)" xlink:href="#x"/><use transform="matrix(0.05,0,0,0.05,10,0)" xlink:href="#z"/><use transform="matrix(0.05,0,0,0.05,13.949999999999998,0)" xlink:href="#x"/><use transform="matrix(0.05,0,0,0.05,23.95,0)" xlink:href="#F"/><use transform="matrix(0.05,0,0,0.05,32.95,0)" xlink:href="#u"/><use transform="matrix(0.05,0,0,0.05,42.95,0)" xlink:href="#v"/><use transform="matrix(0.05,0,0,0.05,47.95,0)" xlink:href="#C"/><use transform="matrix(0.05,0,0,0.05,51.900000000000006,0)" xlink:href="#E"/><use transform="matrix(0.05,0,0,0.05,61.900000000000006,0)" xlink:href="#M"/></g><g id="r"><use transform="matrix(0.05,0,0,0.05,0,0)" xlink:href="#z"/><use transform="matrix(0.05,0,0,0.05,3.95,0)" xlink:href="#u"/><use transform="matrix(0.05,0,0,0.05,13.949999999999998,0)" xlink:href="#v"/><use transform="matrix(0.05,0,0,0.05,18.95,0)" xlink:href="#C"/><use transform="matrix(0.05,0,0,0.05,22.9,0)" xlink:href="#v"/><use transform="matrix(0.05,0,0,0.05,27.899999999999995,0)" xlink:href="#v"/><use transform="matrix(0.05,0,0,0.05,32.9,0)" xlink:href="#R"/><use transform="matrix(0.05,0,0,0.05,42.9,0)" xlink:href="#L"/><use transform="matrix(0.05,0,0,0.05,52.900000000000006,0)" xlink:href="#x"/><use transform="matrix(0.05,0,0,0.05,62.900000000000006,0)" xlink:href="#ah"/></g><g id="s"><use transform="matrix(0.05,0,0,0.05,0,0)" xlink:href="#z"/><use transform="matrix(0.05,0,0,0.05,3.95,0)" xlink:href="#E"/><use transform="matrix(0.05,0,0,0.05,13.949999999999998,0)" xlink:href="#M"/><use transform="matrix(0.05,0,0,0.05,23.95,0)" xlink:href="#H"/><use transform="matrix(0.05,0,0,0.05,33.95,0)" xlink:href="#C"/><use transform="matrix(0.05,0,0,0.05,37.900000000000006,0)" xlink:href="#v"/><use transform="matrix(0.05,0,0,0.05,42.900000000000006,0)" xlink:href="#R"/><use transform="matrix(0.05,0,0,0.05,52.900000000000006,0)" xlink:href="#L"/><use transform="matrix(0.05,0,0,0.05,62.900000000000006,0)" xlink:href="#x"/><use transform="matrix(0.05,0,0,0.05,72.9,0)" xlink:href="#ah"/></g></defs></g></svg>
