<svg xmlns="http://www.w3.org/2000/svg" xmlns:xlink="http://www.w3.org/1999/xlink" xmlns:lucid="lucid" width="590.85" height="330"><g transform="translate(-60 1260)" lucid:page-tab-id="0_0"><path d="M80-1240h148v100H80z" stroke="#000" stroke-width="2" fill="#c7e8ac"/><use xlink:href="#a" transform="matrix(1,0,0,1,85,-1235) translate(38.025 48.6)"/><path d="M420-1240h148v100H420z" stroke="#000" stroke-width="2" fill="#c7e8ac"/><use xlink:href="#b" transform="matrix(1,0,0,1,425,-1235) translate(10.099999999999994 48.6)"/><path d="M229-1190h171.76" stroke="#000" stroke-width="2" fill="none"/><path d="M229-1189h-1v-2h1zM415.76-1190l-14.26 4.64v-9.28z"/><path d="M419-1190l-18.5 6v-12zm-16.5 3.26l10.03-3.26-10.03-3.26z"/><use xlink:href="#c" transform="matrix(1,0,0,1,280.6,-1215.6) translate(0 14.4)"/><path d="M600-985c0 19.33-22.4 35-50 35s-50-15.67-50-35 22.4-35 50-35 50 15.67 50 35z" stroke="#000" stroke-width="2" fill="#b2d6ef"/><use xlink:href="#d" transform="matrix(1,0,0,1,505,-1015) translate(27.049999999999997 33.6)"/><path d="M480-985c0 19.33-22.4 35-50 35s-50-15.67-50-35 22.4-35 50-35 50 15.67 50 35z" stroke="#000" stroke-width="2" fill="#b2d6ef"/><use xlink:href="#e" transform="matrix(1,0,0,1,385,-1015) translate(28.525 33.6)"/><path d="M550-1139v99.76" stroke="#000" stroke-width="2" fill="none"/><path d="M551-1139h-2v-1h2zM550-1024.24l-4.64-14.26h9.28z"/><path d="M550-1021l-6-18.5h12zm-3.26-16.5l3.26 10.03 3.26-10.03z"/><use xlink:href="#f" transform="matrix(1,0,0,1,558.0000000000001,-1105.4666666666667) translate(0 14.4)"/><path d="M436.35-1139v100.08" stroke="#000" stroke-width="2" fill="none"/><path d="M437.35-1139h-2v-1h2zM436.35-1023.92l-4.63-14.27H441z"/><path d="M436.35-1020.7l-6-18.5h12zm-3.26-16.5l3.25 10.04 3.26-10.03z"/><use xlink:href="#g" transform="matrix(1,0,0,1,334.40202007929327,-1123.0426767063134) translate(44.010000000000005 14.4)"/><use xlink:href="#h" transform="matrix(1,0,0,1,334.40202007929327,-1123.0426767063134) translate(2.1099999999999994 36)"/><use xlink:href="#i" transform="matrix(1,0,0,1,334.40202007929327,-1123.0426767063134) translate(9.210000000000008 57.6)"/><use xlink:href="#j" transform="matrix(1,0,0,1,334.40202007929327,-1123.0426767063134) translate(0.010000000000005116 79.20000000000002)"/><defs><path d="M30-248c118-7 216 8 213 122C240-48 200 0 122 0H30v-248zM63-27c89 8 146-16 146-99s-60-101-146-95v194" id="k"/><path d="M141-36C126-15 110 5 73 4 37 3 15-17 15-53c-1-64 63-63 125-63 3-35-9-54-41-54-24 1-41 7-42 31l-33-3c5-37 33-52 76-52 45 0 72 20 72 64v82c-1 20 7 32 28 27v20c-31 9-61-2-59-35zM48-53c0 20 12 33 32 33 41-3 63-29 60-74-43 2-92-5-92 41" id="l"/><path d="M59-47c-2 24 18 29 38 22v24C64 9 27 4 27-40v-127H5v-23h24l9-43h21v43h35v23H59v120" id="m"/><path d="M135-143c-3-34-86-38-87 0 15 53 115 12 119 90S17 21 10-45l28-5c4 36 97 45 98 0-10-56-113-15-118-90-4-57 82-63 122-42 12 7 21 19 24 35" id="n"/><path d="M100-194c63 0 86 42 84 106H49c0 40 14 67 53 68 26 1 43-12 49-29l28 8c-11 28-37 45-77 45C44 4 14-33 15-96c1-61 26-98 85-98zm52 81c6-60-76-77-97-28-3 7-6 17-6 28h103" id="o"/><g id="a"><use transform="matrix(0.05,0,0,0.05,0,0)" xlink:href="#k"/><use transform="matrix(0.05,0,0,0.05,12.950000000000001,0)" xlink:href="#l"/><use transform="matrix(0.05,0,0,0.05,22.950000000000003,0)" xlink:href="#m"/><use transform="matrix(0.05,0,0,0.05,27.950000000000003,0)" xlink:href="#l"/><use transform="matrix(0.05,0,0,0.05,37.95,0)" xlink:href="#n"/><use transform="matrix(0.05,0,0,0.05,46.95,0)" xlink:href="#o"/><use transform="matrix(0.05,0,0,0.05,56.95,0)" xlink:href="#m"/></g><path d="M100-194c62-1 85 37 85 99 1 63-27 99-86 99S16-35 15-95c0-66 28-99 85-99zM99-20c44 1 53-31 53-75 0-43-8-75-51-75s-53 32-53 75 10 74 51 75" id="p"/><path d="M206 0h-36l-40-164L89 0H53L-1-190h32L70-26l43-164h34l41 164 42-164h31" id="q"/><path d="M117-194c89-4 53 116 60 194h-32v-121c0-31-8-49-39-48C34-167 62-67 57 0H25l-1-190h30c1 10-1 24 2 32 11-22 29-35 61-36" id="r"/><path d="M24 0v-261h32V0H24" id="s"/><path d="M85-194c31 0 48 13 60 33l-1-100h32l1 261h-30c-2-10 0-23-3-31C134-8 116 4 85 4 32 4 16-35 15-94c0-66 23-100 70-100zm9 24c-40 0-46 34-46 75 0 40 6 74 45 74 42 0 51-32 51-76 0-42-9-74-50-73" id="t"/><g id="b"><use transform="matrix(0.05,0,0,0.05,0,0)" xlink:href="#k"/><use transform="matrix(0.05,0,0,0.05,12.950000000000001,0)" xlink:href="#l"/><use transform="matrix(0.05,0,0,0.05,22.950000000000003,0)" xlink:href="#m"/><use transform="matrix(0.05,0,0,0.05,27.950000000000003,0)" xlink:href="#l"/><use transform="matrix(0.05,0,0,0.05,37.95,0)" xlink:href="#k"/><use transform="matrix(0.05,0,0,0.05,50.900000000000006,0)" xlink:href="#p"/><use transform="matrix(0.05,0,0,0.05,60.900000000000006,0)" xlink:href="#q"/><use transform="matrix(0.05,0,0,0.05,73.85000000000001,0)" xlink:href="#r"/><use transform="matrix(0.05,0,0,0.05,83.85000000000001,0)" xlink:href="#s"/><use transform="matrix(0.05,0,0,0.05,87.80000000000001,0)" xlink:href="#p"/><use transform="matrix(0.05,0,0,0.05,97.80000000000001,0)" xlink:href="#l"/><use transform="matrix(0.05,0,0,0.05,107.80000000000001,0)" xlink:href="#t"/></g><path d="M24-231v-30h32v30H24zM24 0v-190h32V0H24" id="u"/><path d="M114-163C36-179 61-72 57 0H25l-1-190h30c1 12-1 29 2 39 6-27 23-49 58-41v29" id="v"/><path d="M115-194c53 0 69 39 70 98 0 66-23 100-70 100C84 3 66-7 56-30L54 0H23l1-261h32v101c10-23 28-34 59-34zm-8 174c40 0 45-34 45-75 0-40-5-75-45-74-42 0-51 32-51 76 0 43 10 73 51 73" id="w"/><path d="M84 4C-5 8 30-112 23-190h32v120c0 31 7 50 39 49 72-2 45-101 50-169h31l1 190h-30c-1-10 1-25-2-33-11 22-28 36-60 37" id="x"/><g id="c"><use transform="matrix(0.05,0,0,0.05,0,0)" xlink:href="#t"/><use transform="matrix(0.05,0,0,0.05,10,0)" xlink:href="#u"/><use transform="matrix(0.05,0,0,0.05,13.949999999999998,0)" xlink:href="#n"/><use transform="matrix(0.05,0,0,0.05,22.95,0)" xlink:href="#m"/><use transform="matrix(0.05,0,0,0.05,27.950000000000003,0)" xlink:href="#v"/><use transform="matrix(0.05,0,0,0.05,33.9,0)" xlink:href="#u"/><use transform="matrix(0.05,0,0,0.05,37.85,0)" xlink:href="#w"/><use transform="matrix(0.05,0,0,0.05,47.85,0)" xlink:href="#x"/><use transform="matrix(0.05,0,0,0.05,57.85,0)" xlink:href="#m"/><use transform="matrix(0.05,0,0,0.05,62.85,0)" xlink:href="#u"/><use transform="matrix(0.05,0,0,0.05,66.8,0)" xlink:href="#p"/><use transform="matrix(0.05,0,0,0.05,76.8,0)" xlink:href="#r"/></g><path d="M232-93c-1 65-40 97-104 97C67 4 28-28 28-90v-158h33c8 89-33 224 67 224 102 0 64-133 71-224h33v155" id="y"/><path d="M233-177c-1 41-23 64-60 70L243 0h-38l-65-103H63V0H30v-248c88 3 205-21 203 71zM63-129c60-2 137 13 137-47 0-61-80-42-137-45v92" id="z"/><path d="M30 0v-248h33v221h125V0H30" id="A"/><g id="d"><use transform="matrix(0.05,0,0,0.05,0,0)" xlink:href="#y"/><use transform="matrix(0.05,0,0,0.05,12.950000000000001,0)" xlink:href="#z"/><use transform="matrix(0.05,0,0,0.05,25.900000000000002,0)" xlink:href="#A"/></g><path d="M127-220V0H93v-220H8v-28h204v28h-85" id="B"/><path d="M141 0L90-78 38 0H4l68-98-65-92h35l48 74 47-74h35l-64 92 68 98h-35" id="C"/><g id="e"><use transform="matrix(0.05,0,0,0.05,0,0)" xlink:href="#B"/><use transform="matrix(0.05,0,0,0.05,8.950000000000001,0)" xlink:href="#o"/><use transform="matrix(0.05,0,0,0.05,18.950000000000003,0)" xlink:href="#C"/><use transform="matrix(0.05,0,0,0.05,27.950000000000003,0)" xlink:href="#m"/></g><path d="M96-169c-40 0-48 33-48 73s9 75 48 75c24 0 41-14 43-38l32 2c-6 37-31 61-74 61-59 0-76-41-82-99-10-93 101-131 147-64 4 7 5 14 7 22l-32 3c-4-21-16-35-41-35" id="D"/><g id="f"><use transform="matrix(0.05,0,0,0.05,0,0)" xlink:href="#D"/><use transform="matrix(0.05,0,0,0.05,9,0)" xlink:href="#p"/><use transform="matrix(0.05,0,0,0.05,19,0)" xlink:href="#r"/><use transform="matrix(0.05,0,0,0.05,29,0)" xlink:href="#m"/><use transform="matrix(0.05,0,0,0.05,34,0)" xlink:href="#o"/><use transform="matrix(0.05,0,0,0.05,44,0)" xlink:href="#r"/><use transform="matrix(0.05,0,0,0.05,54,0)" xlink:href="#m"/><use transform="matrix(0.05,0,0,0.05,59,0)" xlink:href="#y"/><use transform="matrix(0.05,0,0,0.05,71.95,0)" xlink:href="#v"/><use transform="matrix(0.05,0,0,0.05,77.9,0)" xlink:href="#s"/></g><path d="M210-169c-67 3-38 105-44 169h-31v-121c0-29-5-50-35-48C34-165 62-65 56 0H25l-1-190h30c1 10-1 24 2 32 10-44 99-50 107 0 11-21 27-35 58-36 85-2 47 119 55 194h-31v-121c0-29-5-49-35-48" id="E"/><path d="M68-38c1 34 0 65-14 84H32c9-13 17-26 17-46H33v-38h35" id="F"/><g id="g"><use transform="matrix(0.05,0,0,0.05,0,0)" xlink:href="#r"/><use transform="matrix(0.05,0,0,0.05,10,0)" xlink:href="#l"/><use transform="matrix(0.05,0,0,0.05,20,0)" xlink:href="#E"/><use transform="matrix(0.05,0,0,0.05,34.95,0)" xlink:href="#o"/><use transform="matrix(0.05,0,0,0.05,44.95,0)" xlink:href="#F"/></g><path d="M115-194c55 1 70 41 70 98S169 2 115 4C84 4 66-9 55-30l1 105H24l-1-265h31l2 30c10-21 28-34 59-34zm-8 174c40 0 45-34 45-75s-6-73-45-74c-42 0-51 32-51 76 0 43 10 73 51 73" id="G"/><g id="h"><use transform="matrix(0.05,0,0,0.05,0,0)" xlink:href="#t"/><use transform="matrix(0.05,0,0,0.05,10,0)" xlink:href="#o"/><use transform="matrix(0.05,0,0,0.05,20,0)" xlink:href="#n"/><use transform="matrix(0.05,0,0,0.05,29,0)" xlink:href="#D"/><use transform="matrix(0.05,0,0,0.05,38,0)" xlink:href="#v"/><use transform="matrix(0.05,0,0,0.05,43.95,0)" xlink:href="#u"/><use transform="matrix(0.05,0,0,0.05,47.900000000000006,0)" xlink:href="#G"/><use transform="matrix(0.05,0,0,0.05,57.900000000000006,0)" xlink:href="#m"/><use transform="matrix(0.05,0,0,0.05,62.900000000000006,0)" xlink:href="#u"/><use transform="matrix(0.05,0,0,0.05,66.85000000000001,0)" xlink:href="#p"/><use transform="matrix(0.05,0,0,0.05,76.85000000000001,0)" xlink:href="#r"/><use transform="matrix(0.05,0,0,0.05,86.85000000000001,0)" xlink:href="#F"/></g><path d="M101-234c-31-9-42 10-38 44h38v23H63V0H32v-167H5v-23h27c-7-52 17-82 69-68v24" id="H"/><path d="M63-220v92h138v28H63V0H30v-248h175v28H63" id="I"/><g id="i"><use transform="matrix(0.05,0,0,0.05,0,0)" xlink:href="#H"/><use transform="matrix(0.05,0,0,0.05,5,0)" xlink:href="#u"/><use transform="matrix(0.05,0,0,0.05,8.95,0)" xlink:href="#s"/><use transform="matrix(0.05,0,0,0.05,12.899999999999999,0)" xlink:href="#o"/><use transform="matrix(0.05,0,0,0.05,22.9,0)" xlink:href="#I"/><use transform="matrix(0.05,0,0,0.05,33.85,0)" xlink:href="#p"/><use transform="matrix(0.05,0,0,0.05,43.85,0)" xlink:href="#v"/><use transform="matrix(0.05,0,0,0.05,49.800000000000004,0)" xlink:href="#E"/><use transform="matrix(0.05,0,0,0.05,64.75,0)" xlink:href="#l"/><use transform="matrix(0.05,0,0,0.05,74.75,0)" xlink:href="#m"/><use transform="matrix(0.05,0,0,0.05,79.75,0)" xlink:href="#F"/></g><path d="M185-189c-5-48-123-54-124 2 14 75 158 14 163 119 3 78-121 87-175 55-17-10-28-26-33-46l33-7c5 56 141 63 141-1 0-78-155-14-162-118-5-82 145-84 179-34 5 7 8 16 11 25" id="J"/><path d="M9 0v-24l116-142H16v-24h144v24L44-24h123V0H9" id="K"/><g id="j"><use transform="matrix(0.05,0,0,0.05,0,0)" xlink:href="#D"/><use transform="matrix(0.05,0,0,0.05,9,0)" xlink:href="#p"/><use transform="matrix(0.05,0,0,0.05,19,0)" xlink:href="#r"/><use transform="matrix(0.05,0,0,0.05,29,0)" xlink:href="#m"/><use transform="matrix(0.05,0,0,0.05,34,0)" xlink:href="#o"/><use transform="matrix(0.05,0,0,0.05,44,0)" xlink:href="#r"/><use transform="matrix(0.05,0,0,0.05,54,0)" xlink:href="#m"/><use transform="matrix(0.05,0,0,0.05,59,0)" xlink:href="#J"/><use transform="matrix(0.05,0,0,0.05,71,0)" xlink:href="#u"/><use transform="matrix(0.05,0,0,0.05,74.95,0)" xlink:href="#K"/><use transform="matrix(0.05,0,0,0.05,83.95,0)" xlink:href="#o"/></g></defs></g></svg>