<svg xmlns="http://www.w3.org/2000/svg" xmlns:xlink="http://www.w3.org/1999/xlink" xmlns:lucid="lucid" width="1000" height="510"><g transform="translate(-160 1260)" lucid:page-tab-id="0_0"><path d="M600-1240h148v100H600z" stroke="#000" stroke-width="2" fill="#c7e8ac"/><use xlink:href="#a" transform="matrix(1,0,0,1,605,-1235) translate(38.025 48.6)"/><path d="M600-1060h148v100H600z" stroke="#000" stroke-width="2" fill="#c7e8ac"/><use xlink:href="#b" transform="matrix(1,0,0,1,605,-1055) translate(12.749999999999993 48.6)"/><path d="M620.4-1139v59.76" stroke="#000" stroke-width="2" fill="none"/><path d="M621.4-1139h-2v-1h2zM620.4-1064.24l-4.65-14.26h9.28z"/><path d="M620.4-1061l-6.02-18.5h12.02zm-3.27-16.5l3.26 10.03 3.25-10.03z"/><use xlink:href="#c" transform="matrix(1,0,0,1,628.39,-1110.8) translate(0 14.4)"/><path d="M900-1060h240v100H900z" stroke="#000" stroke-width="2" fill="#ffc374"/><use xlink:href="#d" transform="matrix(1,0,0,1,905,-1055) translate(8.150000000000006 48.6)"/><path d="M899-1010H767.24" fill="none"/><path d="M899-1010h-10.98m-10.98 0h-21.96m-10.98 0h-21.96m-10.98 0H789.2m-10.98 0h-10.98" stroke="#000" stroke-width="2" fill="none"/><path d="M900-1009h-1v-2h1z"/><path d="M766.5-1005.36l-14.26-4.64 14.26-4.64z" fill="#fff"/><path d="M767.5-1004l-18.5-6 18.5-6zm-12.03-6l10.03 3.26v-6.52z"/><path d="M724-805c0 19.33-22.4 35-50 35s-50-15.67-50-35 22.4-35 50-35 50 15.67 50 35z" stroke="#000" stroke-width="2" fill="#b2d6ef"/><use xlink:href="#e" transform="matrix(1,0,0,1,629,-835) translate(27.049999999999997 33.6)"/><path d="M900-805c0 19.33-22.4 35-50 35s-50-15.67-50-35 22.4-35 50-35 50 15.67 50 35z" stroke="#000" stroke-width="2" fill="#b2d6ef"/><use xlink:href="#f" transform="matrix(1,0,0,1,805,-835) translate(22.675 33.6)"/><path d="M540-805c0 19.33-22.4 35-50 35s-50-15.67-50-35 22.4-35 50-35 50 15.67 50 35z" stroke="#000" stroke-width="2" fill="#b2d6ef"/><use xlink:href="#g" transform="matrix(1,0,0,1,445,-835) translate(28.525 33.6)"/><path d="M212-1070h128l-32 120H180z" stroke="#000" stroke-width="2" fill="#ffeca9"/><use xlink:href="#h" transform="matrix(1,0,0,1,185,-1065) translate(29.049999999999997 58.6)"/><path d="M599-1010H343.27" stroke="#000" stroke-width="2" fill="none"/><path d="M600-1009h-1v-2h1zM342.54-1005.36l-14.27-4.64 14.27-4.64z"/><path d="M343.54-1004l-18.5-6 18.5-6zm-12.03-6l10.04 3.26v-6.52z"/><use xlink:href="#i" transform="matrix(1,0,0,1,341.64247250000005,-1035.6) translate(0 14.4)"/><path d="M732-959v59h118v40.76" stroke="#000" stroke-width="2" fill="none"/><path d="M733-959h-2v-1h2zM850-844.24l-4.64-14.26h9.28z"/><path d="M850-841l-6-18.5h12zm-3.26-16.5l3.26 10.03 3.26-10.03z"/><use xlink:href="#j" transform="matrix(1,0,0,1,748.7416666666667,-925.6003105202676) translate(0 14.4)"/><path d="M674-959v99.76" stroke="#000" stroke-width="2" fill="none"/><path d="M675-959h-2v-1h2zM674-844.24l-4.64-14.26h9.28z"/><path d="M674-841l-6-18.5h12zm-3.26-16.5l3.26 10.03 3.26-10.03z"/><use xlink:href="#k" transform="matrix(1,0,0,1,646.0999999999999,-925.4666666666667) translate(0 14.4)"/><path d="M614.67-959v59.16H496.35v40.92" stroke="#000" stroke-width="2" fill="none"/><path d="M615.67-959h-2v-1h2zM496.35-843.92l-4.63-14.27H501z"/><path d="M496.35-840.7l-6-18.5h12zm-3.26-16.5l3.25 10.04 3.26-10.03z"/><use xlink:href="#l" transform="matrix(1,0,0,1,510.525,-925.4426767063133) translate(0 14.4)"/><defs><path d="M30-248c118-7 216 8 213 122C240-48 200 0 122 0H30v-248zM63-27c89 8 146-16 146-99s-60-101-146-95v194" id="m"/><path d="M141-36C126-15 110 5 73 4 37 3 15-17 15-53c-1-64 63-63 125-63 3-35-9-54-41-54-24 1-41 7-42 31l-33-3c5-37 33-52 76-52 45 0 72 20 72 64v82c-1 20 7 32 28 27v20c-31 9-61-2-59-35zM48-53c0 20 12 33 32 33 41-3 63-29 60-74-43 2-92-5-92 41" id="n"/><path d="M59-47c-2 24 18 29 38 22v24C64 9 27 4 27-40v-127H5v-23h24l9-43h21v43h35v23H59v120" id="o"/><path d="M135-143c-3-34-86-38-87 0 15 53 115 12 119 90S17 21 10-45l28-5c4 36 97 45 98 0-10-56-113-15-118-90-4-57 82-63 122-42 12 7 21 19 24 35" id="p"/><path d="M100-194c63 0 86 42 84 106H49c0 40 14 67 53 68 26 1 43-12 49-29l28 8c-11 28-37 45-77 45C44 4 14-33 15-96c1-61 26-98 85-98zm52 81c6-60-76-77-97-28-3 7-6 17-6 28h103" id="q"/><g id="a"><use transform="matrix(0.05,0,0,0.05,0,0)" xlink:href="#m"/><use transform="matrix(0.05,0,0,0.05,12.950000000000001,0)" xlink:href="#n"/><use transform="matrix(0.05,0,0,0.05,22.950000000000003,0)" xlink:href="#o"/><use transform="matrix(0.05,0,0,0.05,27.950000000000003,0)" xlink:href="#n"/><use transform="matrix(0.05,0,0,0.05,37.95,0)" xlink:href="#p"/><use transform="matrix(0.05,0,0,0.05,46.95,0)" xlink:href="#q"/><use transform="matrix(0.05,0,0,0.05,56.95,0)" xlink:href="#o"/></g><path d="M30-248c87 1 191-15 191 75 0 78-77 80-158 76V0H30v-248zm33 125c57 0 124 11 124-50 0-59-68-47-124-48v98" id="r"/><path d="M114-163C36-179 61-72 57 0H25l-1-190h30c1 12-1 29 2 39 6-27 23-49 58-41v29" id="s"/><path d="M100-194c62-1 85 37 85 99 1 63-27 99-86 99S16-35 15-95c0-66 28-99 85-99zM99-20c44 1 53-31 53-75 0-43-8-75-51-75s-53 32-53 75 10 74 51 75" id="t"/><path d="M115-194c55 1 70 41 70 98S169 2 115 4C84 4 66-9 55-30l1 105H24l-1-265h31l2 30c10-21 28-34 59-34zm-8 174c40 0 45-34 45-75s-6-73-45-74c-42 0-51 32-51 76 0 43 10 73 51 73" id="u"/><path d="M179-190L93 31C79 59 56 82 12 73V49c39 6 53-20 64-50L1-190h34L92-34l54-156h33" id="v"/><path d="M137 0h-34L2-248h35l83 218 83-218h36" id="w"/><path d="M24 0v-261h32V0H24" id="x"/><path d="M84 4C-5 8 30-112 23-190h32v120c0 31 7 50 39 49 72-2 45-101 50-169h31l1 190h-30c-1-10 1-25-2-33-11 22-28 36-60 37" id="y"/><g id="b"><use transform="matrix(0.05,0,0,0.05,0,0)" xlink:href="#r"/><use transform="matrix(0.05,0,0,0.05,12,0)" xlink:href="#s"/><use transform="matrix(0.05,0,0,0.05,17.95,0)" xlink:href="#t"/><use transform="matrix(0.05,0,0,0.05,27.950000000000003,0)" xlink:href="#u"/><use transform="matrix(0.05,0,0,0.05,37.95,0)" xlink:href="#q"/><use transform="matrix(0.05,0,0,0.05,47.95,0)" xlink:href="#s"/><use transform="matrix(0.05,0,0,0.05,53.900000000000006,0)" xlink:href="#o"/><use transform="matrix(0.05,0,0,0.05,58.900000000000006,0)" xlink:href="#v"/><use transform="matrix(0.05,0,0,0.05,67.9,0)" xlink:href="#w"/><use transform="matrix(0.05,0,0,0.05,78.55000000000001,0)" xlink:href="#n"/><use transform="matrix(0.05,0,0,0.05,88.55000000000001,0)" xlink:href="#x"/><use transform="matrix(0.05,0,0,0.05,92.50000000000001,0)" xlink:href="#y"/><use transform="matrix(0.05,0,0,0.05,102.5,0)" xlink:href="#q"/></g><path d="M50-231l6-30h32l-6 30H50zM6 0l37-190h31L37 0H6" id="z"/><path d="M133-28C103 26-5 8 13-77c13-62 24-115 90-117 29-1 46 15 56 35l19-102h32L160 0h-30zM45-64c-2 27 10 43 35 43 54-1 69-50 69-103 0-29-15-46-42-46-53-1-58 58-62 106" id="A"/><path d="M111-194c62-3 86 47 72 106H45c-7 38 6 69 45 68 27-1 43-14 53-32l24 11C152-15 129 4 87 4 38 3 12-23 12-71c0-70 32-119 99-123zm44 81c14-66-71-72-95-28-4 8-8 17-11 28h106" id="B"/><path d="M67-158c22-48 132-52 116 29L158 0h-32l25-140c3-38-53-32-70-12C52-117 51-52 38 0H6l36-190h30" id="C"/><path d="M51-54c-9 22 5 41 31 30L79-1C43 14 10-4 19-52l22-115H19l5-23h22l19-43h21l-9 43h35l-4 23H73" id="D"/><path d="M76-167L44 0H12l33-167H18l4-23h27c3-47 25-81 82-69l-4 24c-35-8-44 15-46 45h37l-5 23H76" id="E"/><path d="M66-151c12-25 30-51 66-40l-6 26C45-176 58-65 38 0H6l36-190h30" id="F"/><g id="c"><use transform="matrix(0.05,0,0,0.05,0,0)" xlink:href="#z"/><use transform="matrix(0.05,0,0,0.05,3.95,0)" xlink:href="#A"/><use transform="matrix(0.05,0,0,0.05,13.949999999999998,0)" xlink:href="#B"/><use transform="matrix(0.05,0,0,0.05,23.95,0)" xlink:href="#C"/><use transform="matrix(0.05,0,0,0.05,33.95,0)" xlink:href="#D"/><use transform="matrix(0.05,0,0,0.05,38.95,0)" xlink:href="#z"/><use transform="matrix(0.05,0,0,0.05,42.900000000000006,0)" xlink:href="#E"/><use transform="matrix(0.05,0,0,0.05,47.900000000000006,0)" xlink:href="#z"/><use transform="matrix(0.05,0,0,0.05,51.85,0)" xlink:href="#B"/><use transform="matrix(0.05,0,0,0.05,61.85,0)" xlink:href="#F"/></g><path d="M85-194c31 0 48 13 60 33l-1-100h32l1 261h-30c-2-10 0-23-3-31C134-8 116 4 85 4 32 4 16-35 15-94c0-66 23-100 70-100zm9 24c-40 0-46 34-46 75 0 40 6 74 45 74 42 0 51-32 51-76 0-42-9-74-50-73" id="G"/><path d="M96-169c-40 0-48 33-48 73s9 75 48 75c24 0 41-14 43-38l32 2c-6 37-31 61-74 61-59 0-76-41-82-99-10-93 101-131 147-64 4 7 5 14 7 22l-32 3c-4-21-16-35-41-35" id="H"/><path d="M24-231v-30h32v30H24zM24 0v-190h32V0H24" id="I"/><path d="M33-154v-36h34v36H33zM33 0v-36h34V0H33" id="J"/><path d="M233-177c-1 41-23 64-60 70L243 0h-38l-65-103H63V0H30v-248c88 3 205-21 203 71zM63-129c60-2 137 13 137-47 0-61-80-42-137-45v92" id="K"/><path d="M33 0v-248h34V0H33" id="L"/><path d="M117-194c89-4 53 116 60 194h-32v-121c0-31-8-49-39-48C34-167 62-67 57 0H25l-1-190h30c1 10-1 24 2 32 11-22 29-35 61-36" id="M"/><path d="M101-234c-31-9-42 10-38 44h38v23H63V0H32v-167H5v-23h27c-7-52 17-82 69-68v24" id="N"/><g id="d"><use transform="matrix(0.05,0,0,0.05,0,0)" xlink:href="#G"/><use transform="matrix(0.05,0,0,0.05,10,0)" xlink:href="#n"/><use transform="matrix(0.05,0,0,0.05,20,0)" xlink:href="#o"/><use transform="matrix(0.05,0,0,0.05,25,0)" xlink:href="#n"/><use transform="matrix(0.05,0,0,0.05,35,0)" xlink:href="#H"/><use transform="matrix(0.05,0,0,0.05,44,0)" xlink:href="#I"/><use transform="matrix(0.05,0,0,0.05,47.95,0)" xlink:href="#o"/><use transform="matrix(0.05,0,0,0.05,52.95,0)" xlink:href="#q"/><use transform="matrix(0.05,0,0,0.05,62.95,0)" xlink:href="#J"/><use transform="matrix(0.05,0,0,0.05,67.95,0)" xlink:href="#K"/><use transform="matrix(0.05,0,0,0.05,80.9,0)" xlink:href="#q"/><use transform="matrix(0.05,0,0,0.05,90.9,0)" xlink:href="#p"/><use transform="matrix(0.05,0,0,0.05,99.9,0)" xlink:href="#t"/><use transform="matrix(0.05,0,0,0.05,109.9,0)" xlink:href="#y"/><use transform="matrix(0.05,0,0,0.05,119.9,0)" xlink:href="#s"/><use transform="matrix(0.05,0,0,0.05,125.85000000000001,0)" xlink:href="#H"/><use transform="matrix(0.05,0,0,0.05,134.85000000000002,0)" xlink:href="#q"/><use transform="matrix(0.05,0,0,0.05,144.85000000000002,0)" xlink:href="#L"/><use transform="matrix(0.05,0,0,0.05,149.85000000000002,0)" xlink:href="#G"/><use transform="matrix(0.05,0,0,0.05,159.85000000000002,0)" xlink:href="#q"/><use transform="matrix(0.05,0,0,0.05,169.85000000000002,0)" xlink:href="#M"/><use transform="matrix(0.05,0,0,0.05,179.85000000000002,0)" xlink:href="#o"/><use transform="matrix(0.05,0,0,0.05,184.85000000000002,0)" xlink:href="#I"/><use transform="matrix(0.05,0,0,0.05,188.8,0)" xlink:href="#N"/><use transform="matrix(0.05,0,0,0.05,193.8,0)" xlink:href="#I"/><use transform="matrix(0.05,0,0,0.05,197.75,0)" xlink:href="#q"/><use transform="matrix(0.05,0,0,0.05,207.75,0)" xlink:href="#s"/></g><path d="M232-93c-1 65-40 97-104 97C67 4 28-28 28-90v-158h33c8 89-33 224 67 224 102 0 64-133 71-224h33v155" id="O"/><path d="M30 0v-248h33v221h125V0H30" id="P"/><g id="e"><use transform="matrix(0.05,0,0,0.05,0,0)" xlink:href="#O"/><use transform="matrix(0.05,0,0,0.05,12.950000000000001,0)" xlink:href="#K"/><use transform="matrix(0.05,0,0,0.05,25.900000000000002,0)" xlink:href="#P"/></g><path d="M109-170H84l-4-78h32zm-65 0H19l-4-78h33" id="Q"/><path d="M140-251c81 0 123 46 123 126C263-46 219 4 140 4 59 4 17-45 17-125s42-126 123-126zm0 227c63 0 89-41 89-101s-29-99-89-99c-61 0-89 39-89 99S79-25 140-24" id="R"/><g id="f"><use transform="matrix(0.05,0,0,0.05,0,0)" xlink:href="#Q"/><use transform="matrix(0.05,0,0,0.05,6.3500000000000005,0)" xlink:href="#m"/><use transform="matrix(0.05,0,0,0.05,19.3,0)" xlink:href="#R"/><use transform="matrix(0.05,0,0,0.05,33.3,0)" xlink:href="#L"/><use transform="matrix(0.05,0,0,0.05,38.3,0)" xlink:href="#Q"/></g><path d="M127-220V0H93v-220H8v-28h204v28h-85" id="S"/><path d="M141 0L90-78 38 0H4l68-98-65-92h35l48 74 47-74h35l-64 92 68 98h-35" id="T"/><g id="g"><use transform="matrix(0.05,0,0,0.05,0,0)" xlink:href="#S"/><use transform="matrix(0.05,0,0,0.05,8.950000000000001,0)" xlink:href="#q"/><use transform="matrix(0.05,0,0,0.05,18.950000000000003,0)" xlink:href="#T"/><use transform="matrix(0.05,0,0,0.05,27.950000000000003,0)" xlink:href="#o"/></g><g id="h"><use transform="matrix(0.05,0,0,0.05,0,0)" xlink:href="#G"/><use transform="matrix(0.05,0,0,0.05,10,0)" xlink:href="#n"/><use transform="matrix(0.05,0,0,0.05,20,0)" xlink:href="#o"/><use transform="matrix(0.05,0,0,0.05,25,0)" xlink:href="#n"/><use transform="matrix(0.05,0,0,0.05,35,0)" xlink:href="#H"/><use transform="matrix(0.05,0,0,0.05,44,0)" xlink:href="#I"/><use transform="matrix(0.05,0,0,0.05,47.95,0)" xlink:href="#o"/><use transform="matrix(0.05,0,0,0.05,52.95,0)" xlink:href="#q"/><use transform="matrix(0.05,0,0,0.05,62.95,0)" xlink:href="#J"/><use transform="matrix(0.05,0,0,0.05,67.95,0)" xlink:href="#G"/><use transform="matrix(0.05,0,0,0.05,77.95,0)" xlink:href="#t"/><use transform="matrix(0.05,0,0,0.05,87.95,0)" xlink:href="#I"/></g><path d="M185-189c-5-48-123-54-124 2 14 75 158 14 163 119 3 78-121 87-175 55-17-10-28-26-33-46l33-7c5 56 141 63 141-1 0-78-155-14-162-118-5-82 145-84 179-34 5 7 8 16 11 25" id="U"/><path d="M106-169C34-169 62-67 57 0H25v-261h32l-1 103c12-21 28-36 61-36 89 0 53 116 60 194h-32v-121c2-32-8-49-39-48" id="V"/><path d="M210-169c-67 3-38 105-44 169h-31v-121c0-29-5-50-35-48C34-165 62-65 56 0H25l-1-190h30c1 10-1 24 2 32 10-44 99-50 107 0 11-21 27-35 58-36 85-2 47 119 55 194h-31v-121c0-29-5-49-35-48" id="W"/><g id="i"><use transform="matrix(0.05,0,0,0.05,0,0)" xlink:href="#G"/><use transform="matrix(0.05,0,0,0.05,10,0)" xlink:href="#n"/><use transform="matrix(0.05,0,0,0.05,20,0)" xlink:href="#o"/><use transform="matrix(0.05,0,0,0.05,25,0)" xlink:href="#n"/><use transform="matrix(0.05,0,0,0.05,35,0)" xlink:href="#H"/><use transform="matrix(0.05,0,0,0.05,44,0)" xlink:href="#I"/><use transform="matrix(0.05,0,0,0.05,47.95,0)" xlink:href="#o"/><use transform="matrix(0.05,0,0,0.05,52.95,0)" xlink:href="#q"/><use transform="matrix(0.05,0,0,0.05,62.95,0)" xlink:href="#J"/><use transform="matrix(0.05,0,0,0.05,67.95,0)" xlink:href="#y"/><use transform="matrix(0.05,0,0,0.05,77.95,0)" xlink:href="#p"/><use transform="matrix(0.05,0,0,0.05,86.95,0)" xlink:href="#q"/><use transform="matrix(0.05,0,0,0.05,96.95,0)" xlink:href="#p"/><use transform="matrix(0.05,0,0,0.05,105.95,0)" xlink:href="#L"/><use transform="matrix(0.05,0,0,0.05,110.95,0)" xlink:href="#G"/><use transform="matrix(0.05,0,0,0.05,120.95,0)" xlink:href="#q"/><use transform="matrix(0.05,0,0,0.05,130.95,0)" xlink:href="#M"/><use transform="matrix(0.05,0,0,0.05,140.95,0)" xlink:href="#o"/><use transform="matrix(0.05,0,0,0.05,145.95,0)" xlink:href="#I"/><use transform="matrix(0.05,0,0,0.05,149.89999999999998,0)" xlink:href="#N"/><use transform="matrix(0.05,0,0,0.05,154.89999999999998,0)" xlink:href="#I"/><use transform="matrix(0.05,0,0,0.05,158.84999999999997,0)" xlink:href="#q"/><use transform="matrix(0.05,0,0,0.05,168.84999999999997,0)" xlink:href="#s"/><use transform="matrix(0.05,0,0,0.05,174.79999999999995,0)" xlink:href="#U"/><use transform="matrix(0.05,0,0,0.05,186.79999999999995,0)" xlink:href="#H"/><use transform="matrix(0.05,0,0,0.05,195.79999999999995,0)" xlink:href="#V"/><use transform="matrix(0.05,0,0,0.05,205.79999999999995,0)" xlink:href="#q"/><use transform="matrix(0.05,0,0,0.05,215.79999999999995,0)" xlink:href="#W"/><use transform="matrix(0.05,0,0,0.05,230.74999999999991,0)" xlink:href="#q"/></g><g id="j"><use transform="matrix(0.05,0,0,0.05,0,0)" xlink:href="#u"/><use transform="matrix(0.05,0,0,0.05,10,0)" xlink:href="#s"/><use transform="matrix(0.05,0,0,0.05,15.949999999999998,0)" xlink:href="#t"/><use transform="matrix(0.05,0,0,0.05,25.950000000000003,0)" xlink:href="#u"/><use transform="matrix(0.05,0,0,0.05,35.95,0)" xlink:href="#q"/><use transform="matrix(0.05,0,0,0.05,45.95,0)" xlink:href="#s"/><use transform="matrix(0.05,0,0,0.05,51.900000000000006,0)" xlink:href="#o"/><use transform="matrix(0.05,0,0,0.05,56.900000000000006,0)" xlink:href="#v"/><use transform="matrix(0.05,0,0,0.05,65.9,0)" xlink:href="#L"/><use transform="matrix(0.05,0,0,0.05,70.9,0)" xlink:href="#m"/></g><g id="k"><use transform="matrix(0.05,0,0,0.05,0,0)" xlink:href="#y"/><use transform="matrix(0.05,0,0,0.05,10,0)" xlink:href="#s"/><use transform="matrix(0.05,0,0,0.05,15.949999999999998,0)" xlink:href="#x"/></g><path d="M108 0H70L1-190h34L89-25l56-165h34" id="X"/><g id="l"><use transform="matrix(0.05,0,0,0.05,0,0)" xlink:href="#X"/><use transform="matrix(0.05,0,0,0.05,9,0)" xlink:href="#n"/><use transform="matrix(0.05,0,0,0.05,19,0)" xlink:href="#x"/><use transform="matrix(0.05,0,0,0.05,22.95,0)" xlink:href="#y"/><use transform="matrix(0.05,0,0,0.05,32.95,0)" xlink:href="#q"/></g></defs></g></svg>