<svg xmlns="http://www.w3.org/2000/svg" xmlns:xlink="http://www.w3.org/1999/xlink" xmlns:lucid="lucid" width="1020" height="450"><g transform="translate(-20 1260)" lucid:page-tab-id="0_0"><path d="M420-1240h600v280H420z" fill="#fff"/><path d="M440-1240h20m10 0h20m10 0h20m10 0h20m10 0h20m10 0h20m10 0h20m10 0h20m10 0h20m10 0h20m10 0h20m10 0h20m10 0h20m10 0h20m10 0h20m10 0h20m10 0h20m10 0h20m10 0h20m10 0h10v10.37m0 10.37v20.74m0 10.37v20.74m0 10.36v20.74m0 10.37v20.74m0 10.4v20.73m0 10.37v20.74m0 10.37v20.75m0 10.37v20.74m0 10.37V-960h-10m-10 0h-20m-10 0h-20m-10 0h-20m-10 0h-20m-10 0h-20m-10 0h-20m-10 0h-20m-10 0h-20m-10 0h-20m-10 0h-20m-10 0h-20m-10 0h-20m-10 0h-20m-10 0h-20m-10 0h-20m-10 0h-20m-10 0h-20m-10 0h-20m-10 0h-20m-10 0h-10v-10.37m0-10.37v-20.74m0-10.37v-20.74m0-10.36v-20.74m0-10.37v-20.74m0-10.4v-20.73m0-10.37v-20.74m0-10.37v-20.75m0-10.37v-20.74m0-10.37V-1240h10" stroke="#000" stroke-width="2" fill="none"/><use xlink:href="#a" transform="matrix(1,0,0,1,425,-1235) translate(491.25 262.8)"/><use xlink:href="#b" transform="matrix(1,0,0,1,425,-1235) translate(534.2 262.8)"/><path d="M874-1200.77h126.43v53.85H874z" stroke="#000" stroke-width="2" fill="#c7e8ac"/><use xlink:href="#c" transform="matrix(1,0,0,1,879.0000000000002,-1195.7692307692307) translate(28.549999999999997 25.6)"/><path d="M467.23-1200.77H640.1v53.85H467.23z" stroke="#000" stroke-width="2" fill="#c7e8ac"/><use xlink:href="#d" transform="matrix(1,0,0,1,472.2313725490196,-1195.7692307692307) translate(30.749999999999993 25.6)"/><path d="M873-1173.85H659.34" stroke="#000" stroke-width="2" fill="none"/><path d="M874-1172.85h-1v-2h1zM658.6-1169.2l-14.26-4.65 14.26-4.63z"/><path d="M659.6-1167.83l-18.5-6.02 18.5-6zm-12.03-6.02l10.03 3.26v-6.5z"/><use xlink:href="#e" transform="matrix(1,0,0,1,691.8009802745099,-1169.8461538461538) translate(0 14.4)"/><path d="M458.1-1050h191.12v53.85h-191.1z" stroke="#000" stroke-width="2" fill="#c7e8ac"/><use xlink:href="#f" transform="matrix(1,0,0,1,463.1137254901962,-1045.0000000000002) translate(41.074999999999996 25.6)"/><path d="M553.67-1145.92v76.68" stroke="#000" stroke-width="2" fill="none"/><path d="M554.67-1145.92h-2v-1h2zM553.67-1054.24l-4.64-14.26h9.27z"/><path d="M553.67-1051l-6.02-18.5h12.03zm-3.26-16.5l3.27 10.03 3.26-10.03z"/><use xlink:href="#g" transform="matrix(1,0,0,1,561.6666666666669,-1109.2615383846153) translate(0 14.4)"/><path d="M508-995.15V-865H399.24" stroke="#000" stroke-width="2" fill="none"/><path d="M509-995.15h-2v-1h2zM398.5-860.36L384.24-865l14.26-4.64z"/><path d="M399.5-859l-18.5-6 18.5-6zm-12.03-6l10.03 3.26v-6.52z"/><use xlink:href="#h" transform="matrix(1,0,0,1,408.4154935824619,-912.2) translate(0 14.4)"/><use xlink:href="#i" transform="matrix(1,0,0,1,408.4154935824619,-912.2) translate(0 36)"/><path d="M609.33-995.15V-865h91.43" stroke="#000" stroke-width="2" fill="none"/><path d="M610.33-995.15h-2v-1h2zM715.76-865l-14.26 4.64v-9.28z"/><path d="M719-865l-18.5 6v-12zm-16.5 3.26l10.03-3.26-10.03-3.26z"/><use xlink:href="#j" transform="matrix(1,0,0,1,622.1916666666666,-912.2) translate(0 14.4)"/><use xlink:href="#k" transform="matrix(1,0,0,1,622.1916666666666,-912.2) translate(0 36)"/><path d="M40-1070.74h158v95.33H40z" stroke="#000" stroke-width="2" fill="#c7e8ac"/><use xlink:href="#l" transform="matrix(1,0,0,1,45,-1065.7435897435898) translate(43.025 46.6)"/><path d="M199-1023.08h239.88" stroke="#000" stroke-width="2" fill="none"/><path d="M199-1022.08h-1v-2h1zM453.88-1023.08l-14.27 4.64v-9.27z"/><path d="M457.1-1023.08l-18.5 6v-12zm-16.5 3.26l10.04-3.26-10.03-3.26z"/><use xlink:href="#m" transform="matrix(1,0,0,1,220.77542650376978,-1048.676923076923) translate(0 14.4)"/><path d="M380-865c0 19.33-22.4 35-50 35s-50-15.67-50-35 22.4-35 50-35 50 15.67 50 35z" stroke="#000" stroke-width="2" fill="#b2d6ef"/><use xlink:href="#n" transform="matrix(1,0,0,1,285,-895) translate(28.525 33.6)"/><path d="M820-865c0 19.33-22.4 35-50 35s-50-15.67-50-35 22.4-35 50-35 50 15.67 50 35z" stroke="#000" stroke-width="2" fill="#b2d6ef"/><g><use xlink:href="#o" transform="matrix(1,0,0,1,725,-895) translate(27.049999999999997 33.6)"/></g><defs><path d="M30-248c118-7 216 8 213 122C240-48 200 0 122 0H30v-248zM63-27c89 8 146-16 146-99s-60-101-146-95v194" id="p"/><path d="M141-36C126-15 110 5 73 4 37 3 15-17 15-53c-1-64 63-63 125-63 3-35-9-54-41-54-24 1-41 7-42 31l-33-3c5-37 33-52 76-52 45 0 72 20 72 64v82c-1 20 7 32 28 27v20c-31 9-61-2-59-35zM48-53c0 20 12 33 32 33 41-3 63-29 60-74-43 2-92-5-92 41" id="q"/><path d="M59-47c-2 24 18 29 38 22v24C64 9 27 4 27-40v-127H5v-23h24l9-43h21v43h35v23H59v120" id="r"/><g id="a"><use transform="matrix(0.05,0,0,0.05,0,0)" xlink:href="#p"/><use transform="matrix(0.05,0,0,0.05,12.950000000000001,0)" xlink:href="#q"/><use transform="matrix(0.05,0,0,0.05,22.950000000000003,0)" xlink:href="#r"/><use transform="matrix(0.05,0,0,0.05,27.950000000000003,0)" xlink:href="#q"/></g><path d="M63-220v92h138v28H63V0H30v-248h175v28H63" id="s"/><path d="M96-169c-40 0-48 33-48 73s9 75 48 75c24 0 41-14 43-38l32 2c-6 37-31 61-74 61-59 0-76-41-82-99-10-93 101-131 147-64 4 7 5 14 7 22l-32 3c-4-21-16-35-41-35" id="t"/><path d="M24-231v-30h32v30H24zM24 0v-190h32V0H24" id="u"/><path d="M24 0v-261h32V0H24" id="v"/><path d="M179-190L93 31C79 59 56 82 12 73V49c39 6 53-20 64-50L1-190h34L92-34l54-156h33" id="w"/><g id="b"><use transform="matrix(0.05,0,0,0.05,0,0)" xlink:href="#s"/><use transform="matrix(0.05,0,0,0.05,10.950000000000001,0)" xlink:href="#q"/><use transform="matrix(0.05,0,0,0.05,20.950000000000003,0)" xlink:href="#t"/><use transform="matrix(0.05,0,0,0.05,29.950000000000003,0)" xlink:href="#u"/><use transform="matrix(0.05,0,0,0.05,33.900000000000006,0)" xlink:href="#v"/><use transform="matrix(0.05,0,0,0.05,37.85000000000001,0)" xlink:href="#u"/><use transform="matrix(0.05,0,0,0.05,41.80000000000001,0)" xlink:href="#r"/><use transform="matrix(0.05,0,0,0.05,46.80000000000001,0)" xlink:href="#w"/></g><path d="M185-189c-5-48-123-54-124 2 14 75 158 14 163 119 3 78-121 87-175 55-17-10-28-26-33-46l33-7c5 56 141 63 141-1 0-78-155-14-162-118-5-82 145-84 179-34 5 7 8 16 11 25" id="x"/><path d="M100-194c63 0 86 42 84 106H49c0 40 14 67 53 68 26 1 43-12 49-29l28 8c-11 28-37 45-77 45C44 4 14-33 15-96c1-61 26-98 85-98zm52 81c6-60-76-77-97-28-3 7-6 17-6 28h103" id="y"/><path d="M114-163C36-179 61-72 57 0H25l-1-190h30c1 12-1 29 2 39 6-27 23-49 58-41v29" id="z"/><path d="M108 0H70L1-190h34L89-25l56-165h34" id="A"/><g id="c"><use transform="matrix(0.05,0,0,0.05,0,0)" xlink:href="#x"/><use transform="matrix(0.05,0,0,0.05,12,0)" xlink:href="#y"/><use transform="matrix(0.05,0,0,0.05,22,0)" xlink:href="#z"/><use transform="matrix(0.05,0,0,0.05,27.950000000000003,0)" xlink:href="#A"/><use transform="matrix(0.05,0,0,0.05,36.95,0)" xlink:href="#u"/><use transform="matrix(0.05,0,0,0.05,40.900000000000006,0)" xlink:href="#t"/><use transform="matrix(0.05,0,0,0.05,49.900000000000006,0)" xlink:href="#y"/></g><path d="M140-251c81 0 123 46 123 126C263-46 219 4 140 4 59 4 17-45 17-125s42-126 123-126zm0 227c63 0 89-41 89-101s-29-99-89-99c-61 0-89 39-89 99S79-25 140-24" id="B"/><path d="M101-234c-31-9-42 10-38 44h38v23H63V0H32v-167H5v-23h27c-7-52 17-82 69-68v24" id="C"/><path d="M212-179c-10-28-35-45-73-45-59 0-87 40-87 99 0 60 29 101 89 101 43 0 62-24 78-52l27 14C228-24 195 4 139 4 59 4 22-46 18-125c-6-104 99-153 187-111 19 9 31 26 39 46" id="D"/><path d="M100-194c62-1 85 37 85 99 1 63-27 99-86 99S16-35 15-95c0-66 28-99 85-99zM99-20c44 1 53-31 53-75 0-43-8-75-51-75s-53 32-53 75 10 74 51 75" id="E"/><path d="M177-190C167-65 218 103 67 71c-23-6-38-20-44-43l32-5c15 47 100 32 89-28v-30C133-14 115 1 83 1 29 1 15-40 15-95c0-56 16-97 71-98 29-1 48 16 59 35 1-10 0-23 2-32h30zM94-22c36 0 50-32 50-73 0-42-14-75-50-75-39 0-46 34-46 75s6 73 46 73" id="F"/><g id="d"><use transform="matrix(0.05,0,0,0.05,0,0)" xlink:href="#B"/><use transform="matrix(0.05,0,0,0.05,14,0)" xlink:href="#C"/><use transform="matrix(0.05,0,0,0.05,18.65,0)" xlink:href="#C"/><use transform="matrix(0.05,0,0,0.05,23.65,0)" xlink:href="#y"/><use transform="matrix(0.05,0,0,0.05,33.65,0)" xlink:href="#z"/><use transform="matrix(0.05,0,0,0.05,39.6,0)" xlink:href="#D"/><use transform="matrix(0.05,0,0,0.05,52.550000000000004,0)" xlink:href="#q"/><use transform="matrix(0.05,0,0,0.05,62.550000000000004,0)" xlink:href="#r"/><use transform="matrix(0.05,0,0,0.05,67.55000000000001,0)" xlink:href="#q"/><use transform="matrix(0.05,0,0,0.05,77.55000000000001,0)" xlink:href="#v"/><use transform="matrix(0.05,0,0,0.05,81.50000000000001,0)" xlink:href="#E"/><use transform="matrix(0.05,0,0,0.05,91.50000000000001,0)" xlink:href="#F"/></g><path d="M106-169C34-169 62-67 57 0H25v-261h32l-1 103c12-21 28-36 61-36 89 0 53 116 60 194h-32v-121c2-32-8-49-39-48" id="G"/><path d="M135-143c-3-34-86-38-87 0 15 53 115 12 119 90S17 21 10-45l28-5c4 36 97 45 98 0-10-56-113-15-118-90-4-57 82-63 122-42 12 7 21 19 24 35" id="H"/><g id="e"><use transform="matrix(0.05,0,0,0.05,0,0)" xlink:href="#G"/><use transform="matrix(0.05,0,0,0.05,10,0)" xlink:href="#q"/><use transform="matrix(0.05,0,0,0.05,20,0)" xlink:href="#H"/><use transform="matrix(0.05,0,0,0.05,29,0)" xlink:href="#B"/><use transform="matrix(0.05,0,0,0.05,43,0)" xlink:href="#C"/><use transform="matrix(0.05,0,0,0.05,47.65,0)" xlink:href="#C"/><use transform="matrix(0.05,0,0,0.05,52.650000000000006,0)" xlink:href="#y"/><use transform="matrix(0.05,0,0,0.05,62.650000000000006,0)" xlink:href="#z"/><use transform="matrix(0.05,0,0,0.05,68.6,0)" xlink:href="#D"/><use transform="matrix(0.05,0,0,0.05,81.55,0)" xlink:href="#q"/><use transform="matrix(0.05,0,0,0.05,91.55,0)" xlink:href="#r"/><use transform="matrix(0.05,0,0,0.05,96.55,0)" xlink:href="#q"/><use transform="matrix(0.05,0,0,0.05,106.55000000000001,0)" xlink:href="#v"/><use transform="matrix(0.05,0,0,0.05,110.5,0)" xlink:href="#E"/><use transform="matrix(0.05,0,0,0.05,120.5,0)" xlink:href="#F"/></g><g id="f"><use transform="matrix(0.05,0,0,0.05,0,0)" xlink:href="#p"/><use transform="matrix(0.05,0,0,0.05,12.950000000000001,0)" xlink:href="#q"/><use transform="matrix(0.05,0,0,0.05,22.950000000000003,0)" xlink:href="#r"/><use transform="matrix(0.05,0,0,0.05,27.950000000000003,0)" xlink:href="#q"/><use transform="matrix(0.05,0,0,0.05,37.95,0)" xlink:href="#D"/><use transform="matrix(0.05,0,0,0.05,50.900000000000006,0)" xlink:href="#q"/><use transform="matrix(0.05,0,0,0.05,60.900000000000006,0)" xlink:href="#r"/><use transform="matrix(0.05,0,0,0.05,65.9,0)" xlink:href="#q"/><use transform="matrix(0.05,0,0,0.05,75.9,0)" xlink:href="#v"/><use transform="matrix(0.05,0,0,0.05,79.85000000000001,0)" xlink:href="#E"/><use transform="matrix(0.05,0,0,0.05,89.85000000000001,0)" xlink:href="#F"/></g><path d="M210-169c-67 3-38 105-44 169h-31v-121c0-29-5-50-35-48C34-165 62-65 56 0H25l-1-190h30c1 10-1 24 2 32 10-44 99-50 107 0 11-21 27-35 58-36 85-2 47 119 55 194h-31v-121c0-29-5-49-35-48" id="I"/><path d="M30 0v-248h33v221h125V0H30" id="J"/><path d="M30 0v-248h187v28H63v79h144v27H63v87h162V0H30" id="K"/><path d="M117-194c89-4 53 116 60 194h-32v-121c0-31-8-49-39-48C34-167 62-67 57 0H25l-1-190h30c1 10-1 24 2 32 11-22 29-35 61-36" id="L"/><g id="g"><use transform="matrix(0.05,0,0,0.05,0,0)" xlink:href="#u"/><use transform="matrix(0.05,0,0,0.05,3.95,0)" xlink:href="#r"/><use transform="matrix(0.05,0,0,0.05,8.95,0)" xlink:href="#y"/><use transform="matrix(0.05,0,0,0.05,18.95,0)" xlink:href="#I"/><use transform="matrix(0.05,0,0,0.05,33.9,0)" xlink:href="#J"/><use transform="matrix(0.05,0,0,0.05,43.9,0)" xlink:href="#u"/><use transform="matrix(0.05,0,0,0.05,47.85,0)" xlink:href="#H"/><use transform="matrix(0.05,0,0,0.05,56.85,0)" xlink:href="#r"/><use transform="matrix(0.05,0,0,0.05,61.85,0)" xlink:href="#K"/><use transform="matrix(0.05,0,0,0.05,73.85,0)" xlink:href="#v"/><use transform="matrix(0.05,0,0,0.05,77.8,0)" xlink:href="#y"/><use transform="matrix(0.05,0,0,0.05,87.8,0)" xlink:href="#I"/><use transform="matrix(0.05,0,0,0.05,102.75,0)" xlink:href="#y"/><use transform="matrix(0.05,0,0,0.05,112.75,0)" xlink:href="#L"/><use transform="matrix(0.05,0,0,0.05,122.75,0)" xlink:href="#r"/></g><path d="M68-38c1 34 0 65-14 84H32c9-13 17-26 17-46H33v-38h35" id="M"/><g id="h"><use transform="matrix(0.05,0,0,0.05,0,0)" xlink:href="#L"/><use transform="matrix(0.05,0,0,0.05,10,0)" xlink:href="#q"/><use transform="matrix(0.05,0,0,0.05,20,0)" xlink:href="#I"/><use transform="matrix(0.05,0,0,0.05,34.95,0)" xlink:href="#y"/><use transform="matrix(0.05,0,0,0.05,44.95,0)" xlink:href="#M"/></g><path d="M85-194c31 0 48 13 60 33l-1-100h32l1 261h-30c-2-10 0-23-3-31C134-8 116 4 85 4 32 4 16-35 15-94c0-66 23-100 70-100zm9 24c-40 0-46 34-46 75 0 40 6 74 45 74 42 0 51-32 51-76 0-42-9-74-50-73" id="N"/><path d="M115-194c55 1 70 41 70 98S169 2 115 4C84 4 66-9 55-30l1 105H24l-1-265h31l2 30c10-21 28-34 59-34zm-8 174c40 0 45-34 45-75s-6-73-45-74c-42 0-51 32-51 76 0 43 10 73 51 73" id="O"/><g id="i"><use transform="matrix(0.05,0,0,0.05,0,0)" xlink:href="#N"/><use transform="matrix(0.05,0,0,0.05,10,0)" xlink:href="#y"/><use transform="matrix(0.05,0,0,0.05,20,0)" xlink:href="#H"/><use transform="matrix(0.05,0,0,0.05,29,0)" xlink:href="#t"/><use transform="matrix(0.05,0,0,0.05,38,0)" xlink:href="#z"/><use transform="matrix(0.05,0,0,0.05,43.95,0)" xlink:href="#u"/><use transform="matrix(0.05,0,0,0.05,47.900000000000006,0)" xlink:href="#O"/><use transform="matrix(0.05,0,0,0.05,57.900000000000006,0)" xlink:href="#r"/><use transform="matrix(0.05,0,0,0.05,62.900000000000006,0)" xlink:href="#u"/><use transform="matrix(0.05,0,0,0.05,66.85000000000001,0)" xlink:href="#E"/><use transform="matrix(0.05,0,0,0.05,76.85000000000001,0)" xlink:href="#L"/></g><path d="M84 4C-5 8 30-112 23-190h32v120c0 31 7 50 39 49 72-2 45-101 50-169h31l1 190h-30c-1-10 1-25-2-33-11 22-28 36-60 37" id="P"/><g id="j"><use transform="matrix(0.05,0,0,0.05,0,0)" xlink:href="#P"/><use transform="matrix(0.05,0,0,0.05,10,0)" xlink:href="#z"/><use transform="matrix(0.05,0,0,0.05,15.949999999999998,0)" xlink:href="#v"/><use transform="matrix(0.05,0,0,0.05,19.9,0)" xlink:href="#M"/></g><path d="M205 0l-28-72H64L36 0H1l101-248h38L239 0h-34zm-38-99l-47-123c-12 45-31 82-46 123h93" id="Q"/><g id="k"><use transform="matrix(0.05,0,0,0.05,0,0)" xlink:href="#H"/><use transform="matrix(0.05,0,0,0.05,9,0)" xlink:href="#q"/><use transform="matrix(0.05,0,0,0.05,19,0)" xlink:href="#I"/><use transform="matrix(0.05,0,0,0.05,33.95,0)" xlink:href="#y"/><use transform="matrix(0.05,0,0,0.05,43.95,0)" xlink:href="#Q"/><use transform="matrix(0.05,0,0,0.05,55.95,0)" xlink:href="#H"/></g><g id="l"><use transform="matrix(0.05,0,0,0.05,0,0)" xlink:href="#p"/><use transform="matrix(0.05,0,0,0.05,12.950000000000001,0)" xlink:href="#q"/><use transform="matrix(0.05,0,0,0.05,22.950000000000003,0)" xlink:href="#r"/><use transform="matrix(0.05,0,0,0.05,27.950000000000003,0)" xlink:href="#q"/><use transform="matrix(0.05,0,0,0.05,37.95,0)" xlink:href="#H"/><use transform="matrix(0.05,0,0,0.05,46.95,0)" xlink:href="#y"/><use transform="matrix(0.05,0,0,0.05,56.95,0)" xlink:href="#r"/></g><path d="M33 0v-248h34V0H33" id="R"/><g id="m"><use transform="matrix(0.05,0,0,0.05,0,0)" xlink:href="#u"/><use transform="matrix(0.05,0,0,0.05,3.95,0)" xlink:href="#L"/><use transform="matrix(0.05,0,0,0.05,13.949999999999998,0)" xlink:href="#t"/><use transform="matrix(0.05,0,0,0.05,22.95,0)" xlink:href="#v"/><use transform="matrix(0.05,0,0,0.05,26.899999999999995,0)" xlink:href="#P"/><use transform="matrix(0.05,0,0,0.05,36.9,0)" xlink:href="#N"/><use transform="matrix(0.05,0,0,0.05,46.9,0)" xlink:href="#y"/><use transform="matrix(0.05,0,0,0.05,56.900000000000006,0)" xlink:href="#N"/><use transform="matrix(0.05,0,0,0.05,66.9,0)" xlink:href="#R"/><use transform="matrix(0.05,0,0,0.05,71.9,0)" xlink:href="#L"/><use transform="matrix(0.05,0,0,0.05,81.9,0)" xlink:href="#p"/><use transform="matrix(0.05,0,0,0.05,94.85000000000001,0)" xlink:href="#q"/><use transform="matrix(0.05,0,0,0.05,104.85000000000001,0)" xlink:href="#r"/><use transform="matrix(0.05,0,0,0.05,109.85000000000001,0)" xlink:href="#q"/><use transform="matrix(0.05,0,0,0.05,119.85000000000001,0)" xlink:href="#D"/><use transform="matrix(0.05,0,0,0.05,132.8,0)" xlink:href="#q"/><use transform="matrix(0.05,0,0,0.05,142.8,0)" xlink:href="#r"/><use transform="matrix(0.05,0,0,0.05,147.8,0)" xlink:href="#q"/><use transform="matrix(0.05,0,0,0.05,157.8,0)" xlink:href="#v"/><use transform="matrix(0.05,0,0,0.05,161.75,0)" xlink:href="#E"/><use transform="matrix(0.05,0,0,0.05,171.75,0)" xlink:href="#F"/></g><path d="M127-220V0H93v-220H8v-28h204v28h-85" id="S"/><path d="M141 0L90-78 38 0H4l68-98-65-92h35l48 74 47-74h35l-64 92 68 98h-35" id="T"/><g id="n"><use transform="matrix(0.05,0,0,0.05,0,0)" xlink:href="#S"/><use transform="matrix(0.05,0,0,0.05,8.950000000000001,0)" xlink:href="#y"/><use transform="matrix(0.05,0,0,0.05,18.950000000000003,0)" xlink:href="#T"/><use transform="matrix(0.05,0,0,0.05,27.950000000000003,0)" xlink:href="#r"/></g><path d="M232-93c-1 65-40 97-104 97C67 4 28-28 28-90v-158h33c8 89-33 224 67 224 102 0 64-133 71-224h33v155" id="U"/><path d="M233-177c-1 41-23 64-60 70L243 0h-38l-65-103H63V0H30v-248c88 3 205-21 203 71zM63-129c60-2 137 13 137-47 0-61-80-42-137-45v92" id="V"/><g id="o"><use transform="matrix(0.05,0,0,0.05,0,0)" xlink:href="#U"/><use transform="matrix(0.05,0,0,0.05,12.950000000000001,0)" xlink:href="#V"/><use transform="matrix(0.05,0,0,0.05,25.900000000000002,0)" xlink:href="#J"/></g></defs></g></svg>