<svg xmlns="http://www.w3.org/2000/svg" xmlns:xlink="http://www.w3.org/1999/xlink" xmlns:lucid="lucid" width="667.05" height="470"><g transform="translate(-40 -80)" lucid:page-tab-id="t9Qjjg0va5iI"><path d="M60 100h148v100H60z" stroke="#000" stroke-width="2" fill="#c7e8ac"/><use xlink:href="#a" transform="matrix(1,0,0,1,65,105) translate(38.025 48.6)"/><path d="M418.95 115h180v70h-180z" stroke="#000" stroke-width="2" fill="#fcce14"/><use xlink:href="#b" transform="matrix(1,0,0,1,423.9453793751657,120.00000000000001) translate(9.650000000000006 33.6)"/><path d="M210 150h189.44" stroke="#000" stroke-width="2" fill="none"/><path d="M210.03 151H209v-2h1.03z" stroke="#000" stroke-width=".05"/><path d="M414.7 150l-14.26 4.64v-9.28z" stroke="#000" stroke-width="2"/><use xlink:href="#c" transform="matrix(1,0,0,1,227.4591296843114,124.40000000000002) translate(0 14.4)"/><path d="M348.1 299h180v70h-180z" stroke="#000" stroke-width="2" fill="#fcce14"/><use xlink:href="#d" transform="matrix(1,0,0,1,353.0940128951879,304) translate(38.55 33.6)"/><path d="M438.1 187v92.5" stroke="#000" stroke-width="2" fill="none"/><path d="M439.1 187.03h-2V186h2z" stroke="#000" stroke-width=".05"/><path d="M438.1 294.76l-4.64-14.26h9.27z" stroke="#000" stroke-width="2"/><use xlink:href="#e" transform="matrix(1,0,0,1,446.0940128951879,213.30755290270352) translate(0 14.4)"/><use xlink:href="#f" transform="matrix(1,0,0,1,446.0940128951879,213.30755290270352) translate(0 36)"/><path d="M570.2 495c0 19.33-45.24 35-101.05 35-55.8 0-101.06-15.67-101.06-35s45.24-35 101.05-35c55.8 0 101.05 15.67 101.05 35z" stroke="#000" stroke-width="2" fill="#b2d6ef"/><use xlink:href="#g" transform="matrix(1,0,0,1,373.0940128951879,465) translate(16.92500000000001 33.6)"/><path d="M469.15 371v69.5" stroke="#000" stroke-width="2" fill="none"/><path d="M470.15 371.03h-2V370h2z" stroke="#000" stroke-width=".05"/><path d="M469.15 455.76l-4.64-14.26h9.28z" stroke="#000" stroke-width="2"/><use xlink:href="#h" transform="matrix(1,0,0,1,477.1486335200223,398.9673719099611) translate(0 14.4)"/><defs><path d="M30-248c118-7 216 8 213 122C240-48 200 0 122 0H30v-248zM63-27c89 8 146-16 146-99s-60-101-146-95v194" id="i"/><path d="M141-36C126-15 110 5 73 4 37 3 15-17 15-53c-1-64 63-63 125-63 3-35-9-54-41-54-24 1-41 7-42 31l-33-3c5-37 33-52 76-52 45 0 72 20 72 64v82c-1 20 7 32 28 27v20c-31 9-61-2-59-35zM48-53c0 20 12 33 32 33 41-3 63-29 60-74-43 2-92-5-92 41" id="j"/><path d="M59-47c-2 24 18 29 38 22v24C64 9 27 4 27-40v-127H5v-23h24l9-43h21v43h35v23H59v120" id="k"/><path d="M135-143c-3-34-86-38-87 0 15 53 115 12 119 90S17 21 10-45l28-5c4 36 97 45 98 0-10-56-113-15-118-90-4-57 82-63 122-42 12 7 21 19 24 35" id="l"/><path d="M100-194c63 0 86 42 84 106H49c0 40 14 67 53 68 26 1 43-12 49-29l28 8c-11 28-37 45-77 45C44 4 14-33 15-96c1-61 26-98 85-98zm52 81c6-60-76-77-97-28-3 7-6 17-6 28h103" id="m"/><g id="a"><use transform="matrix(0.05,0,0,0.05,0,0)" xlink:href="#i"/><use transform="matrix(0.05,0,0,0.05,12.950000000000001,0)" xlink:href="#j"/><use transform="matrix(0.05,0,0,0.05,22.950000000000003,0)" xlink:href="#k"/><use transform="matrix(0.05,0,0,0.05,27.950000000000003,0)" xlink:href="#j"/><use transform="matrix(0.05,0,0,0.05,37.95,0)" xlink:href="#l"/><use transform="matrix(0.05,0,0,0.05,46.95,0)" xlink:href="#m"/><use transform="matrix(0.05,0,0,0.05,56.95,0)" xlink:href="#k"/></g><path d="M24-231v-30h32v30H24zM24 0v-190h32V0H24" id="n"/><path d="M210-169c-67 3-38 105-44 169h-31v-121c0-29-5-50-35-48C34-165 62-65 56 0H25l-1-190h30c1 10-1 24 2 32 10-44 99-50 107 0 11-21 27-35 58-36 85-2 47 119 55 194h-31v-121c0-29-5-49-35-48" id="o"/><path d="M33-154v-36h34v36H33zM33 0v-36h34V0H33" id="p"/><path d="M30-248c87 1 191-15 191 75 0 78-77 80-158 76V0H30v-248zm33 125c57 0 124 11 124-50 0-59-68-47-124-48v98" id="q"/><path d="M114-163C36-179 61-72 57 0H25l-1-190h30c1 12-1 29 2 39 6-27 23-49 58-41v29" id="r"/><path d="M100-194c62-1 85 37 85 99 1 63-27 99-86 99S16-35 15-95c0-66 28-99 85-99zM99-20c44 1 53-31 53-75 0-43-8-75-51-75s-53 32-53 75 10 74 51 75" id="s"/><path d="M115-194c55 1 70 41 70 98S169 2 115 4C84 4 66-9 55-30l1 105H24l-1-265h31l2 30c10-21 28-34 59-34zm-8 174c40 0 45-34 45-75s-6-73-45-74c-42 0-51 32-51 76 0 43 10 73 51 73" id="t"/><path d="M33 0v-248h34V0H33" id="u"/><path d="M117-194c89-4 53 116 60 194h-32v-121c0-31-8-49-39-48C34-167 62-67 57 0H25l-1-190h30c1 10-1 24 2 32 11-22 29-35 61-36" id="v"/><path d="M108 0H70L1-190h34L89-25l56-165h34" id="w"/><path d="M24 0v-261h32V0H24" id="x"/><g id="b"><use transform="matrix(0.05,0,0,0.05,0,0)" xlink:href="#k"/><use transform="matrix(0.05,0,0,0.05,5,0)" xlink:href="#n"/><use transform="matrix(0.05,0,0,0.05,8.95,0)" xlink:href="#o"/><use transform="matrix(0.05,0,0,0.05,23.9,0)" xlink:href="#m"/><use transform="matrix(0.05,0,0,0.05,33.9,0)" xlink:href="#p"/><use transform="matrix(0.05,0,0,0.05,38.9,0)" xlink:href="#q"/><use transform="matrix(0.05,0,0,0.05,50.9,0)" xlink:href="#r"/><use transform="matrix(0.05,0,0,0.05,56.85,0)" xlink:href="#s"/><use transform="matrix(0.05,0,0,0.05,66.85,0)" xlink:href="#t"/><use transform="matrix(0.05,0,0,0.05,76.85,0)" xlink:href="#m"/><use transform="matrix(0.05,0,0,0.05,86.85,0)" xlink:href="#r"/><use transform="matrix(0.05,0,0,0.05,92.8,0)" xlink:href="#u"/><use transform="matrix(0.05,0,0,0.05,97.8,0)" xlink:href="#v"/><use transform="matrix(0.05,0,0,0.05,107.80000000000001,0)" xlink:href="#k"/><use transform="matrix(0.05,0,0,0.05,112.80000000000001,0)" xlink:href="#m"/><use transform="matrix(0.05,0,0,0.05,122.80000000000001,0)" xlink:href="#r"/><use transform="matrix(0.05,0,0,0.05,128.75,0)" xlink:href="#w"/><use transform="matrix(0.05,0,0,0.05,137.75,0)" xlink:href="#j"/><use transform="matrix(0.05,0,0,0.05,147.75,0)" xlink:href="#x"/></g><path d="M212-179c-10-28-35-45-73-45-59 0-87 40-87 99 0 60 29 101 89 101 43 0 62-24 78-52l27 14C228-24 195 4 139 4 59 4 22-46 18-125c-6-104 99-153 187-111 19 9 31 26 39 46" id="y"/><path d="M177-190C167-65 218 103 67 71c-23-6-38-20-44-43l32-5c15 47 100 32 89-28v-30C133-14 115 1 83 1 29 1 15-40 15-95c0-56 16-97 71-98 29-1 48 16 59 35 1-10 0-23 2-32h30zM94-22c36 0 50-32 50-73 0-42-14-75-50-75-39 0-46 34-46 75s6 73 46 73" id="z"/><g id="c"><use transform="matrix(0.05,0,0,0.05,0,0)" xlink:href="#k"/><use transform="matrix(0.05,0,0,0.05,5,0)" xlink:href="#m"/><use transform="matrix(0.05,0,0,0.05,15,0)" xlink:href="#o"/><use transform="matrix(0.05,0,0,0.05,29.950000000000003,0)" xlink:href="#t"/><use transform="matrix(0.05,0,0,0.05,39.95,0)" xlink:href="#s"/><use transform="matrix(0.05,0,0,0.05,49.95,0)" xlink:href="#r"/><use transform="matrix(0.05,0,0,0.05,55.900000000000006,0)" xlink:href="#j"/><use transform="matrix(0.05,0,0,0.05,65.9,0)" xlink:href="#x"/><use transform="matrix(0.05,0,0,0.05,69.85000000000001,0)" xlink:href="#y"/><use transform="matrix(0.05,0,0,0.05,82.80000000000001,0)" xlink:href="#s"/><use transform="matrix(0.05,0,0,0.05,92.80000000000001,0)" xlink:href="#w"/><use transform="matrix(0.05,0,0,0.05,101.80000000000001,0)" xlink:href="#m"/><use transform="matrix(0.05,0,0,0.05,111.80000000000001,0)" xlink:href="#r"/><use transform="matrix(0.05,0,0,0.05,117.75,0)" xlink:href="#j"/><use transform="matrix(0.05,0,0,0.05,127.75,0)" xlink:href="#z"/><use transform="matrix(0.05,0,0,0.05,137.75,0)" xlink:href="#m"/></g><g id="d"><use transform="matrix(0.05,0,0,0.05,0,0)" xlink:href="#k"/><use transform="matrix(0.05,0,0,0.05,5,0)" xlink:href="#n"/><use transform="matrix(0.05,0,0,0.05,8.95,0)" xlink:href="#o"/><use transform="matrix(0.05,0,0,0.05,23.9,0)" xlink:href="#m"/><use transform="matrix(0.05,0,0,0.05,33.9,0)" xlink:href="#p"/><use transform="matrix(0.05,0,0,0.05,38.9,0)" xlink:href="#u"/><use transform="matrix(0.05,0,0,0.05,43.9,0)" xlink:href="#v"/><use transform="matrix(0.05,0,0,0.05,53.900000000000006,0)" xlink:href="#l"/><use transform="matrix(0.05,0,0,0.05,62.900000000000006,0)" xlink:href="#k"/><use transform="matrix(0.05,0,0,0.05,67.9,0)" xlink:href="#j"/><use transform="matrix(0.05,0,0,0.05,77.9,0)" xlink:href="#v"/><use transform="matrix(0.05,0,0,0.05,87.9,0)" xlink:href="#k"/></g><path d="M106-169C34-169 62-67 57 0H25v-261h32l-1 103c12-21 28-36 61-36 89 0 53 116 60 194h-32v-121c2-32-8-49-39-48" id="A"/><path d="M160-131c35 5 61 23 61 61C221 17 115-2 30 0v-248c76 3 177-17 177 60 0 33-19 50-47 57zm-97-11c50-1 110 9 110-42 0-47-63-36-110-37v79zm0 115c55-2 124 14 124-45 0-56-70-42-124-44v89" id="B"/><path d="M68-38c1 34 0 65-14 84H32c9-13 17-26 17-46H33v-38h35" id="C"/><g id="e"><use transform="matrix(0.05,0,0,0.05,0,0)" xlink:href="#k"/><use transform="matrix(0.05,0,0,0.05,5,0)" xlink:href="#n"/><use transform="matrix(0.05,0,0,0.05,8.95,0)" xlink:href="#o"/><use transform="matrix(0.05,0,0,0.05,23.9,0)" xlink:href="#m"/><use transform="matrix(0.05,0,0,0.05,33.9,0)" xlink:href="#p"/><use transform="matrix(0.05,0,0,0.05,38.9,0)" xlink:href="#A"/><use transform="matrix(0.05,0,0,0.05,48.9,0)" xlink:href="#j"/><use transform="matrix(0.05,0,0,0.05,58.900000000000006,0)" xlink:href="#l"/><use transform="matrix(0.05,0,0,0.05,67.9,0)" xlink:href="#B"/><use transform="matrix(0.05,0,0,0.05,79.9,0)" xlink:href="#m"/><use transform="matrix(0.05,0,0,0.05,89.9,0)" xlink:href="#z"/><use transform="matrix(0.05,0,0,0.05,99.9,0)" xlink:href="#n"/><use transform="matrix(0.05,0,0,0.05,103.85000000000001,0)" xlink:href="#v"/><use transform="matrix(0.05,0,0,0.05,113.85000000000001,0)" xlink:href="#v"/><use transform="matrix(0.05,0,0,0.05,123.85000000000001,0)" xlink:href="#n"/><use transform="matrix(0.05,0,0,0.05,127.80000000000001,0)" xlink:href="#v"/><use transform="matrix(0.05,0,0,0.05,137.8,0)" xlink:href="#z"/><use transform="matrix(0.05,0,0,0.05,147.8,0)" xlink:href="#C"/></g><path d="M30 0v-248h187v28H63v79h144v27H63v87h162V0H30" id="D"/><path d="M85-194c31 0 48 13 60 33l-1-100h32l1 261h-30c-2-10 0-23-3-31C134-8 116 4 85 4 32 4 16-35 15-94c0-66 23-100 70-100zm9 24c-40 0-46 34-46 75 0 40 6 74 45 74 42 0 51-32 51-76 0-42-9-74-50-73" id="E"/><g id="f"><use transform="matrix(0.05,0,0,0.05,0,0)" xlink:href="#k"/><use transform="matrix(0.05,0,0,0.05,5,0)" xlink:href="#n"/><use transform="matrix(0.05,0,0,0.05,8.95,0)" xlink:href="#o"/><use transform="matrix(0.05,0,0,0.05,23.9,0)" xlink:href="#m"/><use transform="matrix(0.05,0,0,0.05,33.9,0)" xlink:href="#p"/><use transform="matrix(0.05,0,0,0.05,38.9,0)" xlink:href="#A"/><use transform="matrix(0.05,0,0,0.05,48.9,0)" xlink:href="#j"/><use transform="matrix(0.05,0,0,0.05,58.900000000000006,0)" xlink:href="#l"/><use transform="matrix(0.05,0,0,0.05,67.9,0)" xlink:href="#D"/><use transform="matrix(0.05,0,0,0.05,79.9,0)" xlink:href="#v"/><use transform="matrix(0.05,0,0,0.05,89.9,0)" xlink:href="#E"/></g><path d="M141 0L90-78 38 0H4l68-98-65-92h35l48 74 47-74h35l-64 92 68 98h-35" id="F"/><path d="M127-220V0H93v-220H8v-28h204v28h-85" id="G"/><path d="M185-189c-5-48-123-54-124 2 14 75 158 14 163 119 3 78-121 87-175 55-17-10-28-26-33-46l33-7c5 56 141 63 141-1 0-78-155-14-162-118-5-82 145-84 179-34 5 7 8 16 11 25" id="H"/><g id="g"><use transform="matrix(0.05,0,0,0.05,0,0)" xlink:href="#F"/><use transform="matrix(0.05,0,0,0.05,9,0)" xlink:href="#l"/><use transform="matrix(0.05,0,0,0.05,18,0)" xlink:href="#E"/><use transform="matrix(0.05,0,0,0.05,28,0)" xlink:href="#p"/><use transform="matrix(0.05,0,0,0.05,33,0)" xlink:href="#E"/><use transform="matrix(0.05,0,0,0.05,43,0)" xlink:href="#j"/><use transform="matrix(0.05,0,0,0.05,53,0)" xlink:href="#k"/><use transform="matrix(0.05,0,0,0.05,58,0)" xlink:href="#m"/><use transform="matrix(0.05,0,0,0.05,68,0)" xlink:href="#G"/><use transform="matrix(0.05,0,0,0.05,78.3,0)" xlink:href="#n"/><use transform="matrix(0.05,0,0,0.05,82.25,0)" xlink:href="#o"/><use transform="matrix(0.05,0,0,0.05,97.2,0)" xlink:href="#m"/><use transform="matrix(0.05,0,0,0.05,107.2,0)" xlink:href="#H"/><use transform="matrix(0.05,0,0,0.05,119.2,0)" xlink:href="#k"/><use transform="matrix(0.05,0,0,0.05,124.2,0)" xlink:href="#j"/><use transform="matrix(0.05,0,0,0.05,134.2,0)" xlink:href="#o"/><use transform="matrix(0.05,0,0,0.05,149.14999999999998,0)" xlink:href="#t"/></g><path d="M195 0l-74-108L45 0H8l94-129-87-119h37l69 98 67-98h37l-84 118L233 0h-38" id="I"/><g id="h"><use transform="matrix(0.05,0,0,0.05,0,0)" xlink:href="#k"/><use transform="matrix(0.05,0,0,0.05,5,0)" xlink:href="#n"/><use transform="matrix(0.05,0,0,0.05,8.95,0)" xlink:href="#o"/><use transform="matrix(0.05,0,0,0.05,23.9,0)" xlink:href="#m"/><use transform="matrix(0.05,0,0,0.05,33.9,0)" xlink:href="#p"/><use transform="matrix(0.05,0,0,0.05,38.9,0)" xlink:href="#n"/><use transform="matrix(0.05,0,0,0.05,42.85,0)" xlink:href="#v"/><use transform="matrix(0.05,0,0,0.05,52.85,0)" xlink:href="#I"/><use transform="matrix(0.05,0,0,0.05,64.85,0)" xlink:href="#H"/><use transform="matrix(0.05,0,0,0.05,76.85,0)" xlink:href="#i"/><use transform="matrix(0.05,0,0,0.05,89.8,0)" xlink:href="#i"/><use transform="matrix(0.05,0,0,0.05,102.75,0)" xlink:href="#j"/><use transform="matrix(0.05,0,0,0.05,112.75,0)" xlink:href="#k"/><use transform="matrix(0.05,0,0,0.05,117.75,0)" xlink:href="#m"/><use transform="matrix(0.05,0,0,0.05,127.75,0)" xlink:href="#G"/><use transform="matrix(0.05,0,0,0.05,138.04999999999998,0)" xlink:href="#n"/><use transform="matrix(0.05,0,0,0.05,141.99999999999997,0)" xlink:href="#o"/><use transform="matrix(0.05,0,0,0.05,156.94999999999996,0)" xlink:href="#m"/><use transform="matrix(0.05,0,0,0.05,166.94999999999996,0)" xlink:href="#H"/><use transform="matrix(0.05,0,0,0.05,178.94999999999996,0)" xlink:href="#k"/><use transform="matrix(0.05,0,0,0.05,183.94999999999996,0)" xlink:href="#j"/><use transform="matrix(0.05,0,0,0.05,193.94999999999996,0)" xlink:href="#o"/><use transform="matrix(0.05,0,0,0.05,208.89999999999998,0)" xlink:href="#t"/></g></defs></g></svg>