<svg xmlns="http://www.w3.org/2000/svg" xmlns:xlink="http://www.w3.org/1999/xlink" xmlns:lucid="lucid" width="1366.8" height="578"><g transform="translate(80 -100)" lucid:page-tab-id="0_0"><path d="M380 120h200v100H380z" stroke="#000" stroke-width="2" fill="#c7e8ac"/><use xlink:href="#a" transform="matrix(1,0,0,1,385,125) translate(28.599999999999994 48.6)"/><path d="M660 120h200v100H660z" stroke="#000" stroke-width="2" fill="#c7e8ac"/><use xlink:href="#b" transform="matrix(1,0,0,1,665,125) translate(65.05 48.6)"/><path d="M582.96 170h74.08" fill="none"/><path d="M583.96 170c0 .55-.44 1-1 1-.55 0-1-.45-1-1s.45-1 1-1c.56 0 1 .45 1 1zm3.9 0c0 .55-.44 1-1 1-.55 0-1-.45-1-1s.45-1 1-1c.56 0 1 .45 1 1zm3.9 0c0 .55-.45 1-1 1s-1-.45-1-1 .45-1 1-1 1 .45 1 1zm3.9 0c0 .55-.45 1-1 1s-1-.45-1-1 .45-1 1-1 1 .45 1 1zm3.9 0c0 .55-.45 1-1 1s-1-.45-1-1 .45-1 1-1 1 .45 1 1zm3.9 0c0 .55-.45 1-1 1-.56 0-1-.45-1-1s.44-1 1-1c.55 0 1 .45 1 1zm3.9 0c0 .55-.45 1-1 1-.56 0-1-.45-1-1s.44-1 1-1c.55 0 1 .45 1 1zm3.9 0c0 .55-.45 1-1 1-.56 0-1-.45-1-1s.44-1 1-1c.55 0 1 .45 1 1zm3.9 0c0 .55-.46 1-1 1-.56 0-1-.45-1-1s.44-1 1-1c.54 0 1 .45 1 1zm3.9 0c0 .55-.46 1-1 1-.56 0-1-.45-1-1s.44-1 1-1c.54 0 1 .45 1 1zm3.9 0c0 .55-.46 1-1 1-.56 0-1-.45-1-1s.44-1 1-1c.54 0 1 .45 1 1zm3.9 0c0 .55-.46 1-1 1-.56 0-1-.45-1-1s.44-1 1-1c.54 0 1 .45 1 1zm3.9 0c0 .55-.46 1-1 1-.57 0-1-.45-1-1s.43-1 1-1c.54 0 1 .45 1 1zm3.88 0c0 .55-.44 1-1 1-.55 0-1-.45-1-1s.45-1 1-1c.56 0 1 .45 1 1zm3.9 0c0 .55-.44 1-1 1-.55 0-1-.45-1-1s.45-1 1-1c.56 0 1 .45 1 1zm3.9 0c0 .55-.45 1-1 1s-1-.45-1-1 .45-1 1-1 1 .45 1 1zm3.9 0c0 .55-.45 1-1 1s-1-.45-1-1 .45-1 1-1 1 .45 1 1zm3.9 0c0 .55-.45 1-1 1s-1-.45-1-1 .45-1 1-1 1 .45 1 1zm3.9 0c0 .55-.45 1-1 1-.56 0-1-.45-1-1s.44-1 1-1c.55 0 1 .45 1 1zm3.9 0c0 .55-.45 1-1 1-.56 0-1-.45-1-1s.44-1 1-1c.55 0 1 .45 1 1z"/><path d="M600.7 160.68L584.92 170l15.76 9.32-1.03 1.72L581 170l18.67-11.04zM659 170l-18.67 11.04-1.02-1.72 15.77-9.32-15.76-9.32 1.03-1.72z"/><path d="M379 170H260v50.76" stroke="#000" stroke-width="2" fill="none"/><path d="M380 171h-1v-2h1zM260 235.76l-4.64-14.26h9.28z"/><path d="M260 239l-6-18.5h12zm-3.26-16.5l3.26 10.03 3.26-10.03z"/><use xlink:href="#c" transform="matrix(1,0,0,1,268,199.50181991094973) translate(0.010000000000005116 14.4)"/><path d="M1040 120h200v100h-200z" stroke="#000" stroke-width="2" fill="#c7e8ac"/><use xlink:href="#d" transform="matrix(1,0,0,1,1045,125) translate(31.599999999999994 48.6)"/><path d="M861 170h159.76" stroke="#000" stroke-width="2" fill="none"/><path d="M861 171h-1v-2h1zM1035.76 170l-14.26 4.64v-9.28z"/><path d="M1039 170l-18.5 6v-12zm-16.5 3.26l10.03-3.26-10.03-3.26z"/><use xlink:href="#e" transform="matrix(1,0,0,1,881.125,144.39999999999998) translate(0 14.4)"/><path d="M1140 221v79.76" stroke="#000" stroke-width="2" fill="none"/><path d="M1141 221h-2v-1h2zM1140 315.76l-4.64-14.26h9.28z"/><path d="M1140 319l-6-18.5h12zm-3.26-16.5l3.26 10.03 3.26-10.03z"/><use xlink:href="#f" transform="matrix(1,0,0,1,1148,259.2) translate(0 14.4)"/><path d="M1040 320h200v100h-200z" stroke="#000" stroke-width="2" fill="#c7e8ac"/><use xlink:href="#b" transform="matrix(1,0,0,1,1045,325.00000000000006) translate(65.05 48.6)"/><path d="M160 240h200v100H160z" stroke="#000" stroke-width="2" fill="#c7e8ac"/><use xlink:href="#g" transform="matrix(1,0,0,1,165,245) translate(44.074999999999996 48.6)"/><path d="M-60 240h200v100H-60z" stroke="#000" stroke-width="2" fill="#c7e8ac"/><use xlink:href="#g" transform="matrix(1,0,0,1,-55,245) translate(44.074999999999996 48.6)"/><path d="M379 150H95.33v70.76" stroke="#000" stroke-width="2" fill="none"/><path d="M380 151h-1v-2h1zM95.33 235.76L90.7 221.5h9.27z"/><path d="M95.33 239l-6-18.5h12.02zm-3.26-16.5l3.26 10.03 3.26-10.03z"/><use xlink:href="#h" transform="matrix(1,0,0,1,103.33333333333326,191.20000000000002) translate(0 14.4)"/><path d="M760 300h200v100H760z" stroke="#000" stroke-width="2" fill="#c7e8ac"/><use xlink:href="#i" transform="matrix(1,0,0,1,765,305) translate(44.24999999999999 48.6)"/><path d="M840.67 221v59.76" stroke="#000" stroke-width="2" fill="none"/><path d="M841.67 221h-2v-1h2zM840.67 295.76l-4.64-14.26h9.27z"/><path d="M840.67 299l-6.02-18.5h12.03zm-3.26-16.5l3.27 10.03 3.26-10.03z"/><use xlink:href="#j" transform="matrix(1,0,0,1,848.6666666666666,271.168992248062) translate(0 14.4)"/><path d="M860 401v59.76" stroke="#000" stroke-width="2" fill="none"/><path d="M861 401h-2v-1h2zM860 475.76l-4.64-14.26h9.28z"/><path d="M860 479l-6-18.5h12zm-3.26-16.5l3.26 10.03 3.26-10.03z"/><use xlink:href="#k" transform="matrix(1,0,0,1,868,442.99591836734686) translate(0 14.4)"/><path d="M760 480h200v60H760z" stroke="#000" stroke-width="2" fill="#c7e8ac"/><use xlink:href="#l" transform="matrix(1,0,0,1,765,485) translate(40.79999999999999 28.6)"/><path d="M900 598h200v60H900z" stroke="#000" stroke-width="2" fill="#c7e8ac"/><use xlink:href="#m" transform="matrix(1,0,0,1,905,603.0000000000001) translate(45.074999999999996 28.6)"/><path d="M640 598h200v60H640z" stroke="#000" stroke-width="2" fill="#c7e8ac"/><use xlink:href="#n" transform="matrix(1,0,0,1,645,603.0000000000001) translate(64.025 28.6)"/><path d="M814 597v-37.76" fill="none"/><path d="M814 597v-12.6m0-12.58v-12.58" stroke="#000" stroke-width="2" fill="none"/><path d="M815 598h-2v-1h2z"/><path d="M818.64 558.5h-9.28l4.64-14.26z" fill="#fff"/><path d="M820 559.5h-12l6-18.5zm-9.26-2h6.52L814 547.47z"/><path d="M926 597v-37.76" fill="none"/><path d="M926 597v-12.6m0-12.58v-12.58" stroke="#000" stroke-width="2" fill="none"/><path d="M927 598h-2v-1h2z"/><path d="M930.64 558.5h-9.28l4.64-14.26z" fill="#fff"/><path d="M932 559.5h-12l6-18.5zm-9.26-2h6.52L926 547.47z"/><path d="M310 440h180v60H310z" stroke="#000" stroke-width="2" fill="#c7e8ac"/><use xlink:href="#o" transform="matrix(1,0,0,1,315,445) translate(28.749999999999993 29.1)"/><path d="M114 341v49h246.67v30.76" stroke="#000" stroke-width="2" fill="none"/><path d="M115 341h-2v-1h2zM360.67 435.76l-4.64-14.26h9.27z"/><path d="M360.67 439l-6.02-18.5h12.03zm-3.26-16.5l3.27 10.03 3.26-10.03z"/><use xlink:href="#p" transform="matrix(1,0,0,1,122,360.785062265537) translate(0 14.4)"/><path d="M440.67 221v199.76" stroke="#000" stroke-width="2" fill="none"/><path d="M441.67 221h-2v-1h2zM440.67 435.76l-4.64-14.26h9.27z"/><path d="M440.67 439l-6.02-18.5h12.03zm-3.26-16.5l3.27 10.03 3.26-10.03z"/><use xlink:href="#q" transform="matrix(1,0,0,1,448.6666666666665,241.46356589147285) translate(0 14.4)"/><path d="M361 290h39v130.76" stroke="#000" stroke-width="2" fill="none"/><path d="M361 291h-1v-2h1zM400 435.76l-4.64-14.26h9.28z"/><path d="M400 439l-6-18.5h12zm-3.26-16.5l3.26 10.03 3.26-10.03z"/><use xlink:href="#q" transform="matrix(1,0,0,1,324.20000000000005,351.2) translate(0 14.4)"/><path d="M280 560h240v60H280z" stroke="#000" stroke-width="2" fill="#ffc374"/><use xlink:href="#r" transform="matrix(1,0,0,1,285,565) translate(8.150000000000006 29.1)"/><path d="M400 557.04v-54.08" fill="none"/><path d="M401 557.04c0 .55-.45 1-1 1s-1-.45-1-1c0-.56.45-1 1-1s1 .44 1 1zm0-3.87c0 .56-.45 1-1 1s-1-.44-1-1c0-.55.45-1 1-1s1 .45 1 1zm0-3.86c0 .56-.45 1-1 1s-1-.44-1-1c0-.54.45-1 1-1s1 .46 1 1zm0-3.85c0 .55-.45 1-1 1s-1-.45-1-1 .45-1 1-1 1 .45 1 1zm0-3.86c0 .54-.45 1-1 1s-1-.46-1-1c0-.57.45-1 1-1s1 .43 1 1zm0-3.88c0 .56-.45 1-1 1s-1-.44-1-1c0-.55.45-1 1-1s1 .45 1 1zm0-3.86c0 .55-.45 1-1 1s-1-.45-1-1 .45-1 1-1 1 .45 1 1zm0-3.86c0 .55-.45 1-1 1s-1-.45-1-1 .45-1 1-1 1 .45 1 1zm0-3.86c0 .55-.45 1-1 1s-1-.45-1-1 .45-1 1-1 1 .45 1 1zm0-3.86c0 .55-.45 1-1 1s-1-.45-1-1c0-.56.45-1 1-1s1 .44 1 1zm0-3.87c0 .57-.45 1-1 1s-1-.43-1-1c0-.54.45-1 1-1s1 .46 1 1zm0-3.85c0 .55-.45 1-1 1s-1-.45-1-1 .45-1 1-1 1 .45 1 1zm0-3.86c0 .54-.45 1-1 1s-1-.46-1-1c0-.56.45-1 1-1s1 .44 1 1zm0-3.87c0 .55-.45 1-1 1s-1-.45-1-1c0-.56.45-1 1-1s1 .44 1 1z"/><path d="M411.04 540.33L400 559l-11.04-18.67 1.72-1.02 9.32 15.77 9.32-15.76zM411.04 519.67l-1.72 1.02-9.32-15.77-9.32 15.76-1.72-1.03L400 501z"/><path d="M480 320h200v60H480z" stroke="#000" stroke-width="2" fill="#c7e8ac"/><use xlink:href="#s" transform="matrix(1,0,0,1,485,325.00000000000006) translate(43.55 28.6)"/><path d="M551.8 221v79.76" stroke="#000" stroke-width="2" fill="none"/><path d="M552.8 221h-2v-1h2zM551.8 315.76l-4.65-14.26h9.27z"/><path d="M551.8 319l-6.03-18.5h12.03zm-3.27-16.5l3.26 10.03 3.25-10.03z"/><use xlink:href="#t" transform="matrix(1,0,0,1,559.7864923747275,272.5333333333333) translate(0 14.4)"/><defs><path d="M233-177c-1 41-23 64-60 70L243 0h-38l-65-103H63V0H30v-248c88 3 205-21 203 71zM63-129c60-2 137 13 137-47 0-61-80-42-137-45v92" id="u"/><path d="M100-194c63 0 86 42 84 106H49c0 40 14 67 53 68 26 1 43-12 49-29l28 8c-11 28-37 45-77 45C44 4 14-33 15-96c1-61 26-98 85-98zm52 81c6-60-76-77-97-28-3 7-6 17-6 28h103" id="v"/><path d="M135-143c-3-34-86-38-87 0 15 53 115 12 119 90S17 21 10-45l28-5c4 36 97 45 98 0-10-56-113-15-118-90-4-57 82-63 122-42 12 7 21 19 24 35" id="w"/><path d="M141-36C126-15 110 5 73 4 37 3 15-17 15-53c-1-64 63-63 125-63 3-35-9-54-41-54-24 1-41 7-42 31l-33-3c5-37 33-52 76-52 45 0 72 20 72 64v82c-1 20 7 32 28 27v20c-31 9-61-2-59-35zM48-53c0 20 12 33 32 33 41-3 63-29 60-74-43 2-92-5-92 41" id="x"/><path d="M114-163C36-179 61-72 57 0H25l-1-190h30c1 12-1 29 2 39 6-27 23-49 58-41v29" id="y"/><path d="M96-169c-40 0-48 33-48 73s9 75 48 75c24 0 41-14 43-38l32 2c-6 37-31 61-74 61-59 0-76-41-82-99-10-93 101-131 147-64 4 7 5 14 7 22l-32 3c-4-21-16-35-41-35" id="z"/><path d="M106-169C34-169 62-67 57 0H25v-261h32l-1 103c12-21 28-36 61-36 89 0 53 116 60 194h-32v-121c2-32-8-49-39-48" id="A"/><path d="M30-248c87 1 191-15 191 75 0 78-77 80-158 76V0H30v-248zm33 125c57 0 124 11 124-50 0-59-68-47-124-48v98" id="B"/><path d="M100-194c62-1 85 37 85 99 1 63-27 99-86 99S16-35 15-95c0-66 28-99 85-99zM99-20c44 1 53-31 53-75 0-43-8-75-51-75s-53 32-53 75 10 74 51 75" id="C"/><path d="M24-231v-30h32v30H24zM-9 49c24 4 33-6 33-30v-209h32V24c2 40-23 58-65 49V49" id="D"/><path d="M59-47c-2 24 18 29 38 22v24C64 9 27 4 27-40v-127H5v-23h24l9-43h21v43h35v23H59v120" id="E"/><g id="a"><use transform="matrix(0.05,0,0,0.05,0,0)" xlink:href="#u"/><use transform="matrix(0.05,0,0,0.05,12.950000000000001,0)" xlink:href="#v"/><use transform="matrix(0.05,0,0,0.05,22.950000000000003,0)" xlink:href="#w"/><use transform="matrix(0.05,0,0,0.05,31.950000000000003,0)" xlink:href="#v"/><use transform="matrix(0.05,0,0,0.05,41.95,0)" xlink:href="#x"/><use transform="matrix(0.05,0,0,0.05,51.95,0)" xlink:href="#y"/><use transform="matrix(0.05,0,0,0.05,57.900000000000006,0)" xlink:href="#z"/><use transform="matrix(0.05,0,0,0.05,66.9,0)" xlink:href="#A"/><use transform="matrix(0.05,0,0,0.05,76.9,0)" xlink:href="#B"/><use transform="matrix(0.05,0,0,0.05,88.9,0)" xlink:href="#y"/><use transform="matrix(0.05,0,0,0.05,94.85000000000001,0)" xlink:href="#C"/><use transform="matrix(0.05,0,0,0.05,104.85000000000001,0)" xlink:href="#D"/><use transform="matrix(0.05,0,0,0.05,108.80000000000001,0)" xlink:href="#v"/><use transform="matrix(0.05,0,0,0.05,118.80000000000001,0)" xlink:href="#z"/><use transform="matrix(0.05,0,0,0.05,127.80000000000001,0)" xlink:href="#E"/></g><path d="M185-189c-5-48-123-54-124 2 14 75 158 14 163 119 3 78-121 87-175 55-17-10-28-26-33-46l33-7c5 56 141 63 141-1 0-78-155-14-162-118-5-82 145-84 179-34 5 7 8 16 11 25" id="F"/><path d="M108 0H70L1-190h34L89-25l56-165h34" id="G"/><path d="M24-231v-30h32v30H24zM24 0v-190h32V0H24" id="H"/><g id="b"><use transform="matrix(0.05,0,0,0.05,0,0)" xlink:href="#F"/><use transform="matrix(0.05,0,0,0.05,12,0)" xlink:href="#v"/><use transform="matrix(0.05,0,0,0.05,22,0)" xlink:href="#y"/><use transform="matrix(0.05,0,0,0.05,27.950000000000003,0)" xlink:href="#G"/><use transform="matrix(0.05,0,0,0.05,36.95,0)" xlink:href="#H"/><use transform="matrix(0.05,0,0,0.05,40.900000000000006,0)" xlink:href="#z"/><use transform="matrix(0.05,0,0,0.05,49.900000000000006,0)" xlink:href="#v"/></g><path d="M115-194c55 1 70 41 70 98S169 2 115 4C84 4 66-9 55-30l1 105H24l-1-265h31l2 30c10-21 28-34 59-34zm-8 174c40 0 45-34 45-75s-6-73-45-74c-42 0-51 32-51 76 0 43 10 73 51 73" id="I"/><path d="M85-194c31 0 48 13 60 33l-1-100h32l1 261h-30c-2-10 0-23-3-31C134-8 116 4 85 4 32 4 16-35 15-94c0-66 23-100 70-100zm9 24c-40 0-46 34-46 75 0 40 6 74 45 74 42 0 51-32 51-76 0-42-9-74-50-73" id="J"/><g id="c"><use transform="matrix(0.05,0,0,0.05,0,0)" xlink:href="#I"/><use transform="matrix(0.05,0,0,0.05,10,0)" xlink:href="#y"/><use transform="matrix(0.05,0,0,0.05,15.949999999999998,0)" xlink:href="#C"/><use transform="matrix(0.05,0,0,0.05,25.950000000000003,0)" xlink:href="#G"/><use transform="matrix(0.05,0,0,0.05,34.95,0)" xlink:href="#H"/><use transform="matrix(0.05,0,0,0.05,38.900000000000006,0)" xlink:href="#J"/><use transform="matrix(0.05,0,0,0.05,48.900000000000006,0)" xlink:href="#v"/><use transform="matrix(0.05,0,0,0.05,58.900000000000006,0)" xlink:href="#y"/></g><path d="M212-179c-10-28-35-45-73-45-59 0-87 40-87 99 0 60 29 101 89 101 43 0 62-24 78-52l27 14C228-24 195 4 139 4 59 4 22-46 18-125c-6-104 99-153 187-111 19 9 31 26 39 46" id="K"/><path d="M117-194c89-4 53 116 60 194h-32v-121c0-31-8-49-39-48C34-167 62-67 57 0H25l-1-190h30c1 10-1 24 2 32 11-22 29-35 61-36" id="L"/><path d="M24 0v-261h32V0H24" id="M"/><g id="d"><use transform="matrix(0.05,0,0,0.05,0,0)" xlink:href="#F"/><use transform="matrix(0.05,0,0,0.05,12,0)" xlink:href="#v"/><use transform="matrix(0.05,0,0,0.05,22,0)" xlink:href="#y"/><use transform="matrix(0.05,0,0,0.05,27.950000000000003,0)" xlink:href="#G"/><use transform="matrix(0.05,0,0,0.05,36.95,0)" xlink:href="#H"/><use transform="matrix(0.05,0,0,0.05,40.900000000000006,0)" xlink:href="#z"/><use transform="matrix(0.05,0,0,0.05,49.900000000000006,0)" xlink:href="#v"/><use transform="matrix(0.05,0,0,0.05,59.900000000000006,0)" xlink:href="#K"/><use transform="matrix(0.05,0,0,0.05,72.85000000000001,0)" xlink:href="#A"/><use transform="matrix(0.05,0,0,0.05,82.85000000000001,0)" xlink:href="#x"/><use transform="matrix(0.05,0,0,0.05,92.85000000000001,0)" xlink:href="#L"/><use transform="matrix(0.05,0,0,0.05,102.85000000000001,0)" xlink:href="#L"/><use transform="matrix(0.05,0,0,0.05,112.85000000000001,0)" xlink:href="#v"/><use transform="matrix(0.05,0,0,0.05,122.85000000000001,0)" xlink:href="#M"/></g><path d="M115-194c53 0 69 39 70 98 0 66-23 100-70 100C84 3 66-7 56-30L54 0H23l1-261h32v101c10-23 28-34 59-34zm-8 174c40 0 45-34 45-75 0-40-5-75-45-74-42 0-51 32-51 76 0 43 10 73 51 73" id="N"/><g id="e"><use transform="matrix(0.05,0,0,0.05,0,0)" xlink:href="#x"/><use transform="matrix(0.05,0,0,0.05,10,0)" xlink:href="#G"/><use transform="matrix(0.05,0,0,0.05,19,0)" xlink:href="#x"/><use transform="matrix(0.05,0,0,0.05,29,0)" xlink:href="#H"/><use transform="matrix(0.05,0,0,0.05,32.95,0)" xlink:href="#M"/><use transform="matrix(0.05,0,0,0.05,36.900000000000006,0)" xlink:href="#x"/><use transform="matrix(0.05,0,0,0.05,46.900000000000006,0)" xlink:href="#N"/><use transform="matrix(0.05,0,0,0.05,56.900000000000006,0)" xlink:href="#M"/><use transform="matrix(0.05,0,0,0.05,60.85,0)" xlink:href="#v"/><use transform="matrix(0.05,0,0,0.05,70.85000000000001,0)" xlink:href="#K"/><use transform="matrix(0.05,0,0,0.05,83.80000000000001,0)" xlink:href="#A"/><use transform="matrix(0.05,0,0,0.05,93.80000000000001,0)" xlink:href="#x"/><use transform="matrix(0.05,0,0,0.05,103.80000000000001,0)" xlink:href="#L"/><use transform="matrix(0.05,0,0,0.05,113.80000000000001,0)" xlink:href="#L"/><use transform="matrix(0.05,0,0,0.05,123.80000000000001,0)" xlink:href="#v"/><use transform="matrix(0.05,0,0,0.05,133.8,0)" xlink:href="#M"/></g><g id="f"><use transform="matrix(0.05,0,0,0.05,0,0)" xlink:href="#I"/><use transform="matrix(0.05,0,0,0.05,10,0)" xlink:href="#y"/><use transform="matrix(0.05,0,0,0.05,15.949999999999998,0)" xlink:href="#C"/><use transform="matrix(0.05,0,0,0.05,25.950000000000003,0)" xlink:href="#G"/><use transform="matrix(0.05,0,0,0.05,34.95,0)" xlink:href="#H"/><use transform="matrix(0.05,0,0,0.05,38.900000000000006,0)" xlink:href="#J"/><use transform="matrix(0.05,0,0,0.05,48.900000000000006,0)" xlink:href="#v"/><use transform="matrix(0.05,0,0,0.05,58.900000000000006,0)" xlink:href="#w"/><use transform="matrix(0.05,0,0,0.05,67.9,0)" xlink:href="#F"/><use transform="matrix(0.05,0,0,0.05,79.9,0)" xlink:href="#v"/><use transform="matrix(0.05,0,0,0.05,89.9,0)" xlink:href="#y"/><use transform="matrix(0.05,0,0,0.05,95.85000000000001,0)" xlink:href="#G"/><use transform="matrix(0.05,0,0,0.05,104.85000000000001,0)" xlink:href="#H"/><use transform="matrix(0.05,0,0,0.05,108.80000000000001,0)" xlink:href="#z"/><use transform="matrix(0.05,0,0,0.05,117.80000000000001,0)" xlink:href="#v"/></g><path d="M140-251c81 0 123 46 123 126C263-46 219 4 140 4 59 4 17-45 17-125s42-126 123-126zm0 227c63 0 89-41 89-101s-29-99-89-99c-61 0-89 39-89 99S79-25 140-24" id="O"/><path d="M177-190C167-65 218 103 67 71c-23-6-38-20-44-43l32-5c15 47 100 32 89-28v-30C133-14 115 1 83 1 29 1 15-40 15-95c0-56 16-97 71-98 29-1 48 16 59 35 1-10 0-23 2-32h30zM94-22c36 0 50-32 50-73 0-42-14-75-50-75-39 0-46 34-46 75s6 73 46 73" id="P"/><path d="M9 0v-24l116-142H16v-24h144v24L44-24h123V0H9" id="Q"/><g id="g"><use transform="matrix(0.05,0,0,0.05,0,0)" xlink:href="#O"/><use transform="matrix(0.05,0,0,0.05,14,0)" xlink:href="#y"/><use transform="matrix(0.05,0,0,0.05,19.95,0)" xlink:href="#P"/><use transform="matrix(0.05,0,0,0.05,29.950000000000003,0)" xlink:href="#x"/><use transform="matrix(0.05,0,0,0.05,39.95,0)" xlink:href="#L"/><use transform="matrix(0.05,0,0,0.05,49.95,0)" xlink:href="#H"/><use transform="matrix(0.05,0,0,0.05,53.900000000000006,0)" xlink:href="#Q"/><use transform="matrix(0.05,0,0,0.05,62.900000000000006,0)" xlink:href="#x"/><use transform="matrix(0.05,0,0,0.05,72.9,0)" xlink:href="#E"/><use transform="matrix(0.05,0,0,0.05,77.9,0)" xlink:href="#H"/><use transform="matrix(0.05,0,0,0.05,81.85000000000001,0)" xlink:href="#C"/><use transform="matrix(0.05,0,0,0.05,91.85000000000001,0)" xlink:href="#L"/></g><path d="M101-234c-31-9-42 10-38 44h38v23H63V0H32v-167H5v-23h27c-7-52 17-82 69-68v24" id="R"/><path d="M84 4C-5 8 30-112 23-190h32v120c0 31 7 50 39 49 72-2 45-101 50-169h31l1 190h-30c-1-10 1-25-2-33-11 22-28 36-60 37" id="S"/><g id="h"><use transform="matrix(0.05,0,0,0.05,0,0)" xlink:href="#R"/><use transform="matrix(0.05,0,0,0.05,5,0)" xlink:href="#S"/><use transform="matrix(0.05,0,0,0.05,15,0)" xlink:href="#L"/><use transform="matrix(0.05,0,0,0.05,25,0)" xlink:href="#J"/><use transform="matrix(0.05,0,0,0.05,35,0)" xlink:href="#v"/><use transform="matrix(0.05,0,0,0.05,45,0)" xlink:href="#y"/></g><g id="i"><use transform="matrix(0.05,0,0,0.05,0,0)" xlink:href="#O"/><use transform="matrix(0.05,0,0,0.05,14,0)" xlink:href="#R"/><use transform="matrix(0.05,0,0,0.05,18.65,0)" xlink:href="#R"/><use transform="matrix(0.05,0,0,0.05,23.65,0)" xlink:href="#v"/><use transform="matrix(0.05,0,0,0.05,33.65,0)" xlink:href="#y"/><use transform="matrix(0.05,0,0,0.05,39.6,0)" xlink:href="#K"/><use transform="matrix(0.05,0,0,0.05,52.550000000000004,0)" xlink:href="#x"/><use transform="matrix(0.05,0,0,0.05,62.550000000000004,0)" xlink:href="#E"/><use transform="matrix(0.05,0,0,0.05,67.55000000000001,0)" xlink:href="#x"/><use transform="matrix(0.05,0,0,0.05,77.55000000000001,0)" xlink:href="#M"/><use transform="matrix(0.05,0,0,0.05,81.50000000000001,0)" xlink:href="#C"/><use transform="matrix(0.05,0,0,0.05,91.50000000000001,0)" xlink:href="#P"/></g><g id="j"><use transform="matrix(0.05,0,0,0.05,0,0)" xlink:href="#A"/><use transform="matrix(0.05,0,0,0.05,10,0)" xlink:href="#x"/><use transform="matrix(0.05,0,0,0.05,20,0)" xlink:href="#w"/><use transform="matrix(0.05,0,0,0.05,29,0)" xlink:href="#O"/><use transform="matrix(0.05,0,0,0.05,43,0)" xlink:href="#R"/><use transform="matrix(0.05,0,0,0.05,47.65,0)" xlink:href="#R"/><use transform="matrix(0.05,0,0,0.05,52.650000000000006,0)" xlink:href="#v"/><use transform="matrix(0.05,0,0,0.05,62.650000000000006,0)" xlink:href="#y"/><use transform="matrix(0.05,0,0,0.05,68.6,0)" xlink:href="#K"/><use transform="matrix(0.05,0,0,0.05,81.55,0)" xlink:href="#x"/><use transform="matrix(0.05,0,0,0.05,91.55,0)" xlink:href="#E"/><use transform="matrix(0.05,0,0,0.05,96.55,0)" xlink:href="#x"/><use transform="matrix(0.05,0,0,0.05,106.55000000000001,0)" xlink:href="#M"/><use transform="matrix(0.05,0,0,0.05,110.5,0)" xlink:href="#C"/><use transform="matrix(0.05,0,0,0.05,120.5,0)" xlink:href="#P"/></g><path d="M210-169c-67 3-38 105-44 169h-31v-121c0-29-5-50-35-48C34-165 62-65 56 0H25l-1-190h30c1 10-1 24 2 32 10-44 99-50 107 0 11-21 27-35 58-36 85-2 47 119 55 194h-31v-121c0-29-5-49-35-48" id="T"/><path d="M30 0v-248h33v221h125V0H30" id="U"/><path d="M30 0v-248h187v28H63v79h144v27H63v87h162V0H30" id="V"/><g id="k"><use transform="matrix(0.05,0,0,0.05,0,0)" xlink:href="#H"/><use transform="matrix(0.05,0,0,0.05,3.95,0)" xlink:href="#E"/><use transform="matrix(0.05,0,0,0.05,8.95,0)" xlink:href="#v"/><use transform="matrix(0.05,0,0,0.05,18.95,0)" xlink:href="#T"/><use transform="matrix(0.05,0,0,0.05,33.9,0)" xlink:href="#U"/><use transform="matrix(0.05,0,0,0.05,43.9,0)" xlink:href="#H"/><use transform="matrix(0.05,0,0,0.05,47.85,0)" xlink:href="#w"/><use transform="matrix(0.05,0,0,0.05,56.85,0)" xlink:href="#E"/><use transform="matrix(0.05,0,0,0.05,61.85,0)" xlink:href="#V"/><use transform="matrix(0.05,0,0,0.05,73.85,0)" xlink:href="#M"/><use transform="matrix(0.05,0,0,0.05,77.8,0)" xlink:href="#v"/><use transform="matrix(0.05,0,0,0.05,87.8,0)" xlink:href="#T"/><use transform="matrix(0.05,0,0,0.05,102.75,0)" xlink:href="#v"/><use transform="matrix(0.05,0,0,0.05,112.75,0)" xlink:href="#L"/><use transform="matrix(0.05,0,0,0.05,122.75,0)" xlink:href="#E"/></g><path d="M266 0h-40l-56-210L115 0H75L2-248h35L96-30l15-64 43-154h32l59 218 59-218h35" id="W"/><path d="M143 0L79-87 56-68V0H24v-261h32v163l83-92h37l-77 82L181 0h-38" id="X"/><g id="l"><use transform="matrix(0.05,0,0,0.05,0,0)" xlink:href="#K"/><use transform="matrix(0.05,0,0,0.05,12.950000000000001,0)" xlink:href="#y"/><use transform="matrix(0.05,0,0,0.05,18.900000000000002,0)" xlink:href="#v"/><use transform="matrix(0.05,0,0,0.05,28.900000000000002,0)" xlink:href="#x"/><use transform="matrix(0.05,0,0,0.05,38.900000000000006,0)" xlink:href="#E"/><use transform="matrix(0.05,0,0,0.05,43.900000000000006,0)" xlink:href="#H"/><use transform="matrix(0.05,0,0,0.05,47.85000000000001,0)" xlink:href="#G"/><use transform="matrix(0.05,0,0,0.05,56.85,0)" xlink:href="#v"/><use transform="matrix(0.05,0,0,0.05,66.85000000000001,0)" xlink:href="#W"/><use transform="matrix(0.05,0,0,0.05,83.45000000000002,0)" xlink:href="#C"/><use transform="matrix(0.05,0,0,0.05,93.45000000000002,0)" xlink:href="#y"/><use transform="matrix(0.05,0,0,0.05,99.40000000000002,0)" xlink:href="#X"/></g><path d="M30-248c118-7 216 8 213 122C240-48 200 0 122 0H30v-248zM63-27c89 8 146-16 146-99s-60-101-146-95v194" id="Y"/><g id="m"><use transform="matrix(0.05,0,0,0.05,0,0)" xlink:href="#Y"/><use transform="matrix(0.05,0,0,0.05,12.950000000000001,0)" xlink:href="#x"/><use transform="matrix(0.05,0,0,0.05,22.950000000000003,0)" xlink:href="#E"/><use transform="matrix(0.05,0,0,0.05,27.950000000000003,0)" xlink:href="#x"/><use transform="matrix(0.05,0,0,0.05,37.95,0)" xlink:href="#K"/><use transform="matrix(0.05,0,0,0.05,50.900000000000006,0)" xlink:href="#x"/><use transform="matrix(0.05,0,0,0.05,60.900000000000006,0)" xlink:href="#E"/><use transform="matrix(0.05,0,0,0.05,65.9,0)" xlink:href="#x"/><use transform="matrix(0.05,0,0,0.05,75.9,0)" xlink:href="#M"/><use transform="matrix(0.05,0,0,0.05,79.85000000000001,0)" xlink:href="#C"/><use transform="matrix(0.05,0,0,0.05,89.85000000000001,0)" xlink:href="#P"/></g><g id="n"><use transform="matrix(0.05,0,0,0.05,0,0)" xlink:href="#Y"/><use transform="matrix(0.05,0,0,0.05,12.950000000000001,0)" xlink:href="#x"/><use transform="matrix(0.05,0,0,0.05,22.950000000000003,0)" xlink:href="#E"/><use transform="matrix(0.05,0,0,0.05,27.950000000000003,0)" xlink:href="#x"/><use transform="matrix(0.05,0,0,0.05,37.95,0)" xlink:href="#w"/><use transform="matrix(0.05,0,0,0.05,46.95,0)" xlink:href="#v"/><use transform="matrix(0.05,0,0,0.05,56.95,0)" xlink:href="#E"/></g><path d="M179-190L93 31C79 59 56 82 12 73V49c39 6 53-20 64-50L1-190h34L92-34l54-156h33" id="Z"/><path d="M137 0h-34L2-248h35l83 218 83-218h36" id="aa"/><g id="o"><use transform="matrix(0.05,0,0,0.05,0,0)" xlink:href="#B"/><use transform="matrix(0.05,0,0,0.05,12,0)" xlink:href="#y"/><use transform="matrix(0.05,0,0,0.05,17.95,0)" xlink:href="#C"/><use transform="matrix(0.05,0,0,0.05,27.950000000000003,0)" xlink:href="#I"/><use transform="matrix(0.05,0,0,0.05,37.95,0)" xlink:href="#v"/><use transform="matrix(0.05,0,0,0.05,47.95,0)" xlink:href="#y"/><use transform="matrix(0.05,0,0,0.05,53.900000000000006,0)" xlink:href="#E"/><use transform="matrix(0.05,0,0,0.05,58.900000000000006,0)" xlink:href="#Z"/><use transform="matrix(0.05,0,0,0.05,67.9,0)" xlink:href="#aa"/><use transform="matrix(0.05,0,0,0.05,78.55000000000001,0)" xlink:href="#x"/><use transform="matrix(0.05,0,0,0.05,88.55000000000001,0)" xlink:href="#M"/><use transform="matrix(0.05,0,0,0.05,92.50000000000001,0)" xlink:href="#S"/><use transform="matrix(0.05,0,0,0.05,102.5,0)" xlink:href="#v"/></g><g id="p"><use transform="matrix(0.05,0,0,0.05,0,0)" xlink:href="#H"/><use transform="matrix(0.05,0,0,0.05,3.95,0)" xlink:href="#J"/><use transform="matrix(0.05,0,0,0.05,13.949999999999998,0)" xlink:href="#v"/><use transform="matrix(0.05,0,0,0.05,23.95,0)" xlink:href="#E"/><use transform="matrix(0.05,0,0,0.05,28.950000000000003,0)" xlink:href="#H"/><use transform="matrix(0.05,0,0,0.05,32.9,0)" xlink:href="#R"/><use transform="matrix(0.05,0,0,0.05,37.9,0)" xlink:href="#H"/><use transform="matrix(0.05,0,0,0.05,41.85,0)" xlink:href="#v"/><use transform="matrix(0.05,0,0,0.05,51.85,0)" xlink:href="#y"/></g><g id="q"><use transform="matrix(0.05,0,0,0.05,0,0)" xlink:href="#H"/><use transform="matrix(0.05,0,0,0.05,3.95,0)" xlink:href="#J"/><use transform="matrix(0.05,0,0,0.05,13.949999999999998,0)" xlink:href="#v"/><use transform="matrix(0.05,0,0,0.05,23.95,0)" xlink:href="#L"/><use transform="matrix(0.05,0,0,0.05,33.95,0)" xlink:href="#E"/><use transform="matrix(0.05,0,0,0.05,38.95,0)" xlink:href="#H"/><use transform="matrix(0.05,0,0,0.05,42.900000000000006,0)" xlink:href="#R"/><use transform="matrix(0.05,0,0,0.05,47.900000000000006,0)" xlink:href="#H"/><use transform="matrix(0.05,0,0,0.05,51.85,0)" xlink:href="#v"/><use transform="matrix(0.05,0,0,0.05,61.85,0)" xlink:href="#y"/></g><path d="M33-154v-36h34v36H33zM33 0v-36h34V0H33" id="ab"/><path d="M33 0v-248h34V0H33" id="ac"/><g id="r"><use transform="matrix(0.05,0,0,0.05,0,0)" xlink:href="#J"/><use transform="matrix(0.05,0,0,0.05,10,0)" xlink:href="#x"/><use transform="matrix(0.05,0,0,0.05,20,0)" xlink:href="#E"/><use transform="matrix(0.05,0,0,0.05,25,0)" xlink:href="#x"/><use transform="matrix(0.05,0,0,0.05,35,0)" xlink:href="#z"/><use transform="matrix(0.05,0,0,0.05,44,0)" xlink:href="#H"/><use transform="matrix(0.05,0,0,0.05,47.95,0)" xlink:href="#E"/><use transform="matrix(0.05,0,0,0.05,52.95,0)" xlink:href="#v"/><use transform="matrix(0.05,0,0,0.05,62.95,0)" xlink:href="#ab"/><use transform="matrix(0.05,0,0,0.05,67.95,0)" xlink:href="#u"/><use transform="matrix(0.05,0,0,0.05,80.9,0)" xlink:href="#v"/><use transform="matrix(0.05,0,0,0.05,90.9,0)" xlink:href="#w"/><use transform="matrix(0.05,0,0,0.05,99.9,0)" xlink:href="#C"/><use transform="matrix(0.05,0,0,0.05,109.9,0)" xlink:href="#S"/><use transform="matrix(0.05,0,0,0.05,119.9,0)" xlink:href="#y"/><use transform="matrix(0.05,0,0,0.05,125.85000000000001,0)" xlink:href="#z"/><use transform="matrix(0.05,0,0,0.05,134.85000000000002,0)" xlink:href="#v"/><use transform="matrix(0.05,0,0,0.05,144.85000000000002,0)" xlink:href="#ac"/><use transform="matrix(0.05,0,0,0.05,149.85000000000002,0)" xlink:href="#J"/><use transform="matrix(0.05,0,0,0.05,159.85000000000002,0)" xlink:href="#v"/><use transform="matrix(0.05,0,0,0.05,169.85000000000002,0)" xlink:href="#L"/><use transform="matrix(0.05,0,0,0.05,179.85000000000002,0)" xlink:href="#E"/><use transform="matrix(0.05,0,0,0.05,184.85000000000002,0)" xlink:href="#H"/><use transform="matrix(0.05,0,0,0.05,188.8,0)" xlink:href="#R"/><use transform="matrix(0.05,0,0,0.05,193.8,0)" xlink:href="#H"/><use transform="matrix(0.05,0,0,0.05,197.75,0)" xlink:href="#v"/><use transform="matrix(0.05,0,0,0.05,207.75,0)" xlink:href="#y"/></g><g id="s"><use transform="matrix(0.05,0,0,0.05,0,0)" xlink:href="#K"/><use transform="matrix(0.05,0,0,0.05,12.950000000000001,0)" xlink:href="#C"/><use transform="matrix(0.05,0,0,0.05,22.950000000000003,0)" xlink:href="#L"/><use transform="matrix(0.05,0,0,0.05,32.95,0)" xlink:href="#E"/><use transform="matrix(0.05,0,0,0.05,37.95,0)" xlink:href="#x"/><use transform="matrix(0.05,0,0,0.05,47.95,0)" xlink:href="#z"/><use transform="matrix(0.05,0,0,0.05,56.95,0)" xlink:href="#E"/><use transform="matrix(0.05,0,0,0.05,61.95,0)" xlink:href="#B"/><use transform="matrix(0.05,0,0,0.05,73.95,0)" xlink:href="#C"/><use transform="matrix(0.05,0,0,0.05,83.95,0)" xlink:href="#H"/><use transform="matrix(0.05,0,0,0.05,87.9,0)" xlink:href="#L"/><use transform="matrix(0.05,0,0,0.05,97.9,0)" xlink:href="#E"/></g><g id="t"><use transform="matrix(0.05,0,0,0.05,0,0)" xlink:href="#z"/><use transform="matrix(0.05,0,0,0.05,9,0)" xlink:href="#C"/><use transform="matrix(0.05,0,0,0.05,19,0)" xlink:href="#L"/><use transform="matrix(0.05,0,0,0.05,29,0)" xlink:href="#E"/><use transform="matrix(0.05,0,0,0.05,34,0)" xlink:href="#x"/><use transform="matrix(0.05,0,0,0.05,44,0)" xlink:href="#z"/><use transform="matrix(0.05,0,0,0.05,53,0)" xlink:href="#E"/><use transform="matrix(0.05,0,0,0.05,58,0)" xlink:href="#B"/><use transform="matrix(0.05,0,0,0.05,70,0)" xlink:href="#C"/><use transform="matrix(0.05,0,0,0.05,80,0)" xlink:href="#H"/><use transform="matrix(0.05,0,0,0.05,83.95,0)" xlink:href="#L"/><use transform="matrix(0.05,0,0,0.05,93.95,0)" xlink:href="#E"/></g></defs></g></svg>