<svg xmlns="http://www.w3.org/2000/svg" xmlns:xlink="http://www.w3.org/1999/xlink" xmlns:lucid="lucid" width="800" height="464"><g transform="translate(-560 1240)" lucid:page-tab-id="0_0"><path d="M580-1220h200v100H580z" stroke="#000" stroke-width="2" fill="#c7e8ac"/><use xlink:href="#a" transform="matrix(1,0,0,1,585,-1215) translate(65.05 48.6)"/><path d="M1000-1200h180v60h-180z" stroke="#000" stroke-width="2" fill="#c7e8ac"/><use xlink:href="#b" transform="matrix(1,0,0,1,1005,-1195) translate(34.24999999999999 28.6)"/><path d="M781-1170h199.76" stroke="#000" stroke-width="2" fill="none"/><path d="M781-1169h-1v-2h1zM995.76-1170l-14.26 4.64v-9.28z"/><path d="M999-1170l-18.5 6v-12zm-16.5 3.26l10.03-3.26-10.03-3.26z"/><use xlink:href="#c" transform="matrix(1,0,0,1,841.4166666666665,-1195.6) translate(0 14.4)"/><path d="M1020-976h180v68h-180z" stroke="#000" stroke-width="2" fill="#c7e8ac"/><use xlink:href="#d" transform="matrix(1,0,0,1,1025,-971) translate(30.79999999999999 32.6)"/><path d="M1110-1139v143.76" stroke="#000" stroke-width="2" fill="none"/><path d="M1111-1139h-2v-1h2zM1110-980.24l-4.64-14.26h9.28z"/><path d="M1110-977l-6-18.5h12zm-3.26-16.5l3.26 10.03 3.26-10.03z"/><use xlink:href="#e" transform="matrix(1,0,0,1,1118,-1038.5966101694917) translate(0 14.4)"/><path d="M940-1062c0 18.78-22.4 34-50 34s-50-15.22-50-34 22.4-34 50-34 50 15.22 50 34z" stroke="#000" stroke-width="2" fill="#b2d6ef"/><use xlink:href="#f" transform="matrix(1,0,0,1,845,-1091) translate(28.525 32.6)"/><path d="M1062.67-1139v77H959.24" stroke="#000" stroke-width="2" fill="none"/><path d="M1063.67-1139h-2v-1h2zM958.5-1057.36l-14.26-4.64 14.26-4.64z"/><path d="M959.5-1056l-18.5-6 18.5-6zm-12.03-6l10.03 3.26v-6.52z"/><use xlink:href="#g" transform="matrix(1,0,0,1,939.723135069715,-1109.2) translate(0 14.4)"/><use xlink:href="#h" transform="matrix(1,0,0,1,939.723135069715,-1109.2) translate(0 36)"/><path d="M1140-856h200v60h-200z" stroke="#000" stroke-width="2" fill="#c7e8ac"/><use xlink:href="#i" transform="matrix(1,0,0,1,1145,-850.9999999999999) translate(45.074999999999996 28.6)"/><path d="M880-856h200v60H880z" stroke="#000" stroke-width="2" fill="#c7e8ac"/><use xlink:href="#j" transform="matrix(1,0,0,1,885,-850.9999999999999) translate(64.025 28.6)"/><path d="M1054-857v-31.76" fill="none"/><path d="M1054-857v-10.6m0-10.58v-10.58" stroke="#000" stroke-width="2" fill="none"/><path d="M1055-856h-2v-1h2z"/><path d="M1058.64-889.5h-9.28l4.64-14.26z" fill="#fff"/><path d="M1060-888.5h-12l6-18.5zm-9.26-2h6.52l-3.26-10.03z"/><path d="M1166-857v-31.76" fill="none"/><path d="M1166-857v-10.6m0-10.58v-10.58" stroke="#000" stroke-width="2" fill="none"/><path d="M1167-856h-2v-1h2z"/><path d="M1170.64-889.5h-9.28l4.64-14.26z" fill="#fff"/><path d="M1172-888.5h-12l6-18.5zm-9.26-2h6.52l-3.26-10.03z"/><path d="M620-976h180v68H620z" stroke="#000" stroke-width="2" fill="#c7e8ac"/><use xlink:href="#k" transform="matrix(1,0,0,1,625,-971) translate(47.525 32.6)"/><path d="M824.86-941h-5.62v-2h5.62zm194.14 0H897.8v-2H1019zM1020-941h-1v-2h1zM818.5-937.36L804.24-942l14.26-4.64z"/><path d="M819.5-936l-18.5-6 18.5-6zm-12.03-6l10.03 3.26v-6.52z"/><use xlink:href="#l" transform="matrix(1,0,0,1,824.8583333333333,-952.8) translate(0 14.4)"/><path d="M728-977v-85h92.76" stroke="#000" stroke-width="2" fill="none"/><path d="M729-976h-2v-1h2zM835.76-1062l-14.26 4.64v-9.28z"/><path d="M839-1062l-18.5 6v-12zm-16.5 3.26l10.03-3.26-10.03-3.26z"/><use xlink:href="#m" transform="matrix(1,0,0,1,608.1,-1042.1333333333332) translate(0 14.4)"/><defs><path d="M185-189c-5-48-123-54-124 2 14 75 158 14 163 119 3 78-121 87-175 55-17-10-28-26-33-46l33-7c5 56 141 63 141-1 0-78-155-14-162-118-5-82 145-84 179-34 5 7 8 16 11 25" id="n"/><path d="M100-194c63 0 86 42 84 106H49c0 40 14 67 53 68 26 1 43-12 49-29l28 8c-11 28-37 45-77 45C44 4 14-33 15-96c1-61 26-98 85-98zm52 81c6-60-76-77-97-28-3 7-6 17-6 28h103" id="o"/><path d="M114-163C36-179 61-72 57 0H25l-1-190h30c1 12-1 29 2 39 6-27 23-49 58-41v29" id="p"/><path d="M108 0H70L1-190h34L89-25l56-165h34" id="q"/><path d="M24-231v-30h32v30H24zM24 0v-190h32V0H24" id="r"/><path d="M96-169c-40 0-48 33-48 73s9 75 48 75c24 0 41-14 43-38l32 2c-6 37-31 61-74 61-59 0-76-41-82-99-10-93 101-131 147-64 4 7 5 14 7 22l-32 3c-4-21-16-35-41-35" id="s"/><g id="a"><use transform="matrix(0.05,0,0,0.05,0,0)" xlink:href="#n"/><use transform="matrix(0.05,0,0,0.05,12,0)" xlink:href="#o"/><use transform="matrix(0.05,0,0,0.05,22,0)" xlink:href="#p"/><use transform="matrix(0.05,0,0,0.05,27.950000000000003,0)" xlink:href="#q"/><use transform="matrix(0.05,0,0,0.05,36.95,0)" xlink:href="#r"/><use transform="matrix(0.05,0,0,0.05,40.900000000000006,0)" xlink:href="#s"/><use transform="matrix(0.05,0,0,0.05,49.900000000000006,0)" xlink:href="#o"/></g><path d="M140-251c81 0 123 46 123 126C263-46 219 4 140 4 59 4 17-45 17-125s42-126 123-126zm0 227c63 0 89-41 89-101s-29-99-89-99c-61 0-89 39-89 99S79-25 140-24" id="t"/><path d="M101-234c-31-9-42 10-38 44h38v23H63V0H32v-167H5v-23h27c-7-52 17-82 69-68v24" id="u"/><path d="M212-179c-10-28-35-45-73-45-59 0-87 40-87 99 0 60 29 101 89 101 43 0 62-24 78-52l27 14C228-24 195 4 139 4 59 4 22-46 18-125c-6-104 99-153 187-111 19 9 31 26 39 46" id="v"/><path d="M141-36C126-15 110 5 73 4 37 3 15-17 15-53c-1-64 63-63 125-63 3-35-9-54-41-54-24 1-41 7-42 31l-33-3c5-37 33-52 76-52 45 0 72 20 72 64v82c-1 20 7 32 28 27v20c-31 9-61-2-59-35zM48-53c0 20 12 33 32 33 41-3 63-29 60-74-43 2-92-5-92 41" id="w"/><path d="M59-47c-2 24 18 29 38 22v24C64 9 27 4 27-40v-127H5v-23h24l9-43h21v43h35v23H59v120" id="x"/><path d="M24 0v-261h32V0H24" id="y"/><path d="M100-194c62-1 85 37 85 99 1 63-27 99-86 99S16-35 15-95c0-66 28-99 85-99zM99-20c44 1 53-31 53-75 0-43-8-75-51-75s-53 32-53 75 10 74 51 75" id="z"/><path d="M177-190C167-65 218 103 67 71c-23-6-38-20-44-43l32-5c15 47 100 32 89-28v-30C133-14 115 1 83 1 29 1 15-40 15-95c0-56 16-97 71-98 29-1 48 16 59 35 1-10 0-23 2-32h30zM94-22c36 0 50-32 50-73 0-42-14-75-50-75-39 0-46 34-46 75s6 73 46 73" id="A"/><g id="b"><use transform="matrix(0.05,0,0,0.05,0,0)" xlink:href="#t"/><use transform="matrix(0.05,0,0,0.05,14,0)" xlink:href="#u"/><use transform="matrix(0.05,0,0,0.05,18.65,0)" xlink:href="#u"/><use transform="matrix(0.05,0,0,0.05,23.65,0)" xlink:href="#o"/><use transform="matrix(0.05,0,0,0.05,33.65,0)" xlink:href="#p"/><use transform="matrix(0.05,0,0,0.05,39.6,0)" xlink:href="#v"/><use transform="matrix(0.05,0,0,0.05,52.550000000000004,0)" xlink:href="#w"/><use transform="matrix(0.05,0,0,0.05,62.550000000000004,0)" xlink:href="#x"/><use transform="matrix(0.05,0,0,0.05,67.55000000000001,0)" xlink:href="#w"/><use transform="matrix(0.05,0,0,0.05,77.55000000000001,0)" xlink:href="#y"/><use transform="matrix(0.05,0,0,0.05,81.50000000000001,0)" xlink:href="#z"/><use transform="matrix(0.05,0,0,0.05,91.50000000000001,0)" xlink:href="#A"/></g><path d="M106-169C34-169 62-67 57 0H25v-261h32l-1 103c12-21 28-36 61-36 89 0 53 116 60 194h-32v-121c2-32-8-49-39-48" id="B"/><path d="M135-143c-3-34-86-38-87 0 15 53 115 12 119 90S17 21 10-45l28-5c4 36 97 45 98 0-10-56-113-15-118-90-4-57 82-63 122-42 12 7 21 19 24 35" id="C"/><g id="c"><use transform="matrix(0.05,0,0,0.05,0,0)" xlink:href="#B"/><use transform="matrix(0.05,0,0,0.05,10,0)" xlink:href="#w"/><use transform="matrix(0.05,0,0,0.05,20,0)" xlink:href="#C"/><use transform="matrix(0.05,0,0,0.05,29,0)" xlink:href="#t"/><use transform="matrix(0.05,0,0,0.05,43,0)" xlink:href="#u"/><use transform="matrix(0.05,0,0,0.05,47.65,0)" xlink:href="#u"/><use transform="matrix(0.05,0,0,0.05,52.650000000000006,0)" xlink:href="#o"/><use transform="matrix(0.05,0,0,0.05,62.650000000000006,0)" xlink:href="#p"/><use transform="matrix(0.05,0,0,0.05,68.6,0)" xlink:href="#v"/><use transform="matrix(0.05,0,0,0.05,81.55,0)" xlink:href="#w"/><use transform="matrix(0.05,0,0,0.05,91.55,0)" xlink:href="#x"/><use transform="matrix(0.05,0,0,0.05,96.55,0)" xlink:href="#w"/><use transform="matrix(0.05,0,0,0.05,106.55000000000001,0)" xlink:href="#y"/><use transform="matrix(0.05,0,0,0.05,110.5,0)" xlink:href="#z"/><use transform="matrix(0.05,0,0,0.05,120.5,0)" xlink:href="#A"/></g><path d="M266 0h-40l-56-210L115 0H75L2-248h35L96-30l15-64 43-154h32l59 218 59-218h35" id="D"/><path d="M143 0L79-87 56-68V0H24v-261h32v163l83-92h37l-77 82L181 0h-38" id="E"/><g id="d"><use transform="matrix(0.05,0,0,0.05,0,0)" xlink:href="#v"/><use transform="matrix(0.05,0,0,0.05,12.950000000000001,0)" xlink:href="#p"/><use transform="matrix(0.05,0,0,0.05,18.900000000000002,0)" xlink:href="#o"/><use transform="matrix(0.05,0,0,0.05,28.900000000000002,0)" xlink:href="#w"/><use transform="matrix(0.05,0,0,0.05,38.900000000000006,0)" xlink:href="#x"/><use transform="matrix(0.05,0,0,0.05,43.900000000000006,0)" xlink:href="#r"/><use transform="matrix(0.05,0,0,0.05,47.85000000000001,0)" xlink:href="#q"/><use transform="matrix(0.05,0,0,0.05,56.85,0)" xlink:href="#o"/><use transform="matrix(0.05,0,0,0.05,66.85000000000001,0)" xlink:href="#D"/><use transform="matrix(0.05,0,0,0.05,83.45000000000002,0)" xlink:href="#z"/><use transform="matrix(0.05,0,0,0.05,93.45000000000002,0)" xlink:href="#p"/><use transform="matrix(0.05,0,0,0.05,99.40000000000002,0)" xlink:href="#E"/></g><path d="M210-169c-67 3-38 105-44 169h-31v-121c0-29-5-50-35-48C34-165 62-65 56 0H25l-1-190h30c1 10-1 24 2 32 10-44 99-50 107 0 11-21 27-35 58-36 85-2 47 119 55 194h-31v-121c0-29-5-49-35-48" id="F"/><path d="M30 0v-248h33v221h125V0H30" id="G"/><path d="M30 0v-248h187v28H63v79h144v27H63v87h162V0H30" id="H"/><path d="M117-194c89-4 53 116 60 194h-32v-121c0-31-8-49-39-48C34-167 62-67 57 0H25l-1-190h30c1 10-1 24 2 32 11-22 29-35 61-36" id="I"/><g id="e"><use transform="matrix(0.05,0,0,0.05,0,0)" xlink:href="#r"/><use transform="matrix(0.05,0,0,0.05,3.95,0)" xlink:href="#x"/><use transform="matrix(0.05,0,0,0.05,8.95,0)" xlink:href="#o"/><use transform="matrix(0.05,0,0,0.05,18.95,0)" xlink:href="#F"/><use transform="matrix(0.05,0,0,0.05,33.9,0)" xlink:href="#G"/><use transform="matrix(0.05,0,0,0.05,43.9,0)" xlink:href="#r"/><use transform="matrix(0.05,0,0,0.05,47.85,0)" xlink:href="#C"/><use transform="matrix(0.05,0,0,0.05,56.85,0)" xlink:href="#x"/><use transform="matrix(0.05,0,0,0.05,61.85,0)" xlink:href="#H"/><use transform="matrix(0.05,0,0,0.05,73.85,0)" xlink:href="#y"/><use transform="matrix(0.05,0,0,0.05,77.8,0)" xlink:href="#o"/><use transform="matrix(0.05,0,0,0.05,87.8,0)" xlink:href="#F"/><use transform="matrix(0.05,0,0,0.05,102.75,0)" xlink:href="#o"/><use transform="matrix(0.05,0,0,0.05,112.75,0)" xlink:href="#I"/><use transform="matrix(0.05,0,0,0.05,122.75,0)" xlink:href="#x"/></g><path d="M127-220V0H93v-220H8v-28h204v28h-85" id="J"/><path d="M141 0L90-78 38 0H4l68-98-65-92h35l48 74 47-74h35l-64 92 68 98h-35" id="K"/><g id="f"><use transform="matrix(0.05,0,0,0.05,0,0)" xlink:href="#J"/><use transform="matrix(0.05,0,0,0.05,8.950000000000001,0)" xlink:href="#o"/><use transform="matrix(0.05,0,0,0.05,18.950000000000003,0)" xlink:href="#K"/><use transform="matrix(0.05,0,0,0.05,27.950000000000003,0)" xlink:href="#x"/></g><path d="M68-38c1 34 0 65-14 84H32c9-13 17-26 17-46H33v-38h35" id="L"/><g id="g"><use transform="matrix(0.05,0,0,0.05,0,0)" xlink:href="#I"/><use transform="matrix(0.05,0,0,0.05,10,0)" xlink:href="#w"/><use transform="matrix(0.05,0,0,0.05,20,0)" xlink:href="#F"/><use transform="matrix(0.05,0,0,0.05,34.95,0)" xlink:href="#o"/><use transform="matrix(0.05,0,0,0.05,44.95,0)" xlink:href="#L"/></g><path d="M85-194c31 0 48 13 60 33l-1-100h32l1 261h-30c-2-10 0-23-3-31C134-8 116 4 85 4 32 4 16-35 15-94c0-66 23-100 70-100zm9 24c-40 0-46 34-46 75 0 40 6 74 45 74 42 0 51-32 51-76 0-42-9-74-50-73" id="M"/><path d="M115-194c55 1 70 41 70 98S169 2 115 4C84 4 66-9 55-30l1 105H24l-1-265h31l2 30c10-21 28-34 59-34zm-8 174c40 0 45-34 45-75s-6-73-45-74c-42 0-51 32-51 76 0 43 10 73 51 73" id="N"/><g id="h"><use transform="matrix(0.05,0,0,0.05,0,0)" xlink:href="#M"/><use transform="matrix(0.05,0,0,0.05,10,0)" xlink:href="#o"/><use transform="matrix(0.05,0,0,0.05,20,0)" xlink:href="#C"/><use transform="matrix(0.05,0,0,0.05,29,0)" xlink:href="#s"/><use transform="matrix(0.05,0,0,0.05,38,0)" xlink:href="#p"/><use transform="matrix(0.05,0,0,0.05,43.95,0)" xlink:href="#r"/><use transform="matrix(0.05,0,0,0.05,47.900000000000006,0)" xlink:href="#N"/><use transform="matrix(0.05,0,0,0.05,57.900000000000006,0)" xlink:href="#x"/><use transform="matrix(0.05,0,0,0.05,62.900000000000006,0)" xlink:href="#r"/><use transform="matrix(0.05,0,0,0.05,66.85000000000001,0)" xlink:href="#z"/><use transform="matrix(0.05,0,0,0.05,76.85000000000001,0)" xlink:href="#I"/></g><path d="M30-248c118-7 216 8 213 122C240-48 200 0 122 0H30v-248zM63-27c89 8 146-16 146-99s-60-101-146-95v194" id="O"/><g id="i"><use transform="matrix(0.05,0,0,0.05,0,0)" xlink:href="#O"/><use transform="matrix(0.05,0,0,0.05,12.950000000000001,0)" xlink:href="#w"/><use transform="matrix(0.05,0,0,0.05,22.950000000000003,0)" xlink:href="#x"/><use transform="matrix(0.05,0,0,0.05,27.950000000000003,0)" xlink:href="#w"/><use transform="matrix(0.05,0,0,0.05,37.95,0)" xlink:href="#v"/><use transform="matrix(0.05,0,0,0.05,50.900000000000006,0)" xlink:href="#w"/><use transform="matrix(0.05,0,0,0.05,60.900000000000006,0)" xlink:href="#x"/><use transform="matrix(0.05,0,0,0.05,65.9,0)" xlink:href="#w"/><use transform="matrix(0.05,0,0,0.05,75.9,0)" xlink:href="#y"/><use transform="matrix(0.05,0,0,0.05,79.85000000000001,0)" xlink:href="#z"/><use transform="matrix(0.05,0,0,0.05,89.85000000000001,0)" xlink:href="#A"/></g><g id="j"><use transform="matrix(0.05,0,0,0.05,0,0)" xlink:href="#O"/><use transform="matrix(0.05,0,0,0.05,12.950000000000001,0)" xlink:href="#w"/><use transform="matrix(0.05,0,0,0.05,22.950000000000003,0)" xlink:href="#x"/><use transform="matrix(0.05,0,0,0.05,27.950000000000003,0)" xlink:href="#w"/><use transform="matrix(0.05,0,0,0.05,37.95,0)" xlink:href="#C"/><use transform="matrix(0.05,0,0,0.05,46.95,0)" xlink:href="#o"/><use transform="matrix(0.05,0,0,0.05,56.95,0)" xlink:href="#x"/></g><path d="M205 0l-28-72H64L36 0H1l101-248h38L239 0h-34zm-38-99l-47-123c-12 45-31 82-46 123h93" id="P"/><path d="M84 4C-5 8 30-112 23-190h32v120c0 31 7 50 39 49 72-2 45-101 50-169h31l1 190h-30c-1-10 1-25-2-33-11 22-28 36-60 37" id="Q"/><g id="k"><use transform="matrix(0.05,0,0,0.05,0,0)" xlink:href="#P"/><use transform="matrix(0.05,0,0,0.05,12,0)" xlink:href="#Q"/><use transform="matrix(0.05,0,0,0.05,22,0)" xlink:href="#M"/><use transform="matrix(0.05,0,0,0.05,32,0)" xlink:href="#r"/><use transform="matrix(0.05,0,0,0.05,35.95,0)" xlink:href="#o"/><use transform="matrix(0.05,0,0,0.05,45.95,0)" xlink:href="#I"/><use transform="matrix(0.05,0,0,0.05,55.95,0)" xlink:href="#s"/><use transform="matrix(0.05,0,0,0.05,64.95,0)" xlink:href="#o"/></g><g id="l"><use transform="matrix(0.05,0,0,0.05,0,0)" xlink:href="#w"/><use transform="matrix(0.05,0,0,0.05,10,0)" xlink:href="#Q"/><use transform="matrix(0.05,0,0,0.05,20,0)" xlink:href="#M"/><use transform="matrix(0.05,0,0,0.05,30,0)" xlink:href="#r"/><use transform="matrix(0.05,0,0,0.05,33.95,0)" xlink:href="#o"/><use transform="matrix(0.05,0,0,0.05,43.95,0)" xlink:href="#I"/><use transform="matrix(0.05,0,0,0.05,53.95,0)" xlink:href="#s"/><use transform="matrix(0.05,0,0,0.05,62.95,0)" xlink:href="#o"/></g><path d="M179-190L93 31C79 59 56 82 12 73V49c39 6 53-20 64-50L1-190h34L92-34l54-156h33" id="R"/><g id="m"><use transform="matrix(0.05,0,0,0.05,0,0)" xlink:href="#w"/><use transform="matrix(0.05,0,0,0.05,10,0)" xlink:href="#Q"/><use transform="matrix(0.05,0,0,0.05,20,0)" xlink:href="#M"/><use transform="matrix(0.05,0,0,0.05,30,0)" xlink:href="#r"/><use transform="matrix(0.05,0,0,0.05,33.95,0)" xlink:href="#o"/><use transform="matrix(0.05,0,0,0.05,43.95,0)" xlink:href="#I"/><use transform="matrix(0.05,0,0,0.05,53.95,0)" xlink:href="#s"/><use transform="matrix(0.05,0,0,0.05,62.95,0)" xlink:href="#o"/><use transform="matrix(0.05,0,0,0.05,72.95,0)" xlink:href="#J"/><use transform="matrix(0.05,0,0,0.05,82.9,0)" xlink:href="#R"/><use transform="matrix(0.05,0,0,0.05,91.9,0)" xlink:href="#N"/><use transform="matrix(0.05,0,0,0.05,101.9,0)" xlink:href="#o"/></g></defs></g></svg>