<svg xmlns="http://www.w3.org/2000/svg" xmlns:xlink="http://www.w3.org/1999/xlink" xmlns:lucid="lucid" width="856.8" height="548"><g transform="translate(-400 1240)" lucid:page-tab-id="0_0"><path d="M580-1220h200v100H580z" stroke="#000" stroke-width="2" fill="#c7e8ac"/><use xlink:href="#a" transform="matrix(1,0,0,1,585,-1215) translate(65.05 48.6)"/><path d="M1000-1200h180v60h-180z" stroke="#000" stroke-width="2" fill="#c7e8ac"/><use xlink:href="#b" transform="matrix(1,0,0,1,1005,-1195) translate(21.599999999999994 28.6)"/><path d="M781-1170h199.76" stroke="#000" stroke-width="2" fill="none"/><path d="M781-1169h-1v-2h1zM995.76-1170l-14.26 4.64v-9.28z"/><path d="M999-1170l-18.5 6v-12zm-16.5 3.26l10.03-3.26-10.03-3.26z"/><use xlink:href="#c" transform="matrix(1,0,0,1,837.7916666666666,-1195.6) translate(0 14.4)"/><path d="M1020-976h180v68h-180z" stroke="#000" stroke-width="2" fill="#c7e8ac"/><use xlink:href="#a" transform="matrix(1,0,0,1,1025,-971) translate(55.05 32.6)"/><path d="M1110-1139v143.76" stroke="#000" stroke-width="2" fill="none"/><path d="M1111-1139h-2v-1h2zM1110-980.24l-4.64-14.26h9.28z"/><path d="M1110-977l-6-18.5h12zm-3.26-16.5l3.26 10.03 3.26-10.03z"/><use xlink:href="#d" transform="matrix(1,0,0,1,1117.9999999999998,-1038.5966101694917) translate(0 14.4)"/><path d="M740-880h140v68H740z" stroke="#000" stroke-width="2" fill="#c7e8ac"/><use xlink:href="#e" transform="matrix(1,0,0,1,745,-875) translate(40.025 32.6)"/><path d="M1110-907v61H899.24" stroke="#000" stroke-width="2" fill="none"/><path d="M1111-907h-2v-1h2zM898.5-841.36L884.24-846l14.26-4.64z"/><path d="M899.5-840l-18.5-6 18.5-6zm-12.03-6l10.03 3.26v-6.52z"/><use xlink:href="#f" transform="matrix(1,0,0,1,910.7847222222222,-871.6) translate(0 14.4)"/><path d="M920-1066c0 18.78-22.4 34-50 34s-50-15.22-50-34 22.4-34 50-34 50 15.22 50 34z" stroke="#000" stroke-width="2" fill="#b2d6ef"/><use xlink:href="#g" transform="matrix(1,0,0,1,825,-1095) translate(27.049999999999997 32.6)"/><path d="M1021.92-1139v73h-82.68" stroke="#000" stroke-width="2" fill="none"/><path d="M1022.92-1139h-2v-1h2zM938.5-1061.36l-14.26-4.64 14.26-4.64z"/><path d="M939.5-1060l-18.5-6 18.5-6zm-12.03-6l10.03 3.26v-6.52z"/><use xlink:href="#h" transform="matrix(1,0,0,1,925.4987722820301,-1091.6) translate(0 14.4)"/><path d="M920-966c0 18.78-22.4 34-50 34s-50-15.22-50-34 22.4-34 50-34 50 15.22 50 34z" stroke="#000" stroke-width="2" fill="#b2d6ef"/><use xlink:href="#i" transform="matrix(1,0,0,1,825,-995) translate(28.525 32.6)"/><path d="M1019-966h-79.76" stroke="#000" stroke-width="2" fill="none"/><path d="M1020-965h-1v-2h1zM938.5-961.36L924.24-966l14.26-4.64z"/><path d="M939.5-960l-18.5-6 18.5-6zm-12.03-6l10.03 3.26v-6.52z"/><use xlink:href="#j" transform="matrix(1,0,0,1,932.575,-1013.2) translate(0 14.4)"/><use xlink:href="#k" transform="matrix(1,0,0,1,932.575,-1013.2) translate(0 36)"/><path d="M460-1060h180v68H460z" stroke="#000" stroke-width="2" fill="#c7e8ac"/><use xlink:href="#l" transform="matrix(1,0,0,1,465,-1055) translate(43.55 32.6)"/><path d="M760-881v-185h40.76" stroke="#000" stroke-width="2" fill="none"/><path d="M761-880h-2v-1h2zM815.76-1066l-14.26 4.64v-9.28z"/><path d="M819-1066l-18.5 6v-12zm-16.5 3.26l10.03-3.26-10.03-3.26z"/><path d="M760-881v-145H659.24" stroke="#000" stroke-width="2" fill="none"/><path d="M761-880h-2v-1h2zM658.5-1021.36l-14.26-4.64 14.26-4.64z"/><path d="M659.5-1020l-18.5-6 18.5-6zm-12.03-6l10.03 3.26v-6.52z"/><use xlink:href="#m" transform="matrix(1,0,0,1,700.9521590544981,-1051.6) translate(0 14.4)"/><path d="M520-830c0 18.78-22.4 34-50 34s-50-15.22-50-34 22.4-34 50-34 50 15.22 50 34z" stroke="#000" stroke-width="2" fill="#b2d6ef"/><use xlink:href="#i" transform="matrix(1,0,0,1,425,-859) translate(28.525 32.6)"/><path d="M478.67-991v108.32" stroke="#000" stroke-width="2" fill="none"/><path d="M479.67-991h-2v-1h2zM478.67-867.68l-4.64-14.27h9.27z"/><path d="M478.67-864.45l-6.02-18.5h12.03zm-3.26-16.5l3.27 10.03 3.26-10.03z"/><use xlink:href="#n" transform="matrix(1,0,0,1,486.66666666666663,-970.9243756689186) translate(0 14.4)"/><use xlink:href="#o" transform="matrix(1,0,0,1,486.66666666666663,-970.9243756689186) translate(0 36)"/><use xlink:href="#p" transform="matrix(1,0,0,1,486.66666666666663,-970.9243756689186) translate(0 57.6)"/><use xlink:href="#q" transform="matrix(1,0,0,1,486.66666666666663,-970.9243756689186) translate(0 79.20000000000002)"/><path d="M560-780h180v68H560z" stroke="#000" stroke-width="2" fill="#c7e8ac"/><use xlink:href="#r" transform="matrix(1,0,0,1,565,-775) translate(62.55 32.6)"/><path d="M810-811v69h-50.76" stroke="#000" stroke-width="2" fill="none"/><path d="M811-811h-2v-1h2zM758.5-737.36L744.24-742l14.26-4.64z"/><path d="M759.5-736l-18.5-6 18.5-6zm-12.03-6l10.03 3.26v-6.52z"/><g><use xlink:href="#s" transform="matrix(1,0,0,1,817.9999999999999,-768.8) translate(0 14.4)"/></g><defs><path d="M185-189c-5-48-123-54-124 2 14 75 158 14 163 119 3 78-121 87-175 55-17-10-28-26-33-46l33-7c5 56 141 63 141-1 0-78-155-14-162-118-5-82 145-84 179-34 5 7 8 16 11 25" id="t"/><path d="M100-194c63 0 86 42 84 106H49c0 40 14 67 53 68 26 1 43-12 49-29l28 8c-11 28-37 45-77 45C44 4 14-33 15-96c1-61 26-98 85-98zm52 81c6-60-76-77-97-28-3 7-6 17-6 28h103" id="u"/><path d="M114-163C36-179 61-72 57 0H25l-1-190h30c1 12-1 29 2 39 6-27 23-49 58-41v29" id="v"/><path d="M108 0H70L1-190h34L89-25l56-165h34" id="w"/><path d="M24-231v-30h32v30H24zM24 0v-190h32V0H24" id="x"/><path d="M96-169c-40 0-48 33-48 73s9 75 48 75c24 0 41-14 43-38l32 2c-6 37-31 61-74 61-59 0-76-41-82-99-10-93 101-131 147-64 4 7 5 14 7 22l-32 3c-4-21-16-35-41-35" id="y"/><g id="a"><use transform="matrix(0.05,0,0,0.05,0,0)" xlink:href="#t"/><use transform="matrix(0.05,0,0,0.05,12,0)" xlink:href="#u"/><use transform="matrix(0.05,0,0,0.05,22,0)" xlink:href="#v"/><use transform="matrix(0.05,0,0,0.05,27.950000000000003,0)" xlink:href="#w"/><use transform="matrix(0.05,0,0,0.05,36.95,0)" xlink:href="#x"/><use transform="matrix(0.05,0,0,0.05,40.900000000000006,0)" xlink:href="#y"/><use transform="matrix(0.05,0,0,0.05,49.900000000000006,0)" xlink:href="#u"/></g><path d="M212-179c-10-28-35-45-73-45-59 0-87 40-87 99 0 60 29 101 89 101 43 0 62-24 78-52l27 14C228-24 195 4 139 4 59 4 22-46 18-125c-6-104 99-153 187-111 19 9 31 26 39 46" id="z"/><path d="M106-169C34-169 62-67 57 0H25v-261h32l-1 103c12-21 28-36 61-36 89 0 53 116 60 194h-32v-121c2-32-8-49-39-48" id="A"/><path d="M141-36C126-15 110 5 73 4 37 3 15-17 15-53c-1-64 63-63 125-63 3-35-9-54-41-54-24 1-41 7-42 31l-33-3c5-37 33-52 76-52 45 0 72 20 72 64v82c-1 20 7 32 28 27v20c-31 9-61-2-59-35zM48-53c0 20 12 33 32 33 41-3 63-29 60-74-43 2-92-5-92 41" id="B"/><path d="M117-194c89-4 53 116 60 194h-32v-121c0-31-8-49-39-48C34-167 62-67 57 0H25l-1-190h30c1 10-1 24 2 32 11-22 29-35 61-36" id="C"/><path d="M24 0v-261h32V0H24" id="D"/><g id="b"><use transform="matrix(0.05,0,0,0.05,0,0)" xlink:href="#t"/><use transform="matrix(0.05,0,0,0.05,12,0)" xlink:href="#u"/><use transform="matrix(0.05,0,0,0.05,22,0)" xlink:href="#v"/><use transform="matrix(0.05,0,0,0.05,27.950000000000003,0)" xlink:href="#w"/><use transform="matrix(0.05,0,0,0.05,36.95,0)" xlink:href="#x"/><use transform="matrix(0.05,0,0,0.05,40.900000000000006,0)" xlink:href="#y"/><use transform="matrix(0.05,0,0,0.05,49.900000000000006,0)" xlink:href="#u"/><use transform="matrix(0.05,0,0,0.05,59.900000000000006,0)" xlink:href="#z"/><use transform="matrix(0.05,0,0,0.05,72.85000000000001,0)" xlink:href="#A"/><use transform="matrix(0.05,0,0,0.05,82.85000000000001,0)" xlink:href="#B"/><use transform="matrix(0.05,0,0,0.05,92.85000000000001,0)" xlink:href="#C"/><use transform="matrix(0.05,0,0,0.05,102.85000000000001,0)" xlink:href="#C"/><use transform="matrix(0.05,0,0,0.05,112.85000000000001,0)" xlink:href="#u"/><use transform="matrix(0.05,0,0,0.05,122.85000000000001,0)" xlink:href="#D"/></g><path d="M115-194c53 0 69 39 70 98 0 66-23 100-70 100C84 3 66-7 56-30L54 0H23l1-261h32v101c10-23 28-34 59-34zm-8 174c40 0 45-34 45-75 0-40-5-75-45-74-42 0-51 32-51 76 0 43 10 73 51 73" id="E"/><g id="c"><use transform="matrix(0.05,0,0,0.05,0,0)" xlink:href="#B"/><use transform="matrix(0.05,0,0,0.05,10,0)" xlink:href="#w"/><use transform="matrix(0.05,0,0,0.05,19,0)" xlink:href="#B"/><use transform="matrix(0.05,0,0,0.05,29,0)" xlink:href="#x"/><use transform="matrix(0.05,0,0,0.05,32.95,0)" xlink:href="#D"/><use transform="matrix(0.05,0,0,0.05,36.900000000000006,0)" xlink:href="#B"/><use transform="matrix(0.05,0,0,0.05,46.900000000000006,0)" xlink:href="#E"/><use transform="matrix(0.05,0,0,0.05,56.900000000000006,0)" xlink:href="#D"/><use transform="matrix(0.05,0,0,0.05,60.85,0)" xlink:href="#u"/><use transform="matrix(0.05,0,0,0.05,70.85000000000001,0)" xlink:href="#z"/><use transform="matrix(0.05,0,0,0.05,83.80000000000001,0)" xlink:href="#A"/><use transform="matrix(0.05,0,0,0.05,93.80000000000001,0)" xlink:href="#B"/><use transform="matrix(0.05,0,0,0.05,103.80000000000001,0)" xlink:href="#C"/><use transform="matrix(0.05,0,0,0.05,113.80000000000001,0)" xlink:href="#C"/><use transform="matrix(0.05,0,0,0.05,123.80000000000001,0)" xlink:href="#u"/><use transform="matrix(0.05,0,0,0.05,133.8,0)" xlink:href="#D"/></g><path d="M115-194c55 1 70 41 70 98S169 2 115 4C84 4 66-9 55-30l1 105H24l-1-265h31l2 30c10-21 28-34 59-34zm-8 174c40 0 45-34 45-75s-6-73-45-74c-42 0-51 32-51 76 0 43 10 73 51 73" id="F"/><path d="M100-194c62-1 85 37 85 99 1 63-27 99-86 99S16-35 15-95c0-66 28-99 85-99zM99-20c44 1 53-31 53-75 0-43-8-75-51-75s-53 32-53 75 10 74 51 75" id="G"/><path d="M85-194c31 0 48 13 60 33l-1-100h32l1 261h-30c-2-10 0-23-3-31C134-8 116 4 85 4 32 4 16-35 15-94c0-66 23-100 70-100zm9 24c-40 0-46 34-46 75 0 40 6 74 45 74 42 0 51-32 51-76 0-42-9-74-50-73" id="H"/><path d="M135-143c-3-34-86-38-87 0 15 53 115 12 119 90S17 21 10-45l28-5c4 36 97 45 98 0-10-56-113-15-118-90-4-57 82-63 122-42 12 7 21 19 24 35" id="I"/><g id="d"><use transform="matrix(0.05,0,0,0.05,0,0)" xlink:href="#F"/><use transform="matrix(0.05,0,0,0.05,10,0)" xlink:href="#v"/><use transform="matrix(0.05,0,0,0.05,15.949999999999998,0)" xlink:href="#G"/><use transform="matrix(0.05,0,0,0.05,25.950000000000003,0)" xlink:href="#w"/><use transform="matrix(0.05,0,0,0.05,34.95,0)" xlink:href="#x"/><use transform="matrix(0.05,0,0,0.05,38.900000000000006,0)" xlink:href="#H"/><use transform="matrix(0.05,0,0,0.05,48.900000000000006,0)" xlink:href="#u"/><use transform="matrix(0.05,0,0,0.05,58.900000000000006,0)" xlink:href="#I"/><use transform="matrix(0.05,0,0,0.05,67.9,0)" xlink:href="#t"/><use transform="matrix(0.05,0,0,0.05,79.9,0)" xlink:href="#u"/><use transform="matrix(0.05,0,0,0.05,89.9,0)" xlink:href="#v"/><use transform="matrix(0.05,0,0,0.05,95.85000000000001,0)" xlink:href="#w"/><use transform="matrix(0.05,0,0,0.05,104.85000000000001,0)" xlink:href="#x"/><use transform="matrix(0.05,0,0,0.05,108.80000000000001,0)" xlink:href="#y"/><use transform="matrix(0.05,0,0,0.05,117.80000000000001,0)" xlink:href="#u"/></g><path d="M205 0l-28-72H64L36 0H1l101-248h38L239 0h-34zm-38-99l-47-123c-12 45-31 82-46 123h93" id="J"/><path d="M59-47c-2 24 18 29 38 22v24C64 9 27 4 27-40v-127H5v-23h24l9-43h21v43h35v23H59v120" id="K"/><g id="e"><use transform="matrix(0.05,0,0,0.05,0,0)" xlink:href="#J"/><use transform="matrix(0.05,0,0,0.05,12,0)" xlink:href="#y"/><use transform="matrix(0.05,0,0,0.05,21,0)" xlink:href="#K"/><use transform="matrix(0.05,0,0,0.05,26,0)" xlink:href="#x"/><use transform="matrix(0.05,0,0,0.05,29.950000000000003,0)" xlink:href="#G"/><use transform="matrix(0.05,0,0,0.05,39.95,0)" xlink:href="#C"/></g><g id="f"><use transform="matrix(0.05,0,0,0.05,0,0)" xlink:href="#F"/><use transform="matrix(0.05,0,0,0.05,10,0)" xlink:href="#G"/><use transform="matrix(0.05,0,0,0.05,20,0)" xlink:href="#K"/><use transform="matrix(0.05,0,0,0.05,25,0)" xlink:href="#u"/><use transform="matrix(0.05,0,0,0.05,35,0)" xlink:href="#C"/><use transform="matrix(0.05,0,0,0.05,45,0)" xlink:href="#K"/><use transform="matrix(0.05,0,0,0.05,50,0)" xlink:href="#x"/><use transform="matrix(0.05,0,0,0.05,53.95,0)" xlink:href="#B"/><use transform="matrix(0.05,0,0,0.05,63.95,0)" xlink:href="#D"/><use transform="matrix(0.05,0,0,0.05,67.9,0)" xlink:href="#J"/><use transform="matrix(0.05,0,0,0.05,79.9,0)" xlink:href="#y"/><use transform="matrix(0.05,0,0,0.05,88.9,0)" xlink:href="#K"/><use transform="matrix(0.05,0,0,0.05,93.9,0)" xlink:href="#x"/><use transform="matrix(0.05,0,0,0.05,97.85000000000001,0)" xlink:href="#G"/><use transform="matrix(0.05,0,0,0.05,107.85000000000001,0)" xlink:href="#C"/></g><path d="M232-93c-1 65-40 97-104 97C67 4 28-28 28-90v-158h33c8 89-33 224 67 224 102 0 64-133 71-224h33v155" id="L"/><path d="M233-177c-1 41-23 64-60 70L243 0h-38l-65-103H63V0H30v-248c88 3 205-21 203 71zM63-129c60-2 137 13 137-47 0-61-80-42-137-45v92" id="M"/><path d="M30 0v-248h33v221h125V0H30" id="N"/><g id="g"><use transform="matrix(0.05,0,0,0.05,0,0)" xlink:href="#L"/><use transform="matrix(0.05,0,0,0.05,12.950000000000001,0)" xlink:href="#M"/><use transform="matrix(0.05,0,0,0.05,25.900000000000002,0)" xlink:href="#N"/></g><g id="h"><use transform="matrix(0.05,0,0,0.05,0,0)" xlink:href="#I"/><use transform="matrix(0.05,0,0,0.05,9,0)" xlink:href="#u"/><use transform="matrix(0.05,0,0,0.05,19,0)" xlink:href="#v"/><use transform="matrix(0.05,0,0,0.05,24.95,0)" xlink:href="#w"/><use transform="matrix(0.05,0,0,0.05,33.95,0)" xlink:href="#x"/><use transform="matrix(0.05,0,0,0.05,37.900000000000006,0)" xlink:href="#y"/><use transform="matrix(0.05,0,0,0.05,46.900000000000006,0)" xlink:href="#u"/><use transform="matrix(0.05,0,0,0.05,56.900000000000006,0)" xlink:href="#L"/><use transform="matrix(0.05,0,0,0.05,69.85000000000001,0)" xlink:href="#v"/><use transform="matrix(0.05,0,0,0.05,75.80000000000001,0)" xlink:href="#D"/></g><path d="M127-220V0H93v-220H8v-28h204v28h-85" id="O"/><path d="M141 0L90-78 38 0H4l68-98-65-92h35l48 74 47-74h35l-64 92 68 98h-35" id="P"/><g id="i"><use transform="matrix(0.05,0,0,0.05,0,0)" xlink:href="#O"/><use transform="matrix(0.05,0,0,0.05,8.950000000000001,0)" xlink:href="#u"/><use transform="matrix(0.05,0,0,0.05,18.950000000000003,0)" xlink:href="#P"/><use transform="matrix(0.05,0,0,0.05,27.950000000000003,0)" xlink:href="#K"/></g><path d="M210-169c-67 3-38 105-44 169h-31v-121c0-29-5-50-35-48C34-165 62-65 56 0H25l-1-190h30c1 10-1 24 2 32 10-44 99-50 107 0 11-21 27-35 58-36 85-2 47 119 55 194h-31v-121c0-29-5-49-35-48" id="Q"/><path d="M68-38c1 34 0 65-14 84H32c9-13 17-26 17-46H33v-38h35" id="R"/><g id="j"><use transform="matrix(0.05,0,0,0.05,0,0)" xlink:href="#C"/><use transform="matrix(0.05,0,0,0.05,10,0)" xlink:href="#B"/><use transform="matrix(0.05,0,0,0.05,20,0)" xlink:href="#Q"/><use transform="matrix(0.05,0,0,0.05,34.95,0)" xlink:href="#u"/><use transform="matrix(0.05,0,0,0.05,44.95,0)" xlink:href="#R"/></g><g id="k"><use transform="matrix(0.05,0,0,0.05,0,0)" xlink:href="#H"/><use transform="matrix(0.05,0,0,0.05,10,0)" xlink:href="#u"/><use transform="matrix(0.05,0,0,0.05,20,0)" xlink:href="#I"/><use transform="matrix(0.05,0,0,0.05,29,0)" xlink:href="#y"/><use transform="matrix(0.05,0,0,0.05,38,0)" xlink:href="#v"/><use transform="matrix(0.05,0,0,0.05,43.95,0)" xlink:href="#x"/><use transform="matrix(0.05,0,0,0.05,47.900000000000006,0)" xlink:href="#F"/><use transform="matrix(0.05,0,0,0.05,57.900000000000006,0)" xlink:href="#K"/><use transform="matrix(0.05,0,0,0.05,62.900000000000006,0)" xlink:href="#x"/><use transform="matrix(0.05,0,0,0.05,66.85000000000001,0)" xlink:href="#G"/><use transform="matrix(0.05,0,0,0.05,76.85000000000001,0)" xlink:href="#C"/></g><path d="M30 0v-248h187v28H63v79h144v27H63v87h162V0H30" id="S"/><path d="M179-190L93 31C79 59 56 82 12 73V49c39 6 53-20 64-50L1-190h34L92-34l54-156h33" id="T"/><path d="M30-248c87 1 191-15 191 75 0 78-77 80-158 76V0H30v-248zm33 125c57 0 124 11 124-50 0-59-68-47-124-48v98" id="U"/><g id="l"><use transform="matrix(0.05,0,0,0.05,0,0)" xlink:href="#S"/><use transform="matrix(0.05,0,0,0.05,12,0)" xlink:href="#C"/><use transform="matrix(0.05,0,0,0.05,22,0)" xlink:href="#K"/><use transform="matrix(0.05,0,0,0.05,27,0)" xlink:href="#v"/><use transform="matrix(0.05,0,0,0.05,32.95,0)" xlink:href="#T"/><use transform="matrix(0.05,0,0,0.05,41.95,0)" xlink:href="#U"/><use transform="matrix(0.05,0,0,0.05,53.95,0)" xlink:href="#G"/><use transform="matrix(0.05,0,0,0.05,63.95,0)" xlink:href="#x"/><use transform="matrix(0.05,0,0,0.05,67.9,0)" xlink:href="#C"/><use transform="matrix(0.05,0,0,0.05,77.9,0)" xlink:href="#K"/></g><path d="M177-190C167-65 218 103 67 71c-23-6-38-20-44-43l32-5c15 47 100 32 89-28v-30C133-14 115 1 83 1 29 1 15-40 15-95c0-56 16-97 71-98 29-1 48 16 59 35 1-10 0-23 2-32h30zM94-22c36 0 50-32 50-73 0-42-14-75-50-75-39 0-46 34-46 75s6 73 46 73" id="V"/><g id="m"><use transform="matrix(0.05,0,0,0.05,0,0)" xlink:href="#K"/><use transform="matrix(0.05,0,0,0.05,5,0)" xlink:href="#B"/><use transform="matrix(0.05,0,0,0.05,15,0)" xlink:href="#v"/><use transform="matrix(0.05,0,0,0.05,20.95,0)" xlink:href="#V"/><use transform="matrix(0.05,0,0,0.05,30.950000000000003,0)" xlink:href="#u"/><use transform="matrix(0.05,0,0,0.05,40.95,0)" xlink:href="#K"/></g><g id="n"><use transform="matrix(0.05,0,0,0.05,0,0)" xlink:href="#H"/><use transform="matrix(0.05,0,0,0.05,10,0)" xlink:href="#u"/><use transform="matrix(0.05,0,0,0.05,20,0)" xlink:href="#I"/><use transform="matrix(0.05,0,0,0.05,29,0)" xlink:href="#y"/><use transform="matrix(0.05,0,0,0.05,38,0)" xlink:href="#v"/><use transform="matrix(0.05,0,0,0.05,43.95,0)" xlink:href="#x"/><use transform="matrix(0.05,0,0,0.05,47.900000000000006,0)" xlink:href="#F"/><use transform="matrix(0.05,0,0,0.05,57.900000000000006,0)" xlink:href="#K"/><use transform="matrix(0.05,0,0,0.05,62.900000000000006,0)" xlink:href="#x"/><use transform="matrix(0.05,0,0,0.05,66.85000000000001,0)" xlink:href="#G"/><use transform="matrix(0.05,0,0,0.05,76.85000000000001,0)" xlink:href="#C"/><use transform="matrix(0.05,0,0,0.05,86.85000000000001,0)" xlink:href="#R"/></g><path d="M84 4C-5 8 30-112 23-190h32v120c0 31 7 50 39 49 72-2 45-101 50-169h31l1 190h-30c-1-10 1-25-2-33-11 22-28 36-60 37" id="W"/><g id="o"><use transform="matrix(0.05,0,0,0.05,0,0)" xlink:href="#W"/><use transform="matrix(0.05,0,0,0.05,10,0)" xlink:href="#v"/><use transform="matrix(0.05,0,0,0.05,15.949999999999998,0)" xlink:href="#D"/><use transform="matrix(0.05,0,0,0.05,19.9,0)" xlink:href="#O"/><use transform="matrix(0.05,0,0,0.05,28.85,0)" xlink:href="#u"/><use transform="matrix(0.05,0,0,0.05,38.85,0)" xlink:href="#Q"/><use transform="matrix(0.05,0,0,0.05,53.800000000000004,0)" xlink:href="#F"/><use transform="matrix(0.05,0,0,0.05,63.800000000000004,0)" xlink:href="#D"/><use transform="matrix(0.05,0,0,0.05,67.75,0)" xlink:href="#B"/><use transform="matrix(0.05,0,0,0.05,77.75,0)" xlink:href="#K"/><use transform="matrix(0.05,0,0,0.05,82.75,0)" xlink:href="#u"/><use transform="matrix(0.05,0,0,0.05,92.75,0)" xlink:href="#R"/></g><path d="M240 0l2-218c-23 76-54 145-80 218h-23L58-218 59 0H30v-248h44l77 211c21-75 51-140 76-211h43V0h-30" id="X"/><g id="p"><use transform="matrix(0.05,0,0,0.05,0,0)" xlink:href="#A"/><use transform="matrix(0.05,0,0,0.05,10,0)" xlink:href="#K"/><use transform="matrix(0.05,0,0,0.05,15,0)" xlink:href="#K"/><use transform="matrix(0.05,0,0,0.05,20,0)" xlink:href="#F"/><use transform="matrix(0.05,0,0,0.05,30,0)" xlink:href="#X"/><use transform="matrix(0.05,0,0,0.05,44.95,0)" xlink:href="#u"/><use transform="matrix(0.05,0,0,0.05,54.95,0)" xlink:href="#K"/><use transform="matrix(0.05,0,0,0.05,59.95,0)" xlink:href="#A"/><use transform="matrix(0.05,0,0,0.05,69.95,0)" xlink:href="#G"/><use transform="matrix(0.05,0,0,0.05,79.95,0)" xlink:href="#H"/><use transform="matrix(0.05,0,0,0.05,89.95,0)" xlink:href="#R"/></g><g id="q"><use transform="matrix(0.05,0,0,0.05,0,0)" xlink:href="#y"/><use transform="matrix(0.05,0,0,0.05,9,0)" xlink:href="#G"/><use transform="matrix(0.05,0,0,0.05,19,0)" xlink:href="#C"/><use transform="matrix(0.05,0,0,0.05,29,0)" xlink:href="#K"/><use transform="matrix(0.05,0,0,0.05,34,0)" xlink:href="#u"/><use transform="matrix(0.05,0,0,0.05,44,0)" xlink:href="#C"/><use transform="matrix(0.05,0,0,0.05,54,0)" xlink:href="#K"/><use transform="matrix(0.05,0,0,0.05,59,0)" xlink:href="#O"/><use transform="matrix(0.05,0,0,0.05,68.95,0)" xlink:href="#T"/><use transform="matrix(0.05,0,0,0.05,77.95,0)" xlink:href="#F"/><use transform="matrix(0.05,0,0,0.05,87.95,0)" xlink:href="#u"/></g><g id="r"><use transform="matrix(0.05,0,0,0.05,0,0)" xlink:href="#O"/><use transform="matrix(0.05,0,0,0.05,10.950000000000001,0)" xlink:href="#A"/><use transform="matrix(0.05,0,0,0.05,20.950000000000003,0)" xlink:href="#x"/><use transform="matrix(0.05,0,0,0.05,24.900000000000002,0)" xlink:href="#C"/><use transform="matrix(0.05,0,0,0.05,34.900000000000006,0)" xlink:href="#V"/></g><path d="M24-231v-30h32v30H24zM-9 49c24 4 33-6 33-30v-209h32V24c2 40-23 58-65 49V49" id="Y"/><g id="s"><use transform="matrix(0.05,0,0,0.05,0,0)" xlink:href="#G"/><use transform="matrix(0.05,0,0,0.05,10,0)" xlink:href="#E"/><use transform="matrix(0.05,0,0,0.05,20,0)" xlink:href="#Y"/><use transform="matrix(0.05,0,0,0.05,23.95,0)" xlink:href="#u"/><use transform="matrix(0.05,0,0,0.05,33.95,0)" xlink:href="#y"/><use transform="matrix(0.05,0,0,0.05,42.95,0)" xlink:href="#K"/></g></defs></g></svg>