<svg xmlns="http://www.w3.org/2000/svg" xmlns:xlink="http://www.w3.org/1999/xlink" xmlns:lucid="lucid" width="1128.33" height="489"><g transform="translate(-90.66666666666652 1229)" lucid:page-tab-id="0_0"><path d="M0-1296h1760V64H0z" fill="#fff"/><path d="M210.67-1072c0 19.33-22.4 35-50 35-27.62 0-50-15.67-50-35s22.38-35 50-35c27.6 0 50 15.67 50 35z" stroke="#000" stroke-width="2" fill="#b2d6ef"/><use xlink:href="#a" transform="matrix(1,0,0,1,115.66666666666652,-1102) translate(28.525 33.6)"/><path d="M210.67-970c0 19.33-22.4 35-50 35-27.62 0-50-15.67-50-35s22.38-35 50-35c27.6 0 50 15.67 50 35z" stroke="#000" stroke-width="2" fill="#b2d6ef"/><use xlink:href="#b" transform="matrix(1,0,0,1,115.66666666666652,-1000) translate(27.049999999999997 33.6)"/><path d="M246.05-969h-15.88v-2h15.88zM425-969H265.95v-2H423v-136h2z"/><path d="M425-1106.97h-2v-1.03h2zM229.17-965.36L214.9-970l14.27-4.64z"/><path d="M230.17-964l-18.5-6 18.5-6zm-12.03-6l10.03 3.26v-6.52z"/><use xlink:href="#c" transform="matrix(1,0,0,1,246.04999991166937,-980.8) translate(0 14.4)"/><path d="M719-1209h200v100H719z" stroke="#000" stroke-width="2" fill="#c7e8ac"/><use xlink:href="#d" transform="matrix(1,0,0,1,724.0000000000001,-1204) translate(28.599999999999994 48.6)"/><path d="M999-1209h200v100H999z" stroke="#000" stroke-width="2" fill="#c7e8ac"/><use xlink:href="#e" transform="matrix(1,0,0,1,1004,-1204) translate(65.05 48.6)"/><path d="M922.82-1159c0 .55-.45 1-1 1s-1-.45-1-1 .45-1 1-1 1 .45 1 1zm3.9 0c0 .55-.44 1-1 1-.54 0-1-.45-1-1s.46-1 1-1c.56 0 1 .45 1 1zm3.93 0c0 .55-.45 1-1 1-.56 0-1-.45-1-1s.44-1 1-1c.55 0 1 .45 1 1zm3.9 0c0 .55-.44 1-1 1-.54 0-1-.45-1-1s.46-1 1-1c.56 0 1 .45 1 1zm3.92 0c0 .55-.44 1-1 1-.55 0-1-.45-1-1s.45-1 1-1c.56 0 1 .45 1 1zm3.92 0c0 .55-.46 1-1 1-.56 0-1-.45-1-1s.44-1 1-1c.54 0 1 .45 1 1zm3.9 0c0 .55-.45 1-1 1s-1-.45-1-1 .45-1 1-1 1 .45 1 1zm3.92 0c0 .55-.45 1-1 1-.56 0-1-.45-1-1s.44-1 1-1c.55 0 1 .45 1 1zm3.9 0c0 .55-.44 1-1 1-.54 0-1-.45-1-1s.46-1 1-1c.56 0 1 .45 1 1zm3.92 0c0 .55-.44 1-1 1-.55 0-1-.45-1-1s.45-1 1-1c.56 0 1 .45 1 1zm3.92 0c0 .55-.45 1-1 1-.56 0-1-.45-1-1s.44-1 1-1c.55 0 1 .45 1 1zm3.9 0c0 .55-.44 1-1 1-.54 0-1-.45-1-1s.46-1 1-1c.56 0 1 .45 1 1zm3.92 0c0 .55-.44 1-1 1-.55 0-1-.45-1-1s.45-1 1-1c.56 0 1 .45 1 1zm3.92 0c0 .55-.45 1-1 1s-1-.45-1-1 .45-1 1-1 1 .45 1 1zm3.9 0c0 .55-.44 1-1 1-.54 0-1-.45-1-1s.46-1 1-1c.56 0 1 .45 1 1zm3.93 0c0 .55-.45 1-1 1-.56 0-1-.45-1-1s.44-1 1-1c.55 0 1 .45 1 1zm3.9 0c0 .55-.44 1-1 1-.54 0-1-.45-1-1s.46-1 1-1c.56 0 1 .45 1 1zm3.92 0c0 .55-.44 1-1 1-.55 0-1-.45-1-1s.45-1 1-1c.56 0 1 .45 1 1zm3.92 0c0 .55-.45 1-1 1s-1-.45-1-1 .45-1 1-1 1 .45 1 1z"/><path d="M939.18-1169.18L921.96-1159l17.22 10.18M978.82-1148.82l17.22-10.18-17.22-10.18" stroke="#000" stroke-width="2" fill="none"/><path d="M380-1209h200v100H380z" stroke="#000" stroke-width="2" fill="#c7e8ac"/><use xlink:href="#f" transform="matrix(1,0,0,1,385,-1204) translate(44.074999999999996 48.6)"/><path d="M717-1159H599.5" stroke="#000" stroke-width="2" fill="none"/><path d="M718-1158h-1.03v-2H718z"/><path d="M584.24-1159l14.26-4.64v9.28z" stroke="#000" stroke-width="2"/><use xlink:href="#g" transform="matrix(1,0,0,1,613.1916666666666,-1155) translate(0 14.4)"/><path d="M400-1107v35H230.17" stroke="#000" stroke-width="2" fill="none"/><path d="M401-1106.97h-2v-1.03h2z"/><path d="M214.9-1072l14.27-4.64v9.28z" stroke="#000" stroke-width="2"/><use xlink:href="#h" transform="matrix(1,0,0,1,218.68364600335664,-1119.2) translate(0 14.4)"/><use xlink:href="#i" transform="matrix(1,0,0,1,218.68364600335664,-1119.2) translate(0 36)"/><path d="M620-1010h148v100H620z" stroke="#000" stroke-width="2" fill="#c7e8ac"/><use xlink:href="#j" transform="matrix(1,0,0,1,625,-1005) translate(12.749999999999993 48.6)"/><path d="M480-1107v47.5h214v30" stroke="#000" stroke-width="2" fill="none"/><path d="M481-1106.97h-2v-1.03h2z"/><path d="M694-1014.24l-4.64-14.26h9.28z" stroke="#000" stroke-width="2"/><use xlink:href="#k" transform="matrix(1,0,0,1,576.1,-1085.1) translate(0 14.4)"/><path d="M744-795c0 19.33-22.4 35-50 35s-50-15.67-50-35 22.4-35 50-35 50 15.67 50 35z" stroke="#000" stroke-width="2" fill="#b2d6ef"/><use xlink:href="#l" transform="matrix(1,0,0,1,649,-824.9999999999999) translate(27.049999999999997 33.6)"/><path d="M1168-795c0 19.33-89.54 35-200 35s-200-15.67-200-35 89.54-35 200-35 200 15.67 200 35z" stroke="#000" stroke-width="2" fill="#b2d6ef"/><use xlink:href="#m" transform="matrix(1,0,0,1,773,-824.9999999999999) translate(30.12500000000003 33.6)"/><path d="M600-795c0 19.33-40.3 35-90 35s-90-15.67-90-35 40.3-35 90-35 90 15.67 90 35z" stroke="#000" stroke-width="2" fill="#b2d6ef"/><use xlink:href="#n" transform="matrix(1,0,0,1,425,-824.9999999999999) translate(68.525 33.6)"/><path d="M752-908v38h216v20.5" stroke="#000" stroke-width="2" fill="none"/><path d="M753-907.97h-2V-909h2z"/><path d="M968-834.24l-4.64-14.26h9.28z" stroke="#000" stroke-width="2"/><use xlink:href="#o" transform="matrix(1,0,0,1,802.3991816997434,-895.5999999999999) translate(0 14.4)"/><path d="M694-908v58.5" stroke="#000" stroke-width="2" fill="none"/><path d="M695-907.97h-2V-909h2z"/><path d="M694-834.24l-4.64-14.26h9.28z" stroke="#000" stroke-width="2"/><use xlink:href="#p" transform="matrix(1,0,0,1,666.0999999999999,-890.4949943610707) translate(0 14.4)"/><path d="M634.67-908v38.16H521.43v20.65" stroke="#000" stroke-width="2" fill="none"/><path d="M635.67-907.97h-2V-909h2z"/><path d="M521.43-833.92l-4.63-14.27h9.27z" stroke="#000" stroke-width="2"/><use xlink:href="#q" transform="matrix(1,0,0,1,529.8801700458567,-895.4426096576661) translate(0 14.4)"/><defs><path d="M127-220V0H93v-220H8v-28h204v28h-85" id="r"/><path d="M100-194c63 0 86 42 84 106H49c0 40 14 67 53 68 26 1 43-12 49-29l28 8c-11 28-37 45-77 45C44 4 14-33 15-96c1-61 26-98 85-98zm52 81c6-60-76-77-97-28-3 7-6 17-6 28h103" id="s"/><path d="M141 0L90-78 38 0H4l68-98-65-92h35l48 74 47-74h35l-64 92 68 98h-35" id="t"/><path d="M59-47c-2 24 18 29 38 22v24C64 9 27 4 27-40v-127H5v-23h24l9-43h21v43h35v23H59v120" id="u"/><g id="a"><use transform="matrix(0.05,0,0,0.05,0,0)" xlink:href="#r"/><use transform="matrix(0.05,0,0,0.05,8.950000000000001,0)" xlink:href="#s"/><use transform="matrix(0.05,0,0,0.05,18.950000000000003,0)" xlink:href="#t"/><use transform="matrix(0.05,0,0,0.05,27.950000000000003,0)" xlink:href="#u"/></g><path d="M232-93c-1 65-40 97-104 97C67 4 28-28 28-90v-158h33c8 89-33 224 67 224 102 0 64-133 71-224h33v155" id="v"/><path d="M233-177c-1 41-23 64-60 70L243 0h-38l-65-103H63V0H30v-248c88 3 205-21 203 71zM63-129c60-2 137 13 137-47 0-61-80-42-137-45v92" id="w"/><path d="M30 0v-248h33v221h125V0H30" id="x"/><g id="b"><use transform="matrix(0.05,0,0,0.05,0,0)" xlink:href="#v"/><use transform="matrix(0.05,0,0,0.05,12.950000000000001,0)" xlink:href="#w"/><use transform="matrix(0.05,0,0,0.05,25.900000000000002,0)" xlink:href="#x"/></g><path d="M84 4C-5 8 30-112 23-190h32v120c0 31 7 50 39 49 72-2 45-101 50-169h31l1 190h-30c-1-10 1-25-2-33-11 22-28 36-60 37" id="y"/><path d="M114-163C36-179 61-72 57 0H25l-1-190h30c1 12-1 29 2 39 6-27 23-49 58-41v29" id="z"/><path d="M24 0v-261h32V0H24" id="A"/><g id="c"><use transform="matrix(0.05,0,0,0.05,0,0)" xlink:href="#y"/><use transform="matrix(0.05,0,0,0.05,10,0)" xlink:href="#z"/><use transform="matrix(0.05,0,0,0.05,15.949999999999998,0)" xlink:href="#A"/></g><path d="M135-143c-3-34-86-38-87 0 15 53 115 12 119 90S17 21 10-45l28-5c4 36 97 45 98 0-10-56-113-15-118-90-4-57 82-63 122-42 12 7 21 19 24 35" id="B"/><path d="M141-36C126-15 110 5 73 4 37 3 15-17 15-53c-1-64 63-63 125-63 3-35-9-54-41-54-24 1-41 7-42 31l-33-3c5-37 33-52 76-52 45 0 72 20 72 64v82c-1 20 7 32 28 27v20c-31 9-61-2-59-35zM48-53c0 20 12 33 32 33 41-3 63-29 60-74-43 2-92-5-92 41" id="C"/><path d="M96-169c-40 0-48 33-48 73s9 75 48 75c24 0 41-14 43-38l32 2c-6 37-31 61-74 61-59 0-76-41-82-99-10-93 101-131 147-64 4 7 5 14 7 22l-32 3c-4-21-16-35-41-35" id="D"/><path d="M106-169C34-169 62-67 57 0H25v-261h32l-1 103c12-21 28-36 61-36 89 0 53 116 60 194h-32v-121c2-32-8-49-39-48" id="E"/><path d="M30-248c87 1 191-15 191 75 0 78-77 80-158 76V0H30v-248zm33 125c57 0 124 11 124-50 0-59-68-47-124-48v98" id="F"/><path d="M100-194c62-1 85 37 85 99 1 63-27 99-86 99S16-35 15-95c0-66 28-99 85-99zM99-20c44 1 53-31 53-75 0-43-8-75-51-75s-53 32-53 75 10 74 51 75" id="G"/><path d="M24-231v-30h32v30H24zM-9 49c24 4 33-6 33-30v-209h32V24c2 40-23 58-65 49V49" id="H"/><g id="d"><use transform="matrix(0.05,0,0,0.05,0,0)" xlink:href="#w"/><use transform="matrix(0.05,0,0,0.05,12.950000000000001,0)" xlink:href="#s"/><use transform="matrix(0.05,0,0,0.05,22.950000000000003,0)" xlink:href="#B"/><use transform="matrix(0.05,0,0,0.05,31.950000000000003,0)" xlink:href="#s"/><use transform="matrix(0.05,0,0,0.05,41.95,0)" xlink:href="#C"/><use transform="matrix(0.05,0,0,0.05,51.95,0)" xlink:href="#z"/><use transform="matrix(0.05,0,0,0.05,57.900000000000006,0)" xlink:href="#D"/><use transform="matrix(0.05,0,0,0.05,66.9,0)" xlink:href="#E"/><use transform="matrix(0.05,0,0,0.05,76.9,0)" xlink:href="#F"/><use transform="matrix(0.05,0,0,0.05,88.9,0)" xlink:href="#z"/><use transform="matrix(0.05,0,0,0.05,94.85000000000001,0)" xlink:href="#G"/><use transform="matrix(0.05,0,0,0.05,104.85000000000001,0)" xlink:href="#H"/><use transform="matrix(0.05,0,0,0.05,108.80000000000001,0)" xlink:href="#s"/><use transform="matrix(0.05,0,0,0.05,118.80000000000001,0)" xlink:href="#D"/><use transform="matrix(0.05,0,0,0.05,127.80000000000001,0)" xlink:href="#u"/></g><path d="M185-189c-5-48-123-54-124 2 14 75 158 14 163 119 3 78-121 87-175 55-17-10-28-26-33-46l33-7c5 56 141 63 141-1 0-78-155-14-162-118-5-82 145-84 179-34 5 7 8 16 11 25" id="I"/><path d="M108 0H70L1-190h34L89-25l56-165h34" id="J"/><path d="M24-231v-30h32v30H24zM24 0v-190h32V0H24" id="K"/><g id="e"><use transform="matrix(0.05,0,0,0.05,0,0)" xlink:href="#I"/><use transform="matrix(0.05,0,0,0.05,12,0)" xlink:href="#s"/><use transform="matrix(0.05,0,0,0.05,22,0)" xlink:href="#z"/><use transform="matrix(0.05,0,0,0.05,27.950000000000003,0)" xlink:href="#J"/><use transform="matrix(0.05,0,0,0.05,36.95,0)" xlink:href="#K"/><use transform="matrix(0.05,0,0,0.05,40.900000000000006,0)" xlink:href="#D"/><use transform="matrix(0.05,0,0,0.05,49.900000000000006,0)" xlink:href="#s"/></g><path d="M140-251c81 0 123 46 123 126C263-46 219 4 140 4 59 4 17-45 17-125s42-126 123-126zm0 227c63 0 89-41 89-101s-29-99-89-99c-61 0-89 39-89 99S79-25 140-24" id="L"/><path d="M177-190C167-65 218 103 67 71c-23-6-38-20-44-43l32-5c15 47 100 32 89-28v-30C133-14 115 1 83 1 29 1 15-40 15-95c0-56 16-97 71-98 29-1 48 16 59 35 1-10 0-23 2-32h30zM94-22c36 0 50-32 50-73 0-42-14-75-50-75-39 0-46 34-46 75s6 73 46 73" id="M"/><path d="M117-194c89-4 53 116 60 194h-32v-121c0-31-8-49-39-48C34-167 62-67 57 0H25l-1-190h30c1 10-1 24 2 32 11-22 29-35 61-36" id="N"/><path d="M9 0v-24l116-142H16v-24h144v24L44-24h123V0H9" id="O"/><g id="f"><use transform="matrix(0.05,0,0,0.05,0,0)" xlink:href="#L"/><use transform="matrix(0.05,0,0,0.05,14,0)" xlink:href="#z"/><use transform="matrix(0.05,0,0,0.05,19.95,0)" xlink:href="#M"/><use transform="matrix(0.05,0,0,0.05,29.950000000000003,0)" xlink:href="#C"/><use transform="matrix(0.05,0,0,0.05,39.95,0)" xlink:href="#N"/><use transform="matrix(0.05,0,0,0.05,49.95,0)" xlink:href="#K"/><use transform="matrix(0.05,0,0,0.05,53.900000000000006,0)" xlink:href="#O"/><use transform="matrix(0.05,0,0,0.05,62.900000000000006,0)" xlink:href="#C"/><use transform="matrix(0.05,0,0,0.05,72.9,0)" xlink:href="#u"/><use transform="matrix(0.05,0,0,0.05,77.9,0)" xlink:href="#K"/><use transform="matrix(0.05,0,0,0.05,81.85000000000001,0)" xlink:href="#G"/><use transform="matrix(0.05,0,0,0.05,91.85000000000001,0)" xlink:href="#N"/></g><path d="M101-234c-31-9-42 10-38 44h38v23H63V0H32v-167H5v-23h27c-7-52 17-82 69-68v24" id="P"/><path d="M85-194c31 0 48 13 60 33l-1-100h32l1 261h-30c-2-10 0-23-3-31C134-8 116 4 85 4 32 4 16-35 15-94c0-66 23-100 70-100zm9 24c-40 0-46 34-46 75 0 40 6 74 45 74 42 0 51-32 51-76 0-42-9-74-50-73" id="Q"/><g id="g"><use transform="matrix(0.05,0,0,0.05,0,0)" xlink:href="#P"/><use transform="matrix(0.05,0,0,0.05,5,0)" xlink:href="#y"/><use transform="matrix(0.05,0,0,0.05,15,0)" xlink:href="#N"/><use transform="matrix(0.05,0,0,0.05,25,0)" xlink:href="#Q"/><use transform="matrix(0.05,0,0,0.05,35,0)" xlink:href="#s"/><use transform="matrix(0.05,0,0,0.05,45,0)" xlink:href="#z"/></g><path d="M190 0L58-211 59 0H30v-248h39L202-35l-2-213h31V0h-41" id="R"/><path d="M210-169c-67 3-38 105-44 169h-31v-121c0-29-5-50-35-48C34-165 62-65 56 0H25l-1-190h30c1 10-1 24 2 32 10-44 99-50 107 0 11-21 27-35 58-36 85-2 47 119 55 194h-31v-121c0-29-5-49-35-48" id="S"/><path d="M68-38c1 34 0 65-14 84H32c9-13 17-26 17-46H33v-38h35" id="T"/><g id="h"><use transform="matrix(0.05,0,0,0.05,0,0)" xlink:href="#A"/><use transform="matrix(0.05,0,0,0.05,3.95,0)" xlink:href="#s"/><use transform="matrix(0.05,0,0,0.05,13.949999999999998,0)" xlink:href="#M"/><use transform="matrix(0.05,0,0,0.05,23.95,0)" xlink:href="#C"/><use transform="matrix(0.05,0,0,0.05,33.95,0)" xlink:href="#A"/><use transform="matrix(0.05,0,0,0.05,37.900000000000006,0)" xlink:href="#R"/><use transform="matrix(0.05,0,0,0.05,50.85000000000001,0)" xlink:href="#C"/><use transform="matrix(0.05,0,0,0.05,60.85,0)" xlink:href="#S"/><use transform="matrix(0.05,0,0,0.05,75.80000000000001,0)" xlink:href="#s"/><use transform="matrix(0.05,0,0,0.05,85.80000000000001,0)" xlink:href="#T"/></g><g id="i"><use transform="matrix(0.05,0,0,0.05,0,0)" xlink:href="#C"/><use transform="matrix(0.05,0,0,0.05,10,0)" xlink:href="#A"/><use transform="matrix(0.05,0,0,0.05,13.949999999999998,0)" xlink:href="#u"/><use transform="matrix(0.05,0,0,0.05,18.95,0)" xlink:href="#s"/><use transform="matrix(0.05,0,0,0.05,28.950000000000003,0)" xlink:href="#z"/><use transform="matrix(0.05,0,0,0.05,34.9,0)" xlink:href="#N"/><use transform="matrix(0.05,0,0,0.05,44.9,0)" xlink:href="#C"/><use transform="matrix(0.05,0,0,0.05,54.900000000000006,0)" xlink:href="#u"/><use transform="matrix(0.05,0,0,0.05,59.900000000000006,0)" xlink:href="#s"/><use transform="matrix(0.05,0,0,0.05,69.9,0)" xlink:href="#R"/><use transform="matrix(0.05,0,0,0.05,82.85000000000001,0)" xlink:href="#C"/><use transform="matrix(0.05,0,0,0.05,92.85000000000001,0)" xlink:href="#S"/><use transform="matrix(0.05,0,0,0.05,107.80000000000001,0)" xlink:href="#s"/></g><path d="M115-194c55 1 70 41 70 98S169 2 115 4C84 4 66-9 55-30l1 105H24l-1-265h31l2 30c10-21 28-34 59-34zm-8 174c40 0 45-34 45-75s-6-73-45-74c-42 0-51 32-51 76 0 43 10 73 51 73" id="U"/><path d="M179-190L93 31C79 59 56 82 12 73V49c39 6 53-20 64-50L1-190h34L92-34l54-156h33" id="V"/><path d="M137 0h-34L2-248h35l83 218 83-218h36" id="W"/><g id="j"><use transform="matrix(0.05,0,0,0.05,0,0)" xlink:href="#F"/><use transform="matrix(0.05,0,0,0.05,12,0)" xlink:href="#z"/><use transform="matrix(0.05,0,0,0.05,17.95,0)" xlink:href="#G"/><use transform="matrix(0.05,0,0,0.05,27.950000000000003,0)" xlink:href="#U"/><use transform="matrix(0.05,0,0,0.05,37.95,0)" xlink:href="#s"/><use transform="matrix(0.05,0,0,0.05,47.95,0)" xlink:href="#z"/><use transform="matrix(0.05,0,0,0.05,53.900000000000006,0)" xlink:href="#u"/><use transform="matrix(0.05,0,0,0.05,58.900000000000006,0)" xlink:href="#V"/><use transform="matrix(0.05,0,0,0.05,67.9,0)" xlink:href="#W"/><use transform="matrix(0.05,0,0,0.05,78.55000000000001,0)" xlink:href="#C"/><use transform="matrix(0.05,0,0,0.05,88.55000000000001,0)" xlink:href="#A"/><use transform="matrix(0.05,0,0,0.05,92.50000000000001,0)" xlink:href="#y"/><use transform="matrix(0.05,0,0,0.05,102.5,0)" xlink:href="#s"/></g><path d="M50-231l6-30h32l-6 30H50zM6 0l37-190h31L37 0H6" id="X"/><path d="M133-28C103 26-5 8 13-77c13-62 24-115 90-117 29-1 46 15 56 35l19-102h32L160 0h-30zM45-64c-2 27 10 43 35 43 54-1 69-50 69-103 0-29-15-46-42-46-53-1-58 58-62 106" id="Y"/><path d="M111-194c62-3 86 47 72 106H45c-7 38 6 69 45 68 27-1 43-14 53-32l24 11C152-15 129 4 87 4 38 3 12-23 12-71c0-70 32-119 99-123zm44 81c14-66-71-72-95-28-4 8-8 17-11 28h106" id="Z"/><path d="M67-158c22-48 132-52 116 29L158 0h-32l25-140c3-38-53-32-70-12C52-117 51-52 38 0H6l36-190h30" id="aa"/><path d="M51-54c-9 22 5 41 31 30L79-1C43 14 10-4 19-52l22-115H19l5-23h22l19-43h21l-9 43h35l-4 23H73" id="ab"/><path d="M76-167L44 0H12l33-167H18l4-23h27c3-47 25-81 82-69l-4 24c-35-8-44 15-46 45h37l-5 23H76" id="ac"/><path d="M66-151c12-25 30-51 66-40l-6 26C45-176 58-65 38 0H6l36-190h30" id="ad"/><g id="k"><use transform="matrix(0.05,0,0,0.05,0,0)" xlink:href="#X"/><use transform="matrix(0.05,0,0,0.05,3.95,0)" xlink:href="#Y"/><use transform="matrix(0.05,0,0,0.05,13.949999999999998,0)" xlink:href="#Z"/><use transform="matrix(0.05,0,0,0.05,23.95,0)" xlink:href="#aa"/><use transform="matrix(0.05,0,0,0.05,33.95,0)" xlink:href="#ab"/><use transform="matrix(0.05,0,0,0.05,38.95,0)" xlink:href="#X"/><use transform="matrix(0.05,0,0,0.05,42.900000000000006,0)" xlink:href="#ac"/><use transform="matrix(0.05,0,0,0.05,47.900000000000006,0)" xlink:href="#X"/><use transform="matrix(0.05,0,0,0.05,51.85,0)" xlink:href="#Z"/><use transform="matrix(0.05,0,0,0.05,61.85,0)" xlink:href="#ad"/></g><g id="l"><use transform="matrix(0.05,0,0,0.05,0,0)" xlink:href="#v"/><use transform="matrix(0.05,0,0,0.05,12.950000000000001,0)" xlink:href="#w"/><use transform="matrix(0.05,0,0,0.05,25.900000000000002,0)" xlink:href="#x"/></g><path d="M109-170H84l-4-78h32zm-65 0H19l-4-78h33" id="ae"/><path d="M33-154v-36h34v36H33zM33 0v-36h34V0H33" id="af"/><path d="M0 4l72-265h28L28 4H0" id="ag"/><path d="M33 0v-38h34V0H33" id="ah"/><g id="m"><use transform="matrix(0.05,0,0,0.05,0,0)" xlink:href="#ae"/><use transform="matrix(0.05,0,0,0.05,6.3500000000000005,0)" xlink:href="#E"/><use transform="matrix(0.05,0,0,0.05,16.35,0)" xlink:href="#u"/><use transform="matrix(0.05,0,0,0.05,21.35,0)" xlink:href="#u"/><use transform="matrix(0.05,0,0,0.05,26.35,0)" xlink:href="#U"/><use transform="matrix(0.05,0,0,0.05,36.35,0)" xlink:href="#B"/><use transform="matrix(0.05,0,0,0.05,45.35,0)" xlink:href="#af"/><use transform="matrix(0.05,0,0,0.05,50.35,0)" xlink:href="#ag"/><use transform="matrix(0.05,0,0,0.05,55.35,0)" xlink:href="#ag"/><use transform="matrix(0.05,0,0,0.05,60.35,0)" xlink:href="#z"/><use transform="matrix(0.05,0,0,0.05,66.3,0)" xlink:href="#s"/><use transform="matrix(0.05,0,0,0.05,76.3,0)" xlink:href="#M"/><use transform="matrix(0.05,0,0,0.05,86.3,0)" xlink:href="#K"/><use transform="matrix(0.05,0,0,0.05,90.25,0)" xlink:href="#B"/><use transform="matrix(0.05,0,0,0.05,99.25,0)" xlink:href="#u"/><use transform="matrix(0.05,0,0,0.05,104.25,0)" xlink:href="#z"/><use transform="matrix(0.05,0,0,0.05,110.2,0)" xlink:href="#V"/><use transform="matrix(0.05,0,0,0.05,117.85000000000001,0)" xlink:href="#ah"/><use transform="matrix(0.05,0,0,0.05,122.85000000000001,0)" xlink:href="#K"/><use transform="matrix(0.05,0,0,0.05,126.80000000000001,0)" xlink:href="#Q"/><use transform="matrix(0.05,0,0,0.05,136.8,0)" xlink:href="#s"/><use transform="matrix(0.05,0,0,0.05,146.8,0)" xlink:href="#N"/><use transform="matrix(0.05,0,0,0.05,156.8,0)" xlink:href="#u"/><use transform="matrix(0.05,0,0,0.05,161.8,0)" xlink:href="#K"/><use transform="matrix(0.05,0,0,0.05,165.75,0)" xlink:href="#P"/><use transform="matrix(0.05,0,0,0.05,170.75,0)" xlink:href="#K"/><use transform="matrix(0.05,0,0,0.05,174.7,0)" xlink:href="#s"/><use transform="matrix(0.05,0,0,0.05,184.7,0)" xlink:href="#z"/><use transform="matrix(0.05,0,0,0.05,190.64999999999998,0)" xlink:href="#B"/><use transform="matrix(0.05,0,0,0.05,199.64999999999998,0)" xlink:href="#ah"/><use transform="matrix(0.05,0,0,0.05,204.64999999999998,0)" xlink:href="#G"/><use transform="matrix(0.05,0,0,0.05,214.64999999999998,0)" xlink:href="#z"/><use transform="matrix(0.05,0,0,0.05,220.59999999999997,0)" xlink:href="#M"/><use transform="matrix(0.05,0,0,0.05,230.59999999999997,0)" xlink:href="#ag"/><use transform="matrix(0.05,0,0,0.05,235.59999999999997,0)" xlink:href="#z"/><use transform="matrix(0.05,0,0,0.05,241.54999999999995,0)" xlink:href="#s"/><use transform="matrix(0.05,0,0,0.05,251.54999999999995,0)" xlink:href="#M"/><use transform="matrix(0.05,0,0,0.05,261.54999999999995,0)" xlink:href="#K"/><use transform="matrix(0.05,0,0,0.05,265.49999999999994,0)" xlink:href="#B"/><use transform="matrix(0.05,0,0,0.05,274.49999999999994,0)" xlink:href="#u"/><use transform="matrix(0.05,0,0,0.05,279.49999999999994,0)" xlink:href="#z"/><use transform="matrix(0.05,0,0,0.05,285.44999999999993,0)" xlink:href="#V"/><use transform="matrix(0.05,0,0,0.05,294.44999999999993,0)" xlink:href="#ag"/><use transform="matrix(0.05,0,0,0.05,299.44999999999993,0)" xlink:href="#Q"/><use transform="matrix(0.05,0,0,0.05,309.44999999999993,0)" xlink:href="#G"/><use transform="matrix(0.05,0,0,0.05,319.44999999999993,0)" xlink:href="#K"/><use transform="matrix(0.05,0,0,0.05,323.3999999999999,0)" xlink:href="#ae"/></g><g id="n"><use transform="matrix(0.05,0,0,0.05,0,0)" xlink:href="#r"/><use transform="matrix(0.05,0,0,0.05,8.950000000000001,0)" xlink:href="#s"/><use transform="matrix(0.05,0,0,0.05,18.950000000000003,0)" xlink:href="#t"/><use transform="matrix(0.05,0,0,0.05,27.950000000000003,0)" xlink:href="#u"/></g><path d="M33 0v-248h34V0H33" id="ai"/><path d="M30-248c118-7 216 8 213 122C240-48 200 0 122 0H30v-248zM63-27c89 8 146-16 146-99s-60-101-146-95v194" id="aj"/><g id="o"><use transform="matrix(0.05,0,0,0.05,0,0)" xlink:href="#U"/><use transform="matrix(0.05,0,0,0.05,10,0)" xlink:href="#z"/><use transform="matrix(0.05,0,0,0.05,15.949999999999998,0)" xlink:href="#G"/><use transform="matrix(0.05,0,0,0.05,25.950000000000003,0)" xlink:href="#U"/><use transform="matrix(0.05,0,0,0.05,35.95,0)" xlink:href="#s"/><use transform="matrix(0.05,0,0,0.05,45.95,0)" xlink:href="#z"/><use transform="matrix(0.05,0,0,0.05,51.900000000000006,0)" xlink:href="#u"/><use transform="matrix(0.05,0,0,0.05,56.900000000000006,0)" xlink:href="#V"/><use transform="matrix(0.05,0,0,0.05,65.9,0)" xlink:href="#ai"/><use transform="matrix(0.05,0,0,0.05,70.9,0)" xlink:href="#aj"/></g><g id="p"><use transform="matrix(0.05,0,0,0.05,0,0)" xlink:href="#y"/><use transform="matrix(0.05,0,0,0.05,10,0)" xlink:href="#z"/><use transform="matrix(0.05,0,0,0.05,15.949999999999998,0)" xlink:href="#A"/></g><g id="q"><use transform="matrix(0.05,0,0,0.05,0,0)" xlink:href="#J"/><use transform="matrix(0.05,0,0,0.05,9,0)" xlink:href="#C"/><use transform="matrix(0.05,0,0,0.05,19,0)" xlink:href="#A"/><use transform="matrix(0.05,0,0,0.05,22.95,0)" xlink:href="#y"/><use transform="matrix(0.05,0,0,0.05,32.95,0)" xlink:href="#s"/></g></defs></g></svg>